G04 #@! TF.GenerationSoftware,KiCad,Pcbnew,5.0.1-33cea8e~68~ubuntu18.04.1*
G04 #@! TF.CreationDate,2018-11-05T06:29:50-06:00*
G04 #@! TF.ProjectId,raven-prototypes,726176656E2D70726F746F7479706573,rev?*
G04 #@! TF.SameCoordinates,Original*
G04 #@! TF.FileFunction,Copper,L1,Top,Signal*
G04 #@! TF.FilePolarity,Positive*
%FSLAX46Y46*%
G04 Gerber Fmt 4.6, Leading zero omitted, Abs format (unit mm)*
G04 Created by KiCad (PCBNEW 5.0.1-33cea8e~68~ubuntu18.04.1) date Mon 05 Nov 2018 06:29:50 AM CST*
%MOMM*%
%LPD*%
G01*
G04 APERTURE LIST*
G04 #@! TA.AperFunction,ComponentPad*
%ADD10R,1.600000X1.600000*%
G04 #@! TD*
G04 #@! TA.AperFunction,ComponentPad*
%ADD11O,1.600000X1.600000*%
G04 #@! TD*
G04 #@! TA.AperFunction,SMDPad,CuDef*
%ADD12R,1.600000X2.000000*%
G04 #@! TD*
G04 #@! TA.AperFunction,SMDPad,CuDef*
%ADD13R,2.000000X1.600000*%
G04 #@! TD*
G04 #@! TA.AperFunction,ComponentPad*
%ADD14O,1.500000X0.900000*%
G04 #@! TD*
G04 #@! TA.AperFunction,ComponentPad*
%ADD15R,1.500000X0.900000*%
G04 #@! TD*
G04 #@! TA.AperFunction,ComponentPad*
%ADD16R,1.700000X1.700000*%
G04 #@! TD*
G04 #@! TA.AperFunction,ComponentPad*
%ADD17O,1.700000X1.700000*%
G04 #@! TD*
G04 #@! TA.AperFunction,ComponentPad*
%ADD18C,2.286000*%
G04 #@! TD*
G04 #@! TA.AperFunction,ComponentPad*
%ADD19C,1.600000*%
G04 #@! TD*
G04 #@! TA.AperFunction,ViaPad*
%ADD20C,0.800000*%
G04 #@! TD*
G04 #@! TA.AperFunction,Conductor*
%ADD21C,0.100000*%
G04 #@! TD*
G04 APERTURE END LIST*
D10*
G04 #@! TO.P,U3,1*
G04 #@! TO.N,A19*
X163000000Y-52000000D03*
D11*
G04 #@! TO.P,U3,17*
G04 #@! TO.N,D3*
X178240000Y-90100000D03*
G04 #@! TO.P,U3,2*
G04 #@! TO.N,A17*
X163000000Y-54540000D03*
G04 #@! TO.P,U3,18*
G04 #@! TO.N,D4*
X178240000Y-87560000D03*
G04 #@! TO.P,U3,3*
G04 #@! TO.N,A15*
X163000000Y-57080000D03*
G04 #@! TO.P,U3,19*
G04 #@! TO.N,D5*
X178240000Y-85020000D03*
G04 #@! TO.P,U3,4*
G04 #@! TO.N,A13*
X163000000Y-59620000D03*
G04 #@! TO.P,U3,20*
G04 #@! TO.N,D6*
X178240000Y-82480000D03*
G04 #@! TO.P,U3,5*
G04 #@! TO.N,A8*
X163000000Y-62160000D03*
G04 #@! TO.P,U3,21*
G04 #@! TO.N,D7*
X178240000Y-79940000D03*
G04 #@! TO.P,U3,6*
G04 #@! TO.N,A7*
X163000000Y-64700000D03*
G04 #@! TO.P,U3,22*
G04 #@! TO.N,RAM_LDS*
X178240000Y-77400000D03*
G04 #@! TO.P,U3,7*
G04 #@! TO.N,A6*
X163000000Y-67240000D03*
G04 #@! TO.P,U3,23*
G04 #@! TO.N,A11*
X178240000Y-74860000D03*
G04 #@! TO.P,U3,8*
G04 #@! TO.N,A5*
X163000000Y-69780000D03*
G04 #@! TO.P,U3,24*
G04 #@! TO.N,OE*
X178240000Y-72320000D03*
G04 #@! TO.P,U3,9*
G04 #@! TO.N,A4*
X163000000Y-72320000D03*
G04 #@! TO.P,U3,25*
G04 #@! TO.N,A12*
X178240000Y-69780000D03*
G04 #@! TO.P,U3,10*
G04 #@! TO.N,A3*
X163000000Y-74860000D03*
G04 #@! TO.P,U3,26*
G04 #@! TO.N,A10*
X178240000Y-67240000D03*
G04 #@! TO.P,U3,11*
G04 #@! TO.N,A2*
X163000000Y-77400000D03*
G04 #@! TO.P,U3,27*
G04 #@! TO.N,A9*
X178240000Y-64700000D03*
G04 #@! TO.P,U3,12*
G04 #@! TO.N,A1*
X163000000Y-79940000D03*
G04 #@! TO.P,U3,28*
G04 #@! TO.N,A14*
X178240000Y-62160000D03*
G04 #@! TO.P,U3,13*
G04 #@! TO.N,D0*
X163000000Y-82480000D03*
G04 #@! TO.P,U3,29*
G04 #@! TO.N,RW*
X178240000Y-59620000D03*
G04 #@! TO.P,U3,14*
G04 #@! TO.N,D1*
X163000000Y-85020000D03*
G04 #@! TO.P,U3,30*
G04 #@! TO.N,A18*
X178240000Y-57080000D03*
G04 #@! TO.P,U3,15*
G04 #@! TO.N,D2*
X163000000Y-87560000D03*
G04 #@! TO.P,U3,31*
G04 #@! TO.N,A16*
X178240000Y-54540000D03*
G04 #@! TO.P,U3,16*
G04 #@! TO.N,GND*
X163000000Y-90100000D03*
G04 #@! TO.P,U3,32*
G04 #@! TO.N,+5V*
X178240000Y-52000000D03*
G04 #@! TD*
D12*
G04 #@! TO.P,C11,1*
G04 #@! TO.N,+5V*
X148021000Y-128294000D03*
G04 #@! TO.P,C11,2*
G04 #@! TO.N,GND*
X148021000Y-132294000D03*
G04 #@! TD*
D10*
G04 #@! TO.P,U2,1*
G04 #@! TO.N,DUART_IRQ*
X144208000Y-121633000D03*
D11*
G04 #@! TO.P,U2,9*
G04 #@! TO.N,/IPL0*
X151828000Y-139413000D03*
G04 #@! TO.P,U2,2*
G04 #@! TO.N,Net-(U2-Pad2)*
X144208000Y-124173000D03*
G04 #@! TO.P,U2,10*
G04 #@! TO.N,GND*
X151828000Y-136873000D03*
G04 #@! TO.P,U2,3*
G04 #@! TO.N,Net-(U2-Pad3)*
X144208000Y-126713000D03*
G04 #@! TO.P,U2,11*
G04 #@! TO.N,Net-(U2-Pad11)*
X151828000Y-134333000D03*
G04 #@! TO.P,U2,4*
G04 #@! TO.N,Net-(U2-Pad4)*
X144208000Y-129253000D03*
G04 #@! TO.P,U2,12*
G04 #@! TO.N,Net-(U2-Pad12)*
X151828000Y-131793000D03*
G04 #@! TO.P,U2,5*
G04 #@! TO.N,GND*
X144208000Y-131793000D03*
G04 #@! TO.P,U2,13*
G04 #@! TO.N,Net-(U2-Pad13)*
X151828000Y-129253000D03*
G04 #@! TO.P,U2,6*
G04 #@! TO.N,/IPL2*
X144208000Y-134333000D03*
G04 #@! TO.P,U2,14*
G04 #@! TO.N,Net-(U2-Pad14)*
X151828000Y-126713000D03*
G04 #@! TO.P,U2,7*
G04 #@! TO.N,/IPL1*
X144208000Y-136873000D03*
G04 #@! TO.P,U2,15*
G04 #@! TO.N,Net-(U2-Pad15)*
X151828000Y-124173000D03*
G04 #@! TO.P,U2,8*
G04 #@! TO.N,GND*
X144208000Y-139413000D03*
G04 #@! TO.P,U2,16*
G04 #@! TO.N,+5V*
X151828000Y-121633000D03*
G04 #@! TD*
D12*
G04 #@! TO.P,C2,1*
G04 #@! TO.N,+5V*
X131003000Y-96414300D03*
G04 #@! TO.P,C2,2*
G04 #@! TO.N,GND*
X131003000Y-92414300D03*
G04 #@! TD*
G04 #@! TO.P,C1,1*
G04 #@! TO.N,+5V*
X116891000Y-94205000D03*
G04 #@! TO.P,C1,2*
G04 #@! TO.N,GND*
X116891000Y-98205000D03*
G04 #@! TD*
G04 #@! TO.P,C3,1*
G04 #@! TO.N,+5V*
X196713000Y-71812400D03*
G04 #@! TO.P,C3,2*
G04 #@! TO.N,GND*
X196713000Y-75812400D03*
G04 #@! TD*
G04 #@! TO.P,C4,1*
G04 #@! TO.N,+5V*
X148110000Y-79153000D03*
G04 #@! TO.P,C4,2*
G04 #@! TO.N,GND*
X148110000Y-83153000D03*
G04 #@! TD*
G04 #@! TO.P,C5,1*
G04 #@! TO.N,+5V*
X170063000Y-69099700D03*
G04 #@! TO.P,C5,2*
G04 #@! TO.N,GND*
X170063000Y-73099700D03*
G04 #@! TD*
G04 #@! TO.P,C6,1*
G04 #@! TO.N,+5V*
X170490000Y-117880000D03*
G04 #@! TO.P,C6,2*
G04 #@! TO.N,GND*
X170490000Y-121880000D03*
G04 #@! TD*
G04 #@! TO.P,C7,1*
G04 #@! TO.N,+5V*
X196474000Y-119879000D03*
G04 #@! TO.P,C7,2*
G04 #@! TO.N,GND*
X196474000Y-123879000D03*
G04 #@! TD*
G04 #@! TO.P,C8,1*
G04 #@! TO.N,+5V*
X219870000Y-128695000D03*
G04 #@! TO.P,C8,2*
G04 #@! TO.N,GND*
X219870000Y-132695000D03*
G04 #@! TD*
G04 #@! TO.P,C9,1*
G04 #@! TO.N,+5V*
X73139300Y-129526000D03*
G04 #@! TO.P,C9,2*
G04 #@! TO.N,GND*
X73139300Y-125526000D03*
G04 #@! TD*
G04 #@! TO.P,C10,1*
G04 #@! TO.N,+5V*
X148011000Y-104495000D03*
G04 #@! TO.P,C10,2*
G04 #@! TO.N,GND*
X148011000Y-108495000D03*
G04 #@! TD*
G04 #@! TO.P,C12,1*
G04 #@! TO.N,+5V*
X219641000Y-77298800D03*
G04 #@! TO.P,C12,2*
G04 #@! TO.N,GND*
X219641000Y-81298800D03*
G04 #@! TD*
G04 #@! TO.P,C13,1*
G04 #@! TO.N,+5V*
X73441600Y-97585300D03*
G04 #@! TO.P,C13,2*
G04 #@! TO.N,GND*
X73441600Y-93585300D03*
G04 #@! TD*
G04 #@! TO.P,C14,1*
G04 #@! TO.N,+5V*
X72423300Y-43559400D03*
G04 #@! TO.P,C14,2*
G04 #@! TO.N,GND*
X72423300Y-47559400D03*
G04 #@! TD*
G04 #@! TO.P,C15,1*
G04 #@! TO.N,+5V*
X147481000Y-55474800D03*
G04 #@! TO.P,C15,2*
G04 #@! TO.N,GND*
X147481000Y-59474800D03*
G04 #@! TD*
G04 #@! TO.P,C16,1*
G04 #@! TO.N,+5V*
X219753000Y-103184000D03*
G04 #@! TO.P,C16,2*
G04 #@! TO.N,GND*
X219753000Y-107184000D03*
G04 #@! TD*
G04 #@! TO.P,C17,1*
G04 #@! TO.N,+5V*
X72644000Y-66465700D03*
G04 #@! TO.P,C17,2*
G04 #@! TO.N,GND*
X72644000Y-70465700D03*
G04 #@! TD*
G04 #@! TO.P,C18,1*
G04 #@! TO.N,+5V*
X93969800Y-111840000D03*
G04 #@! TO.P,C18,2*
G04 #@! TO.N,GND*
X93969800Y-115840000D03*
G04 #@! TD*
D13*
G04 #@! TO.P,C19,1*
G04 #@! TO.N,+5V*
X96076500Y-78026300D03*
G04 #@! TO.P,C19,2*
G04 #@! TO.N,GND*
X92076500Y-78026300D03*
G04 #@! TD*
G04 #@! TO.P,C20,1*
G04 #@! TO.N,+5V*
X95469500Y-56883300D03*
G04 #@! TO.P,C20,2*
G04 #@! TO.N,GND*
X91469500Y-56883300D03*
G04 #@! TD*
D10*
G04 #@! TO.P,U11,1*
G04 #@! TO.N,A20*
X68779200Y-37930300D03*
D11*
G04 #@! TO.P,U11,8*
G04 #@! TO.N,Net-(U11-Pad8)*
X76399200Y-53170300D03*
G04 #@! TO.P,U11,2*
G04 #@! TO.N,A21*
X68779200Y-40470300D03*
G04 #@! TO.P,U11,9*
G04 #@! TO.N,Net-(U11-Pad9)*
X76399200Y-50630300D03*
G04 #@! TO.P,U11,3*
G04 #@! TO.N,N/C*
X68779200Y-43010300D03*
G04 #@! TO.P,U11,10*
G04 #@! TO.N,+5V*
X76399200Y-48090300D03*
G04 #@! TO.P,U11,4*
G04 #@! TO.N,A22*
X68779200Y-45550300D03*
G04 #@! TO.P,U11,11*
G04 #@! TO.N,N/C*
X76399200Y-45550300D03*
G04 #@! TO.P,U11,5*
G04 #@! TO.N,A23*
X68779200Y-48090300D03*
G04 #@! TO.P,U11,12*
G04 #@! TO.N,+5V*
X76399200Y-43010300D03*
G04 #@! TO.P,U11,6*
G04 #@! TO.N,Net-(U11-Pad6)*
X68779200Y-50630300D03*
G04 #@! TO.P,U11,13*
G04 #@! TO.N,A16*
X76399200Y-40470300D03*
G04 #@! TO.P,U11,7*
G04 #@! TO.N,GND*
X68779200Y-53170300D03*
G04 #@! TO.P,U11,14*
G04 #@! TO.N,+5V*
X76399200Y-37930300D03*
G04 #@! TD*
D14*
G04 #@! TO.P,U10,2*
G04 #@! TO.N,+5V*
X94467700Y-40248800D03*
G04 #@! TO.P,U10,3*
G04 #@! TO.N,GND*
X94467700Y-38978800D03*
D15*
G04 #@! TO.P,U10,1*
G04 #@! TO.N,RESET*
X94467700Y-41518800D03*
G04 #@! TD*
D16*
G04 #@! TO.P,J1,1*
G04 #@! TO.N,TxD-A-SERIAL*
X155397000Y-38229500D03*
D17*
G04 #@! TO.P,J1,2*
G04 #@! TO.N,RxD-A-SERIAL*
X157937000Y-38229500D03*
G04 #@! TO.P,J1,3*
G04 #@! TO.N,RTS-A-SERIAL*
X160477000Y-38229500D03*
G04 #@! TO.P,J1,4*
G04 #@! TO.N,CTS-A-SERIAL*
X163017000Y-38229500D03*
G04 #@! TO.P,J1,5*
G04 #@! TO.N,TxD-B-SERIAL*
X165557000Y-38229500D03*
G04 #@! TO.P,J1,6*
G04 #@! TO.N,RxD-B-SERIAL*
X168097000Y-38229500D03*
G04 #@! TO.P,J1,7*
G04 #@! TO.N,RTS-B-SERIAL*
X170637000Y-38229500D03*
G04 #@! TO.P,J1,8*
G04 #@! TO.N,CTS-B-SERIAL*
X173177000Y-38229500D03*
G04 #@! TD*
D16*
G04 #@! TO.P,J2,1*
G04 #@! TO.N,EXT_ROM_CS*
X187546000Y-38615600D03*
D17*
G04 #@! TO.P,J2,2*
G04 #@! TO.N,EXT_RAM_CS*
X190086000Y-38615600D03*
G04 #@! TO.P,J2,3*
G04 #@! TO.N,EXT_DUART_CS*
X192626000Y-38615600D03*
G04 #@! TO.P,J2,4*
G04 #@! TO.N,UDS*
X195166000Y-38615600D03*
G04 #@! TO.P,J2,5*
G04 #@! TO.N,LDS*
X197706000Y-38615600D03*
G04 #@! TO.P,J2,6*
G04 #@! TO.N,Net-(J2-Pad6)*
X200246000Y-38615600D03*
G04 #@! TO.P,J2,7*
G04 #@! TO.N,A16*
X202786000Y-38615600D03*
G04 #@! TO.P,J2,8*
G04 #@! TO.N,A17*
X205326000Y-38615600D03*
G04 #@! TO.P,J2,9*
G04 #@! TO.N,A18*
X207866000Y-38615600D03*
G04 #@! TO.P,J2,10*
G04 #@! TO.N,A19*
X210406000Y-38615600D03*
G04 #@! TO.P,J2,11*
G04 #@! TO.N,A20*
X212946000Y-38615600D03*
G04 #@! TO.P,J2,12*
G04 #@! TO.N,A21*
X215486000Y-38615600D03*
G04 #@! TO.P,J2,13*
G04 #@! TO.N,A22*
X218026000Y-38615600D03*
G04 #@! TO.P,J2,14*
G04 #@! TO.N,A23*
X220566000Y-38615600D03*
G04 #@! TD*
D18*
G04 #@! TO.P,J3,4*
G04 #@! TO.N,+5V*
X116040000Y-45366900D03*
G04 #@! TO.P,J3,3*
G04 #@! TO.N,GND*
X121120000Y-45366900D03*
G04 #@! TO.P,J3,2*
X126200000Y-45366900D03*
G04 #@! TO.P,J3,1*
G04 #@! TO.N,Net-(J3-Pad1)*
X131280000Y-45366900D03*
G04 #@! TD*
D17*
G04 #@! TO.P,JP1,3*
G04 #@! TO.N,EXT_DUART_CS*
X222018000Y-64817700D03*
G04 #@! TO.P,JP1,2*
G04 #@! TO.N,DUART_CS*
X219478000Y-64817700D03*
D16*
G04 #@! TO.P,JP1,1*
G04 #@! TO.N,DUART_CS_JMPR*
X216938000Y-64817700D03*
G04 #@! TD*
D17*
G04 #@! TO.P,JP2,3*
G04 #@! TO.N,EXT_ROM_CS*
X222018000Y-51784400D03*
G04 #@! TO.P,JP2,2*
G04 #@! TO.N,RAM_CS*
X219478000Y-51784400D03*
D16*
G04 #@! TO.P,JP2,1*
G04 #@! TO.N,ROM_CS_JMPR*
X216938000Y-51784400D03*
G04 #@! TD*
G04 #@! TO.P,JP3,1*
G04 #@! TO.N,RAM_CS_JMPR*
X216938000Y-58284400D03*
D17*
G04 #@! TO.P,JP3,2*
G04 #@! TO.N,RAM_CS*
X219478000Y-58284400D03*
G04 #@! TO.P,JP3,3*
G04 #@! TO.N,EXT_RAM_CS*
X222018000Y-58284400D03*
G04 #@! TD*
D10*
G04 #@! TO.P,U1,1*
G04 #@! TO.N,D4*
X112500000Y-60500000D03*
D11*
G04 #@! TO.P,U1,33*
G04 #@! TO.N,A5*
X135360000Y-139240000D03*
G04 #@! TO.P,U1,2*
G04 #@! TO.N,D3*
X112500000Y-63040000D03*
G04 #@! TO.P,U1,34*
G04 #@! TO.N,A6*
X135360000Y-136700000D03*
G04 #@! TO.P,U1,3*
G04 #@! TO.N,D2*
X112500000Y-65580000D03*
G04 #@! TO.P,U1,35*
G04 #@! TO.N,A7*
X135360000Y-134160000D03*
G04 #@! TO.P,U1,4*
G04 #@! TO.N,D1*
X112500000Y-68120000D03*
G04 #@! TO.P,U1,36*
G04 #@! TO.N,A8*
X135360000Y-131620000D03*
G04 #@! TO.P,U1,5*
G04 #@! TO.N,D0*
X112500000Y-70660000D03*
G04 #@! TO.P,U1,37*
G04 #@! TO.N,A9*
X135360000Y-129080000D03*
G04 #@! TO.P,U1,6*
G04 #@! TO.N,AS*
X112500000Y-73200000D03*
G04 #@! TO.P,U1,38*
G04 #@! TO.N,A10*
X135360000Y-126540000D03*
G04 #@! TO.P,U1,7*
G04 #@! TO.N,UDS*
X112500000Y-75740000D03*
G04 #@! TO.P,U1,39*
G04 #@! TO.N,A11*
X135360000Y-124000000D03*
G04 #@! TO.P,U1,8*
G04 #@! TO.N,LDS*
X112500000Y-78280000D03*
G04 #@! TO.P,U1,40*
G04 #@! TO.N,A12*
X135360000Y-121460000D03*
G04 #@! TO.P,U1,9*
G04 #@! TO.N,RW*
X112500000Y-80820000D03*
G04 #@! TO.P,U1,41*
G04 #@! TO.N,A13*
X135360000Y-118920000D03*
G04 #@! TO.P,U1,10*
G04 #@! TO.N,DTACK*
X112500000Y-83360000D03*
G04 #@! TO.P,U1,42*
G04 #@! TO.N,A14*
X135360000Y-116380000D03*
G04 #@! TO.P,U1,11*
G04 #@! TO.N,Net-(U1-Pad11)*
X112500000Y-85900000D03*
G04 #@! TO.P,U1,43*
G04 #@! TO.N,A15*
X135360000Y-113840000D03*
G04 #@! TO.P,U1,12*
G04 #@! TO.N,+5V*
X112500000Y-88440000D03*
G04 #@! TO.P,U1,44*
G04 #@! TO.N,A16*
X135360000Y-111300000D03*
G04 #@! TO.P,U1,13*
G04 #@! TO.N,+5V*
X112500000Y-90980000D03*
G04 #@! TO.P,U1,45*
G04 #@! TO.N,A17*
X135360000Y-108760000D03*
G04 #@! TO.P,U1,14*
G04 #@! TO.N,+5V*
X112500000Y-93520000D03*
G04 #@! TO.P,U1,46*
G04 #@! TO.N,A18*
X135360000Y-106220000D03*
G04 #@! TO.P,U1,15*
G04 #@! TO.N,SYS_CLK*
X112500000Y-96060000D03*
G04 #@! TO.P,U1,47*
G04 #@! TO.N,A19*
X135360000Y-103680000D03*
G04 #@! TO.P,U1,16*
G04 #@! TO.N,GND*
X112500000Y-98600000D03*
G04 #@! TO.P,U1,48*
G04 #@! TO.N,A20*
X135360000Y-101140000D03*
G04 #@! TO.P,U1,17*
G04 #@! TO.N,RESET*
X112500000Y-101140000D03*
G04 #@! TO.P,U1,49*
G04 #@! TO.N,+5V*
X135360000Y-98600000D03*
G04 #@! TO.P,U1,18*
G04 #@! TO.N,RESET*
X112500000Y-103680000D03*
G04 #@! TO.P,U1,50*
G04 #@! TO.N,A21*
X135360000Y-96060000D03*
G04 #@! TO.P,U1,19*
G04 #@! TO.N,Net-(U1-Pad19)*
X112500000Y-106220000D03*
G04 #@! TO.P,U1,51*
G04 #@! TO.N,A22*
X135360000Y-93520000D03*
G04 #@! TO.P,U1,20*
G04 #@! TO.N,Net-(U1-Pad20)*
X112500000Y-108760000D03*
G04 #@! TO.P,U1,52*
G04 #@! TO.N,A23*
X135360000Y-90980000D03*
G04 #@! TO.P,U1,21*
G04 #@! TO.N,+5V*
X112500000Y-111300000D03*
G04 #@! TO.P,U1,53*
G04 #@! TO.N,GND*
X135360000Y-88440000D03*
G04 #@! TO.P,U1,22*
G04 #@! TO.N,+5V*
X112500000Y-113840000D03*
G04 #@! TO.P,U1,54*
G04 #@! TO.N,D15*
X135360000Y-85900000D03*
G04 #@! TO.P,U1,23*
G04 #@! TO.N,/IPL2*
X112500000Y-116380000D03*
G04 #@! TO.P,U1,55*
G04 #@! TO.N,D14*
X135360000Y-83360000D03*
G04 #@! TO.P,U1,24*
G04 #@! TO.N,/IPL1*
X112500000Y-118920000D03*
G04 #@! TO.P,U1,56*
G04 #@! TO.N,D13*
X135360000Y-80820000D03*
G04 #@! TO.P,U1,25*
G04 #@! TO.N,/IPL0*
X112500000Y-121460000D03*
G04 #@! TO.P,U1,57*
G04 #@! TO.N,D12*
X135360000Y-78280000D03*
G04 #@! TO.P,U1,26*
G04 #@! TO.N,/FC2*
X112500000Y-124000000D03*
G04 #@! TO.P,U1,58*
G04 #@! TO.N,D11*
X135360000Y-75740000D03*
G04 #@! TO.P,U1,27*
G04 #@! TO.N,/FC1*
X112500000Y-126540000D03*
G04 #@! TO.P,U1,59*
G04 #@! TO.N,D10*
X135360000Y-73200000D03*
G04 #@! TO.P,U1,28*
G04 #@! TO.N,/FC0*
X112500000Y-129080000D03*
G04 #@! TO.P,U1,60*
G04 #@! TO.N,D9*
X135360000Y-70660000D03*
G04 #@! TO.P,U1,29*
G04 #@! TO.N,A1*
X112500000Y-131620000D03*
G04 #@! TO.P,U1,61*
G04 #@! TO.N,D8*
X135360000Y-68120000D03*
G04 #@! TO.P,U1,30*
G04 #@! TO.N,A2*
X112500000Y-134160000D03*
G04 #@! TO.P,U1,62*
G04 #@! TO.N,D7*
X135360000Y-65580000D03*
G04 #@! TO.P,U1,31*
G04 #@! TO.N,A3*
X112500000Y-136700000D03*
G04 #@! TO.P,U1,63*
G04 #@! TO.N,D6*
X135360000Y-63040000D03*
G04 #@! TO.P,U1,32*
G04 #@! TO.N,A4*
X112500000Y-139240000D03*
G04 #@! TO.P,U1,64*
G04 #@! TO.N,D5*
X135360000Y-60500000D03*
G04 #@! TD*
G04 #@! TO.P,U4,32*
G04 #@! TO.N,+5V*
X178240000Y-101000000D03*
G04 #@! TO.P,U4,16*
G04 #@! TO.N,GND*
X163000000Y-139100000D03*
G04 #@! TO.P,U4,31*
G04 #@! TO.N,A16*
X178240000Y-103540000D03*
G04 #@! TO.P,U4,15*
G04 #@! TO.N,D10*
X163000000Y-136560000D03*
G04 #@! TO.P,U4,30*
G04 #@! TO.N,A18*
X178240000Y-106080000D03*
G04 #@! TO.P,U4,14*
G04 #@! TO.N,D9*
X163000000Y-134020000D03*
G04 #@! TO.P,U4,29*
G04 #@! TO.N,RW*
X178240000Y-108620000D03*
G04 #@! TO.P,U4,13*
G04 #@! TO.N,D8*
X163000000Y-131480000D03*
G04 #@! TO.P,U4,28*
G04 #@! TO.N,A14*
X178240000Y-111160000D03*
G04 #@! TO.P,U4,12*
G04 #@! TO.N,A1*
X163000000Y-128940000D03*
G04 #@! TO.P,U4,27*
G04 #@! TO.N,A9*
X178240000Y-113700000D03*
G04 #@! TO.P,U4,11*
G04 #@! TO.N,A2*
X163000000Y-126400000D03*
G04 #@! TO.P,U4,26*
G04 #@! TO.N,A10*
X178240000Y-116240000D03*
G04 #@! TO.P,U4,10*
G04 #@! TO.N,A3*
X163000000Y-123860000D03*
G04 #@! TO.P,U4,25*
G04 #@! TO.N,A12*
X178240000Y-118780000D03*
G04 #@! TO.P,U4,9*
G04 #@! TO.N,A4*
X163000000Y-121320000D03*
G04 #@! TO.P,U4,24*
G04 #@! TO.N,OE*
X178240000Y-121320000D03*
G04 #@! TO.P,U4,8*
G04 #@! TO.N,A5*
X163000000Y-118780000D03*
G04 #@! TO.P,U4,23*
G04 #@! TO.N,A11*
X178240000Y-123860000D03*
G04 #@! TO.P,U4,7*
G04 #@! TO.N,A6*
X163000000Y-116240000D03*
G04 #@! TO.P,U4,22*
G04 #@! TO.N,RAM_UDS*
X178240000Y-126400000D03*
G04 #@! TO.P,U4,6*
G04 #@! TO.N,A7*
X163000000Y-113700000D03*
G04 #@! TO.P,U4,21*
G04 #@! TO.N,D15*
X178240000Y-128940000D03*
G04 #@! TO.P,U4,5*
G04 #@! TO.N,A8*
X163000000Y-111160000D03*
G04 #@! TO.P,U4,20*
G04 #@! TO.N,D14*
X178240000Y-131480000D03*
G04 #@! TO.P,U4,4*
G04 #@! TO.N,A13*
X163000000Y-108620000D03*
G04 #@! TO.P,U4,19*
G04 #@! TO.N,D13*
X178240000Y-134020000D03*
G04 #@! TO.P,U4,3*
G04 #@! TO.N,A15*
X163000000Y-106080000D03*
G04 #@! TO.P,U4,18*
G04 #@! TO.N,D12*
X178240000Y-136560000D03*
G04 #@! TO.P,U4,2*
G04 #@! TO.N,A17*
X163000000Y-103540000D03*
G04 #@! TO.P,U4,17*
G04 #@! TO.N,D11*
X178240000Y-139100000D03*
D10*
G04 #@! TO.P,U4,1*
G04 #@! TO.N,A19*
X163000000Y-101000000D03*
G04 #@! TD*
G04 #@! TO.P,U5,1*
G04 #@! TO.N,A15*
X188500000Y-57000000D03*
D11*
G04 #@! TO.P,U5,15*
G04 #@! TO.N,D3*
X203740000Y-90020000D03*
G04 #@! TO.P,U5,2*
G04 #@! TO.N,A13*
X188500000Y-59540000D03*
G04 #@! TO.P,U5,16*
G04 #@! TO.N,D4*
X203740000Y-87480000D03*
G04 #@! TO.P,U5,3*
G04 #@! TO.N,A8*
X188500000Y-62080000D03*
G04 #@! TO.P,U5,17*
G04 #@! TO.N,D5*
X203740000Y-84940000D03*
G04 #@! TO.P,U5,4*
G04 #@! TO.N,A7*
X188500000Y-64620000D03*
G04 #@! TO.P,U5,18*
G04 #@! TO.N,D6*
X203740000Y-82400000D03*
G04 #@! TO.P,U5,5*
G04 #@! TO.N,A6*
X188500000Y-67160000D03*
G04 #@! TO.P,U5,19*
G04 #@! TO.N,D7*
X203740000Y-79860000D03*
G04 #@! TO.P,U5,6*
G04 #@! TO.N,A5*
X188500000Y-69700000D03*
G04 #@! TO.P,U5,20*
G04 #@! TO.N,ROM_LDS*
X203740000Y-77320000D03*
G04 #@! TO.P,U5,7*
G04 #@! TO.N,A4*
X188500000Y-72240000D03*
G04 #@! TO.P,U5,21*
G04 #@! TO.N,A11*
X203740000Y-74780000D03*
G04 #@! TO.P,U5,8*
G04 #@! TO.N,A3*
X188500000Y-74780000D03*
G04 #@! TO.P,U5,22*
G04 #@! TO.N,OE*
X203740000Y-72240000D03*
G04 #@! TO.P,U5,9*
G04 #@! TO.N,A2*
X188500000Y-77320000D03*
G04 #@! TO.P,U5,23*
G04 #@! TO.N,A12*
X203740000Y-69700000D03*
G04 #@! TO.P,U5,10*
G04 #@! TO.N,A1*
X188500000Y-79860000D03*
G04 #@! TO.P,U5,24*
G04 #@! TO.N,A10*
X203740000Y-67160000D03*
G04 #@! TO.P,U5,11*
G04 #@! TO.N,D0*
X188500000Y-82400000D03*
G04 #@! TO.P,U5,25*
G04 #@! TO.N,A9*
X203740000Y-64620000D03*
G04 #@! TO.P,U5,12*
G04 #@! TO.N,D1*
X188500000Y-84940000D03*
G04 #@! TO.P,U5,26*
G04 #@! TO.N,A14*
X203740000Y-62080000D03*
G04 #@! TO.P,U5,13*
G04 #@! TO.N,D2*
X188500000Y-87480000D03*
G04 #@! TO.P,U5,27*
G04 #@! TO.N,RW*
X203740000Y-59540000D03*
G04 #@! TO.P,U5,14*
G04 #@! TO.N,GND*
X188500000Y-90020000D03*
G04 #@! TO.P,U5,28*
G04 #@! TO.N,+5V*
X203740000Y-57000000D03*
G04 #@! TD*
G04 #@! TO.P,U6,28*
G04 #@! TO.N,+5V*
X204240000Y-106000000D03*
G04 #@! TO.P,U6,14*
G04 #@! TO.N,GND*
X189000000Y-139020000D03*
G04 #@! TO.P,U6,27*
G04 #@! TO.N,RW*
X204240000Y-108540000D03*
G04 #@! TO.P,U6,13*
G04 #@! TO.N,D10*
X189000000Y-136480000D03*
G04 #@! TO.P,U6,26*
G04 #@! TO.N,A14*
X204240000Y-111080000D03*
G04 #@! TO.P,U6,12*
G04 #@! TO.N,D9*
X189000000Y-133940000D03*
G04 #@! TO.P,U6,25*
G04 #@! TO.N,A9*
X204240000Y-113620000D03*
G04 #@! TO.P,U6,11*
G04 #@! TO.N,D8*
X189000000Y-131400000D03*
G04 #@! TO.P,U6,24*
G04 #@! TO.N,A10*
X204240000Y-116160000D03*
G04 #@! TO.P,U6,10*
G04 #@! TO.N,A1*
X189000000Y-128860000D03*
G04 #@! TO.P,U6,23*
G04 #@! TO.N,A12*
X204240000Y-118700000D03*
G04 #@! TO.P,U6,9*
G04 #@! TO.N,A2*
X189000000Y-126320000D03*
G04 #@! TO.P,U6,22*
G04 #@! TO.N,OE*
X204240000Y-121240000D03*
G04 #@! TO.P,U6,8*
G04 #@! TO.N,A3*
X189000000Y-123780000D03*
G04 #@! TO.P,U6,21*
G04 #@! TO.N,A11*
X204240000Y-123780000D03*
G04 #@! TO.P,U6,7*
G04 #@! TO.N,A4*
X189000000Y-121240000D03*
G04 #@! TO.P,U6,20*
G04 #@! TO.N,ROM_UDS*
X204240000Y-126320000D03*
G04 #@! TO.P,U6,6*
G04 #@! TO.N,A5*
X189000000Y-118700000D03*
G04 #@! TO.P,U6,19*
G04 #@! TO.N,D15*
X204240000Y-128860000D03*
G04 #@! TO.P,U6,5*
G04 #@! TO.N,A6*
X189000000Y-116160000D03*
G04 #@! TO.P,U6,18*
G04 #@! TO.N,D14*
X204240000Y-131400000D03*
G04 #@! TO.P,U6,4*
G04 #@! TO.N,A7*
X189000000Y-113620000D03*
G04 #@! TO.P,U6,17*
G04 #@! TO.N,D13*
X204240000Y-133940000D03*
G04 #@! TO.P,U6,3*
G04 #@! TO.N,A8*
X189000000Y-111080000D03*
G04 #@! TO.P,U6,16*
G04 #@! TO.N,D12*
X204240000Y-136480000D03*
G04 #@! TO.P,U6,2*
G04 #@! TO.N,A13*
X189000000Y-108540000D03*
G04 #@! TO.P,U6,15*
G04 #@! TO.N,D11*
X204240000Y-139020000D03*
D10*
G04 #@! TO.P,U6,1*
G04 #@! TO.N,A15*
X189000000Y-106000000D03*
G04 #@! TD*
G04 #@! TO.P,U7,1*
G04 #@! TO.N,RW*
X143938000Y-49434600D03*
D11*
G04 #@! TO.P,U7,8*
G04 #@! TO.N,INV_RAM_CS*
X151558000Y-64674600D03*
G04 #@! TO.P,U7,2*
G04 #@! TO.N,OE*
X143938000Y-51974600D03*
G04 #@! TO.P,U7,9*
G04 #@! TO.N,ROM_CS*
X151558000Y-62134600D03*
G04 #@! TO.P,U7,3*
G04 #@! TO.N,Net-(U7-Pad3)*
X143938000Y-54514600D03*
G04 #@! TO.P,U7,10*
G04 #@! TO.N,RAM_CS_JMPR*
X151558000Y-59594600D03*
G04 #@! TO.P,U7,4*
G04 #@! TO.N,DUART_CLK*
X143938000Y-57054600D03*
G04 #@! TO.P,U7,11*
G04 #@! TO.N,Net-(U11-Pad6)*
X151558000Y-57054600D03*
G04 #@! TO.P,U7,5*
G04 #@! TO.N,Net-(U7-Pad5)*
X143938000Y-59594600D03*
G04 #@! TO.P,U7,12*
G04 #@! TO.N,Net-(U11-Pad9)*
X151558000Y-54514600D03*
G04 #@! TO.P,U7,6*
G04 #@! TO.N,SYS_CLK*
X143938000Y-62134600D03*
G04 #@! TO.P,U7,13*
G04 #@! TO.N,ROM_CS*
X151558000Y-51974600D03*
G04 #@! TO.P,U7,7*
G04 #@! TO.N,GND*
X143938000Y-64674600D03*
G04 #@! TO.P,U7,14*
G04 #@! TO.N,+5V*
X151558000Y-49434600D03*
G04 #@! TD*
G04 #@! TO.P,U8,16*
G04 #@! TO.N,+5V*
X151944000Y-72251400D03*
G04 #@! TO.P,U8,8*
G04 #@! TO.N,GND*
X144324000Y-90031400D03*
G04 #@! TO.P,U8,15*
G04 #@! TO.N,Net-(U8-Pad15)*
X151944000Y-74791400D03*
G04 #@! TO.P,U8,7*
G04 #@! TO.N,Net-(U8-Pad7)*
X144324000Y-87491400D03*
G04 #@! TO.P,U8,14*
G04 #@! TO.N,Net-(U8-Pad14)*
X151944000Y-77331400D03*
G04 #@! TO.P,U8,6*
G04 #@! TO.N,+5V*
X144324000Y-84951400D03*
G04 #@! TO.P,U8,13*
G04 #@! TO.N,Net-(U8-Pad13)*
X151944000Y-79871400D03*
G04 #@! TO.P,U8,5*
G04 #@! TO.N,Net-(U8-Pad5)*
X144324000Y-82411400D03*
G04 #@! TO.P,U8,12*
G04 #@! TO.N,Net-(U8-Pad12)*
X151944000Y-82411400D03*
G04 #@! TO.P,U8,4*
G04 #@! TO.N,AS*
X144324000Y-79871400D03*
G04 #@! TO.P,U8,11*
G04 #@! TO.N,DUART_IACK*
X151944000Y-84951400D03*
G04 #@! TO.P,U8,3*
G04 #@! TO.N,A3*
X144324000Y-77331400D03*
G04 #@! TO.P,U8,10*
G04 #@! TO.N,Net-(U8-Pad10)*
X151944000Y-87491400D03*
G04 #@! TO.P,U8,2*
G04 #@! TO.N,A2*
X144324000Y-74791400D03*
G04 #@! TO.P,U8,9*
G04 #@! TO.N,Net-(U8-Pad9)*
X151944000Y-90031400D03*
D10*
G04 #@! TO.P,U8,1*
G04 #@! TO.N,A1*
X144324000Y-72251400D03*
G04 #@! TD*
D11*
G04 #@! TO.P,U9,14*
G04 #@! TO.N,+5V*
X76477800Y-60785100D03*
G04 #@! TO.P,U9,7*
G04 #@! TO.N,GND*
X68857800Y-76025100D03*
G04 #@! TO.P,U9,13*
G04 #@! TO.N,/FC0*
X76477800Y-63325100D03*
G04 #@! TO.P,U9,6*
G04 #@! TO.N,N/C*
X68857800Y-73485100D03*
G04 #@! TO.P,U9,12*
G04 #@! TO.N,Net-(U8-Pad5)*
X76477800Y-65865100D03*
G04 #@! TO.P,U9,5*
G04 #@! TO.N,N/C*
X68857800Y-70945100D03*
G04 #@! TO.P,U9,11*
X76477800Y-68405100D03*
G04 #@! TO.P,U9,4*
X68857800Y-68405100D03*
G04 #@! TO.P,U9,10*
X76477800Y-70945100D03*
G04 #@! TO.P,U9,3*
X68857800Y-65865100D03*
G04 #@! TO.P,U9,9*
X76477800Y-73485100D03*
G04 #@! TO.P,U9,2*
G04 #@! TO.N,/FC1*
X68857800Y-63325100D03*
G04 #@! TO.P,U9,8*
G04 #@! TO.N,N/C*
X76477800Y-76025100D03*
D10*
G04 #@! TO.P,U9,1*
G04 #@! TO.N,/FC2*
X68857800Y-60785100D03*
G04 #@! TD*
D11*
G04 #@! TO.P,U12,14*
G04 #@! TO.N,+5V*
X152033000Y-98502600D03*
G04 #@! TO.P,U12,7*
G04 #@! TO.N,GND*
X144413000Y-113742600D03*
G04 #@! TO.P,U12,13*
G04 #@! TO.N,N/C*
X152033000Y-101042600D03*
G04 #@! TO.P,U12,6*
G04 #@! TO.N,A22*
X144413000Y-111202600D03*
G04 #@! TO.P,U12,12*
G04 #@! TO.N,+5V*
X152033000Y-103582600D03*
G04 #@! TO.P,U12,5*
G04 #@! TO.N,A21*
X144413000Y-108662600D03*
G04 #@! TO.P,U12,11*
G04 #@! TO.N,A23*
X152033000Y-106122600D03*
G04 #@! TO.P,U12,4*
G04 #@! TO.N,A20*
X144413000Y-106122600D03*
G04 #@! TO.P,U12,10*
G04 #@! TO.N,N/C*
X152033000Y-108662600D03*
G04 #@! TO.P,U12,3*
G04 #@! TO.N,A19*
X144413000Y-103582600D03*
G04 #@! TO.P,U12,9*
G04 #@! TO.N,N/C*
X152033000Y-111202600D03*
G04 #@! TO.P,U12,2*
G04 #@! TO.N,A18*
X144413000Y-101042600D03*
G04 #@! TO.P,U12,8*
G04 #@! TO.N,ROM_CS_JMPR*
X152033000Y-113742600D03*
D10*
G04 #@! TO.P,U12,1*
G04 #@! TO.N,A17*
X144413000Y-98502600D03*
G04 #@! TD*
G04 #@! TO.P,U13,1*
G04 #@! TO.N,A7*
X216000000Y-121500000D03*
D11*
G04 #@! TO.P,U13,9*
G04 #@! TO.N,Net-(U13-Pad9)*
X223620000Y-139280000D03*
G04 #@! TO.P,U13,2*
G04 #@! TO.N,A8*
X216000000Y-124040000D03*
G04 #@! TO.P,U13,10*
G04 #@! TO.N,Net-(U13-Pad10)*
X223620000Y-136740000D03*
G04 #@! TO.P,U13,3*
G04 #@! TO.N,A9*
X216000000Y-126580000D03*
G04 #@! TO.P,U13,11*
G04 #@! TO.N,Net-(U13-Pad11)*
X223620000Y-134200000D03*
G04 #@! TO.P,U13,4*
G04 #@! TO.N,GND*
X216000000Y-129120000D03*
G04 #@! TO.P,U13,12*
G04 #@! TO.N,Net-(U13-Pad12)*
X223620000Y-131660000D03*
G04 #@! TO.P,U13,5*
G04 #@! TO.N,Net-(U11-Pad8)*
X216000000Y-131660000D03*
G04 #@! TO.P,U13,13*
G04 #@! TO.N,Net-(U13-Pad13)*
X223620000Y-129120000D03*
G04 #@! TO.P,U13,6*
G04 #@! TO.N,+5V*
X216000000Y-134200000D03*
G04 #@! TO.P,U13,14*
G04 #@! TO.N,Net-(U13-Pad14)*
X223620000Y-126580000D03*
G04 #@! TO.P,U13,7*
G04 #@! TO.N,Net-(U13-Pad7)*
X216000000Y-136740000D03*
G04 #@! TO.P,U13,15*
G04 #@! TO.N,DUART_CS_JMPR*
X223620000Y-124040000D03*
G04 #@! TO.P,U13,8*
G04 #@! TO.N,GND*
X216000000Y-139280000D03*
G04 #@! TO.P,U13,16*
G04 #@! TO.N,+5V*
X223620000Y-121500000D03*
G04 #@! TD*
G04 #@! TO.P,U14,14*
G04 #@! TO.N,+5V*
X223620000Y-72000000D03*
G04 #@! TO.P,U14,7*
G04 #@! TO.N,GND*
X216000000Y-87240000D03*
G04 #@! TO.P,U14,13*
G04 #@! TO.N,N/C*
X223620000Y-74540000D03*
G04 #@! TO.P,U14,6*
G04 #@! TO.N,INV_ROM_CS*
X216000000Y-84700000D03*
G04 #@! TO.P,U14,12*
G04 #@! TO.N,N/C*
X223620000Y-77080000D03*
G04 #@! TO.P,U14,5*
G04 #@! TO.N,RAM_CS*
X216000000Y-82160000D03*
G04 #@! TO.P,U14,11*
G04 #@! TO.N,N/C*
X223620000Y-79620000D03*
G04 #@! TO.P,U14,4*
G04 #@! TO.N,INV_UDS*
X216000000Y-79620000D03*
G04 #@! TO.P,U14,10*
G04 #@! TO.N,N/C*
X223620000Y-82160000D03*
G04 #@! TO.P,U14,3*
G04 #@! TO.N,UDS*
X216000000Y-77080000D03*
G04 #@! TO.P,U14,9*
G04 #@! TO.N,N/C*
X223620000Y-84700000D03*
G04 #@! TO.P,U14,2*
G04 #@! TO.N,INV_LDS*
X216000000Y-74540000D03*
G04 #@! TO.P,U14,8*
G04 #@! TO.N,N/C*
X223620000Y-87240000D03*
D10*
G04 #@! TO.P,U14,1*
G04 #@! TO.N,LDS*
X216000000Y-72000000D03*
G04 #@! TD*
G04 #@! TO.P,U15,1*
G04 #@! TO.N,INV_RAM_CS*
X216000000Y-96500000D03*
D11*
G04 #@! TO.P,U15,8*
G04 #@! TO.N,RAM_UDS*
X223620000Y-111740000D03*
G04 #@! TO.P,U15,2*
G04 #@! TO.N,INV_UDS*
X216000000Y-99040000D03*
G04 #@! TO.P,U15,9*
G04 #@! TO.N,INV_ROM_CS*
X223620000Y-109200000D03*
G04 #@! TO.P,U15,3*
G04 #@! TO.N,ROM_UDS*
X216000000Y-101580000D03*
G04 #@! TO.P,U15,10*
G04 #@! TO.N,INV_UDS*
X223620000Y-106660000D03*
G04 #@! TO.P,U15,4*
G04 #@! TO.N,INV_RAM_CS*
X216000000Y-104120000D03*
G04 #@! TO.P,U15,11*
G04 #@! TO.N,RAM_LDS*
X223620000Y-104120000D03*
G04 #@! TO.P,U15,5*
G04 #@! TO.N,INV_LDS*
X216000000Y-106660000D03*
G04 #@! TO.P,U15,12*
G04 #@! TO.N,INV_ROM_CS*
X223620000Y-101580000D03*
G04 #@! TO.P,U15,6*
G04 #@! TO.N,ROM_LDS*
X216000000Y-109200000D03*
G04 #@! TO.P,U15,13*
G04 #@! TO.N,INV_LDS*
X223620000Y-99040000D03*
G04 #@! TO.P,U15,7*
G04 #@! TO.N,GND*
X216000000Y-111740000D03*
G04 #@! TO.P,U15,14*
G04 #@! TO.N,+5V*
X223620000Y-96500000D03*
G04 #@! TD*
D10*
G04 #@! TO.P,U16,1*
G04 #@! TO.N,A1*
X86000000Y-91000000D03*
D11*
G04 #@! TO.P,U16,21*
G04 #@! TO.N,DUART_IRQ*
X101240000Y-139260000D03*
G04 #@! TO.P,U16,2*
G04 #@! TO.N,Net-(U16-Pad2)*
X86000000Y-93540000D03*
G04 #@! TO.P,U16,22*
G04 #@! TO.N,D6*
X101240000Y-136720000D03*
G04 #@! TO.P,U16,3*
G04 #@! TO.N,A2*
X86000000Y-96080000D03*
G04 #@! TO.P,U16,23*
G04 #@! TO.N,D4*
X101240000Y-134180000D03*
G04 #@! TO.P,U16,4*
G04 #@! TO.N,CTS-B*
X86000000Y-98620000D03*
G04 #@! TO.P,U16,24*
G04 #@! TO.N,D2*
X101240000Y-131640000D03*
G04 #@! TO.P,U16,5*
G04 #@! TO.N,A3*
X86000000Y-101160000D03*
G04 #@! TO.P,U16,25*
G04 #@! TO.N,D0*
X101240000Y-129100000D03*
G04 #@! TO.P,U16,6*
G04 #@! TO.N,A4*
X86000000Y-103700000D03*
G04 #@! TO.P,U16,26*
G04 #@! TO.N,Net-(U16-Pad26)*
X101240000Y-126560000D03*
G04 #@! TO.P,U16,7*
G04 #@! TO.N,CTS-A*
X86000000Y-106240000D03*
G04 #@! TO.P,U16,27*
G04 #@! TO.N,Net-(U16-Pad27)*
X101240000Y-124020000D03*
G04 #@! TO.P,U16,8*
G04 #@! TO.N,RW*
X86000000Y-108780000D03*
G04 #@! TO.P,U16,28*
G04 #@! TO.N,Net-(U16-Pad28)*
X101240000Y-121480000D03*
G04 #@! TO.P,U16,9*
G04 #@! TO.N,DTACK*
X86000000Y-111320000D03*
G04 #@! TO.P,U16,29*
G04 #@! TO.N,RTS-A*
X101240000Y-118940000D03*
G04 #@! TO.P,U16,10*
G04 #@! TO.N,RxD-B*
X86000000Y-113860000D03*
G04 #@! TO.P,U16,30*
G04 #@! TO.N,TxD-A*
X101240000Y-116400000D03*
G04 #@! TO.P,U16,11*
G04 #@! TO.N,TxD-B*
X86000000Y-116400000D03*
G04 #@! TO.P,U16,31*
G04 #@! TO.N,RxD-A*
X101240000Y-113860000D03*
G04 #@! TO.P,U16,12*
G04 #@! TO.N,RTS-B*
X86000000Y-118940000D03*
G04 #@! TO.P,U16,32*
G04 #@! TO.N,DUART_CLK*
X101240000Y-111320000D03*
G04 #@! TO.P,U16,13*
G04 #@! TO.N,Net-(U16-Pad13)*
X86000000Y-121480000D03*
G04 #@! TO.P,U16,33*
G04 #@! TO.N,Net-(U16-Pad33)*
X101240000Y-108780000D03*
G04 #@! TO.P,U16,14*
G04 #@! TO.N,Net-(U16-Pad14)*
X86000000Y-124020000D03*
G04 #@! TO.P,U16,34*
G04 #@! TO.N,RESET*
X101240000Y-106240000D03*
G04 #@! TO.P,U16,15*
G04 #@! TO.N,Net-(U16-Pad15)*
X86000000Y-126560000D03*
G04 #@! TO.P,U16,35*
G04 #@! TO.N,DUART_CS*
X101240000Y-103700000D03*
G04 #@! TO.P,U16,16*
G04 #@! TO.N,D1*
X86000000Y-129100000D03*
G04 #@! TO.P,U16,36*
G04 #@! TO.N,Net-(U16-Pad36)*
X101240000Y-101160000D03*
G04 #@! TO.P,U16,17*
G04 #@! TO.N,D3*
X86000000Y-131640000D03*
G04 #@! TO.P,U16,37*
G04 #@! TO.N,DUART_IACK*
X101240000Y-98620000D03*
G04 #@! TO.P,U16,18*
G04 #@! TO.N,D5*
X86000000Y-134180000D03*
G04 #@! TO.P,U16,38*
G04 #@! TO.N,Net-(U16-Pad38)*
X101240000Y-96080000D03*
G04 #@! TO.P,U16,19*
G04 #@! TO.N,D7*
X86000000Y-136720000D03*
G04 #@! TO.P,U16,39*
G04 #@! TO.N,Net-(U16-Pad39)*
X101240000Y-93540000D03*
G04 #@! TO.P,U16,20*
G04 #@! TO.N,GND*
X86000000Y-139260000D03*
G04 #@! TO.P,U16,40*
G04 #@! TO.N,+5V*
X101240000Y-91000000D03*
G04 #@! TD*
D10*
G04 #@! TO.P,U17,1*
G04 #@! TO.N,RTS-A*
X69000000Y-116000000D03*
D11*
G04 #@! TO.P,U17,11*
G04 #@! TO.N,Net-(U17-Pad11)*
X76620000Y-138860000D03*
G04 #@! TO.P,U17,2*
G04 #@! TO.N,TxD-A*
X69000000Y-118540000D03*
G04 #@! TO.P,U17,12*
G04 #@! TO.N,Net-(U17-Pad12)*
X76620000Y-136320000D03*
G04 #@! TO.P,U17,3*
G04 #@! TO.N,RxD-A*
X69000000Y-121080000D03*
G04 #@! TO.P,U17,13*
G04 #@! TO.N,Net-(U17-Pad13)*
X76620000Y-133780000D03*
G04 #@! TO.P,U17,4*
G04 #@! TO.N,RxD-A-SERIAL*
X69000000Y-123620000D03*
G04 #@! TO.P,U17,14*
G04 #@! TO.N,Net-(U17-Pad14)*
X76620000Y-131240000D03*
G04 #@! TO.P,U17,5*
G04 #@! TO.N,TxD-A-SERIAL*
X69000000Y-126160000D03*
G04 #@! TO.P,U17,15*
G04 #@! TO.N,Net-(U17-Pad11)*
X76620000Y-128700000D03*
G04 #@! TO.P,U17,6*
G04 #@! TO.N,GND*
X69000000Y-128700000D03*
G04 #@! TO.P,U17,16*
G04 #@! TO.N,Net-(U17-Pad10)*
X76620000Y-126160000D03*
G04 #@! TO.P,U17,7*
G04 #@! TO.N,+5V*
X69000000Y-131240000D03*
G04 #@! TO.P,U17,17*
G04 #@! TO.N,Net-(U17-Pad12)*
X76620000Y-123620000D03*
G04 #@! TO.P,U17,8*
G04 #@! TO.N,Net-(U17-Pad8)*
X69000000Y-133780000D03*
G04 #@! TO.P,U17,18*
G04 #@! TO.N,RTS-A-SERIAL*
X76620000Y-121080000D03*
G04 #@! TO.P,U17,9*
G04 #@! TO.N,GND*
X69000000Y-136320000D03*
G04 #@! TO.P,U17,19*
G04 #@! TO.N,CTS-A-SERIAL*
X76620000Y-118540000D03*
G04 #@! TO.P,U17,10*
G04 #@! TO.N,Net-(U17-Pad10)*
X69000000Y-138860000D03*
G04 #@! TO.P,U17,20*
G04 #@! TO.N,CTS-A*
X76620000Y-116000000D03*
G04 #@! TD*
G04 #@! TO.P,U18,20*
G04 #@! TO.N,CTS-B*
X76785100Y-84513200D03*
G04 #@! TO.P,U18,10*
G04 #@! TO.N,Net-(U18-Pad10)*
X69165100Y-107373200D03*
G04 #@! TO.P,U18,19*
G04 #@! TO.N,CTS-B-SERIAL*
X76785100Y-87053200D03*
G04 #@! TO.P,U18,9*
G04 #@! TO.N,GND*
X69165100Y-104833200D03*
G04 #@! TO.P,U18,18*
G04 #@! TO.N,RTS-B-SERIAL*
X76785100Y-89593200D03*
G04 #@! TO.P,U18,8*
G04 #@! TO.N,Net-(U18-Pad8)*
X69165100Y-102293200D03*
G04 #@! TO.P,U18,17*
G04 #@! TO.N,Net-(U18-Pad12)*
X76785100Y-92133200D03*
G04 #@! TO.P,U18,7*
G04 #@! TO.N,+5V*
X69165100Y-99753200D03*
G04 #@! TO.P,U18,16*
G04 #@! TO.N,Net-(U18-Pad10)*
X76785100Y-94673200D03*
G04 #@! TO.P,U18,6*
G04 #@! TO.N,GND*
X69165100Y-97213200D03*
G04 #@! TO.P,U18,15*
G04 #@! TO.N,Net-(U18-Pad11)*
X76785100Y-97213200D03*
G04 #@! TO.P,U18,5*
G04 #@! TO.N,TxD-B-SERIAL*
X69165100Y-94673200D03*
G04 #@! TO.P,U18,14*
G04 #@! TO.N,Net-(U18-Pad14)*
X76785100Y-99753200D03*
G04 #@! TO.P,U18,4*
G04 #@! TO.N,RxD-B-SERIAL*
X69165100Y-92133200D03*
G04 #@! TO.P,U18,13*
G04 #@! TO.N,Net-(U18-Pad13)*
X76785100Y-102293200D03*
G04 #@! TO.P,U18,3*
G04 #@! TO.N,RxD-B*
X69165100Y-89593200D03*
G04 #@! TO.P,U18,12*
G04 #@! TO.N,Net-(U18-Pad12)*
X76785100Y-104833200D03*
G04 #@! TO.P,U18,2*
G04 #@! TO.N,TxD-B*
X69165100Y-87053200D03*
G04 #@! TO.P,U18,11*
G04 #@! TO.N,Net-(U18-Pad11)*
X76785100Y-107373200D03*
D10*
G04 #@! TO.P,U18,1*
G04 #@! TO.N,RTS-B*
X69165100Y-84513200D03*
G04 #@! TD*
D19*
G04 #@! TO.P,X1,7*
G04 #@! TO.N,GND*
X86260000Y-53500000D03*
G04 #@! TO.P,X1,8*
G04 #@! TO.N,Net-(U7-Pad3)*
X86260000Y-61120000D03*
G04 #@! TO.P,X1,14*
G04 #@! TO.N,+5V*
X101500000Y-61120000D03*
D10*
G04 #@! TO.P,X1,1*
G04 #@! TO.N,Net-(X1-Pad1)*
X101500000Y-53500000D03*
G04 #@! TD*
G04 #@! TO.P,X2,1*
G04 #@! TO.N,Net-(X2-Pad1)*
X101500000Y-74500000D03*
D19*
G04 #@! TO.P,X2,14*
G04 #@! TO.N,+5V*
X101500000Y-82120000D03*
G04 #@! TO.P,X2,8*
G04 #@! TO.N,Net-(U7-Pad5)*
X86260000Y-82120000D03*
G04 #@! TO.P,X2,7*
G04 #@! TO.N,GND*
X86260000Y-74500000D03*
G04 #@! TD*
D20*
G04 #@! TO.N,+5V*
X225775520Y-96647000D03*
X176001680Y-98549460D03*
X180530500Y-52026820D03*
X199999600Y-54640480D03*
X216763600Y-115509040D03*
X207782160Y-108582460D03*
X200215500Y-103256080D03*
X190949580Y-101833680D03*
X181178200Y-100876100D03*
X127678180Y-98630740D03*
X138427460Y-95651320D03*
X141179300Y-87045800D03*
X126697740Y-39634160D03*
X155097480Y-45214540D03*
G04 #@! TO.N,GND*
X210451700Y-65938400D03*
X198841360Y-42293540D03*
X175602900Y-42659300D03*
X149064980Y-44251880D03*
X133116320Y-38851840D03*
G04 #@! TO.N,RTS-B-SERIAL*
X104687200Y-69376300D03*
G04 #@! TO.N,RxD-B-SERIAL*
X104120300Y-67370600D03*
G04 #@! TO.N,TxD-B-SERIAL*
X101898300Y-70996500D03*
G04 #@! TO.N,A23*
X147432800Y-50809500D03*
G04 #@! TO.N,A22*
X145310300Y-47866300D03*
G04 #@! TO.N,A21*
X149384100Y-42485600D03*
G04 #@! TO.N,A18*
X161669000Y-94820900D03*
G04 #@! TO.N,A16*
X160481700Y-54932100D03*
X163396100Y-99152610D03*
G04 #@! TO.N,LDS*
X145391400Y-46053400D03*
G04 #@! TO.N,UDS*
X178438600Y-39716000D03*
G04 #@! TO.N,ROM_CS_JMPR*
X166489600Y-50484200D03*
G04 #@! TO.N,D4*
X115118600Y-92954600D03*
G04 #@! TO.N,A5*
X158893300Y-70827900D03*
G04 #@! TO.N,D3*
X108782600Y-99656900D03*
G04 #@! TO.N,A10*
X164709400Y-116041400D03*
G04 #@! TO.N,A13*
X168303000Y-108620000D03*
G04 #@! TO.N,D15*
X145731200Y-83888400D03*
G04 #@! TO.N,/FC0*
X97950600Y-113504900D03*
G04 #@! TO.N,D9*
X150814300Y-133282600D03*
G04 #@! TO.N,A1*
X96382700Y-115376900D03*
X157071700Y-80247600D03*
G04 #@! TO.N,A2*
X95382300Y-116381300D03*
X157809300Y-77016400D03*
G04 #@! TO.N,A3*
X91608300Y-114806700D03*
X157654700Y-74860000D03*
G04 #@! TO.N,D6*
X169398600Y-79551400D03*
G04 #@! TO.N,A4*
X158565000Y-72320000D03*
G04 #@! TO.N,D5*
X119014900Y-92900400D03*
G04 #@! TO.N,DUART_IRQ*
X125838300Y-136186900D03*
G04 #@! TO.N,RAM_LDS*
X189669100Y-93671600D03*
G04 #@! TO.N,OE*
X165089100Y-62361400D03*
G04 #@! TO.N,INV_RAM_CS*
X156151500Y-93653600D03*
G04 #@! TO.N,DUART_CLK*
X107569300Y-109662800D03*
G04 #@! TO.N,INV_LDS*
X217975400Y-78573200D03*
G04 #@! TD*
D21*
G04 #@! TO.N,+5V*
X76399200Y-37930300D02*
X77449500Y-37930300D01*
X94467700Y-40248800D02*
X79768000Y-40248800D01*
X79768000Y-40248800D02*
X77449500Y-37930300D01*
X173945900Y-105294100D02*
X178240000Y-101000000D01*
X170490000Y-117880000D02*
X170490000Y-108750000D01*
X170490000Y-108750000D02*
X173945900Y-105294100D01*
X196474000Y-115523500D02*
X196474000Y-113766000D01*
X196474000Y-113766000D02*
X201566700Y-108673300D01*
X196474000Y-119879000D02*
X196474000Y-115523500D01*
X223620000Y-72000000D02*
X222363400Y-73256500D01*
X222363400Y-73256500D02*
X219641000Y-75978600D01*
X219641000Y-75978600D02*
X219641000Y-77298800D01*
X196713000Y-64027200D02*
X203740000Y-57000000D01*
X113550300Y-90980000D02*
X117331200Y-87199100D01*
X117331200Y-87199100D02*
X141026000Y-87199100D01*
X141026000Y-87199100D02*
X143273700Y-84951400D01*
X72423300Y-42732800D02*
X72423300Y-41906200D01*
X72423300Y-41906200D02*
X76399200Y-37930300D01*
X72423300Y-43559400D02*
X72423300Y-42732800D01*
X196713000Y-71812400D02*
X196713000Y-64027200D01*
X93969800Y-107510000D02*
X93969800Y-98270200D01*
X93969800Y-98270200D02*
X101240000Y-91000000D01*
X93969800Y-111840000D02*
X93969800Y-107510000D01*
X112500000Y-111300000D02*
X112500000Y-113840000D01*
X116891000Y-94205000D02*
X113185000Y-94205000D01*
X113185000Y-94205000D02*
X112500000Y-93520000D01*
X96741400Y-78026300D02*
X97406300Y-78026300D01*
X97406300Y-78026300D02*
X101500000Y-82120000D01*
X96076500Y-78026300D02*
X96741400Y-78026300D01*
X112500000Y-90980000D02*
X113550300Y-90980000D01*
X144324000Y-84951400D02*
X143273700Y-84951400D01*
X101240000Y-91000000D02*
X102290300Y-91000000D01*
X112500000Y-88440000D02*
X104850300Y-88440000D01*
X104850300Y-88440000D02*
X102290300Y-91000000D01*
X73441600Y-97585300D02*
X71333000Y-97585300D01*
X71333000Y-97585300D02*
X69165100Y-99753200D01*
X170063000Y-69099700D02*
X170063000Y-60176800D01*
X170063000Y-60176800D02*
X173046900Y-57192900D01*
X173046900Y-57192900D02*
X178240000Y-52000000D01*
X148011000Y-103513600D02*
X148011000Y-102525000D01*
X148011000Y-102525000D02*
X152033000Y-98502600D01*
X148011000Y-104495000D02*
X148011000Y-103513600D01*
X95469500Y-56883300D02*
X97263300Y-56883300D01*
X97263300Y-56883300D02*
X101500000Y-61120000D01*
X201566700Y-108673300D02*
X204240000Y-106000000D01*
X72644000Y-66465700D02*
X72644000Y-64618900D01*
X72644000Y-64618900D02*
X76477800Y-60785100D01*
X219753000Y-103184000D02*
X219753000Y-100367000D01*
X219753000Y-100367000D02*
X223620000Y-96500000D01*
X131003000Y-96414300D02*
X133174000Y-96414300D01*
X133174000Y-96414300D02*
X135360000Y-98600000D01*
X219870000Y-128695000D02*
X219870000Y-129945300D01*
X216000000Y-134200000D02*
X216000000Y-133149700D01*
X216000000Y-133149700D02*
X219204400Y-129945300D01*
X219204400Y-129945300D02*
X219870000Y-129945300D01*
X151944000Y-72251400D02*
X148110000Y-76085500D01*
X148110000Y-76085500D02*
X148110000Y-79153000D01*
X73139300Y-129526000D02*
X70714200Y-129526000D01*
X70714200Y-129526000D02*
X69800000Y-130440000D01*
X69800000Y-130440000D02*
X69000000Y-131240000D01*
X147481000Y-55474800D02*
X147481000Y-53511800D01*
X147481000Y-53511800D02*
X151558000Y-49434600D01*
X148021000Y-128294000D02*
X148021000Y-125440000D01*
X148021000Y-125440000D02*
X151828000Y-121633000D01*
X219870000Y-128695000D02*
X219870000Y-125250000D01*
X219870000Y-125250000D02*
X223620000Y-121500000D01*
X75875100Y-93403200D02*
X81364500Y-93403200D01*
X75084940Y-94193360D02*
X75875100Y-93403200D01*
X75084940Y-98808540D02*
X75084940Y-94193360D01*
X69165100Y-99753200D02*
X74140280Y-99753200D01*
X74140280Y-99753200D02*
X75084940Y-98808540D01*
X152832999Y-102782601D02*
X152033000Y-103582600D01*
X153083001Y-102532599D02*
X152832999Y-102782601D01*
X153083001Y-99552601D02*
X153083001Y-102532599D01*
X152033000Y-98502600D02*
X153083001Y-99552601D01*
X203740000Y-57000000D02*
X204790300Y-57000000D01*
X216519800Y-68649600D02*
X215780000Y-67909800D01*
X215780000Y-67909800D02*
X215700100Y-67909800D01*
X215700100Y-67909800D02*
X204790300Y-57000000D01*
X217219600Y-68649600D02*
X216519800Y-68649600D01*
X220570000Y-72000000D02*
X220108780Y-71538780D01*
X223620000Y-72000000D02*
X220570000Y-72000000D01*
X220108780Y-71538780D02*
X217219600Y-68649600D01*
X225775520Y-111138482D02*
X225775520Y-96647000D01*
X223620000Y-121500000D02*
X225775520Y-119344480D01*
X225775520Y-119344480D02*
X225775520Y-111138482D01*
X175954820Y-98502600D02*
X176001680Y-98549460D01*
X152033000Y-98502600D02*
X175954820Y-98502600D01*
X202608630Y-57000000D02*
X203740000Y-57000000D01*
X180530500Y-52026820D02*
X183144160Y-54640480D01*
X183144160Y-54640480D02*
X199999600Y-54640480D01*
X223620000Y-120368630D02*
X218760410Y-115509040D01*
X223620000Y-121500000D02*
X223620000Y-120368630D01*
X218760410Y-115509040D02*
X216763600Y-115509040D01*
X206422461Y-108182461D02*
X205196989Y-106956989D01*
X207382161Y-108182461D02*
X206422461Y-108182461D01*
X207782160Y-108582460D02*
X207382161Y-108182461D01*
X204240000Y-104868630D02*
X202627450Y-103256080D01*
X204240000Y-106000000D02*
X204240000Y-104868630D01*
X202627450Y-103256080D02*
X200215500Y-103256080D01*
X190949580Y-101833680D02*
X189992000Y-100876100D01*
X189992000Y-100876100D02*
X181178200Y-100876100D01*
X135329260Y-98630740D02*
X135360000Y-98600000D01*
X127678180Y-98630740D02*
X135329260Y-98630740D01*
X92647700Y-82120000D02*
X101500000Y-82120000D01*
X81364500Y-93403200D02*
X92647700Y-82120000D01*
X135360000Y-98600000D02*
X138308680Y-95651320D01*
X138308680Y-95651320D02*
X138427460Y-95651320D01*
X149065638Y-45214540D02*
X154531795Y-45214540D01*
X154531795Y-45214540D02*
X155097480Y-45214540D01*
X143485258Y-39634160D02*
X149065638Y-45214540D01*
X126697740Y-39634160D02*
X143485258Y-39634160D01*
G04 #@! TO.N,GND*
X72644000Y-70465700D02*
X72644000Y-72042000D01*
X69000000Y-136320000D02*
X70050300Y-136320000D01*
X86000000Y-139260000D02*
X84949700Y-139260000D01*
X84949700Y-139260000D02*
X84246400Y-139963300D01*
X84246400Y-139963300D02*
X73693600Y-139963300D01*
X73693600Y-139963300D02*
X70050300Y-136320000D01*
X170490000Y-130140300D02*
X170490000Y-131610000D01*
X170490000Y-131610000D02*
X163000000Y-139100000D01*
X170490000Y-121880000D02*
X170490000Y-130140300D01*
X91469500Y-56883300D02*
X89643300Y-56883300D01*
X89643300Y-56883300D02*
X86260000Y-53500000D01*
X121120000Y-45366900D02*
X126200000Y-45366900D01*
X69165100Y-97213200D02*
X69165100Y-96162900D01*
X68857800Y-76025100D02*
X68857800Y-77075400D01*
X68857800Y-77075400D02*
X68114700Y-77818500D01*
X68114700Y-77818500D02*
X68114700Y-95112500D01*
X68114700Y-95112500D02*
X69165100Y-96162900D01*
X72644000Y-72042000D02*
X72644000Y-72238900D01*
X72644000Y-72238900D02*
X68857800Y-76025100D01*
X196713000Y-80908600D02*
X196713000Y-81807200D01*
X196713000Y-81807200D02*
X188500000Y-90020000D01*
X196713000Y-75812400D02*
X196713000Y-80908600D01*
X147481000Y-59474800D02*
X147481000Y-61131800D01*
X147481000Y-61131800D02*
X143938000Y-64674600D01*
X131003000Y-92250000D02*
X131003000Y-92214300D01*
X131003000Y-92214300D02*
X134777000Y-88440000D01*
X134777000Y-88440000D02*
X135360000Y-88440000D01*
X144324000Y-90031400D02*
X148110000Y-86245500D01*
X148110000Y-86245500D02*
X148110000Y-85702100D01*
X121120000Y-45366900D02*
X114731900Y-38978800D01*
X114731900Y-38978800D02*
X94467700Y-38978800D01*
X131003000Y-92414300D02*
X131003000Y-92250000D01*
X69000000Y-136320000D02*
X67853600Y-135174000D01*
X67853600Y-135174000D02*
X67853600Y-129846000D01*
X67853600Y-129846000D02*
X68200000Y-129500000D01*
X68200000Y-129500000D02*
X69000000Y-128700000D01*
X73139300Y-125526000D02*
X72174200Y-125526000D01*
X72174200Y-125526000D02*
X69000000Y-128700000D01*
X69165100Y-104833000D02*
X68115100Y-103783000D01*
X68115100Y-103783000D02*
X68115100Y-98263200D01*
X68115100Y-98263200D02*
X69165100Y-97213200D01*
X72423300Y-49526200D02*
X68779200Y-53170300D01*
X72423300Y-47559400D02*
X72423300Y-49526200D01*
X144413200Y-113742800D02*
X144413000Y-113743000D01*
X148011000Y-108495000D02*
X148011000Y-110145000D01*
X148011000Y-110145000D02*
X144413200Y-113742800D01*
X144413000Y-113742600D02*
X144413200Y-113742800D01*
X148110000Y-85702100D02*
X148110000Y-83153000D01*
X214949700Y-129120000D02*
X213939700Y-130130000D01*
X218430200Y-136849800D02*
X216000000Y-139280000D01*
X219870000Y-132695000D02*
X219870000Y-135410000D01*
X219870000Y-135410000D02*
X218430200Y-136849800D01*
X216000000Y-129120000D02*
X214949700Y-129120000D01*
X196474000Y-130130000D02*
X196474000Y-131546000D01*
X196474000Y-131546000D02*
X189000000Y-139020000D01*
X196474000Y-123879000D02*
X196474000Y-130130000D01*
X148021000Y-135600000D02*
X144208000Y-139413000D01*
X148021000Y-132863400D02*
X148021000Y-135600000D01*
X216000000Y-87240000D02*
X219641000Y-83598600D01*
X219641000Y-83598600D02*
X219641000Y-81298800D01*
X170063000Y-81210000D02*
X170063000Y-73099700D01*
X163000000Y-90100000D02*
X170063000Y-83036800D01*
X170063000Y-83036800D02*
X170063000Y-81210000D01*
X92076500Y-78026300D02*
X89786300Y-78026300D01*
X89786300Y-78026300D02*
X86260000Y-74500000D01*
X116891000Y-98205000D02*
X112895000Y-98205000D01*
X112895000Y-98205000D02*
X112500000Y-98600000D01*
X148021000Y-132294000D02*
X148021000Y-132863400D01*
X69165100Y-104833000D02*
X69165100Y-104833200D01*
X73441600Y-93585300D02*
X73441600Y-93785300D01*
X73441600Y-93785300D02*
X70013600Y-97213200D01*
X70013600Y-97213200D02*
X69165100Y-97213200D01*
X219753000Y-107184000D02*
X219753000Y-107987000D01*
X219753000Y-107987000D02*
X216000000Y-111740000D01*
X85423480Y-74500000D02*
X85410040Y-74513440D01*
X86260000Y-74500000D02*
X85423480Y-74500000D01*
X69657799Y-76825099D02*
X68857800Y-76025100D01*
X82553529Y-77075101D02*
X69907801Y-77075101D01*
X85128630Y-74500000D02*
X82553529Y-77075101D01*
X69907801Y-77075101D02*
X69657799Y-76825099D01*
X86260000Y-74500000D02*
X85128630Y-74500000D01*
X69579199Y-53970299D02*
X68779200Y-53170300D01*
X86260000Y-53500000D02*
X85128630Y-53500000D01*
X84408329Y-54220301D02*
X69829201Y-54220301D01*
X69829201Y-54220301D02*
X69579199Y-53970299D01*
X85128630Y-53500000D02*
X84408329Y-54220301D01*
X208978629Y-81349999D02*
X200899881Y-81349999D01*
X216000000Y-87240000D02*
X214868630Y-87240000D01*
X214868630Y-87240000D02*
X208978629Y-81349999D01*
X192229880Y-90020000D02*
X188500000Y-90020000D01*
X200899881Y-81349999D02*
X192229880Y-90020000D01*
X213939700Y-137219700D02*
X213939700Y-133408420D01*
X216000000Y-139280000D02*
X213939700Y-137219700D01*
X213939700Y-133408420D02*
X213939700Y-133666200D01*
X213560979Y-130349999D02*
X213939700Y-130728720D01*
X198801371Y-130349999D02*
X213560979Y-130349999D01*
X213939700Y-130130000D02*
X213939700Y-130728720D01*
X190131370Y-139020000D02*
X198801371Y-130349999D01*
X189000000Y-139020000D02*
X190131370Y-139020000D01*
X213939700Y-130728720D02*
X213939700Y-133408420D01*
X163799999Y-139899999D02*
X163000000Y-139100000D01*
X164050001Y-140150001D02*
X163799999Y-139899999D01*
X187869999Y-140150001D02*
X164050001Y-140150001D01*
X189000000Y-139020000D02*
X187869999Y-140150001D01*
X149288000Y-139413000D02*
X151828000Y-136873000D01*
X144208000Y-139413000D02*
X149288000Y-139413000D01*
X143408001Y-138613001D02*
X144208000Y-139413000D01*
X143157999Y-132843001D02*
X143157999Y-138362999D01*
X143157999Y-138362999D02*
X143408001Y-138613001D01*
X144208000Y-131793000D02*
X143157999Y-132843001D01*
X112435997Y-92030001D02*
X114593919Y-92030001D01*
X111449999Y-93015999D02*
X112435997Y-92030001D01*
X112500000Y-98600000D02*
X111449999Y-97549999D01*
X111449999Y-97549999D02*
X111449999Y-93015999D01*
X114593919Y-92030001D02*
X118196360Y-88427560D01*
X118208800Y-88440000D02*
X135360000Y-88440000D01*
X118196360Y-88427560D02*
X118208800Y-88440000D01*
X145123999Y-90831399D02*
X144324000Y-90031400D01*
X145374001Y-91081401D02*
X145123999Y-90831399D01*
X153429402Y-90100000D02*
X152448001Y-91081401D01*
X163000000Y-90100000D02*
X153429402Y-90100000D01*
X152448001Y-91081401D02*
X145374001Y-91081401D01*
X217050400Y-128069600D02*
X217050400Y-116757844D01*
X216113598Y-115197038D02*
X217050400Y-114260236D01*
X217050400Y-116757844D02*
X216113598Y-115821042D01*
X217050400Y-112790400D02*
X216799999Y-112539999D01*
X216113598Y-115821042D02*
X216113598Y-115197038D01*
X216000000Y-129120000D02*
X217050400Y-128069600D01*
X217050400Y-114260236D02*
X217050400Y-112790400D01*
X216799999Y-112539999D02*
X216000000Y-111740000D01*
X93969800Y-131290000D02*
X86800000Y-138460000D01*
X93969800Y-115840000D02*
X93969800Y-131290000D01*
X86800000Y-138460000D02*
X86000000Y-139260000D01*
X135360000Y-88440000D02*
X142732600Y-88440000D01*
X142732600Y-88440000D02*
X143524001Y-89231401D01*
X143524001Y-89231401D02*
X144324000Y-90031400D01*
X216000000Y-87240000D02*
X210451700Y-81691700D01*
X210451700Y-81691700D02*
X210451700Y-65938400D01*
X198841360Y-42293540D02*
X175968660Y-42293540D01*
X175968660Y-42293540D02*
X175602900Y-42659300D01*
X148664981Y-43851881D02*
X148664981Y-43653761D01*
X149064980Y-44251880D02*
X148664981Y-43851881D01*
X148664981Y-43653761D02*
X143863060Y-38851840D01*
X143863060Y-38851840D02*
X133116320Y-38851840D01*
G04 #@! TO.N,RTS-B-SERIAL*
X76785100Y-89593200D02*
X83629200Y-89593200D01*
X83629200Y-89593200D02*
X94291300Y-78931100D01*
X94291300Y-78931100D02*
X94291300Y-77151300D01*
X94291300Y-77151300D02*
X102066300Y-69376300D01*
X102066300Y-69376300D02*
X104687200Y-69376300D01*
G04 #@! TO.N,RxD-B-SERIAL*
X70215400Y-92133200D02*
X74025400Y-88323200D01*
X74025400Y-88323200D02*
X84474300Y-88323200D01*
X84474300Y-88323200D02*
X93809100Y-78988400D01*
X93809100Y-78988400D02*
X93809100Y-77130300D01*
X93809100Y-77130300D02*
X103568800Y-67370600D01*
X103568800Y-67370600D02*
X104120300Y-67370600D01*
X69165100Y-92133200D02*
X70215400Y-92133200D01*
G04 #@! TO.N,TxD-B-SERIAL*
X69165100Y-94673200D02*
X70215400Y-94673200D01*
X70215400Y-94673200D02*
X70215400Y-94541900D01*
X70215400Y-94541900D02*
X73894100Y-90863200D01*
X73894100Y-90863200D02*
X82795400Y-90863200D01*
X82795400Y-90863200D02*
X94697300Y-78961300D01*
X94697300Y-78961300D02*
X94697300Y-77170000D01*
X94697300Y-77170000D02*
X100870800Y-70996500D01*
X100870800Y-70996500D02*
X101898300Y-70996500D01*
G04 #@! TO.N,RxD-A-SERIAL*
X69000000Y-122569700D02*
X67398000Y-120967700D01*
X67398000Y-120967700D02*
X67398000Y-45388400D01*
X67398000Y-45388400D02*
X68612400Y-44174000D01*
X68612400Y-44174000D02*
X69114500Y-44174000D01*
X69114500Y-44174000D02*
X70890000Y-42398500D01*
X70890000Y-42398500D02*
X70890000Y-41880100D01*
X70890000Y-41880100D02*
X75900300Y-36869800D01*
X75900300Y-36869800D02*
X142424000Y-36869800D01*
X142424000Y-36869800D02*
X148990400Y-43436200D01*
X148990400Y-43436200D02*
X152247100Y-43436200D01*
X152247100Y-43436200D02*
X156836700Y-38846600D01*
X156836700Y-38846600D02*
X156836700Y-38229500D01*
X157937000Y-38229500D02*
X156836700Y-38229500D01*
X69000000Y-123620000D02*
X69000000Y-122569700D01*
G04 #@! TO.N,A23*
X69829500Y-48090300D02*
X69829500Y-47981500D01*
X69829500Y-47981500D02*
X71502000Y-46309000D01*
X71502000Y-46309000D02*
X75348800Y-46309000D01*
X75348800Y-46309000D02*
X75966400Y-46926600D01*
X75966400Y-46926600D02*
X114543500Y-46926600D01*
X114543500Y-46926600D02*
X118426400Y-50809500D01*
X118426400Y-50809500D02*
X147432800Y-50809500D01*
X68779200Y-48090300D02*
X69829500Y-48090300D01*
G04 #@! TO.N,A22*
X68779200Y-45550300D02*
X74608300Y-45550300D01*
X74608300Y-45550300D02*
X75666700Y-44491900D01*
X75666700Y-44491900D02*
X112683800Y-44491900D01*
X112683800Y-44491900D02*
X116058200Y-47866300D01*
X116058200Y-47866300D02*
X145310300Y-47866300D01*
G04 #@! TO.N,A21*
X147756500Y-36796700D02*
X147756500Y-40858000D01*
X147756500Y-40858000D02*
X149384100Y-42485600D01*
X147756500Y-36796700D02*
X147229000Y-36269200D01*
X147229000Y-36269200D02*
X68452100Y-36269200D01*
X68452100Y-36269200D02*
X67728800Y-36992500D01*
X67728800Y-36992500D02*
X67728800Y-38881800D01*
X67728800Y-38881800D02*
X68267000Y-39420000D01*
X68267000Y-39420000D02*
X68779200Y-39420000D01*
X214385700Y-38615600D02*
X214385700Y-38387600D01*
X214385700Y-38387600D02*
X212583100Y-36585000D01*
X212583100Y-36585000D02*
X147968200Y-36585000D01*
X147968200Y-36585000D02*
X147756500Y-36796700D01*
X68779200Y-40470300D02*
X68779200Y-39420000D01*
X215486000Y-38615600D02*
X214385700Y-38615600D01*
G04 #@! TO.N,A20*
X212946000Y-39715900D02*
X225018300Y-51788200D01*
X225018300Y-51788200D02*
X225018300Y-82279600D01*
X225018300Y-82279600D02*
X223867900Y-83430000D01*
X223867900Y-83430000D02*
X223243600Y-83430000D01*
X223243600Y-83430000D02*
X213670300Y-93003300D01*
X213670300Y-93003300D02*
X144547000Y-93003300D01*
X144547000Y-93003300D02*
X136410300Y-101140000D01*
X69829500Y-37930300D02*
X71190300Y-36569500D01*
X71190300Y-36569500D02*
X142548400Y-36569500D01*
X142548400Y-36569500D02*
X149114800Y-43135900D01*
X149114800Y-43135900D02*
X149653500Y-43135900D01*
X149653500Y-43135900D02*
X150034400Y-42755000D01*
X150034400Y-42755000D02*
X150034400Y-41519300D01*
X150034400Y-41519300D02*
X154665400Y-36888300D01*
X154665400Y-36888300D02*
X210668600Y-36888300D01*
X210668600Y-36888300D02*
X212946000Y-39165700D01*
X135360000Y-102190300D02*
X134935300Y-102190300D01*
X134935300Y-102190300D02*
X133653200Y-103472400D01*
X133653200Y-103472400D02*
X133653200Y-108588900D01*
X133653200Y-108588900D02*
X134889300Y-109825000D01*
X134889300Y-109825000D02*
X139660300Y-109825000D01*
X139660300Y-109825000D02*
X143362700Y-106122600D01*
X135360000Y-101140000D02*
X135360000Y-102190300D01*
X144413000Y-106122600D02*
X143362700Y-106122600D01*
X135360000Y-101140000D02*
X136410300Y-101140000D01*
X68779200Y-37930300D02*
X69829500Y-37930300D01*
X212946000Y-39165700D02*
X212946000Y-39715900D01*
X212946000Y-38615600D02*
X212946000Y-39165700D01*
G04 #@! TO.N,A19*
X210406000Y-38615600D02*
X209305700Y-38615600D01*
X163000000Y-52000000D02*
X164050300Y-52000000D01*
X164050300Y-52000000D02*
X166985400Y-49064900D01*
X166985400Y-49064900D02*
X199084400Y-49064900D01*
X199084400Y-49064900D02*
X209305700Y-38843600D01*
X209305700Y-38843600D02*
X209305700Y-38615600D01*
X163000000Y-101000000D02*
X161949700Y-101000000D01*
X144413000Y-103582600D02*
X145463300Y-103582600D01*
X145463300Y-103582600D02*
X145463300Y-104107700D01*
X145463300Y-104107700D02*
X147101000Y-105745400D01*
X147101000Y-105745400D02*
X149020700Y-105745400D01*
X149020700Y-105745400D02*
X149994200Y-104771900D01*
X149994200Y-104771900D02*
X158177800Y-104771900D01*
X158177800Y-104771900D02*
X161949700Y-101000000D01*
X135360000Y-104730300D02*
X134261400Y-105828900D01*
X134261400Y-105828900D02*
X134261400Y-106611100D01*
X134261400Y-106611100D02*
X134959900Y-107309600D01*
X134959900Y-107309600D02*
X139635700Y-107309600D01*
X139635700Y-107309600D02*
X143362700Y-103582600D01*
X143362700Y-103582600D02*
X144413000Y-103582600D01*
X135360000Y-103680000D02*
X135360000Y-104730300D01*
G04 #@! TO.N,A18*
X178240000Y-105029700D02*
X179891900Y-103377800D01*
X179891900Y-103377800D02*
X179891900Y-100316800D01*
X179891900Y-100316800D02*
X174778500Y-95203400D01*
X174778500Y-95203400D02*
X161669000Y-95203400D01*
X178240000Y-106080000D02*
X178240000Y-105029700D01*
X161669000Y-95203400D02*
X151302500Y-95203400D01*
X151302500Y-95203400D02*
X145463300Y-101042600D01*
X161669000Y-94820900D02*
X161669000Y-95203400D01*
X144413000Y-101042600D02*
X145463300Y-101042600D01*
X144338000Y-101042600D02*
X144413000Y-101042600D01*
X144338000Y-101042600D02*
X143362700Y-101042600D01*
X143362700Y-101042600D02*
X138185300Y-106220000D01*
X138185300Y-106220000D02*
X135360000Y-106220000D01*
G04 #@! TO.N,A17*
X204225700Y-38615600D02*
X204225700Y-38741600D01*
X204225700Y-38741600D02*
X196151200Y-46816100D01*
X196151200Y-46816100D02*
X166205000Y-46816100D01*
X166205000Y-46816100D02*
X161949600Y-51071500D01*
X161949600Y-51071500D02*
X161949600Y-52964500D01*
X161949600Y-52964500D02*
X162474800Y-53489700D01*
X162474800Y-53489700D02*
X163000000Y-53489700D01*
X205326000Y-38615600D02*
X204225700Y-38615600D01*
X163000000Y-54540000D02*
X163000000Y-53489700D01*
X163000000Y-103540000D02*
X161949700Y-103540000D01*
X135360000Y-108234800D02*
X139825000Y-108234800D01*
X139825000Y-108234800D02*
X143011600Y-105048200D01*
X143011600Y-105048200D02*
X145146400Y-105048200D01*
X145146400Y-105048200D02*
X146144000Y-106045800D01*
X146144000Y-106045800D02*
X150165900Y-106045800D01*
X150165900Y-106045800D02*
X151139400Y-105072300D01*
X151139400Y-105072300D02*
X160417400Y-105072300D01*
X160417400Y-105072300D02*
X161949700Y-103540000D01*
X135360000Y-108234800D02*
X135360000Y-107709700D01*
X135360000Y-108760000D02*
X135360000Y-108234800D01*
X143887900Y-98502600D02*
X144413000Y-98502600D01*
X143887900Y-98502600D02*
X143362700Y-98502600D01*
X143362700Y-98502600D02*
X139374700Y-102490600D01*
X139374700Y-102490600D02*
X135059700Y-102490600D01*
X135059700Y-102490600D02*
X133953500Y-103596800D01*
X133953500Y-103596800D02*
X133953500Y-106738500D01*
X133953500Y-106738500D02*
X134924700Y-107709700D01*
X134924700Y-107709700D02*
X135360000Y-107709700D01*
G04 #@! TO.N,A16*
X164052300Y-99631000D02*
X164052300Y-104009300D01*
X164052300Y-104009300D02*
X163357900Y-104703700D01*
X163357900Y-104703700D02*
X162610000Y-104703700D01*
X162610000Y-104703700D02*
X160140700Y-107173000D01*
X160140700Y-107173000D02*
X143582200Y-107173000D01*
X143582200Y-107173000D02*
X139455200Y-111300000D01*
X139455200Y-111300000D02*
X135360000Y-111300000D01*
X178240000Y-102489700D02*
X178750300Y-102489700D01*
X178750300Y-102489700D02*
X179591600Y-101648400D01*
X179591600Y-101648400D02*
X179591600Y-100441200D01*
X179591600Y-100441200D02*
X178781400Y-99631000D01*
X178781400Y-99631000D02*
X164052300Y-99631000D01*
X178240000Y-103540000D02*
X178240000Y-102489700D01*
X164052300Y-99631000D02*
X163874490Y-99631000D01*
X163796099Y-99552609D02*
X163396100Y-99152610D01*
X163874490Y-99631000D02*
X163796099Y-99552609D01*
X152374300Y-46824700D02*
X115441500Y-46824700D01*
X160481700Y-54932100D02*
X152374300Y-46824700D01*
X76399200Y-40470300D02*
X77449500Y-40470300D01*
X115441500Y-46824700D02*
X111822100Y-43205300D01*
X80184500Y-43205300D02*
X77449500Y-40470300D01*
X111822100Y-43205300D02*
X80184500Y-43205300D01*
G04 #@! TO.N,LDS*
X196605700Y-38615600D02*
X196605700Y-37927900D01*
X196605700Y-37927900D02*
X195867900Y-37190100D01*
X195867900Y-37190100D02*
X178586000Y-37190100D01*
X178586000Y-37190100D02*
X169722700Y-46053400D01*
X169722700Y-46053400D02*
X145391400Y-46053400D01*
X197706000Y-38615600D02*
X196605700Y-38615600D01*
G04 #@! TO.N,UDS*
X194065700Y-38615600D02*
X194065700Y-38753100D01*
X194065700Y-38753100D02*
X193102800Y-39716000D01*
X193102800Y-39716000D02*
X178438600Y-39716000D01*
X195166000Y-38615600D02*
X194065700Y-38615600D01*
G04 #@! TO.N,EXT_DUART_CS*
X192626000Y-38615600D02*
X193726300Y-38615600D01*
X222018000Y-64817700D02*
X222018000Y-63717400D01*
X222018000Y-63717400D02*
X220917700Y-62617100D01*
X220917700Y-62617100D02*
X220917700Y-49689000D01*
X220917700Y-49689000D02*
X211782300Y-40553600D01*
X211782300Y-40553600D02*
X211782300Y-38426900D01*
X211782300Y-38426900D02*
X210844300Y-37488900D01*
X210844300Y-37488900D02*
X202324500Y-37488900D01*
X202324500Y-37488900D02*
X201385300Y-38428100D01*
X201385300Y-38428100D02*
X201385300Y-39041800D01*
X201385300Y-39041800D02*
X200708700Y-39718400D01*
X200708700Y-39718400D02*
X197224400Y-39718400D01*
X197224400Y-39718400D02*
X196305300Y-38799300D01*
X196305300Y-38799300D02*
X196305300Y-38123000D01*
X196305300Y-38123000D02*
X195686000Y-37503700D01*
X195686000Y-37503700D02*
X194610200Y-37503700D01*
X194610200Y-37503700D02*
X193726300Y-38387600D01*
X193726300Y-38387600D02*
X193726300Y-38615600D01*
G04 #@! TO.N,DUART_CS*
X219478000Y-64817700D02*
X219478000Y-65918000D01*
X101240000Y-103700000D02*
X102290300Y-103700000D01*
X102290300Y-103700000D02*
X103580300Y-102410000D01*
X103580300Y-102410000D02*
X129607900Y-102410000D01*
X129607900Y-102410000D02*
X131978100Y-100039800D01*
X131978100Y-100039800D02*
X136657600Y-100039800D01*
X136657600Y-100039800D02*
X144085400Y-92612000D01*
X144085400Y-92612000D02*
X212157900Y-92612000D01*
X212157900Y-92612000D02*
X222555300Y-82214600D01*
X222555300Y-82214600D02*
X222555300Y-74019900D01*
X222555300Y-74019900D02*
X223305200Y-73270000D01*
X223305200Y-73270000D02*
X223861000Y-73270000D01*
X223861000Y-73270000D02*
X224718000Y-72413000D01*
X224718000Y-72413000D02*
X224718000Y-71158000D01*
X224718000Y-71158000D02*
X219478000Y-65918000D01*
G04 #@! TO.N,ROM_CS_JMPR*
X215837700Y-51784400D02*
X214304500Y-50251200D01*
X214304500Y-50251200D02*
X166722600Y-50251200D01*
X166722600Y-50251200D02*
X166489600Y-50484200D01*
X216938000Y-51784400D02*
X215837700Y-51784400D01*
G04 #@! TO.N,RAM_CS_JMPR*
X152608300Y-59594600D02*
X156263500Y-55939400D01*
X156263500Y-55939400D02*
X172557900Y-55939400D01*
X172557900Y-55939400D02*
X177614200Y-50883100D01*
X177614200Y-50883100D02*
X178690900Y-50883100D01*
X178690900Y-50883100D02*
X179310700Y-51502900D01*
X179310700Y-51502900D02*
X179310700Y-52444000D01*
X179310700Y-52444000D02*
X178484700Y-53270000D01*
X178484700Y-53270000D02*
X178001100Y-53270000D01*
X178001100Y-53270000D02*
X177175300Y-54095800D01*
X177175300Y-54095800D02*
X177175300Y-60062000D01*
X177175300Y-60062000D02*
X177799900Y-60686600D01*
X177799900Y-60686600D02*
X179594700Y-60686600D01*
X179594700Y-60686600D02*
X184331700Y-55949600D01*
X184331700Y-55949600D02*
X213502900Y-55949600D01*
X213502900Y-55949600D02*
X215837700Y-58284400D01*
X151558000Y-59594600D02*
X152608300Y-59594600D01*
X216938000Y-58284400D02*
X215837700Y-58284400D01*
G04 #@! TO.N,D4*
X115118600Y-92954600D02*
X117829900Y-92954600D01*
X117829900Y-92954600D02*
X118426100Y-93550800D01*
X118426100Y-93550800D02*
X127514100Y-93550800D01*
X127514100Y-93550800D02*
X128534500Y-94571200D01*
X128534500Y-94571200D02*
X139796000Y-94571200D01*
X139796000Y-94571200D02*
X142442500Y-91924700D01*
X142442500Y-91924700D02*
X172825000Y-91924700D01*
X172825000Y-91924700D02*
X177189700Y-87560000D01*
X178240000Y-87560000D02*
X177189700Y-87560000D01*
X178765200Y-87560000D02*
X178240000Y-87560000D01*
X178765200Y-87560000D02*
X179290300Y-87560000D01*
X179290300Y-87560000D02*
X183420200Y-91689900D01*
X183420200Y-91689900D02*
X198479800Y-91689900D01*
X198479800Y-91689900D02*
X202689700Y-87480000D01*
X203740000Y-87480000D02*
X202689700Y-87480000D01*
G04 #@! TO.N,A5*
X164050300Y-69780000D02*
X165244700Y-70974400D01*
X165244700Y-70974400D02*
X173434800Y-70974400D01*
X173434800Y-70974400D02*
X175680200Y-68729000D01*
X175680200Y-68729000D02*
X186478700Y-68729000D01*
X186478700Y-68729000D02*
X187449700Y-69700000D01*
X161949700Y-69780000D02*
X160901800Y-70827900D01*
X160901800Y-70827900D02*
X158893300Y-70827900D01*
X188500000Y-69700000D02*
X187449700Y-69700000D01*
X163000000Y-69780000D02*
X164050300Y-69780000D01*
X162474900Y-69780000D02*
X163000000Y-69780000D01*
X162474900Y-69780000D02*
X161949700Y-69780000D01*
X135360000Y-139240000D02*
X135360000Y-138189700D01*
X163000000Y-118780000D02*
X161949700Y-118780000D01*
X161949700Y-118780000D02*
X160249400Y-120480300D01*
X160249400Y-120480300D02*
X151469200Y-120480300D01*
X151469200Y-120480300D02*
X150555900Y-121393600D01*
X150555900Y-121393600D02*
X150555900Y-122284300D01*
X150555900Y-122284300D02*
X144662600Y-128177600D01*
X144662600Y-128177600D02*
X143785400Y-128177600D01*
X143785400Y-128177600D02*
X136501800Y-135461200D01*
X136501800Y-135461200D02*
X136501800Y-137047900D01*
X136501800Y-137047900D02*
X135360000Y-138189700D01*
G04 #@! TO.N,D3*
X177189700Y-90100000D02*
X175026600Y-92263100D01*
X175026600Y-92263100D02*
X143819900Y-92263100D01*
X143819900Y-92263100D02*
X136426100Y-99656900D01*
X136426100Y-99656900D02*
X108782600Y-99656900D01*
X178240000Y-90100000D02*
X177189700Y-90100000D01*
X178765200Y-90100000D02*
X178240000Y-90100000D01*
X179290300Y-90100000D02*
X181180500Y-91990200D01*
X181180500Y-91990200D02*
X200719500Y-91990200D01*
X200719500Y-91990200D02*
X202689700Y-90020000D01*
X178765200Y-90100000D02*
X179290300Y-90100000D01*
X203740000Y-90020000D02*
X202689700Y-90020000D01*
G04 #@! TO.N,A6*
X188500000Y-67160000D02*
X187449700Y-67160000D01*
X163000000Y-67240000D02*
X164050300Y-67240000D01*
X164050300Y-67240000D02*
X167460800Y-70650500D01*
X167460800Y-70650500D02*
X172749300Y-70650500D01*
X172749300Y-70650500D02*
X177225900Y-66173900D01*
X177225900Y-66173900D02*
X186463600Y-66173900D01*
X186463600Y-66173900D02*
X187449700Y-67160000D01*
X161949700Y-116240000D02*
X158085300Y-120104400D01*
X158085300Y-120104400D02*
X151420400Y-120104400D01*
X151420400Y-120104400D02*
X148777000Y-122747800D01*
X148777000Y-122747800D02*
X148777000Y-123638300D01*
X148777000Y-123638300D02*
X144538100Y-127877200D01*
X144538100Y-127877200D02*
X143660900Y-127877200D01*
X143660900Y-127877200D02*
X135888400Y-135649700D01*
X135888400Y-135649700D02*
X135360000Y-135649700D01*
X135360000Y-136700000D02*
X135360000Y-135649700D01*
X163000000Y-116240000D02*
X161949700Y-116240000D01*
G04 #@! TO.N,D2*
X161949700Y-87560000D02*
X158071100Y-83681400D01*
X158071100Y-83681400D02*
X151724400Y-83681400D01*
X151724400Y-83681400D02*
X149645300Y-81602300D01*
X149645300Y-81602300D02*
X146187700Y-81602300D01*
X146187700Y-81602300D02*
X145797800Y-81212400D01*
X145797800Y-81212400D02*
X141627900Y-81212400D01*
X141627900Y-81212400D02*
X139965500Y-79550000D01*
X139965500Y-79550000D02*
X118697900Y-79550000D01*
X118697900Y-79550000D02*
X113398300Y-74250400D01*
X113398300Y-74250400D02*
X111976200Y-74250400D01*
X111976200Y-74250400D02*
X111404600Y-73678800D01*
X111404600Y-73678800D02*
X111404600Y-67725700D01*
X111404600Y-67725700D02*
X112500000Y-66630300D01*
X163000000Y-87560000D02*
X161949700Y-87560000D01*
X112500000Y-65580000D02*
X112500000Y-66630300D01*
G04 #@! TO.N,A7*
X187449700Y-64620000D02*
X186282200Y-65787500D01*
X186282200Y-65787500D02*
X176468700Y-65787500D01*
X176468700Y-65787500D02*
X171906100Y-70350100D01*
X171906100Y-70350100D02*
X169126000Y-70350100D01*
X169126000Y-70350100D02*
X164050300Y-65274400D01*
X164050300Y-65274400D02*
X164050300Y-64700000D01*
X188500000Y-64620000D02*
X187449700Y-64620000D01*
X163000000Y-64700000D02*
X164050300Y-64700000D01*
X161949700Y-113700000D02*
X156476600Y-119173100D01*
X156476600Y-119173100D02*
X140765800Y-119173100D01*
X140765800Y-119173100D02*
X137208900Y-122730000D01*
X137208900Y-122730000D02*
X135104800Y-122730000D01*
X135104800Y-122730000D02*
X134280700Y-123554100D01*
X134280700Y-123554100D02*
X134280700Y-126950400D01*
X134280700Y-126950400D02*
X134927800Y-127597500D01*
X134927800Y-127597500D02*
X135404100Y-127597500D01*
X135404100Y-127597500D02*
X136420400Y-128613800D01*
X136420400Y-128613800D02*
X136420400Y-132049300D01*
X136420400Y-132049300D02*
X135360000Y-133109700D01*
X135360000Y-134160000D02*
X135360000Y-133109700D01*
X163000000Y-113700000D02*
X161949700Y-113700000D01*
G04 #@! TO.N,D1*
X112500000Y-68120000D02*
X113550300Y-68120000D01*
X163000000Y-85020000D02*
X163000000Y-83969700D01*
X163000000Y-83969700D02*
X164054500Y-82915200D01*
X164054500Y-82915200D02*
X164054500Y-82038200D01*
X164054500Y-82038200D02*
X163226300Y-81210000D01*
X163226300Y-81210000D02*
X162784400Y-81210000D01*
X162784400Y-81210000D02*
X162511700Y-80937300D01*
X162511700Y-80937300D02*
X147262300Y-80937300D01*
X147262300Y-80937300D02*
X146287700Y-79962700D01*
X146287700Y-79962700D02*
X146287700Y-79844000D01*
X146287700Y-79844000D02*
X144949800Y-78506100D01*
X144949800Y-78506100D02*
X143765800Y-78506100D01*
X143765800Y-78506100D02*
X136970000Y-71710300D01*
X136970000Y-71710300D02*
X117140600Y-71710300D01*
X117140600Y-71710300D02*
X113550300Y-68120000D01*
G04 #@! TO.N,A8*
X135360000Y-130569700D02*
X133680100Y-128889800D01*
X133680100Y-128889800D02*
X133680100Y-121209900D01*
X133680100Y-121209900D02*
X134850300Y-120039700D01*
X134850300Y-120039700D02*
X136728300Y-120039700D01*
X136728300Y-120039700D02*
X138495800Y-118272200D01*
X138495800Y-118272200D02*
X154408700Y-118272200D01*
X154408700Y-118272200D02*
X161520900Y-111160000D01*
X161520900Y-111160000D02*
X161949700Y-111160000D01*
X135360000Y-131620000D02*
X135360000Y-130569700D01*
X163000000Y-111160000D02*
X161949700Y-111160000D01*
G04 #@! TO.N,D0*
X113550300Y-70660000D02*
X114900900Y-72010600D01*
X114900900Y-72010600D02*
X136845400Y-72010600D01*
X136845400Y-72010600D02*
X143641300Y-78806500D01*
X143641300Y-78806500D02*
X144813000Y-78806500D01*
X144813000Y-78806500D02*
X145943300Y-79936800D01*
X145943300Y-79936800D02*
X145943300Y-80043000D01*
X145943300Y-80043000D02*
X147191000Y-81290700D01*
X147191000Y-81290700D02*
X160760400Y-81290700D01*
X160760400Y-81290700D02*
X161949700Y-82480000D01*
X163000000Y-82480000D02*
X161949700Y-82480000D01*
X112500000Y-70660000D02*
X113550300Y-70660000D01*
G04 #@! TO.N,A9*
X135360000Y-128029700D02*
X134935300Y-128029700D01*
X134935300Y-128029700D02*
X133980400Y-127074800D01*
X133980400Y-127074800D02*
X133980400Y-121334300D01*
X133980400Y-121334300D02*
X134974700Y-120340000D01*
X134974700Y-120340000D02*
X138402100Y-120340000D01*
X138402100Y-120340000D02*
X140169600Y-118572500D01*
X140169600Y-118572500D02*
X154533100Y-118572500D01*
X154533100Y-118572500D02*
X160796400Y-112309200D01*
X160796400Y-112309200D02*
X163532500Y-112309200D01*
X163532500Y-112309200D02*
X168755200Y-117531900D01*
X168755200Y-117531900D02*
X168755200Y-118738900D01*
X168755200Y-118738900D02*
X169504800Y-119488500D01*
X169504800Y-119488500D02*
X171533900Y-119488500D01*
X171533900Y-119488500D02*
X177189700Y-113832700D01*
X177189700Y-113832700D02*
X177189700Y-113700000D01*
X135360000Y-129080000D02*
X135360000Y-128029700D01*
X204240000Y-114338700D02*
X197449300Y-121129400D01*
X197449300Y-121129400D02*
X195242400Y-121129400D01*
X195242400Y-121129400D02*
X191543000Y-117430000D01*
X191543000Y-117430000D02*
X183020300Y-117430000D01*
X183020300Y-117430000D02*
X179290300Y-113700000D01*
X204240000Y-114145100D02*
X204240000Y-114338700D01*
X204240000Y-114338700D02*
X204809000Y-114338700D01*
X204809000Y-114338700D02*
X216000000Y-125529700D01*
X178240000Y-113700000D02*
X179290300Y-113700000D01*
X178240000Y-113700000D02*
X177189700Y-113700000D01*
X216000000Y-126580000D02*
X216000000Y-125529700D01*
X204240000Y-113620000D02*
X204240000Y-114145100D01*
G04 #@! TO.N,AS*
X112500000Y-73200000D02*
X113550300Y-73200000D01*
X144324000Y-79871400D02*
X143273700Y-79871400D01*
X143273700Y-79871400D02*
X137895000Y-74492700D01*
X137895000Y-74492700D02*
X114843000Y-74492700D01*
X114843000Y-74492700D02*
X113550300Y-73200000D01*
G04 #@! TO.N,A10*
X178240000Y-67240000D02*
X179290300Y-67240000D01*
X203740000Y-67160000D02*
X202689700Y-67160000D01*
X202689700Y-67160000D02*
X202689700Y-68025900D01*
X202689700Y-68025900D02*
X197652800Y-73062800D01*
X197652800Y-73062800D02*
X194668000Y-73062800D01*
X194668000Y-73062800D02*
X190033800Y-68428600D01*
X190033800Y-68428600D02*
X180478900Y-68428600D01*
X180478900Y-68428600D02*
X179290300Y-67240000D01*
X164709400Y-116041400D02*
X163851700Y-115183700D01*
X163851700Y-115183700D02*
X161627300Y-115183700D01*
X161627300Y-115183700D02*
X157037300Y-119773700D01*
X157037300Y-119773700D02*
X143176600Y-119773700D01*
X143176600Y-119773700D02*
X136410300Y-126540000D01*
X135360000Y-126540000D02*
X136410300Y-126540000D01*
X178240000Y-116240000D02*
X179290300Y-116240000D01*
X204240000Y-116160000D02*
X203189700Y-116160000D01*
X203189700Y-116160000D02*
X197894000Y-121455700D01*
X197894000Y-121455700D02*
X195143800Y-121455700D01*
X195143800Y-121455700D02*
X193566800Y-119878700D01*
X193566800Y-119878700D02*
X182929000Y-119878700D01*
X182929000Y-119878700D02*
X179290300Y-116240000D01*
G04 #@! TO.N,A11*
X179290300Y-74860000D02*
X180480000Y-73670300D01*
X180480000Y-73670300D02*
X192043300Y-73670300D01*
X192043300Y-73670300D02*
X192336700Y-73963700D01*
X192336700Y-73963700D02*
X201873400Y-73963700D01*
X201873400Y-73963700D02*
X202689700Y-74780000D01*
X178240000Y-74860000D02*
X179290300Y-74860000D01*
X203740000Y-74780000D02*
X202689700Y-74780000D01*
X136410300Y-124000000D02*
X140936900Y-119473400D01*
X140936900Y-119473400D02*
X156912900Y-119473400D01*
X156912900Y-119473400D02*
X161502900Y-114883400D01*
X161502900Y-114883400D02*
X164471100Y-114883400D01*
X164471100Y-114883400D02*
X168154600Y-118566900D01*
X168154600Y-118566900D02*
X168154600Y-119095000D01*
X168154600Y-119095000D02*
X169523700Y-120464100D01*
X169523700Y-120464100D02*
X173793800Y-120464100D01*
X173793800Y-120464100D02*
X177189700Y-123860000D01*
X135360000Y-124000000D02*
X136410300Y-124000000D01*
X178240000Y-123860000D02*
X179290300Y-123860000D01*
X204240000Y-123780000D02*
X203189700Y-123780000D01*
X203189700Y-123780000D02*
X202038300Y-122628600D01*
X202038300Y-122628600D02*
X180521700Y-122628600D01*
X180521700Y-122628600D02*
X179290300Y-123860000D01*
X178240000Y-123860000D02*
X177189700Y-123860000D01*
G04 #@! TO.N,A12*
X179290300Y-69780000D02*
X180479600Y-70969300D01*
X180479600Y-70969300D02*
X190191700Y-70969300D01*
X190191700Y-70969300D02*
X192585500Y-73363100D01*
X192585500Y-73363100D02*
X199026600Y-73363100D01*
X199026600Y-73363100D02*
X202689700Y-69700000D01*
X178240000Y-69780000D02*
X179290300Y-69780000D01*
X203740000Y-69700000D02*
X202689700Y-69700000D01*
X135360000Y-121460000D02*
X137706800Y-121460000D01*
X137706800Y-121460000D02*
X140294000Y-118872800D01*
X140294000Y-118872800D02*
X155082200Y-118872800D01*
X155082200Y-118872800D02*
X161345300Y-112609700D01*
X161345300Y-112609700D02*
X163408000Y-112609700D01*
X163408000Y-112609700D02*
X168454900Y-117656600D01*
X168454900Y-117656600D02*
X168454900Y-118897700D01*
X168454900Y-118897700D02*
X169348400Y-119791200D01*
X169348400Y-119791200D02*
X176178500Y-119791200D01*
X176178500Y-119791200D02*
X177189700Y-118780000D01*
X179290300Y-118780000D02*
X180689400Y-120179100D01*
X180689400Y-120179100D02*
X193027500Y-120179100D01*
X193027500Y-120179100D02*
X194604500Y-121756100D01*
X194604500Y-121756100D02*
X200133600Y-121756100D01*
X200133600Y-121756100D02*
X203189700Y-118700000D01*
X178240000Y-118780000D02*
X179290300Y-118780000D01*
X204240000Y-118700000D02*
X203189700Y-118700000D01*
X177714900Y-118780000D02*
X178240000Y-118780000D01*
X177714900Y-118780000D02*
X177189700Y-118780000D01*
G04 #@! TO.N,RW*
X144988300Y-49434600D02*
X146045800Y-48377100D01*
X146045800Y-48377100D02*
X153007100Y-48377100D01*
X153007100Y-48377100D02*
X160269000Y-55639000D01*
X160269000Y-55639000D02*
X171336300Y-55639000D01*
X171336300Y-55639000D02*
X176420300Y-50555000D01*
X176420300Y-50555000D02*
X178813300Y-50555000D01*
X178813300Y-50555000D02*
X179615100Y-51356800D01*
X179615100Y-51356800D02*
X179615100Y-57194600D01*
X179615100Y-57194600D02*
X178240000Y-58569700D01*
X143938000Y-49434600D02*
X144988300Y-49434600D01*
X86000000Y-107729700D02*
X87770300Y-105959400D01*
X87770300Y-105959400D02*
X87770300Y-102482800D01*
X87770300Y-102482800D02*
X109433100Y-80820000D01*
X109433100Y-80820000D02*
X111449700Y-80820000D01*
X178240000Y-59620000D02*
X178240000Y-58569700D01*
X112500000Y-80820000D02*
X111449700Y-80820000D01*
X86000000Y-108780000D02*
X86000000Y-107729700D01*
X199565498Y-102944078D02*
X199565498Y-103982183D01*
X191072000Y-107465100D02*
X179394900Y-107465100D01*
X200527502Y-102606078D02*
X199903498Y-102606078D01*
X179039999Y-107820001D02*
X178240000Y-108620000D01*
X199565498Y-103982183D02*
X198598081Y-104949600D01*
X179394900Y-107465100D02*
X179039999Y-107820001D01*
X200877493Y-102956069D02*
X200527502Y-102606078D01*
X205306100Y-106423600D02*
X205306100Y-105510451D01*
X202751718Y-102956069D02*
X200877493Y-102956069D01*
X205306100Y-105510451D02*
X202751718Y-102956069D01*
X204240000Y-107489700D02*
X205306100Y-106423600D01*
X198598081Y-104949600D02*
X193587500Y-104949600D01*
X204240000Y-108540000D02*
X204240000Y-107489700D01*
X199903498Y-102606078D02*
X199565498Y-102944078D01*
X193587500Y-104949600D02*
X191072000Y-107465100D01*
G04 #@! TO.N,A13*
X163000000Y-108620000D02*
X161949700Y-108620000D01*
X161949700Y-108620000D02*
X155459700Y-115110000D01*
X155459700Y-115110000D02*
X135135200Y-115110000D01*
X135135200Y-115110000D02*
X134265600Y-115979600D01*
X134265600Y-115979600D02*
X134265600Y-116775300D01*
X134265600Y-116775300D02*
X135360000Y-117869700D01*
X135360000Y-118920000D02*
X135360000Y-117869700D01*
X163003700Y-108620000D02*
X163000000Y-108620000D01*
X164050300Y-108620000D02*
X168303000Y-108620000D01*
X163003700Y-108620000D02*
X164050300Y-108620000D01*
G04 #@! TO.N,DTACK*
X86000000Y-110269700D02*
X90869900Y-105399800D01*
X90869900Y-105399800D02*
X90869900Y-99879800D01*
X90869900Y-99879800D02*
X107389700Y-83360000D01*
X107389700Y-83360000D02*
X111449700Y-83360000D01*
X112500000Y-83360000D02*
X111449700Y-83360000D01*
X86000000Y-111320000D02*
X86000000Y-110269700D01*
G04 #@! TO.N,A14*
X178240000Y-111160000D02*
X178240000Y-112210300D01*
X178240000Y-112210300D02*
X171595700Y-118854600D01*
X171595700Y-118854600D02*
X171595700Y-118975300D01*
X171595700Y-118975300D02*
X171413600Y-119157400D01*
X171413600Y-119157400D02*
X169599100Y-119157400D01*
X169599100Y-119157400D02*
X169055500Y-118613800D01*
X169055500Y-118613800D02*
X169055500Y-115717900D01*
X169055500Y-115717900D02*
X163435700Y-110098100D01*
X163435700Y-110098100D02*
X162157900Y-110098100D01*
X162157900Y-110098100D02*
X155876000Y-116380000D01*
X155876000Y-116380000D02*
X135360000Y-116380000D01*
G04 #@! TO.N,A15*
X163000000Y-106080000D02*
X164050300Y-106080000D01*
X189000000Y-106000000D02*
X187949700Y-106000000D01*
X187949700Y-106000000D02*
X186817000Y-107132700D01*
X186817000Y-107132700D02*
X177794200Y-107132700D01*
X177794200Y-107132700D02*
X177183200Y-106521700D01*
X177183200Y-106521700D02*
X177183200Y-103002900D01*
X177183200Y-103002900D02*
X177996700Y-102189400D01*
X177996700Y-102189400D02*
X178540300Y-102189400D01*
X178540300Y-102189400D02*
X179291300Y-101438400D01*
X179291300Y-101438400D02*
X179291300Y-100565600D01*
X179291300Y-100565600D02*
X178675300Y-99949600D01*
X178675300Y-99949600D02*
X170180700Y-99949600D01*
X170180700Y-99949600D02*
X164050300Y-106080000D01*
X161949700Y-106080000D02*
X153229700Y-114800000D01*
X153229700Y-114800000D02*
X137370300Y-114800000D01*
X137370300Y-114800000D02*
X136410300Y-113840000D01*
X135360000Y-113840000D02*
X136410300Y-113840000D01*
X163000000Y-106080000D02*
X161949700Y-106080000D01*
G04 #@! TO.N,RESET*
X111449700Y-103680000D02*
X108889700Y-106240000D01*
X108889700Y-106240000D02*
X101690100Y-106240000D01*
X112500000Y-103680000D02*
X111449700Y-103680000D01*
X101240000Y-106240000D02*
X101690100Y-106240000D01*
G04 #@! TO.N,D15*
X136410300Y-85900000D02*
X138421900Y-83888400D01*
X138421900Y-83888400D02*
X145731200Y-83888400D01*
X135360000Y-85900000D02*
X136410300Y-85900000D01*
G04 #@! TO.N,/FC2*
X112500000Y-122949700D02*
X112075300Y-122949700D01*
X112075300Y-122949700D02*
X101813300Y-112687700D01*
X101813300Y-112687700D02*
X98477800Y-112687700D01*
X98477800Y-112687700D02*
X98333000Y-112542900D01*
X98333000Y-112542900D02*
X96666900Y-112542900D01*
X96666900Y-112542900D02*
X95759800Y-113450000D01*
X95759800Y-113450000D02*
X92645300Y-113450000D01*
X92645300Y-113450000D02*
X91866000Y-112670700D01*
X91866000Y-112670700D02*
X72966700Y-112670700D01*
X72966700Y-112670700D02*
X67800300Y-107504300D01*
X67800300Y-107504300D02*
X67800300Y-62892900D01*
X67800300Y-62892900D02*
X68857800Y-61835400D01*
X112500000Y-124000000D02*
X112500000Y-122949700D01*
X68857800Y-60785100D02*
X68857800Y-61835400D01*
G04 #@! TO.N,/FC0*
X112500000Y-128029700D02*
X110710100Y-126239800D01*
X112500000Y-129080000D02*
X112500000Y-128029700D01*
X110710100Y-126239800D02*
X110710100Y-124305100D01*
X110710100Y-124305100D02*
X101535000Y-115130000D01*
X101535000Y-115130000D02*
X99575700Y-115130000D01*
X99575700Y-115130000D02*
X97950600Y-113504900D01*
G04 #@! TO.N,D9*
X163000000Y-134020000D02*
X161949700Y-134020000D01*
X161949700Y-134020000D02*
X161212300Y-133282600D01*
X161212300Y-133282600D02*
X150814300Y-133282600D01*
G04 #@! TO.N,A1*
X112500000Y-130569700D02*
X112075400Y-130569700D01*
X112075400Y-130569700D02*
X101854500Y-120348800D01*
X101854500Y-120348800D02*
X101158500Y-120348800D01*
X101158500Y-120348800D02*
X96382700Y-115573000D01*
X96382700Y-115573000D02*
X96382700Y-115376900D01*
X112500000Y-131620000D02*
X112500000Y-130569700D01*
X144324000Y-73301700D02*
X143273700Y-74352000D01*
X143273700Y-74352000D02*
X143273700Y-75226500D01*
X143273700Y-75226500D02*
X143889000Y-75841800D01*
X143889000Y-75841800D02*
X144338100Y-75841800D01*
X144338100Y-75841800D02*
X146814500Y-78318200D01*
X146814500Y-78318200D02*
X146814500Y-80015400D01*
X146814500Y-80015400D02*
X147206100Y-80407000D01*
X147206100Y-80407000D02*
X149012400Y-80407000D01*
X149012400Y-80407000D02*
X150614200Y-78805200D01*
X150614200Y-78805200D02*
X155629300Y-78805200D01*
X155629300Y-78805200D02*
X157071700Y-80247600D01*
X161949700Y-79940000D02*
X161642100Y-80247600D01*
X161642100Y-80247600D02*
X157071700Y-80247600D01*
X144324000Y-72251400D02*
X144324000Y-73301700D01*
X163000000Y-79940000D02*
X161949700Y-79940000D01*
X112500000Y-131620000D02*
X113551800Y-132671800D01*
X113551800Y-132671800D02*
X113551800Y-134593800D01*
X150982278Y-138143000D02*
X152878400Y-138143000D01*
X155938600Y-135082800D02*
X163440800Y-135082800D01*
X163440800Y-135082800D02*
X164096300Y-134427300D01*
X149412268Y-139713011D02*
X150982278Y-138143000D01*
X111147100Y-139873900D02*
X112190700Y-140917500D01*
X163799999Y-129739999D02*
X163000000Y-128940000D01*
X164096300Y-134427300D02*
X164096300Y-130036300D01*
X112390700Y-135323700D02*
X111147100Y-136567300D01*
X146110389Y-139713011D02*
X149412268Y-139713011D01*
X144905900Y-140917500D02*
X146110389Y-139713011D01*
X112190700Y-140917500D02*
X144905900Y-140917500D01*
X164096300Y-130036300D02*
X163799999Y-129739999D01*
X111147100Y-136567300D02*
X111147100Y-139873900D01*
X112821900Y-135323700D02*
X112390700Y-135323700D01*
X152878400Y-138143000D02*
X155938600Y-135082800D01*
X113551800Y-134593800D02*
X112821900Y-135323700D01*
G04 #@! TO.N,A2*
X112197700Y-134160000D02*
X112197700Y-133440800D01*
X112197700Y-133440800D02*
X101506900Y-122750000D01*
X101506900Y-122750000D02*
X101011100Y-122750000D01*
X101011100Y-122750000D02*
X95382300Y-117121200D01*
X95382300Y-117121200D02*
X95382300Y-116381300D01*
X112197700Y-134160000D02*
X110846800Y-135510900D01*
X110846800Y-135510900D02*
X110846800Y-139998300D01*
X110846800Y-139998300D02*
X112066300Y-141217800D01*
X112066300Y-141217800D02*
X156291000Y-141217800D01*
X156291000Y-141217800D02*
X162125700Y-135383100D01*
X162125700Y-135383100D02*
X163565200Y-135383100D01*
X163565200Y-135383100D02*
X164396600Y-134551700D01*
X164396600Y-134551700D02*
X164396600Y-128846900D01*
X164396600Y-128846900D02*
X163000000Y-127450300D01*
X163000000Y-126400000D02*
X163000000Y-127450300D01*
X112500000Y-134160000D02*
X112197700Y-134160000D01*
X145374300Y-74791400D02*
X149005700Y-71160000D01*
X149005700Y-71160000D02*
X152342100Y-71160000D01*
X152342100Y-71160000D02*
X157809300Y-76627200D01*
X157809300Y-76627200D02*
X157809300Y-77016400D01*
X161949700Y-77400000D02*
X158192900Y-77400000D01*
X158192900Y-77400000D02*
X157809300Y-77016400D01*
X144324000Y-74791400D02*
X145374300Y-74791400D01*
X163000000Y-77400000D02*
X161949700Y-77400000D01*
G04 #@! TO.N,D7*
X203740000Y-79860000D02*
X202689700Y-79860000D01*
X202689700Y-79860000D02*
X202689700Y-79597400D01*
X202689700Y-79597400D02*
X197654300Y-74562000D01*
X197654300Y-74562000D02*
X190364400Y-74562000D01*
X190364400Y-74562000D02*
X188876400Y-76050000D01*
X188876400Y-76050000D02*
X181079700Y-76050000D01*
X181079700Y-76050000D02*
X178240000Y-78889700D01*
X178240000Y-79940000D02*
X178240000Y-78889700D01*
X135360000Y-65580000D02*
X136410300Y-65580000D01*
X136410300Y-65580000D02*
X136555300Y-65725000D01*
X136555300Y-65725000D02*
X150756800Y-65725000D01*
X150756800Y-65725000D02*
X158445100Y-73413300D01*
X158445100Y-73413300D02*
X166378800Y-73413300D01*
X166378800Y-73413300D02*
X167942800Y-71849300D01*
X167942800Y-71849300D02*
X171199600Y-71849300D01*
X171199600Y-71849300D02*
X178240000Y-78889700D01*
G04 #@! TO.N,A3*
X112500000Y-136700000D02*
X112500000Y-135649700D01*
X91608300Y-114806700D02*
X91826000Y-114589000D01*
X91826000Y-114589000D02*
X96904100Y-114589000D01*
X96904100Y-114589000D02*
X99985100Y-117670000D01*
X99985100Y-117670000D02*
X101499100Y-117670000D01*
X101499100Y-117670000D02*
X111059400Y-127230300D01*
X111059400Y-127230300D02*
X111059400Y-129129000D01*
X111059400Y-129129000D02*
X112067900Y-130137500D01*
X112067900Y-130137500D02*
X112544200Y-130137500D01*
X112544200Y-130137500D02*
X113852200Y-131445500D01*
X113852200Y-131445500D02*
X113852200Y-134732800D01*
X113852200Y-134732800D02*
X112935300Y-135649700D01*
X112935300Y-135649700D02*
X112500000Y-135649700D01*
X112500000Y-137750300D02*
X111447400Y-138802900D01*
X111447400Y-138802900D02*
X111447400Y-139749500D01*
X111447400Y-139749500D02*
X112315100Y-140617200D01*
X112315100Y-140617200D02*
X135893100Y-140617200D01*
X135893100Y-140617200D02*
X141814000Y-134696300D01*
X141814000Y-134696300D02*
X141814000Y-132701600D01*
X141814000Y-132701600D02*
X143772900Y-130742700D01*
X143772900Y-130742700D02*
X155067000Y-130742700D01*
X155067000Y-130742700D02*
X161949700Y-123860000D01*
X163000000Y-123860000D02*
X161949700Y-123860000D01*
X112500000Y-136700000D02*
X112500000Y-137750300D01*
X157654700Y-74860000D02*
X161949700Y-74860000D01*
X144324000Y-76281100D02*
X143899300Y-76281100D01*
X143899300Y-76281100D02*
X142963500Y-75345300D01*
X142963500Y-75345300D02*
X142963500Y-71655400D01*
X142963500Y-71655400D02*
X143759300Y-70859600D01*
X143759300Y-70859600D02*
X153654300Y-70859600D01*
X153654300Y-70859600D02*
X157654700Y-74860000D01*
X163000000Y-74860000D02*
X161949700Y-74860000D01*
X144324000Y-77331400D02*
X144324000Y-76281100D01*
G04 #@! TO.N,D6*
X203740000Y-82400000D02*
X202689700Y-82400000D01*
X178240000Y-82480000D02*
X179290300Y-82480000D01*
X179290300Y-82480000D02*
X187899500Y-91089200D01*
X187899500Y-91089200D02*
X194000500Y-91089200D01*
X194000500Y-91089200D02*
X202689700Y-82400000D01*
X135360000Y-64090300D02*
X134309600Y-65140700D01*
X134309600Y-65140700D02*
X134309600Y-66050100D01*
X134309600Y-66050100D02*
X135290800Y-67031300D01*
X135290800Y-67031300D02*
X151597000Y-67031300D01*
X151597000Y-67031300D02*
X158322400Y-73756700D01*
X158322400Y-73756700D02*
X163603900Y-73756700D01*
X163603900Y-73756700D02*
X169398600Y-79551400D01*
X135360000Y-63040000D02*
X135360000Y-64090300D01*
G04 #@! TO.N,A4*
X114152500Y-136537200D02*
X114152500Y-124096200D01*
X114152500Y-124096200D02*
X112705700Y-122649400D01*
X112705700Y-122649400D02*
X112199800Y-122649400D01*
X112199800Y-122649400D02*
X101937800Y-112387400D01*
X101937800Y-112387400D02*
X98602200Y-112387400D01*
X98602200Y-112387400D02*
X98457400Y-112242600D01*
X98457400Y-112242600D02*
X96392600Y-112242600D01*
X96392600Y-112242600D02*
X95485500Y-113149700D01*
X95485500Y-113149700D02*
X93069600Y-113149700D01*
X93069600Y-113149700D02*
X92290200Y-112370300D01*
X92290200Y-112370300D02*
X85554400Y-112370300D01*
X85554400Y-112370300D02*
X84901900Y-111717800D01*
X84901900Y-111717800D02*
X84901900Y-105848400D01*
X84901900Y-105848400D02*
X86000000Y-104750300D01*
X112500000Y-138189700D02*
X114152500Y-136537200D01*
X161949700Y-121320000D02*
X152827400Y-130442300D01*
X152827400Y-130442300D02*
X143648400Y-130442300D01*
X143648400Y-130442300D02*
X136633200Y-137457500D01*
X136633200Y-137457500D02*
X136633200Y-139452400D01*
X136633200Y-139452400D02*
X135768700Y-140316900D01*
X135768700Y-140316900D02*
X117932200Y-140316900D01*
X117932200Y-140316900D02*
X114152500Y-136537200D01*
X86000000Y-103700000D02*
X86000000Y-104750300D01*
X164050300Y-72320000D02*
X165095600Y-71274700D01*
X165095600Y-71274700D02*
X173559300Y-71274700D01*
X173559300Y-71274700D02*
X173564300Y-71269700D01*
X173564300Y-71269700D02*
X186479400Y-71269700D01*
X186479400Y-71269700D02*
X187449700Y-72240000D01*
X188500000Y-72240000D02*
X187449700Y-72240000D01*
X163000000Y-72320000D02*
X164050300Y-72320000D01*
X162737500Y-72320000D02*
X163000000Y-72320000D01*
X162737500Y-72320000D02*
X161949700Y-72320000D01*
X163000000Y-121320000D02*
X161949700Y-121320000D01*
X112500000Y-139240000D02*
X112500000Y-138189700D01*
X161949700Y-72320000D02*
X158565000Y-72320000D01*
G04 #@! TO.N,D5*
X202689700Y-84940000D02*
X196240100Y-91389600D01*
X196240100Y-91389600D02*
X185659900Y-91389600D01*
X185659900Y-91389600D02*
X179290300Y-85020000D01*
X178240000Y-85020000D02*
X179290300Y-85020000D01*
X203740000Y-84940000D02*
X202689700Y-84940000D01*
X140426021Y-92280501D02*
X138979059Y-92280501D01*
X171657149Y-91602851D02*
X145471172Y-91602851D01*
X145242021Y-91373700D02*
X141332822Y-91373700D01*
X136669900Y-91373700D02*
X135687300Y-92356300D01*
X178240000Y-85020000D02*
X171657149Y-91602851D01*
X135687300Y-92356300D02*
X134022300Y-92356300D01*
X132713900Y-93664700D02*
X128604200Y-93664700D01*
X145471172Y-91602851D02*
X145242021Y-91373700D01*
X128604200Y-93664700D02*
X127839900Y-92900400D01*
X138072258Y-91373700D02*
X136669900Y-91373700D01*
X138979059Y-92280501D02*
X138072258Y-91373700D01*
X119580585Y-92900400D02*
X119014900Y-92900400D01*
X134022300Y-92356300D02*
X132713900Y-93664700D01*
X141332822Y-91373700D02*
X140426021Y-92280501D01*
X127839900Y-92900400D02*
X119580585Y-92900400D01*
G04 #@! TO.N,DUART_IRQ*
X144208000Y-122683300D02*
X143033300Y-123858000D01*
X143033300Y-123858000D02*
X143033300Y-127976400D01*
X143033300Y-127976400D02*
X135660300Y-135349400D01*
X135660300Y-135349400D02*
X126675800Y-135349400D01*
X126675800Y-135349400D02*
X125838300Y-136186900D01*
X144208000Y-121633000D02*
X144208000Y-122683300D01*
G04 #@! TO.N,RAM_LDS*
X224737200Y-101952500D02*
X224737200Y-96130900D01*
X222277900Y-93671600D02*
X189669100Y-93671600D01*
X223620000Y-104120000D02*
X223620000Y-103069700D01*
X224737200Y-96130900D02*
X222277900Y-93671600D01*
X223620000Y-103069700D02*
X224737200Y-101952500D01*
G04 #@! TO.N,OE*
X179290300Y-72320000D02*
X180339800Y-73369500D01*
X180339800Y-73369500D02*
X192167200Y-73369500D01*
X192167200Y-73369500D02*
X192461100Y-73663400D01*
X192461100Y-73663400D02*
X201266300Y-73663400D01*
X201266300Y-73663400D02*
X202689700Y-72240000D01*
X178240000Y-72320000D02*
X179290300Y-72320000D01*
X203740000Y-72240000D02*
X202689700Y-72240000D01*
X165089100Y-62361400D02*
X163592300Y-60864600D01*
X163592300Y-60864600D02*
X151333100Y-60864600D01*
X151333100Y-60864600D02*
X150507500Y-60039000D01*
X150507500Y-60039000D02*
X150507500Y-59124600D01*
X150507500Y-59124600D02*
X151307500Y-58324600D01*
X151307500Y-58324600D02*
X151799000Y-58324600D01*
X151799000Y-58324600D02*
X152660900Y-57462700D01*
X152660900Y-57462700D02*
X152660900Y-54113800D01*
X152660900Y-54113800D02*
X152001200Y-53454100D01*
X152001200Y-53454100D02*
X151114800Y-53454100D01*
X151114800Y-53454100D02*
X149369500Y-55199400D01*
X149369500Y-55199400D02*
X149369500Y-55784100D01*
X149369500Y-55784100D02*
X148428400Y-56725200D01*
X148428400Y-56725200D02*
X146539700Y-56725200D01*
X146539700Y-56725200D02*
X146313400Y-56498900D01*
X146313400Y-56498900D02*
X146313400Y-54350000D01*
X146313400Y-54350000D02*
X143938000Y-51974600D01*
X178240000Y-121320000D02*
X179290300Y-121320000D01*
X204240000Y-121240000D02*
X203189700Y-121240000D01*
X203189700Y-121240000D02*
X202122100Y-122307600D01*
X202122100Y-122307600D02*
X180277900Y-122307600D01*
X180277900Y-122307600D02*
X179290300Y-121320000D01*
G04 #@! TO.N,INV_RAM_CS*
X214949700Y-96500000D02*
X191348200Y-96500000D01*
X191348200Y-96500000D02*
X188501800Y-93653600D01*
X188501800Y-93653600D02*
X156151500Y-93653600D01*
X216000000Y-103069700D02*
X214949700Y-102019400D01*
X214949700Y-102019400D02*
X214949700Y-96500000D01*
X216000000Y-104120000D02*
X216000000Y-103069700D01*
X216000000Y-96500000D02*
X214949700Y-96500000D01*
G04 #@! TO.N,Net-(U7-Pad3)*
X142887700Y-54514600D02*
X141808300Y-55594000D01*
X141808300Y-55594000D02*
X94602700Y-55594000D01*
X94602700Y-55594000D02*
X94070000Y-56126700D01*
X94070000Y-56126700D02*
X94070000Y-56532600D01*
X94070000Y-56532600D02*
X89482600Y-61120000D01*
X89482600Y-61120000D02*
X86260000Y-61120000D01*
X143938000Y-54514600D02*
X142887700Y-54514600D01*
G04 #@! TO.N,DUART_CLK*
X101240000Y-111320000D02*
X102290300Y-111320000D01*
X102290300Y-111320000D02*
X103947500Y-109662800D01*
X103947500Y-109662800D02*
X107569300Y-109662800D01*
G04 #@! TO.N,Net-(U11-Pad6)*
X151558000Y-57054600D02*
X150507700Y-58104900D01*
X106661800Y-58104900D02*
X102586800Y-62179900D01*
X150507700Y-58104900D02*
X106661800Y-58104900D01*
X102586800Y-62179900D02*
X80511700Y-62179900D01*
X67723400Y-53626600D02*
X67723400Y-51686100D01*
X68617112Y-54520312D02*
X67723400Y-53626600D01*
X72852112Y-54520312D02*
X68617112Y-54520312D01*
X67723400Y-51686100D02*
X67979201Y-51430299D01*
X80511700Y-62179900D02*
X72852112Y-54520312D01*
X67979201Y-51430299D02*
X68779200Y-50630300D01*
G04 #@! TO.N,Net-(U7-Pad5)*
X142887700Y-59594600D02*
X142734300Y-59441200D01*
X142734300Y-59441200D02*
X127017300Y-59441200D01*
X127017300Y-59441200D02*
X121928900Y-64529600D01*
X121928900Y-64529600D02*
X76258400Y-64529600D01*
X76258400Y-64529600D02*
X75398300Y-65389700D01*
X75398300Y-65389700D02*
X75398300Y-66283900D01*
X75398300Y-66283900D02*
X76249500Y-67135100D01*
X76249500Y-67135100D02*
X83368200Y-67135100D01*
X83368200Y-67135100D02*
X93326900Y-77093800D01*
X93326900Y-77093800D02*
X93326900Y-78948000D01*
X93326900Y-78948000D02*
X90154900Y-82120000D01*
X90154900Y-82120000D02*
X86260000Y-82120000D01*
X143938000Y-59594600D02*
X142887700Y-59594600D01*
G04 #@! TO.N,Net-(U11-Pad9)*
X76399200Y-50630300D02*
X117822300Y-50630300D01*
X117822300Y-50630300D02*
X120436600Y-53244600D01*
X120436600Y-53244600D02*
X144168000Y-53244600D01*
X144168000Y-53244600D02*
X145906800Y-54983400D01*
X145906800Y-54983400D02*
X145906800Y-56517000D01*
X145906800Y-56517000D02*
X146415300Y-57025500D01*
X146415300Y-57025500D02*
X148552800Y-57025500D01*
X148552800Y-57025500D02*
X150507700Y-55070600D01*
X150507700Y-55070600D02*
X150507700Y-54514600D01*
X151558000Y-54514600D02*
X150507700Y-54514600D01*
G04 #@! TO.N,Net-(U8-Pad5)*
X143273700Y-82411400D02*
X142952300Y-82090000D01*
X142952300Y-82090000D02*
X120352200Y-82090000D01*
X120352200Y-82090000D02*
X112813000Y-74550800D01*
X112813000Y-74550800D02*
X111819700Y-74550800D01*
X111819700Y-74550800D02*
X104770600Y-67501700D01*
X104770600Y-67501700D02*
X104770600Y-67101200D01*
X104770600Y-67101200D02*
X103534500Y-65865100D01*
X103534500Y-65865100D02*
X76477800Y-65865100D01*
X144324000Y-82411400D02*
X143273700Y-82411400D01*
G04 #@! TO.N,DUART_IACK*
X101240000Y-98620000D02*
X102290300Y-98620000D01*
X102290300Y-98620000D02*
X111200300Y-89710000D01*
X111200300Y-89710000D02*
X113550400Y-89710000D01*
X113550400Y-89710000D02*
X118524100Y-84736300D01*
X118524100Y-84736300D02*
X135469300Y-84736300D01*
X135469300Y-84736300D02*
X136617600Y-83588000D01*
X136617600Y-83588000D02*
X144952900Y-83588000D01*
X144952900Y-83588000D02*
X146638300Y-81902600D01*
X146638300Y-81902600D02*
X149016100Y-81902600D01*
X149016100Y-81902600D02*
X151944000Y-84830500D01*
X151944000Y-84830500D02*
X151944000Y-84951400D01*
G04 #@! TO.N,INV_LDS*
X216000000Y-74540000D02*
X216000000Y-75590300D01*
X216000000Y-75590300D02*
X217975400Y-77565700D01*
X217975400Y-77565700D02*
X217975400Y-78573200D01*
X223620000Y-99040000D02*
X223620000Y-100090300D01*
X223620000Y-100090300D02*
X222569700Y-101140600D01*
X222569700Y-101140600D02*
X222569700Y-102548900D01*
X216000000Y-106660000D02*
X217050300Y-106660000D01*
X222569700Y-102548900D02*
X219516500Y-105602100D01*
X219516500Y-105602100D02*
X218108200Y-105602100D01*
X218108200Y-105602100D02*
X217050300Y-106660000D01*
G04 #@! TO.N,TxD-A*
X100189700Y-116400000D02*
X97946100Y-114156400D01*
X97946100Y-114156400D02*
X91339000Y-114156400D01*
X91339000Y-114156400D02*
X88005800Y-117489600D01*
X88005800Y-117489600D02*
X88005800Y-117489700D01*
X88005800Y-117489700D02*
X71100600Y-117489700D01*
X71100600Y-117489700D02*
X70050300Y-118540000D01*
X101240000Y-116400000D02*
X100189700Y-116400000D01*
X69000000Y-118540000D02*
X70050300Y-118540000D01*
G04 #@! TO.N,RxD-A*
X100189700Y-113860000D02*
X99225400Y-113860000D01*
X99225400Y-113860000D02*
X98208600Y-112843200D01*
X98208600Y-112843200D02*
X97669900Y-112843200D01*
X97669900Y-112843200D02*
X96657000Y-113856100D01*
X96657000Y-113856100D02*
X91127800Y-113856100D01*
X91127800Y-113856100D02*
X90039100Y-114944800D01*
X90039100Y-114944800D02*
X72294900Y-114944800D01*
X72294900Y-114944800D02*
X69750000Y-117489700D01*
X69750000Y-117489700D02*
X68560600Y-117489700D01*
X68560600Y-117489700D02*
X67949700Y-118100600D01*
X67949700Y-118100600D02*
X67949700Y-118979400D01*
X67949700Y-118979400D02*
X69000000Y-120029700D01*
X101240000Y-113860000D02*
X100189700Y-113860000D01*
X69000000Y-121080000D02*
X69000000Y-120029700D01*
G04 #@! TO.N,Net-(U18-Pad10)*
X69165100Y-107373200D02*
X69165100Y-106322900D01*
X76785100Y-94673200D02*
X76785100Y-95723500D01*
X76785100Y-95723500D02*
X75734800Y-96773800D01*
X75734800Y-96773800D02*
X75734800Y-99753200D01*
X75734800Y-99753200D02*
X69165100Y-106322900D01*
G04 #@! TD*
M02*
