G04 #@! TF.GenerationSoftware,KiCad,Pcbnew,5.0.1-33cea8e~68~ubuntu18.04.1*
G04 #@! TF.CreationDate,2018-11-05T06:29:50-06:00*
G04 #@! TF.ProjectId,raven-prototypes,726176656E2D70726F746F7479706573,rev?*
G04 #@! TF.SameCoordinates,Original*
G04 #@! TF.FileFunction,Copper,L2,Bot,Signal*
G04 #@! TF.FilePolarity,Positive*
%FSLAX46Y46*%
G04 Gerber Fmt 4.6, Leading zero omitted, Abs format (unit mm)*
G04 Created by KiCad (PCBNEW 5.0.1-33cea8e~68~ubuntu18.04.1) date Mon 05 Nov 2018 06:29:50 AM CST*
%MOMM*%
%LPD*%
G01*
G04 APERTURE LIST*
G04 #@! TA.AperFunction,ComponentPad*
%ADD10R,1.600000X1.600000*%
G04 #@! TD*
G04 #@! TA.AperFunction,ComponentPad*
%ADD11O,1.600000X1.600000*%
G04 #@! TD*
G04 #@! TA.AperFunction,ComponentPad*
%ADD12O,1.500000X0.900000*%
G04 #@! TD*
G04 #@! TA.AperFunction,ComponentPad*
%ADD13R,1.500000X0.900000*%
G04 #@! TD*
G04 #@! TA.AperFunction,ComponentPad*
%ADD14R,1.700000X1.700000*%
G04 #@! TD*
G04 #@! TA.AperFunction,ComponentPad*
%ADD15O,1.700000X1.700000*%
G04 #@! TD*
G04 #@! TA.AperFunction,ComponentPad*
%ADD16C,2.286000*%
G04 #@! TD*
G04 #@! TA.AperFunction,ComponentPad*
%ADD17C,1.600000*%
G04 #@! TD*
G04 #@! TA.AperFunction,ViaPad*
%ADD18C,0.800000*%
G04 #@! TD*
G04 #@! TA.AperFunction,Conductor*
%ADD19C,0.100000*%
G04 #@! TD*
G04 APERTURE END LIST*
D10*
G04 #@! TO.P,U3,1*
G04 #@! TO.N,A19*
X163000000Y-52000000D03*
D11*
G04 #@! TO.P,U3,17*
G04 #@! TO.N,D3*
X178240000Y-90100000D03*
G04 #@! TO.P,U3,2*
G04 #@! TO.N,A17*
X163000000Y-54540000D03*
G04 #@! TO.P,U3,18*
G04 #@! TO.N,D4*
X178240000Y-87560000D03*
G04 #@! TO.P,U3,3*
G04 #@! TO.N,A15*
X163000000Y-57080000D03*
G04 #@! TO.P,U3,19*
G04 #@! TO.N,D5*
X178240000Y-85020000D03*
G04 #@! TO.P,U3,4*
G04 #@! TO.N,A13*
X163000000Y-59620000D03*
G04 #@! TO.P,U3,20*
G04 #@! TO.N,D6*
X178240000Y-82480000D03*
G04 #@! TO.P,U3,5*
G04 #@! TO.N,A8*
X163000000Y-62160000D03*
G04 #@! TO.P,U3,21*
G04 #@! TO.N,D7*
X178240000Y-79940000D03*
G04 #@! TO.P,U3,6*
G04 #@! TO.N,A7*
X163000000Y-64700000D03*
G04 #@! TO.P,U3,22*
G04 #@! TO.N,RAM_LDS*
X178240000Y-77400000D03*
G04 #@! TO.P,U3,7*
G04 #@! TO.N,A6*
X163000000Y-67240000D03*
G04 #@! TO.P,U3,23*
G04 #@! TO.N,A11*
X178240000Y-74860000D03*
G04 #@! TO.P,U3,8*
G04 #@! TO.N,A5*
X163000000Y-69780000D03*
G04 #@! TO.P,U3,24*
G04 #@! TO.N,OE*
X178240000Y-72320000D03*
G04 #@! TO.P,U3,9*
G04 #@! TO.N,A4*
X163000000Y-72320000D03*
G04 #@! TO.P,U3,25*
G04 #@! TO.N,A12*
X178240000Y-69780000D03*
G04 #@! TO.P,U3,10*
G04 #@! TO.N,A3*
X163000000Y-74860000D03*
G04 #@! TO.P,U3,26*
G04 #@! TO.N,A10*
X178240000Y-67240000D03*
G04 #@! TO.P,U3,11*
G04 #@! TO.N,A2*
X163000000Y-77400000D03*
G04 #@! TO.P,U3,27*
G04 #@! TO.N,A9*
X178240000Y-64700000D03*
G04 #@! TO.P,U3,12*
G04 #@! TO.N,A1*
X163000000Y-79940000D03*
G04 #@! TO.P,U3,28*
G04 #@! TO.N,A14*
X178240000Y-62160000D03*
G04 #@! TO.P,U3,13*
G04 #@! TO.N,D0*
X163000000Y-82480000D03*
G04 #@! TO.P,U3,29*
G04 #@! TO.N,RW*
X178240000Y-59620000D03*
G04 #@! TO.P,U3,14*
G04 #@! TO.N,D1*
X163000000Y-85020000D03*
G04 #@! TO.P,U3,30*
G04 #@! TO.N,A18*
X178240000Y-57080000D03*
G04 #@! TO.P,U3,15*
G04 #@! TO.N,D2*
X163000000Y-87560000D03*
G04 #@! TO.P,U3,31*
G04 #@! TO.N,A16*
X178240000Y-54540000D03*
G04 #@! TO.P,U3,16*
G04 #@! TO.N,GND*
X163000000Y-90100000D03*
G04 #@! TO.P,U3,32*
G04 #@! TO.N,+5V*
X178240000Y-52000000D03*
G04 #@! TD*
D10*
G04 #@! TO.P,U2,1*
G04 #@! TO.N,DUART_IRQ*
X144208000Y-121633000D03*
D11*
G04 #@! TO.P,U2,9*
G04 #@! TO.N,/IPL0*
X151828000Y-139413000D03*
G04 #@! TO.P,U2,2*
G04 #@! TO.N,Net-(U2-Pad2)*
X144208000Y-124173000D03*
G04 #@! TO.P,U2,10*
G04 #@! TO.N,GND*
X151828000Y-136873000D03*
G04 #@! TO.P,U2,3*
G04 #@! TO.N,Net-(U2-Pad3)*
X144208000Y-126713000D03*
G04 #@! TO.P,U2,11*
G04 #@! TO.N,Net-(U2-Pad11)*
X151828000Y-134333000D03*
G04 #@! TO.P,U2,4*
G04 #@! TO.N,Net-(U2-Pad4)*
X144208000Y-129253000D03*
G04 #@! TO.P,U2,12*
G04 #@! TO.N,Net-(U2-Pad12)*
X151828000Y-131793000D03*
G04 #@! TO.P,U2,5*
G04 #@! TO.N,GND*
X144208000Y-131793000D03*
G04 #@! TO.P,U2,13*
G04 #@! TO.N,Net-(U2-Pad13)*
X151828000Y-129253000D03*
G04 #@! TO.P,U2,6*
G04 #@! TO.N,/IPL2*
X144208000Y-134333000D03*
G04 #@! TO.P,U2,14*
G04 #@! TO.N,Net-(U2-Pad14)*
X151828000Y-126713000D03*
G04 #@! TO.P,U2,7*
G04 #@! TO.N,/IPL1*
X144208000Y-136873000D03*
G04 #@! TO.P,U2,15*
G04 #@! TO.N,Net-(U2-Pad15)*
X151828000Y-124173000D03*
G04 #@! TO.P,U2,8*
G04 #@! TO.N,GND*
X144208000Y-139413000D03*
G04 #@! TO.P,U2,16*
G04 #@! TO.N,+5V*
X151828000Y-121633000D03*
G04 #@! TD*
D10*
G04 #@! TO.P,U11,1*
G04 #@! TO.N,A20*
X68779200Y-37930300D03*
D11*
G04 #@! TO.P,U11,8*
G04 #@! TO.N,Net-(U11-Pad8)*
X76399200Y-53170300D03*
G04 #@! TO.P,U11,2*
G04 #@! TO.N,A21*
X68779200Y-40470300D03*
G04 #@! TO.P,U11,9*
G04 #@! TO.N,Net-(U11-Pad9)*
X76399200Y-50630300D03*
G04 #@! TO.P,U11,3*
G04 #@! TO.N,N/C*
X68779200Y-43010300D03*
G04 #@! TO.P,U11,10*
G04 #@! TO.N,+5V*
X76399200Y-48090300D03*
G04 #@! TO.P,U11,4*
G04 #@! TO.N,A22*
X68779200Y-45550300D03*
G04 #@! TO.P,U11,11*
G04 #@! TO.N,N/C*
X76399200Y-45550300D03*
G04 #@! TO.P,U11,5*
G04 #@! TO.N,A23*
X68779200Y-48090300D03*
G04 #@! TO.P,U11,12*
G04 #@! TO.N,+5V*
X76399200Y-43010300D03*
G04 #@! TO.P,U11,6*
G04 #@! TO.N,Net-(U11-Pad6)*
X68779200Y-50630300D03*
G04 #@! TO.P,U11,13*
G04 #@! TO.N,A16*
X76399200Y-40470300D03*
G04 #@! TO.P,U11,7*
G04 #@! TO.N,GND*
X68779200Y-53170300D03*
G04 #@! TO.P,U11,14*
G04 #@! TO.N,+5V*
X76399200Y-37930300D03*
G04 #@! TD*
D12*
G04 #@! TO.P,U10,2*
G04 #@! TO.N,+5V*
X94467700Y-40248800D03*
G04 #@! TO.P,U10,3*
G04 #@! TO.N,GND*
X94467700Y-38978800D03*
D13*
G04 #@! TO.P,U10,1*
G04 #@! TO.N,RESET*
X94467700Y-41518800D03*
G04 #@! TD*
D14*
G04 #@! TO.P,J1,1*
G04 #@! TO.N,TxD-A-SERIAL*
X155397000Y-38229500D03*
D15*
G04 #@! TO.P,J1,2*
G04 #@! TO.N,RxD-A-SERIAL*
X157937000Y-38229500D03*
G04 #@! TO.P,J1,3*
G04 #@! TO.N,RTS-A-SERIAL*
X160477000Y-38229500D03*
G04 #@! TO.P,J1,4*
G04 #@! TO.N,CTS-A-SERIAL*
X163017000Y-38229500D03*
G04 #@! TO.P,J1,5*
G04 #@! TO.N,TxD-B-SERIAL*
X165557000Y-38229500D03*
G04 #@! TO.P,J1,6*
G04 #@! TO.N,RxD-B-SERIAL*
X168097000Y-38229500D03*
G04 #@! TO.P,J1,7*
G04 #@! TO.N,RTS-B-SERIAL*
X170637000Y-38229500D03*
G04 #@! TO.P,J1,8*
G04 #@! TO.N,CTS-B-SERIAL*
X173177000Y-38229500D03*
G04 #@! TD*
D14*
G04 #@! TO.P,J2,1*
G04 #@! TO.N,EXT_ROM_CS*
X187546000Y-38615600D03*
D15*
G04 #@! TO.P,J2,2*
G04 #@! TO.N,EXT_RAM_CS*
X190086000Y-38615600D03*
G04 #@! TO.P,J2,3*
G04 #@! TO.N,EXT_DUART_CS*
X192626000Y-38615600D03*
G04 #@! TO.P,J2,4*
G04 #@! TO.N,UDS*
X195166000Y-38615600D03*
G04 #@! TO.P,J2,5*
G04 #@! TO.N,LDS*
X197706000Y-38615600D03*
G04 #@! TO.P,J2,6*
G04 #@! TO.N,Net-(J2-Pad6)*
X200246000Y-38615600D03*
G04 #@! TO.P,J2,7*
G04 #@! TO.N,A16*
X202786000Y-38615600D03*
G04 #@! TO.P,J2,8*
G04 #@! TO.N,A17*
X205326000Y-38615600D03*
G04 #@! TO.P,J2,9*
G04 #@! TO.N,A18*
X207866000Y-38615600D03*
G04 #@! TO.P,J2,10*
G04 #@! TO.N,A19*
X210406000Y-38615600D03*
G04 #@! TO.P,J2,11*
G04 #@! TO.N,A20*
X212946000Y-38615600D03*
G04 #@! TO.P,J2,12*
G04 #@! TO.N,A21*
X215486000Y-38615600D03*
G04 #@! TO.P,J2,13*
G04 #@! TO.N,A22*
X218026000Y-38615600D03*
G04 #@! TO.P,J2,14*
G04 #@! TO.N,A23*
X220566000Y-38615600D03*
G04 #@! TD*
D16*
G04 #@! TO.P,J3,4*
G04 #@! TO.N,+5V*
X116040000Y-45366900D03*
G04 #@! TO.P,J3,3*
G04 #@! TO.N,GND*
X121120000Y-45366900D03*
G04 #@! TO.P,J3,2*
X126200000Y-45366900D03*
G04 #@! TO.P,J3,1*
G04 #@! TO.N,Net-(J3-Pad1)*
X131280000Y-45366900D03*
G04 #@! TD*
D15*
G04 #@! TO.P,JP1,3*
G04 #@! TO.N,EXT_DUART_CS*
X222018000Y-64817700D03*
G04 #@! TO.P,JP1,2*
G04 #@! TO.N,DUART_CS*
X219478000Y-64817700D03*
D14*
G04 #@! TO.P,JP1,1*
G04 #@! TO.N,DUART_CS_JMPR*
X216938000Y-64817700D03*
G04 #@! TD*
D15*
G04 #@! TO.P,JP2,3*
G04 #@! TO.N,EXT_ROM_CS*
X222018000Y-51784400D03*
G04 #@! TO.P,JP2,2*
G04 #@! TO.N,RAM_CS*
X219478000Y-51784400D03*
D14*
G04 #@! TO.P,JP2,1*
G04 #@! TO.N,ROM_CS_JMPR*
X216938000Y-51784400D03*
G04 #@! TD*
G04 #@! TO.P,JP3,1*
G04 #@! TO.N,RAM_CS_JMPR*
X216938000Y-58284400D03*
D15*
G04 #@! TO.P,JP3,2*
G04 #@! TO.N,RAM_CS*
X219478000Y-58284400D03*
G04 #@! TO.P,JP3,3*
G04 #@! TO.N,EXT_RAM_CS*
X222018000Y-58284400D03*
G04 #@! TD*
D10*
G04 #@! TO.P,U1,1*
G04 #@! TO.N,D4*
X112500000Y-60500000D03*
D11*
G04 #@! TO.P,U1,33*
G04 #@! TO.N,A5*
X135360000Y-139240000D03*
G04 #@! TO.P,U1,2*
G04 #@! TO.N,D3*
X112500000Y-63040000D03*
G04 #@! TO.P,U1,34*
G04 #@! TO.N,A6*
X135360000Y-136700000D03*
G04 #@! TO.P,U1,3*
G04 #@! TO.N,D2*
X112500000Y-65580000D03*
G04 #@! TO.P,U1,35*
G04 #@! TO.N,A7*
X135360000Y-134160000D03*
G04 #@! TO.P,U1,4*
G04 #@! TO.N,D1*
X112500000Y-68120000D03*
G04 #@! TO.P,U1,36*
G04 #@! TO.N,A8*
X135360000Y-131620000D03*
G04 #@! TO.P,U1,5*
G04 #@! TO.N,D0*
X112500000Y-70660000D03*
G04 #@! TO.P,U1,37*
G04 #@! TO.N,A9*
X135360000Y-129080000D03*
G04 #@! TO.P,U1,6*
G04 #@! TO.N,AS*
X112500000Y-73200000D03*
G04 #@! TO.P,U1,38*
G04 #@! TO.N,A10*
X135360000Y-126540000D03*
G04 #@! TO.P,U1,7*
G04 #@! TO.N,UDS*
X112500000Y-75740000D03*
G04 #@! TO.P,U1,39*
G04 #@! TO.N,A11*
X135360000Y-124000000D03*
G04 #@! TO.P,U1,8*
G04 #@! TO.N,LDS*
X112500000Y-78280000D03*
G04 #@! TO.P,U1,40*
G04 #@! TO.N,A12*
X135360000Y-121460000D03*
G04 #@! TO.P,U1,9*
G04 #@! TO.N,RW*
X112500000Y-80820000D03*
G04 #@! TO.P,U1,41*
G04 #@! TO.N,A13*
X135360000Y-118920000D03*
G04 #@! TO.P,U1,10*
G04 #@! TO.N,DTACK*
X112500000Y-83360000D03*
G04 #@! TO.P,U1,42*
G04 #@! TO.N,A14*
X135360000Y-116380000D03*
G04 #@! TO.P,U1,11*
G04 #@! TO.N,Net-(U1-Pad11)*
X112500000Y-85900000D03*
G04 #@! TO.P,U1,43*
G04 #@! TO.N,A15*
X135360000Y-113840000D03*
G04 #@! TO.P,U1,12*
G04 #@! TO.N,+5V*
X112500000Y-88440000D03*
G04 #@! TO.P,U1,44*
G04 #@! TO.N,A16*
X135360000Y-111300000D03*
G04 #@! TO.P,U1,13*
G04 #@! TO.N,+5V*
X112500000Y-90980000D03*
G04 #@! TO.P,U1,45*
G04 #@! TO.N,A17*
X135360000Y-108760000D03*
G04 #@! TO.P,U1,14*
G04 #@! TO.N,+5V*
X112500000Y-93520000D03*
G04 #@! TO.P,U1,46*
G04 #@! TO.N,A18*
X135360000Y-106220000D03*
G04 #@! TO.P,U1,15*
G04 #@! TO.N,SYS_CLK*
X112500000Y-96060000D03*
G04 #@! TO.P,U1,47*
G04 #@! TO.N,A19*
X135360000Y-103680000D03*
G04 #@! TO.P,U1,16*
G04 #@! TO.N,GND*
X112500000Y-98600000D03*
G04 #@! TO.P,U1,48*
G04 #@! TO.N,A20*
X135360000Y-101140000D03*
G04 #@! TO.P,U1,17*
G04 #@! TO.N,RESET*
X112500000Y-101140000D03*
G04 #@! TO.P,U1,49*
G04 #@! TO.N,+5V*
X135360000Y-98600000D03*
G04 #@! TO.P,U1,18*
G04 #@! TO.N,RESET*
X112500000Y-103680000D03*
G04 #@! TO.P,U1,50*
G04 #@! TO.N,A21*
X135360000Y-96060000D03*
G04 #@! TO.P,U1,19*
G04 #@! TO.N,Net-(U1-Pad19)*
X112500000Y-106220000D03*
G04 #@! TO.P,U1,51*
G04 #@! TO.N,A22*
X135360000Y-93520000D03*
G04 #@! TO.P,U1,20*
G04 #@! TO.N,Net-(U1-Pad20)*
X112500000Y-108760000D03*
G04 #@! TO.P,U1,52*
G04 #@! TO.N,A23*
X135360000Y-90980000D03*
G04 #@! TO.P,U1,21*
G04 #@! TO.N,+5V*
X112500000Y-111300000D03*
G04 #@! TO.P,U1,53*
G04 #@! TO.N,GND*
X135360000Y-88440000D03*
G04 #@! TO.P,U1,22*
G04 #@! TO.N,+5V*
X112500000Y-113840000D03*
G04 #@! TO.P,U1,54*
G04 #@! TO.N,D15*
X135360000Y-85900000D03*
G04 #@! TO.P,U1,23*
G04 #@! TO.N,/IPL2*
X112500000Y-116380000D03*
G04 #@! TO.P,U1,55*
G04 #@! TO.N,D14*
X135360000Y-83360000D03*
G04 #@! TO.P,U1,24*
G04 #@! TO.N,/IPL1*
X112500000Y-118920000D03*
G04 #@! TO.P,U1,56*
G04 #@! TO.N,D13*
X135360000Y-80820000D03*
G04 #@! TO.P,U1,25*
G04 #@! TO.N,/IPL0*
X112500000Y-121460000D03*
G04 #@! TO.P,U1,57*
G04 #@! TO.N,D12*
X135360000Y-78280000D03*
G04 #@! TO.P,U1,26*
G04 #@! TO.N,/FC2*
X112500000Y-124000000D03*
G04 #@! TO.P,U1,58*
G04 #@! TO.N,D11*
X135360000Y-75740000D03*
G04 #@! TO.P,U1,27*
G04 #@! TO.N,/FC1*
X112500000Y-126540000D03*
G04 #@! TO.P,U1,59*
G04 #@! TO.N,D10*
X135360000Y-73200000D03*
G04 #@! TO.P,U1,28*
G04 #@! TO.N,/FC0*
X112500000Y-129080000D03*
G04 #@! TO.P,U1,60*
G04 #@! TO.N,D9*
X135360000Y-70660000D03*
G04 #@! TO.P,U1,29*
G04 #@! TO.N,A1*
X112500000Y-131620000D03*
G04 #@! TO.P,U1,61*
G04 #@! TO.N,D8*
X135360000Y-68120000D03*
G04 #@! TO.P,U1,30*
G04 #@! TO.N,A2*
X112500000Y-134160000D03*
G04 #@! TO.P,U1,62*
G04 #@! TO.N,D7*
X135360000Y-65580000D03*
G04 #@! TO.P,U1,31*
G04 #@! TO.N,A3*
X112500000Y-136700000D03*
G04 #@! TO.P,U1,63*
G04 #@! TO.N,D6*
X135360000Y-63040000D03*
G04 #@! TO.P,U1,32*
G04 #@! TO.N,A4*
X112500000Y-139240000D03*
G04 #@! TO.P,U1,64*
G04 #@! TO.N,D5*
X135360000Y-60500000D03*
G04 #@! TD*
G04 #@! TO.P,U4,32*
G04 #@! TO.N,+5V*
X178240000Y-101000000D03*
G04 #@! TO.P,U4,16*
G04 #@! TO.N,GND*
X163000000Y-139100000D03*
G04 #@! TO.P,U4,31*
G04 #@! TO.N,A16*
X178240000Y-103540000D03*
G04 #@! TO.P,U4,15*
G04 #@! TO.N,D10*
X163000000Y-136560000D03*
G04 #@! TO.P,U4,30*
G04 #@! TO.N,A18*
X178240000Y-106080000D03*
G04 #@! TO.P,U4,14*
G04 #@! TO.N,D9*
X163000000Y-134020000D03*
G04 #@! TO.P,U4,29*
G04 #@! TO.N,RW*
X178240000Y-108620000D03*
G04 #@! TO.P,U4,13*
G04 #@! TO.N,D8*
X163000000Y-131480000D03*
G04 #@! TO.P,U4,28*
G04 #@! TO.N,A14*
X178240000Y-111160000D03*
G04 #@! TO.P,U4,12*
G04 #@! TO.N,A1*
X163000000Y-128940000D03*
G04 #@! TO.P,U4,27*
G04 #@! TO.N,A9*
X178240000Y-113700000D03*
G04 #@! TO.P,U4,11*
G04 #@! TO.N,A2*
X163000000Y-126400000D03*
G04 #@! TO.P,U4,26*
G04 #@! TO.N,A10*
X178240000Y-116240000D03*
G04 #@! TO.P,U4,10*
G04 #@! TO.N,A3*
X163000000Y-123860000D03*
G04 #@! TO.P,U4,25*
G04 #@! TO.N,A12*
X178240000Y-118780000D03*
G04 #@! TO.P,U4,9*
G04 #@! TO.N,A4*
X163000000Y-121320000D03*
G04 #@! TO.P,U4,24*
G04 #@! TO.N,OE*
X178240000Y-121320000D03*
G04 #@! TO.P,U4,8*
G04 #@! TO.N,A5*
X163000000Y-118780000D03*
G04 #@! TO.P,U4,23*
G04 #@! TO.N,A11*
X178240000Y-123860000D03*
G04 #@! TO.P,U4,7*
G04 #@! TO.N,A6*
X163000000Y-116240000D03*
G04 #@! TO.P,U4,22*
G04 #@! TO.N,RAM_UDS*
X178240000Y-126400000D03*
G04 #@! TO.P,U4,6*
G04 #@! TO.N,A7*
X163000000Y-113700000D03*
G04 #@! TO.P,U4,21*
G04 #@! TO.N,D15*
X178240000Y-128940000D03*
G04 #@! TO.P,U4,5*
G04 #@! TO.N,A8*
X163000000Y-111160000D03*
G04 #@! TO.P,U4,20*
G04 #@! TO.N,D14*
X178240000Y-131480000D03*
G04 #@! TO.P,U4,4*
G04 #@! TO.N,A13*
X163000000Y-108620000D03*
G04 #@! TO.P,U4,19*
G04 #@! TO.N,D13*
X178240000Y-134020000D03*
G04 #@! TO.P,U4,3*
G04 #@! TO.N,A15*
X163000000Y-106080000D03*
G04 #@! TO.P,U4,18*
G04 #@! TO.N,D12*
X178240000Y-136560000D03*
G04 #@! TO.P,U4,2*
G04 #@! TO.N,A17*
X163000000Y-103540000D03*
G04 #@! TO.P,U4,17*
G04 #@! TO.N,D11*
X178240000Y-139100000D03*
D10*
G04 #@! TO.P,U4,1*
G04 #@! TO.N,A19*
X163000000Y-101000000D03*
G04 #@! TD*
G04 #@! TO.P,U5,1*
G04 #@! TO.N,A15*
X188500000Y-57000000D03*
D11*
G04 #@! TO.P,U5,15*
G04 #@! TO.N,D3*
X203740000Y-90020000D03*
G04 #@! TO.P,U5,2*
G04 #@! TO.N,A13*
X188500000Y-59540000D03*
G04 #@! TO.P,U5,16*
G04 #@! TO.N,D4*
X203740000Y-87480000D03*
G04 #@! TO.P,U5,3*
G04 #@! TO.N,A8*
X188500000Y-62080000D03*
G04 #@! TO.P,U5,17*
G04 #@! TO.N,D5*
X203740000Y-84940000D03*
G04 #@! TO.P,U5,4*
G04 #@! TO.N,A7*
X188500000Y-64620000D03*
G04 #@! TO.P,U5,18*
G04 #@! TO.N,D6*
X203740000Y-82400000D03*
G04 #@! TO.P,U5,5*
G04 #@! TO.N,A6*
X188500000Y-67160000D03*
G04 #@! TO.P,U5,19*
G04 #@! TO.N,D7*
X203740000Y-79860000D03*
G04 #@! TO.P,U5,6*
G04 #@! TO.N,A5*
X188500000Y-69700000D03*
G04 #@! TO.P,U5,20*
G04 #@! TO.N,ROM_LDS*
X203740000Y-77320000D03*
G04 #@! TO.P,U5,7*
G04 #@! TO.N,A4*
X188500000Y-72240000D03*
G04 #@! TO.P,U5,21*
G04 #@! TO.N,A11*
X203740000Y-74780000D03*
G04 #@! TO.P,U5,8*
G04 #@! TO.N,A3*
X188500000Y-74780000D03*
G04 #@! TO.P,U5,22*
G04 #@! TO.N,OE*
X203740000Y-72240000D03*
G04 #@! TO.P,U5,9*
G04 #@! TO.N,A2*
X188500000Y-77320000D03*
G04 #@! TO.P,U5,23*
G04 #@! TO.N,A12*
X203740000Y-69700000D03*
G04 #@! TO.P,U5,10*
G04 #@! TO.N,A1*
X188500000Y-79860000D03*
G04 #@! TO.P,U5,24*
G04 #@! TO.N,A10*
X203740000Y-67160000D03*
G04 #@! TO.P,U5,11*
G04 #@! TO.N,D0*
X188500000Y-82400000D03*
G04 #@! TO.P,U5,25*
G04 #@! TO.N,A9*
X203740000Y-64620000D03*
G04 #@! TO.P,U5,12*
G04 #@! TO.N,D1*
X188500000Y-84940000D03*
G04 #@! TO.P,U5,26*
G04 #@! TO.N,A14*
X203740000Y-62080000D03*
G04 #@! TO.P,U5,13*
G04 #@! TO.N,D2*
X188500000Y-87480000D03*
G04 #@! TO.P,U5,27*
G04 #@! TO.N,RW*
X203740000Y-59540000D03*
G04 #@! TO.P,U5,14*
G04 #@! TO.N,GND*
X188500000Y-90020000D03*
G04 #@! TO.P,U5,28*
G04 #@! TO.N,+5V*
X203740000Y-57000000D03*
G04 #@! TD*
G04 #@! TO.P,U6,28*
G04 #@! TO.N,+5V*
X204240000Y-106000000D03*
G04 #@! TO.P,U6,14*
G04 #@! TO.N,GND*
X189000000Y-139020000D03*
G04 #@! TO.P,U6,27*
G04 #@! TO.N,RW*
X204240000Y-108540000D03*
G04 #@! TO.P,U6,13*
G04 #@! TO.N,D10*
X189000000Y-136480000D03*
G04 #@! TO.P,U6,26*
G04 #@! TO.N,A14*
X204240000Y-111080000D03*
G04 #@! TO.P,U6,12*
G04 #@! TO.N,D9*
X189000000Y-133940000D03*
G04 #@! TO.P,U6,25*
G04 #@! TO.N,A9*
X204240000Y-113620000D03*
G04 #@! TO.P,U6,11*
G04 #@! TO.N,D8*
X189000000Y-131400000D03*
G04 #@! TO.P,U6,24*
G04 #@! TO.N,A10*
X204240000Y-116160000D03*
G04 #@! TO.P,U6,10*
G04 #@! TO.N,A1*
X189000000Y-128860000D03*
G04 #@! TO.P,U6,23*
G04 #@! TO.N,A12*
X204240000Y-118700000D03*
G04 #@! TO.P,U6,9*
G04 #@! TO.N,A2*
X189000000Y-126320000D03*
G04 #@! TO.P,U6,22*
G04 #@! TO.N,OE*
X204240000Y-121240000D03*
G04 #@! TO.P,U6,8*
G04 #@! TO.N,A3*
X189000000Y-123780000D03*
G04 #@! TO.P,U6,21*
G04 #@! TO.N,A11*
X204240000Y-123780000D03*
G04 #@! TO.P,U6,7*
G04 #@! TO.N,A4*
X189000000Y-121240000D03*
G04 #@! TO.P,U6,20*
G04 #@! TO.N,ROM_UDS*
X204240000Y-126320000D03*
G04 #@! TO.P,U6,6*
G04 #@! TO.N,A5*
X189000000Y-118700000D03*
G04 #@! TO.P,U6,19*
G04 #@! TO.N,D15*
X204240000Y-128860000D03*
G04 #@! TO.P,U6,5*
G04 #@! TO.N,A6*
X189000000Y-116160000D03*
G04 #@! TO.P,U6,18*
G04 #@! TO.N,D14*
X204240000Y-131400000D03*
G04 #@! TO.P,U6,4*
G04 #@! TO.N,A7*
X189000000Y-113620000D03*
G04 #@! TO.P,U6,17*
G04 #@! TO.N,D13*
X204240000Y-133940000D03*
G04 #@! TO.P,U6,3*
G04 #@! TO.N,A8*
X189000000Y-111080000D03*
G04 #@! TO.P,U6,16*
G04 #@! TO.N,D12*
X204240000Y-136480000D03*
G04 #@! TO.P,U6,2*
G04 #@! TO.N,A13*
X189000000Y-108540000D03*
G04 #@! TO.P,U6,15*
G04 #@! TO.N,D11*
X204240000Y-139020000D03*
D10*
G04 #@! TO.P,U6,1*
G04 #@! TO.N,A15*
X189000000Y-106000000D03*
G04 #@! TD*
G04 #@! TO.P,U7,1*
G04 #@! TO.N,RW*
X143938000Y-49434600D03*
D11*
G04 #@! TO.P,U7,8*
G04 #@! TO.N,INV_RAM_CS*
X151558000Y-64674600D03*
G04 #@! TO.P,U7,2*
G04 #@! TO.N,OE*
X143938000Y-51974600D03*
G04 #@! TO.P,U7,9*
G04 #@! TO.N,ROM_CS*
X151558000Y-62134600D03*
G04 #@! TO.P,U7,3*
G04 #@! TO.N,Net-(U7-Pad3)*
X143938000Y-54514600D03*
G04 #@! TO.P,U7,10*
G04 #@! TO.N,RAM_CS_JMPR*
X151558000Y-59594600D03*
G04 #@! TO.P,U7,4*
G04 #@! TO.N,DUART_CLK*
X143938000Y-57054600D03*
G04 #@! TO.P,U7,11*
G04 #@! TO.N,Net-(U11-Pad6)*
X151558000Y-57054600D03*
G04 #@! TO.P,U7,5*
G04 #@! TO.N,Net-(U7-Pad5)*
X143938000Y-59594600D03*
G04 #@! TO.P,U7,12*
G04 #@! TO.N,Net-(U11-Pad9)*
X151558000Y-54514600D03*
G04 #@! TO.P,U7,6*
G04 #@! TO.N,SYS_CLK*
X143938000Y-62134600D03*
G04 #@! TO.P,U7,13*
G04 #@! TO.N,ROM_CS*
X151558000Y-51974600D03*
G04 #@! TO.P,U7,7*
G04 #@! TO.N,GND*
X143938000Y-64674600D03*
G04 #@! TO.P,U7,14*
G04 #@! TO.N,+5V*
X151558000Y-49434600D03*
G04 #@! TD*
G04 #@! TO.P,U8,16*
G04 #@! TO.N,+5V*
X151944000Y-72251400D03*
G04 #@! TO.P,U8,8*
G04 #@! TO.N,GND*
X144324000Y-90031400D03*
G04 #@! TO.P,U8,15*
G04 #@! TO.N,Net-(U8-Pad15)*
X151944000Y-74791400D03*
G04 #@! TO.P,U8,7*
G04 #@! TO.N,Net-(U8-Pad7)*
X144324000Y-87491400D03*
G04 #@! TO.P,U8,14*
G04 #@! TO.N,Net-(U8-Pad14)*
X151944000Y-77331400D03*
G04 #@! TO.P,U8,6*
G04 #@! TO.N,+5V*
X144324000Y-84951400D03*
G04 #@! TO.P,U8,13*
G04 #@! TO.N,Net-(U8-Pad13)*
X151944000Y-79871400D03*
G04 #@! TO.P,U8,5*
G04 #@! TO.N,Net-(U8-Pad5)*
X144324000Y-82411400D03*
G04 #@! TO.P,U8,12*
G04 #@! TO.N,Net-(U8-Pad12)*
X151944000Y-82411400D03*
G04 #@! TO.P,U8,4*
G04 #@! TO.N,AS*
X144324000Y-79871400D03*
G04 #@! TO.P,U8,11*
G04 #@! TO.N,DUART_IACK*
X151944000Y-84951400D03*
G04 #@! TO.P,U8,3*
G04 #@! TO.N,A3*
X144324000Y-77331400D03*
G04 #@! TO.P,U8,10*
G04 #@! TO.N,Net-(U8-Pad10)*
X151944000Y-87491400D03*
G04 #@! TO.P,U8,2*
G04 #@! TO.N,A2*
X144324000Y-74791400D03*
G04 #@! TO.P,U8,9*
G04 #@! TO.N,Net-(U8-Pad9)*
X151944000Y-90031400D03*
D10*
G04 #@! TO.P,U8,1*
G04 #@! TO.N,A1*
X144324000Y-72251400D03*
G04 #@! TD*
D11*
G04 #@! TO.P,U9,14*
G04 #@! TO.N,+5V*
X76477800Y-60785100D03*
G04 #@! TO.P,U9,7*
G04 #@! TO.N,GND*
X68857800Y-76025100D03*
G04 #@! TO.P,U9,13*
G04 #@! TO.N,/FC0*
X76477800Y-63325100D03*
G04 #@! TO.P,U9,6*
G04 #@! TO.N,N/C*
X68857800Y-73485100D03*
G04 #@! TO.P,U9,12*
G04 #@! TO.N,Net-(U8-Pad5)*
X76477800Y-65865100D03*
G04 #@! TO.P,U9,5*
G04 #@! TO.N,N/C*
X68857800Y-70945100D03*
G04 #@! TO.P,U9,11*
X76477800Y-68405100D03*
G04 #@! TO.P,U9,4*
X68857800Y-68405100D03*
G04 #@! TO.P,U9,10*
X76477800Y-70945100D03*
G04 #@! TO.P,U9,3*
X68857800Y-65865100D03*
G04 #@! TO.P,U9,9*
X76477800Y-73485100D03*
G04 #@! TO.P,U9,2*
G04 #@! TO.N,/FC1*
X68857800Y-63325100D03*
G04 #@! TO.P,U9,8*
G04 #@! TO.N,N/C*
X76477800Y-76025100D03*
D10*
G04 #@! TO.P,U9,1*
G04 #@! TO.N,/FC2*
X68857800Y-60785100D03*
G04 #@! TD*
D11*
G04 #@! TO.P,U12,14*
G04 #@! TO.N,+5V*
X152033000Y-98502600D03*
G04 #@! TO.P,U12,7*
G04 #@! TO.N,GND*
X144413000Y-113742600D03*
G04 #@! TO.P,U12,13*
G04 #@! TO.N,N/C*
X152033000Y-101042600D03*
G04 #@! TO.P,U12,6*
G04 #@! TO.N,A22*
X144413000Y-111202600D03*
G04 #@! TO.P,U12,12*
G04 #@! TO.N,+5V*
X152033000Y-103582600D03*
G04 #@! TO.P,U12,5*
G04 #@! TO.N,A21*
X144413000Y-108662600D03*
G04 #@! TO.P,U12,11*
G04 #@! TO.N,A23*
X152033000Y-106122600D03*
G04 #@! TO.P,U12,4*
G04 #@! TO.N,A20*
X144413000Y-106122600D03*
G04 #@! TO.P,U12,10*
G04 #@! TO.N,N/C*
X152033000Y-108662600D03*
G04 #@! TO.P,U12,3*
G04 #@! TO.N,A19*
X144413000Y-103582600D03*
G04 #@! TO.P,U12,9*
G04 #@! TO.N,N/C*
X152033000Y-111202600D03*
G04 #@! TO.P,U12,2*
G04 #@! TO.N,A18*
X144413000Y-101042600D03*
G04 #@! TO.P,U12,8*
G04 #@! TO.N,ROM_CS_JMPR*
X152033000Y-113742600D03*
D10*
G04 #@! TO.P,U12,1*
G04 #@! TO.N,A17*
X144413000Y-98502600D03*
G04 #@! TD*
G04 #@! TO.P,U13,1*
G04 #@! TO.N,A7*
X216000000Y-121500000D03*
D11*
G04 #@! TO.P,U13,9*
G04 #@! TO.N,Net-(U13-Pad9)*
X223620000Y-139280000D03*
G04 #@! TO.P,U13,2*
G04 #@! TO.N,A8*
X216000000Y-124040000D03*
G04 #@! TO.P,U13,10*
G04 #@! TO.N,Net-(U13-Pad10)*
X223620000Y-136740000D03*
G04 #@! TO.P,U13,3*
G04 #@! TO.N,A9*
X216000000Y-126580000D03*
G04 #@! TO.P,U13,11*
G04 #@! TO.N,Net-(U13-Pad11)*
X223620000Y-134200000D03*
G04 #@! TO.P,U13,4*
G04 #@! TO.N,GND*
X216000000Y-129120000D03*
G04 #@! TO.P,U13,12*
G04 #@! TO.N,Net-(U13-Pad12)*
X223620000Y-131660000D03*
G04 #@! TO.P,U13,5*
G04 #@! TO.N,Net-(U11-Pad8)*
X216000000Y-131660000D03*
G04 #@! TO.P,U13,13*
G04 #@! TO.N,Net-(U13-Pad13)*
X223620000Y-129120000D03*
G04 #@! TO.P,U13,6*
G04 #@! TO.N,+5V*
X216000000Y-134200000D03*
G04 #@! TO.P,U13,14*
G04 #@! TO.N,Net-(U13-Pad14)*
X223620000Y-126580000D03*
G04 #@! TO.P,U13,7*
G04 #@! TO.N,Net-(U13-Pad7)*
X216000000Y-136740000D03*
G04 #@! TO.P,U13,15*
G04 #@! TO.N,DUART_CS_JMPR*
X223620000Y-124040000D03*
G04 #@! TO.P,U13,8*
G04 #@! TO.N,GND*
X216000000Y-139280000D03*
G04 #@! TO.P,U13,16*
G04 #@! TO.N,+5V*
X223620000Y-121500000D03*
G04 #@! TD*
G04 #@! TO.P,U14,14*
G04 #@! TO.N,+5V*
X223620000Y-72000000D03*
G04 #@! TO.P,U14,7*
G04 #@! TO.N,GND*
X216000000Y-87240000D03*
G04 #@! TO.P,U14,13*
G04 #@! TO.N,N/C*
X223620000Y-74540000D03*
G04 #@! TO.P,U14,6*
G04 #@! TO.N,INV_ROM_CS*
X216000000Y-84700000D03*
G04 #@! TO.P,U14,12*
G04 #@! TO.N,N/C*
X223620000Y-77080000D03*
G04 #@! TO.P,U14,5*
G04 #@! TO.N,RAM_CS*
X216000000Y-82160000D03*
G04 #@! TO.P,U14,11*
G04 #@! TO.N,N/C*
X223620000Y-79620000D03*
G04 #@! TO.P,U14,4*
G04 #@! TO.N,INV_UDS*
X216000000Y-79620000D03*
G04 #@! TO.P,U14,10*
G04 #@! TO.N,N/C*
X223620000Y-82160000D03*
G04 #@! TO.P,U14,3*
G04 #@! TO.N,UDS*
X216000000Y-77080000D03*
G04 #@! TO.P,U14,9*
G04 #@! TO.N,N/C*
X223620000Y-84700000D03*
G04 #@! TO.P,U14,2*
G04 #@! TO.N,INV_LDS*
X216000000Y-74540000D03*
G04 #@! TO.P,U14,8*
G04 #@! TO.N,N/C*
X223620000Y-87240000D03*
D10*
G04 #@! TO.P,U14,1*
G04 #@! TO.N,LDS*
X216000000Y-72000000D03*
G04 #@! TD*
G04 #@! TO.P,U15,1*
G04 #@! TO.N,INV_RAM_CS*
X216000000Y-96500000D03*
D11*
G04 #@! TO.P,U15,8*
G04 #@! TO.N,RAM_UDS*
X223620000Y-111740000D03*
G04 #@! TO.P,U15,2*
G04 #@! TO.N,INV_UDS*
X216000000Y-99040000D03*
G04 #@! TO.P,U15,9*
G04 #@! TO.N,INV_ROM_CS*
X223620000Y-109200000D03*
G04 #@! TO.P,U15,3*
G04 #@! TO.N,ROM_UDS*
X216000000Y-101580000D03*
G04 #@! TO.P,U15,10*
G04 #@! TO.N,INV_UDS*
X223620000Y-106660000D03*
G04 #@! TO.P,U15,4*
G04 #@! TO.N,INV_RAM_CS*
X216000000Y-104120000D03*
G04 #@! TO.P,U15,11*
G04 #@! TO.N,RAM_LDS*
X223620000Y-104120000D03*
G04 #@! TO.P,U15,5*
G04 #@! TO.N,INV_LDS*
X216000000Y-106660000D03*
G04 #@! TO.P,U15,12*
G04 #@! TO.N,INV_ROM_CS*
X223620000Y-101580000D03*
G04 #@! TO.P,U15,6*
G04 #@! TO.N,ROM_LDS*
X216000000Y-109200000D03*
G04 #@! TO.P,U15,13*
G04 #@! TO.N,INV_LDS*
X223620000Y-99040000D03*
G04 #@! TO.P,U15,7*
G04 #@! TO.N,GND*
X216000000Y-111740000D03*
G04 #@! TO.P,U15,14*
G04 #@! TO.N,+5V*
X223620000Y-96500000D03*
G04 #@! TD*
D10*
G04 #@! TO.P,U16,1*
G04 #@! TO.N,A1*
X86000000Y-91000000D03*
D11*
G04 #@! TO.P,U16,21*
G04 #@! TO.N,DUART_IRQ*
X101240000Y-139260000D03*
G04 #@! TO.P,U16,2*
G04 #@! TO.N,Net-(U16-Pad2)*
X86000000Y-93540000D03*
G04 #@! TO.P,U16,22*
G04 #@! TO.N,D6*
X101240000Y-136720000D03*
G04 #@! TO.P,U16,3*
G04 #@! TO.N,A2*
X86000000Y-96080000D03*
G04 #@! TO.P,U16,23*
G04 #@! TO.N,D4*
X101240000Y-134180000D03*
G04 #@! TO.P,U16,4*
G04 #@! TO.N,CTS-B*
X86000000Y-98620000D03*
G04 #@! TO.P,U16,24*
G04 #@! TO.N,D2*
X101240000Y-131640000D03*
G04 #@! TO.P,U16,5*
G04 #@! TO.N,A3*
X86000000Y-101160000D03*
G04 #@! TO.P,U16,25*
G04 #@! TO.N,D0*
X101240000Y-129100000D03*
G04 #@! TO.P,U16,6*
G04 #@! TO.N,A4*
X86000000Y-103700000D03*
G04 #@! TO.P,U16,26*
G04 #@! TO.N,Net-(U16-Pad26)*
X101240000Y-126560000D03*
G04 #@! TO.P,U16,7*
G04 #@! TO.N,CTS-A*
X86000000Y-106240000D03*
G04 #@! TO.P,U16,27*
G04 #@! TO.N,Net-(U16-Pad27)*
X101240000Y-124020000D03*
G04 #@! TO.P,U16,8*
G04 #@! TO.N,RW*
X86000000Y-108780000D03*
G04 #@! TO.P,U16,28*
G04 #@! TO.N,Net-(U16-Pad28)*
X101240000Y-121480000D03*
G04 #@! TO.P,U16,9*
G04 #@! TO.N,DTACK*
X86000000Y-111320000D03*
G04 #@! TO.P,U16,29*
G04 #@! TO.N,RTS-A*
X101240000Y-118940000D03*
G04 #@! TO.P,U16,10*
G04 #@! TO.N,RxD-B*
X86000000Y-113860000D03*
G04 #@! TO.P,U16,30*
G04 #@! TO.N,TxD-A*
X101240000Y-116400000D03*
G04 #@! TO.P,U16,11*
G04 #@! TO.N,TxD-B*
X86000000Y-116400000D03*
G04 #@! TO.P,U16,31*
G04 #@! TO.N,RxD-A*
X101240000Y-113860000D03*
G04 #@! TO.P,U16,12*
G04 #@! TO.N,RTS-B*
X86000000Y-118940000D03*
G04 #@! TO.P,U16,32*
G04 #@! TO.N,DUART_CLK*
X101240000Y-111320000D03*
G04 #@! TO.P,U16,13*
G04 #@! TO.N,Net-(U16-Pad13)*
X86000000Y-121480000D03*
G04 #@! TO.P,U16,33*
G04 #@! TO.N,Net-(U16-Pad33)*
X101240000Y-108780000D03*
G04 #@! TO.P,U16,14*
G04 #@! TO.N,Net-(U16-Pad14)*
X86000000Y-124020000D03*
G04 #@! TO.P,U16,34*
G04 #@! TO.N,RESET*
X101240000Y-106240000D03*
G04 #@! TO.P,U16,15*
G04 #@! TO.N,Net-(U16-Pad15)*
X86000000Y-126560000D03*
G04 #@! TO.P,U16,35*
G04 #@! TO.N,DUART_CS*
X101240000Y-103700000D03*
G04 #@! TO.P,U16,16*
G04 #@! TO.N,D1*
X86000000Y-129100000D03*
G04 #@! TO.P,U16,36*
G04 #@! TO.N,Net-(U16-Pad36)*
X101240000Y-101160000D03*
G04 #@! TO.P,U16,17*
G04 #@! TO.N,D3*
X86000000Y-131640000D03*
G04 #@! TO.P,U16,37*
G04 #@! TO.N,DUART_IACK*
X101240000Y-98620000D03*
G04 #@! TO.P,U16,18*
G04 #@! TO.N,D5*
X86000000Y-134180000D03*
G04 #@! TO.P,U16,38*
G04 #@! TO.N,Net-(U16-Pad38)*
X101240000Y-96080000D03*
G04 #@! TO.P,U16,19*
G04 #@! TO.N,D7*
X86000000Y-136720000D03*
G04 #@! TO.P,U16,39*
G04 #@! TO.N,Net-(U16-Pad39)*
X101240000Y-93540000D03*
G04 #@! TO.P,U16,20*
G04 #@! TO.N,GND*
X86000000Y-139260000D03*
G04 #@! TO.P,U16,40*
G04 #@! TO.N,+5V*
X101240000Y-91000000D03*
G04 #@! TD*
D10*
G04 #@! TO.P,U17,1*
G04 #@! TO.N,RTS-A*
X69000000Y-116000000D03*
D11*
G04 #@! TO.P,U17,11*
G04 #@! TO.N,Net-(U17-Pad11)*
X76620000Y-138860000D03*
G04 #@! TO.P,U17,2*
G04 #@! TO.N,TxD-A*
X69000000Y-118540000D03*
G04 #@! TO.P,U17,12*
G04 #@! TO.N,Net-(U17-Pad12)*
X76620000Y-136320000D03*
G04 #@! TO.P,U17,3*
G04 #@! TO.N,RxD-A*
X69000000Y-121080000D03*
G04 #@! TO.P,U17,13*
G04 #@! TO.N,Net-(U17-Pad13)*
X76620000Y-133780000D03*
G04 #@! TO.P,U17,4*
G04 #@! TO.N,RxD-A-SERIAL*
X69000000Y-123620000D03*
G04 #@! TO.P,U17,14*
G04 #@! TO.N,Net-(U17-Pad14)*
X76620000Y-131240000D03*
G04 #@! TO.P,U17,5*
G04 #@! TO.N,TxD-A-SERIAL*
X69000000Y-126160000D03*
G04 #@! TO.P,U17,15*
G04 #@! TO.N,Net-(U17-Pad11)*
X76620000Y-128700000D03*
G04 #@! TO.P,U17,6*
G04 #@! TO.N,GND*
X69000000Y-128700000D03*
G04 #@! TO.P,U17,16*
G04 #@! TO.N,Net-(U17-Pad10)*
X76620000Y-126160000D03*
G04 #@! TO.P,U17,7*
G04 #@! TO.N,+5V*
X69000000Y-131240000D03*
G04 #@! TO.P,U17,17*
G04 #@! TO.N,Net-(U17-Pad12)*
X76620000Y-123620000D03*
G04 #@! TO.P,U17,8*
G04 #@! TO.N,Net-(U17-Pad8)*
X69000000Y-133780000D03*
G04 #@! TO.P,U17,18*
G04 #@! TO.N,RTS-A-SERIAL*
X76620000Y-121080000D03*
G04 #@! TO.P,U17,9*
G04 #@! TO.N,GND*
X69000000Y-136320000D03*
G04 #@! TO.P,U17,19*
G04 #@! TO.N,CTS-A-SERIAL*
X76620000Y-118540000D03*
G04 #@! TO.P,U17,10*
G04 #@! TO.N,Net-(U17-Pad10)*
X69000000Y-138860000D03*
G04 #@! TO.P,U17,20*
G04 #@! TO.N,CTS-A*
X76620000Y-116000000D03*
G04 #@! TD*
G04 #@! TO.P,U18,20*
G04 #@! TO.N,CTS-B*
X76785100Y-84513200D03*
G04 #@! TO.P,U18,10*
G04 #@! TO.N,Net-(U18-Pad10)*
X69165100Y-107373200D03*
G04 #@! TO.P,U18,19*
G04 #@! TO.N,CTS-B-SERIAL*
X76785100Y-87053200D03*
G04 #@! TO.P,U18,9*
G04 #@! TO.N,GND*
X69165100Y-104833200D03*
G04 #@! TO.P,U18,18*
G04 #@! TO.N,RTS-B-SERIAL*
X76785100Y-89593200D03*
G04 #@! TO.P,U18,8*
G04 #@! TO.N,Net-(U18-Pad8)*
X69165100Y-102293200D03*
G04 #@! TO.P,U18,17*
G04 #@! TO.N,Net-(U18-Pad12)*
X76785100Y-92133200D03*
G04 #@! TO.P,U18,7*
G04 #@! TO.N,+5V*
X69165100Y-99753200D03*
G04 #@! TO.P,U18,16*
G04 #@! TO.N,Net-(U18-Pad10)*
X76785100Y-94673200D03*
G04 #@! TO.P,U18,6*
G04 #@! TO.N,GND*
X69165100Y-97213200D03*
G04 #@! TO.P,U18,15*
G04 #@! TO.N,Net-(U18-Pad11)*
X76785100Y-97213200D03*
G04 #@! TO.P,U18,5*
G04 #@! TO.N,TxD-B-SERIAL*
X69165100Y-94673200D03*
G04 #@! TO.P,U18,14*
G04 #@! TO.N,Net-(U18-Pad14)*
X76785100Y-99753200D03*
G04 #@! TO.P,U18,4*
G04 #@! TO.N,RxD-B-SERIAL*
X69165100Y-92133200D03*
G04 #@! TO.P,U18,13*
G04 #@! TO.N,Net-(U18-Pad13)*
X76785100Y-102293200D03*
G04 #@! TO.P,U18,3*
G04 #@! TO.N,RxD-B*
X69165100Y-89593200D03*
G04 #@! TO.P,U18,12*
G04 #@! TO.N,Net-(U18-Pad12)*
X76785100Y-104833200D03*
G04 #@! TO.P,U18,2*
G04 #@! TO.N,TxD-B*
X69165100Y-87053200D03*
G04 #@! TO.P,U18,11*
G04 #@! TO.N,Net-(U18-Pad11)*
X76785100Y-107373200D03*
D10*
G04 #@! TO.P,U18,1*
G04 #@! TO.N,RTS-B*
X69165100Y-84513200D03*
G04 #@! TD*
D17*
G04 #@! TO.P,X1,7*
G04 #@! TO.N,GND*
X86260000Y-53500000D03*
G04 #@! TO.P,X1,8*
G04 #@! TO.N,Net-(U7-Pad3)*
X86260000Y-61120000D03*
G04 #@! TO.P,X1,14*
G04 #@! TO.N,+5V*
X101500000Y-61120000D03*
D10*
G04 #@! TO.P,X1,1*
G04 #@! TO.N,Net-(X1-Pad1)*
X101500000Y-53500000D03*
G04 #@! TD*
G04 #@! TO.P,X2,1*
G04 #@! TO.N,Net-(X2-Pad1)*
X101500000Y-74500000D03*
D17*
G04 #@! TO.P,X2,14*
G04 #@! TO.N,+5V*
X101500000Y-82120000D03*
G04 #@! TO.P,X2,8*
G04 #@! TO.N,Net-(U7-Pad5)*
X86260000Y-82120000D03*
G04 #@! TO.P,X2,7*
G04 #@! TO.N,GND*
X86260000Y-74500000D03*
G04 #@! TD*
D18*
G04 #@! TO.N,+5V*
X225775520Y-96647000D03*
X176001680Y-98549460D03*
X180530500Y-52026820D03*
X199999600Y-54640480D03*
X216763600Y-115509040D03*
X207782160Y-108582460D03*
X200215500Y-103256080D03*
X190949580Y-101833680D03*
X181178200Y-100876100D03*
X127678180Y-98630740D03*
X138427460Y-95651320D03*
X141179300Y-87045800D03*
X126697740Y-39634160D03*
X155097480Y-45214540D03*
G04 #@! TO.N,GND*
X210451700Y-65938400D03*
X198841360Y-42293540D03*
X175602900Y-42659300D03*
X149064980Y-44251880D03*
X133116320Y-38851840D03*
G04 #@! TO.N,RTS-B-SERIAL*
X104687200Y-69376300D03*
G04 #@! TO.N,RxD-B-SERIAL*
X104120300Y-67370600D03*
G04 #@! TO.N,TxD-B-SERIAL*
X101898300Y-70996500D03*
G04 #@! TO.N,A23*
X147432800Y-50809500D03*
G04 #@! TO.N,A22*
X145310300Y-47866300D03*
G04 #@! TO.N,A21*
X149384100Y-42485600D03*
G04 #@! TO.N,A18*
X161669000Y-94820900D03*
G04 #@! TO.N,A16*
X160481700Y-54932100D03*
X163396100Y-99152610D03*
G04 #@! TO.N,LDS*
X145391400Y-46053400D03*
G04 #@! TO.N,UDS*
X178438600Y-39716000D03*
G04 #@! TO.N,ROM_CS_JMPR*
X166489600Y-50484200D03*
G04 #@! TO.N,D4*
X115118600Y-92954600D03*
G04 #@! TO.N,A5*
X158893300Y-70827900D03*
G04 #@! TO.N,D3*
X108782600Y-99656900D03*
G04 #@! TO.N,A10*
X164709400Y-116041400D03*
G04 #@! TO.N,A13*
X168303000Y-108620000D03*
G04 #@! TO.N,D15*
X145731200Y-83888400D03*
G04 #@! TO.N,/FC0*
X97950600Y-113504900D03*
G04 #@! TO.N,D9*
X150814300Y-133282600D03*
G04 #@! TO.N,A1*
X96382700Y-115376900D03*
X157071700Y-80247600D03*
G04 #@! TO.N,A2*
X95382300Y-116381300D03*
X157809300Y-77016400D03*
G04 #@! TO.N,A3*
X91608300Y-114806700D03*
X157654700Y-74860000D03*
G04 #@! TO.N,D6*
X169398600Y-79551400D03*
G04 #@! TO.N,A4*
X158565000Y-72320000D03*
G04 #@! TO.N,D5*
X119014900Y-92900400D03*
G04 #@! TO.N,DUART_IRQ*
X125838300Y-136186900D03*
G04 #@! TO.N,RAM_LDS*
X189669100Y-93671600D03*
G04 #@! TO.N,OE*
X165089100Y-62361400D03*
G04 #@! TO.N,INV_RAM_CS*
X156151500Y-93653600D03*
G04 #@! TO.N,DUART_CLK*
X107569300Y-109662800D03*
G04 #@! TO.N,INV_LDS*
X217975400Y-78573200D03*
G04 #@! TD*
D19*
G04 #@! TO.N,+5V*
X69165100Y-100803500D02*
X67335600Y-102633000D01*
X67335600Y-102633000D02*
X67335600Y-128525300D01*
X67335600Y-128525300D02*
X69000000Y-130189700D01*
X69000000Y-131240000D02*
X69000000Y-130189700D01*
X69165100Y-99753200D02*
X69165100Y-100803500D01*
X101240000Y-91000000D02*
X101240000Y-89949700D01*
X101240000Y-89949700D02*
X101240000Y-82380000D01*
X101240000Y-82380000D02*
X101500000Y-82120000D01*
X101500000Y-82120000D02*
X100449600Y-81069600D01*
X100449600Y-81069600D02*
X100449600Y-62170400D01*
X100449600Y-62170400D02*
X101500000Y-61120000D01*
X112500000Y-90980000D02*
X112500000Y-93520000D01*
X112500000Y-88440000D02*
X112500000Y-90980000D01*
X151558000Y-49434600D02*
X152608300Y-49434600D01*
X178240000Y-52000000D02*
X177189700Y-52000000D01*
X177189700Y-52000000D02*
X174624300Y-49434600D01*
X174624300Y-49434600D02*
X152608300Y-49434600D01*
X151828000Y-121633000D02*
X151828000Y-120582700D01*
X152033000Y-103582600D02*
X152033000Y-104632900D01*
X152033000Y-104632900D02*
X150660400Y-106005500D01*
X150660400Y-106005500D02*
X150660400Y-119415100D01*
X150660400Y-119415100D02*
X151828000Y-120582700D01*
X144324000Y-86001700D02*
X147272500Y-88950200D01*
X147272500Y-88950200D02*
X147272500Y-92691800D01*
X147272500Y-92691800D02*
X152033000Y-97452300D01*
X144324000Y-84951400D02*
X144324000Y-86001700D01*
X152033000Y-98502600D02*
X152033000Y-97452300D01*
X76399200Y-48090300D02*
X76399200Y-47040000D01*
X76399200Y-43010300D02*
X76399200Y-44060600D01*
X76399200Y-44060600D02*
X77516400Y-45177800D01*
X77516400Y-45177800D02*
X77516400Y-45922800D01*
X77516400Y-45922800D02*
X76399200Y-47040000D01*
X105356600Y-50137400D02*
X105356600Y-57263400D01*
X105356600Y-57263400D02*
X101500000Y-61120000D01*
X105356600Y-50137400D02*
X111269500Y-50137400D01*
X111269500Y-50137400D02*
X116040000Y-45366900D01*
X95468000Y-40248800D02*
X105356600Y-50137400D01*
X94467700Y-40248800D02*
X95468000Y-40248800D01*
X76399200Y-48090300D02*
X76399200Y-49140600D01*
X76477800Y-60785100D02*
X76477800Y-59734800D01*
X76477800Y-59734800D02*
X75282000Y-58539000D01*
X75282000Y-58539000D02*
X75282000Y-50257800D01*
X75282000Y-50257800D02*
X76399200Y-49140600D01*
X223620000Y-96500000D02*
X223620000Y-95449700D01*
X223620000Y-72000000D02*
X223620000Y-73050300D01*
X223620000Y-95449700D02*
X222569600Y-94399300D01*
X222569600Y-94399300D02*
X222569600Y-74100700D01*
X222569600Y-74100700D02*
X223620000Y-73050300D01*
X151944000Y-72251400D02*
X151944000Y-73301700D01*
X144324000Y-84951400D02*
X144324000Y-83901100D01*
X144324000Y-83901100D02*
X150454400Y-77770700D01*
X150454400Y-77770700D02*
X150454400Y-74791300D01*
X150454400Y-74791300D02*
X151944000Y-73301700D01*
X151558000Y-49434600D02*
X151558000Y-50484900D01*
X151944000Y-72251400D02*
X151944000Y-71201100D01*
X151944000Y-71201100D02*
X150489400Y-69746500D01*
X150489400Y-69746500D02*
X150489400Y-51553500D01*
X150489400Y-51553500D02*
X151558000Y-50484900D01*
X77199199Y-42210301D02*
X76399200Y-43010300D01*
X77449680Y-41959820D02*
X77199199Y-42210301D01*
X77449680Y-38980780D02*
X77449680Y-41959820D01*
X76399200Y-37930300D02*
X77449680Y-38980780D01*
X223767000Y-96647000D02*
X223620000Y-96500000D01*
X225775520Y-96647000D02*
X223767000Y-96647000D01*
X178240000Y-100787780D02*
X178240000Y-101000000D01*
X176001680Y-98549460D02*
X178240000Y-100787780D01*
X178240000Y-52000000D02*
X180503680Y-52000000D01*
X180503680Y-52000000D02*
X180530500Y-52026820D01*
X202608630Y-57000000D02*
X203740000Y-57000000D01*
X201793435Y-57000000D02*
X202608630Y-57000000D01*
X199999600Y-55206165D02*
X201793435Y-57000000D01*
X199999600Y-54640480D02*
X199999600Y-55206165D01*
X216763600Y-115509040D02*
X214708740Y-115509040D01*
X214708740Y-115509040D02*
X207782160Y-108582460D01*
X192371980Y-103256080D02*
X190949580Y-101833680D01*
X200215500Y-103256080D02*
X192371980Y-103256080D01*
X178363900Y-100876100D02*
X178240000Y-101000000D01*
X181178200Y-100876100D02*
X178363900Y-100876100D01*
X112500000Y-111300000D02*
X115008920Y-111300000D01*
X115008920Y-111300000D02*
X127678180Y-98630740D01*
X138427460Y-95651320D02*
X138427460Y-89797640D01*
X138427460Y-89797640D02*
X141179300Y-87045800D01*
X116040000Y-45366900D02*
X121772740Y-39634160D01*
X121772740Y-39634160D02*
X126697740Y-39634160D01*
X151558000Y-48754020D02*
X151558000Y-49434600D01*
X155097480Y-45214540D02*
X151558000Y-48754020D01*
G04 #@! TO.N,GND*
X86260000Y-74500000D02*
X87368100Y-73391900D01*
X87368100Y-54608100D02*
X86260000Y-53500000D01*
X144208000Y-139413000D02*
X143157700Y-139413000D01*
X86000000Y-139260000D02*
X87050300Y-139260000D01*
X87050300Y-139260000D02*
X88118400Y-140328100D01*
X88118400Y-140328100D02*
X142242600Y-140328100D01*
X142242600Y-140328100D02*
X143157700Y-139413000D01*
X216000000Y-111740000D02*
X216000000Y-110689700D01*
X216000000Y-87240000D02*
X216000000Y-88290300D01*
X216000000Y-88290300D02*
X214949600Y-89340700D01*
X214949600Y-89340700D02*
X214949600Y-104590100D01*
X214949600Y-104590100D02*
X215749500Y-105390000D01*
X215749500Y-105390000D02*
X216237400Y-105390000D01*
X216237400Y-105390000D02*
X217052300Y-106204900D01*
X217052300Y-106204900D02*
X217052300Y-109637400D01*
X217052300Y-109637400D02*
X216000000Y-110689700D01*
X69165100Y-105883500D02*
X67635900Y-107412700D01*
X67635900Y-107412700D02*
X67635900Y-126710300D01*
X67635900Y-126710300D02*
X68575300Y-127649700D01*
X68575300Y-127649700D02*
X69000000Y-127649700D01*
X143938000Y-64674600D02*
X143938000Y-65724900D01*
X143938000Y-65724900D02*
X138401700Y-71261200D01*
X138401700Y-71261200D02*
X138401700Y-85398300D01*
X138401700Y-85398300D02*
X135360000Y-88440000D01*
X94467700Y-38978800D02*
X93467400Y-38978800D01*
X93467400Y-38978800D02*
X93467400Y-46292600D01*
X93467400Y-46292600D02*
X86260000Y-53500000D01*
X151828000Y-136873000D02*
X152878300Y-136873000D01*
X163000000Y-139100000D02*
X155105300Y-139100000D01*
X155105300Y-139100000D02*
X152878300Y-136873000D01*
X69165100Y-104833200D02*
X69165100Y-105883500D01*
X69000000Y-128700000D02*
X69000000Y-127649700D01*
X144413000Y-113742600D02*
X144413000Y-112692300D01*
X144324000Y-90031400D02*
X144324000Y-91081700D01*
X144324000Y-91081700D02*
X145476800Y-92234500D01*
X145476800Y-92234500D02*
X145476800Y-111628500D01*
X145476800Y-111628500D02*
X144413000Y-112692300D01*
X163799999Y-89300001D02*
X163000000Y-90100000D01*
X164050001Y-89049999D02*
X163799999Y-89300001D01*
X187529999Y-89049999D02*
X164050001Y-89049999D01*
X188500000Y-90020000D02*
X187529999Y-89049999D01*
X87368100Y-73391900D02*
X87368100Y-54608100D01*
X210451700Y-65938400D02*
X210451700Y-53903880D01*
X210451700Y-53903880D02*
X198841360Y-42293540D01*
X175037215Y-42659300D02*
X174905135Y-42791380D01*
X175602900Y-42659300D02*
X175037215Y-42659300D01*
X174905135Y-42791380D02*
X153840180Y-42791380D01*
X153840180Y-42791380D02*
X152379680Y-44251880D01*
X152379680Y-44251880D02*
X149064980Y-44251880D01*
X126601260Y-45366900D02*
X126200000Y-45366900D01*
X133116320Y-38851840D02*
X126601260Y-45366900D01*
G04 #@! TO.N,CTS-B-SERIAL*
X172076700Y-38229500D02*
X172076700Y-38001500D01*
X172076700Y-38001500D02*
X170584500Y-36509300D01*
X170584500Y-36509300D02*
X95461700Y-36509300D01*
X95461700Y-36509300D02*
X79618700Y-52352300D01*
X79618700Y-52352300D02*
X79618700Y-59592500D01*
X79618700Y-59592500D02*
X77003900Y-62207300D01*
X77003900Y-62207300D02*
X76080700Y-62207300D01*
X76080700Y-62207300D02*
X75396400Y-62891600D01*
X75396400Y-62891600D02*
X75396400Y-84614200D01*
X75396400Y-84614200D02*
X76785100Y-86002900D01*
X173177000Y-38229500D02*
X172076700Y-38229500D01*
X76785100Y-87053200D02*
X76785100Y-86002900D01*
G04 #@! TO.N,RTS-B-SERIAL*
X104687200Y-69376300D02*
X107709400Y-66354100D01*
X107709400Y-66354100D02*
X107709400Y-63261700D01*
X107709400Y-63261700D02*
X115282800Y-55688300D01*
X115282800Y-55688300D02*
X134199800Y-55688300D01*
X134199800Y-55688300D02*
X149613200Y-40274900D01*
X149613200Y-40274900D02*
X167719300Y-40274900D01*
X167719300Y-40274900D02*
X169536700Y-38457500D01*
X169536700Y-38457500D02*
X169536700Y-38229500D01*
X170637000Y-38229500D02*
X169536700Y-38229500D01*
G04 #@! TO.N,RxD-B-SERIAL*
X104120300Y-67370600D02*
X104120300Y-66417100D01*
X104120300Y-66417100D02*
X115149400Y-55388000D01*
X115149400Y-55388000D02*
X133826300Y-55388000D01*
X133826300Y-55388000D02*
X149239800Y-39974500D01*
X149239800Y-39974500D02*
X165479700Y-39974500D01*
X165479700Y-39974500D02*
X166996700Y-38457500D01*
X166996700Y-38457500D02*
X166996700Y-38229500D01*
X168097000Y-38229500D02*
X166996700Y-38229500D01*
G04 #@! TO.N,TxD-B-SERIAL*
X164456700Y-38229500D02*
X164456700Y-38033800D01*
X164456700Y-38033800D02*
X163232500Y-36809600D01*
X163232500Y-36809600D02*
X131936100Y-36809600D01*
X131936100Y-36809600D02*
X101898300Y-66847400D01*
X101898300Y-66847400D02*
X101898300Y-70996500D01*
X165557000Y-38229500D02*
X164456700Y-38229500D01*
G04 #@! TO.N,CTS-A-SERIAL*
X161916700Y-38229500D02*
X161916700Y-38001500D01*
X161916700Y-38001500D02*
X161025100Y-37109900D01*
X161025100Y-37109900D02*
X132060500Y-37109900D01*
X132060500Y-37109900D02*
X102640200Y-66530200D01*
X102640200Y-66530200D02*
X102640200Y-106389100D01*
X102640200Y-106389100D02*
X101669000Y-107360300D01*
X101669000Y-107360300D02*
X101139200Y-107360300D01*
X101139200Y-107360300D02*
X98950700Y-109548800D01*
X98950700Y-109548800D02*
X98950700Y-113741600D01*
X98950700Y-113741600D02*
X92670400Y-120021900D01*
X92670400Y-120021900D02*
X79152200Y-120021900D01*
X79152200Y-120021900D02*
X77670300Y-118540000D01*
X163017000Y-38229500D02*
X161916700Y-38229500D01*
X76620000Y-118540000D02*
X77670300Y-118540000D01*
G04 #@! TO.N,RTS-A-SERIAL*
X77670300Y-121080000D02*
X79147500Y-122557200D01*
X79147500Y-122557200D02*
X91054900Y-122557200D01*
X91054900Y-122557200D02*
X101022100Y-112590000D01*
X101022100Y-112590000D02*
X101497100Y-112590000D01*
X101497100Y-112590000D02*
X103322500Y-110764600D01*
X103322500Y-110764600D02*
X103322500Y-66785600D01*
X103322500Y-66785600D02*
X121488500Y-48619600D01*
X121488500Y-48619600D02*
X132673400Y-48619600D01*
X132673400Y-48619600D02*
X141684700Y-39608300D01*
X141684700Y-39608300D02*
X158225900Y-39608300D01*
X158225900Y-39608300D02*
X159376700Y-38457500D01*
X159376700Y-38457500D02*
X159376700Y-38229500D01*
X160477000Y-38229500D02*
X159376700Y-38229500D01*
X76620000Y-121080000D02*
X77670300Y-121080000D01*
G04 #@! TO.N,TxD-A-SERIAL*
X69000000Y-126160000D02*
X75140300Y-120019700D01*
X102940500Y-66654600D02*
X131365600Y-38229500D01*
X131365600Y-38229500D02*
X132776658Y-38229500D01*
X132776658Y-38229500D02*
X132804319Y-38201839D01*
X132804319Y-38201839D02*
X133428321Y-38201839D01*
X154447000Y-38229500D02*
X155397000Y-38229500D01*
X133428321Y-38201839D02*
X133455982Y-38229500D01*
X102940500Y-108566600D02*
X102940500Y-66654600D01*
X99357400Y-111649600D02*
X100957000Y-110050000D01*
X92865100Y-120322300D02*
X99357400Y-113830000D01*
X133455982Y-38229500D02*
X154447000Y-38229500D01*
X101457100Y-110050000D02*
X102940500Y-108566600D01*
X100957000Y-110050000D02*
X101457100Y-110050000D01*
X99357400Y-113830000D02*
X99357400Y-111649600D01*
X78182700Y-120322300D02*
X92865100Y-120322300D01*
X77880100Y-120019700D02*
X78182700Y-120322300D01*
X75140300Y-120019700D02*
X77880100Y-120019700D01*
G04 #@! TO.N,A23*
X151560400Y-102519900D02*
X146376400Y-97335900D01*
X146376400Y-97335900D02*
X146376400Y-90519200D01*
X146376400Y-90519200D02*
X144537900Y-88680700D01*
X144537900Y-88680700D02*
X144023800Y-88680700D01*
X144023800Y-88680700D02*
X143273600Y-87930500D01*
X143273600Y-87930500D02*
X143273600Y-68314400D01*
X143273600Y-68314400D02*
X147432800Y-64155200D01*
X147432800Y-64155200D02*
X147432800Y-50809500D01*
X147432800Y-50809500D02*
X154318100Y-43924200D01*
X154318100Y-43924200D02*
X179677800Y-43924200D01*
X179677800Y-43924200D02*
X187327200Y-36274800D01*
X187327200Y-36274800D02*
X212179700Y-36274800D01*
X212179700Y-36274800D02*
X214216000Y-38311100D01*
X214216000Y-38311100D02*
X214216000Y-38930300D01*
X214216000Y-38930300D02*
X215053500Y-39767800D01*
X215053500Y-39767800D02*
X218451000Y-39767800D01*
X218451000Y-39767800D02*
X219465700Y-38753100D01*
X219465700Y-38753100D02*
X219465700Y-38615600D01*
X135360000Y-92030300D02*
X134002600Y-93387700D01*
X134002600Y-93387700D02*
X134002600Y-98759300D01*
X134002600Y-98759300D02*
X135332900Y-100089600D01*
X135332900Y-100089600D02*
X135795300Y-100089600D01*
X135795300Y-100089600D02*
X140573400Y-104867700D01*
X140573400Y-104867700D02*
X140573400Y-111498600D01*
X140573400Y-111498600D02*
X143918300Y-114843500D01*
X143918300Y-114843500D02*
X144891500Y-114843500D01*
X144891500Y-114843500D02*
X147907400Y-111827600D01*
X147907400Y-111827600D02*
X147907400Y-106172900D01*
X147907400Y-106172900D02*
X151560400Y-102519900D01*
X220566000Y-38615600D02*
X219465700Y-38615600D01*
X151560400Y-102519900D02*
X152496500Y-102519900D01*
X152496500Y-102519900D02*
X153134800Y-103158200D01*
X153134800Y-103158200D02*
X153134800Y-103970500D01*
X153134800Y-103970500D02*
X152033000Y-105072300D01*
X135360000Y-90980000D02*
X135360000Y-92030300D01*
X152033000Y-106122600D02*
X152033000Y-105072300D01*
G04 #@! TO.N,A22*
X145310300Y-47866300D02*
X146041700Y-47134900D01*
X146041700Y-47134900D02*
X146041700Y-44908200D01*
X146041700Y-44908200D02*
X149924200Y-41025700D01*
X149924200Y-41025700D02*
X180637000Y-41025700D01*
X180637000Y-41025700D02*
X185688300Y-35974400D01*
X185688300Y-35974400D02*
X214512500Y-35974400D01*
X214512500Y-35974400D02*
X216925700Y-38387600D01*
X216925700Y-38387600D02*
X216925700Y-38615600D01*
X135360000Y-93520000D02*
X135360000Y-94570300D01*
X144413000Y-111202600D02*
X144413000Y-110152300D01*
X144413000Y-110152300D02*
X140873800Y-106613100D01*
X140873800Y-106613100D02*
X140873800Y-102615200D01*
X140873800Y-102615200D02*
X135588600Y-97330000D01*
X135588600Y-97330000D02*
X135108900Y-97330000D01*
X135108900Y-97330000D02*
X134303000Y-96524100D01*
X134303000Y-96524100D02*
X134303000Y-95627300D01*
X134303000Y-95627300D02*
X135360000Y-94570300D01*
X218026000Y-38615600D02*
X216925700Y-38615600D01*
X137827438Y-91052562D02*
X136159999Y-92720001D01*
X136159999Y-92720001D02*
X135360000Y-93520000D01*
X137827438Y-89549104D02*
X137827438Y-91052562D01*
X138702100Y-88674444D02*
X137827438Y-89549104D01*
X138702100Y-71436100D02*
X138702100Y-88674444D01*
X145310300Y-64827900D02*
X138702100Y-71436100D01*
X145310300Y-47866300D02*
X145310300Y-64827900D01*
G04 #@! TO.N,A21*
X144413000Y-107612300D02*
X143362700Y-106562000D01*
X143362700Y-106562000D02*
X143362700Y-103012400D01*
X143362700Y-103012400D02*
X136410300Y-96060000D01*
X135360000Y-96060000D02*
X136410300Y-96060000D01*
X144413000Y-108662600D02*
X144413000Y-107612300D01*
X142973200Y-84289896D02*
X142973200Y-67589900D01*
X138127449Y-89673372D02*
X139204938Y-88595884D01*
X139204938Y-88058158D02*
X142973200Y-84289896D01*
X148984101Y-42885599D02*
X149384100Y-42485600D01*
X146782500Y-63780600D02*
X146782500Y-45087200D01*
X138127449Y-94342851D02*
X138127449Y-89673372D01*
X146782500Y-45087200D02*
X148984101Y-42885599D01*
X142973200Y-67589900D02*
X146782500Y-63780600D01*
X136410300Y-96060000D02*
X138127449Y-94342851D01*
X139204938Y-88595884D02*
X139204938Y-88058158D01*
G04 #@! TO.N,A19*
X161949700Y-52000000D02*
X159543700Y-54406000D01*
X159543700Y-54406000D02*
X159543700Y-96493400D01*
X159543700Y-96493400D02*
X163000000Y-99949700D01*
X163000000Y-101000000D02*
X163000000Y-99949700D01*
X163000000Y-52000000D02*
X161949700Y-52000000D01*
G04 #@! TO.N,A18*
X177189700Y-57080000D02*
X176132200Y-56022500D01*
X176132200Y-56022500D02*
X162567800Y-56022500D01*
X162567800Y-56022500D02*
X160444600Y-58145700D01*
X160444600Y-58145700D02*
X160444600Y-93596500D01*
X160444600Y-93596500D02*
X161669000Y-94820900D01*
X178240000Y-57080000D02*
X177189700Y-57080000D01*
X178240000Y-57080000D02*
X178240000Y-56029700D01*
X178240000Y-56029700D02*
X194043900Y-40225800D01*
X194043900Y-40225800D02*
X194043900Y-38160100D01*
X194043900Y-38160100D02*
X194718600Y-37485400D01*
X194718600Y-37485400D02*
X198132100Y-37485400D01*
X198132100Y-37485400D02*
X198976000Y-38329300D01*
X198976000Y-38329300D02*
X198976000Y-38936100D01*
X198976000Y-38936100D02*
X199771000Y-39731100D01*
X199771000Y-39731100D02*
X205878200Y-39731100D01*
X205878200Y-39731100D02*
X206765700Y-38843600D01*
X206765700Y-38843600D02*
X206765700Y-38615600D01*
X207866000Y-38615600D02*
X206765700Y-38615600D01*
G04 #@! TO.N,A17*
X163000000Y-55590300D02*
X162575300Y-55590300D01*
X162575300Y-55590300D02*
X160144300Y-58021300D01*
X160144300Y-58021300D02*
X160144300Y-94228700D01*
X160144300Y-94228700D02*
X164058400Y-98142800D01*
X164058400Y-98142800D02*
X164058400Y-101943500D01*
X164058400Y-101943500D02*
X163512200Y-102489700D01*
X163512200Y-102489700D02*
X163000000Y-102489700D01*
X163000000Y-103540000D02*
X163000000Y-102489700D01*
X163000000Y-54540000D02*
X163000000Y-55590300D01*
G04 #@! TO.N,A16*
X160481700Y-54932100D02*
X161924200Y-53489600D01*
X161924200Y-53489600D02*
X176139300Y-53489600D01*
X176139300Y-53489600D02*
X177189700Y-54540000D01*
X178240000Y-54540000D02*
X177189700Y-54540000D01*
X201685700Y-38615600D02*
X201685700Y-38387600D01*
X201685700Y-38387600D02*
X200483200Y-37185100D01*
X200483200Y-37185100D02*
X194594200Y-37185100D01*
X194594200Y-37185100D02*
X193743600Y-38035700D01*
X193743600Y-38035700D02*
X193743600Y-40086700D01*
X193743600Y-40086700D02*
X179290300Y-54540000D01*
X202786000Y-38615600D02*
X201685700Y-38615600D01*
X178240000Y-54540000D02*
X179290300Y-54540000D01*
X159844000Y-55569800D02*
X159844000Y-95600510D01*
X160481700Y-54932100D02*
X159844000Y-55569800D01*
X159844000Y-95600510D02*
X162996101Y-98752611D01*
X162996101Y-98752611D02*
X163396100Y-99152610D01*
G04 #@! TO.N,LDS*
X113550300Y-78280000D02*
X113550300Y-77821100D01*
X113550300Y-77821100D02*
X145318000Y-46053400D01*
X145318000Y-46053400D02*
X145391400Y-46053400D01*
X112500000Y-78280000D02*
X113550300Y-78280000D01*
X197706000Y-38615600D02*
X197706000Y-39715900D01*
X216000000Y-72000000D02*
X216000000Y-70949700D01*
X216000000Y-70949700D02*
X214949700Y-69899400D01*
X214949700Y-69899400D02*
X214949700Y-56959600D01*
X214949700Y-56959600D02*
X197706000Y-39715900D01*
G04 #@! TO.N,UDS*
X112500000Y-75740000D02*
X114785200Y-75740000D01*
X114785200Y-75740000D02*
X149875000Y-40650200D01*
X149875000Y-40650200D02*
X177504400Y-40650200D01*
X177504400Y-40650200D02*
X178438600Y-39716000D01*
X195166000Y-38615600D02*
X195166000Y-39715900D01*
X216000000Y-77080000D02*
X216000000Y-76029700D01*
X216000000Y-76029700D02*
X205136100Y-65165800D01*
X205136100Y-65165800D02*
X205136100Y-49686000D01*
X205136100Y-49686000D02*
X195166000Y-39715900D01*
G04 #@! TO.N,EXT_RAM_CS*
X222018000Y-58284400D02*
X222018000Y-57184100D01*
X190086000Y-38615600D02*
X191186300Y-38615600D01*
X191186300Y-38615600D02*
X191186300Y-38478100D01*
X191186300Y-38478100D02*
X192779600Y-36884800D01*
X192779600Y-36884800D02*
X207738500Y-36884800D01*
X207738500Y-36884800D02*
X209136000Y-38282300D01*
X209136000Y-38282300D02*
X209136000Y-39561300D01*
X209136000Y-39561300D02*
X220748000Y-51173300D01*
X220748000Y-51173300D02*
X220748000Y-55914100D01*
X220748000Y-55914100D02*
X222018000Y-57184100D01*
G04 #@! TO.N,EXT_ROM_CS*
X222018000Y-50684100D02*
X211676000Y-40342100D01*
X211676000Y-40342100D02*
X211676000Y-38304300D01*
X211676000Y-38304300D02*
X209956200Y-36584500D01*
X209956200Y-36584500D02*
X190539900Y-36584500D01*
X190539900Y-36584500D02*
X188646300Y-38478100D01*
X188646300Y-38478100D02*
X188646300Y-38615600D01*
X187546000Y-38615600D02*
X188646300Y-38615600D01*
X222018000Y-51784400D02*
X222018000Y-50684100D01*
G04 #@! TO.N,DUART_CS_JMPR*
X223316500Y-97689300D02*
X221538500Y-95911300D01*
X223809700Y-97689300D02*
X223316500Y-97689300D01*
X224991600Y-121618100D02*
X224991600Y-98871200D01*
X223620000Y-122989700D02*
X224991600Y-121618100D01*
X216938000Y-64817700D02*
X216938000Y-65918000D01*
X223620000Y-124040000D02*
X223620000Y-122989700D01*
X224991600Y-98871200D02*
X223809700Y-97689300D01*
X221538500Y-95911300D02*
X221538500Y-70518500D01*
X221538500Y-70518500D02*
X216938000Y-65918000D01*
G04 #@! TO.N,RAM_CS*
X219478000Y-58284400D02*
X219478000Y-59384700D01*
X216000000Y-82160000D02*
X216000000Y-81109700D01*
X216000000Y-81109700D02*
X217059200Y-80050500D01*
X217059200Y-80050500D02*
X217059200Y-70082300D01*
X217059200Y-70082300D02*
X215837600Y-68860700D01*
X215837600Y-68860700D02*
X215837600Y-63025100D01*
X215837600Y-63025100D02*
X219478000Y-59384700D01*
X219478000Y-58284400D02*
X219478000Y-51784400D01*
G04 #@! TO.N,ROM_CS_JMPR*
X152033000Y-112692300D02*
X156801800Y-107923500D01*
X156801800Y-107923500D02*
X156801800Y-93384200D01*
X156801800Y-93384200D02*
X156401500Y-92983900D01*
X156401500Y-92983900D02*
X156401500Y-56624600D01*
X156401500Y-56624600D02*
X162541900Y-50484200D01*
X162541900Y-50484200D02*
X166489600Y-50484200D01*
X152033000Y-113742600D02*
X152033000Y-112692300D01*
G04 #@! TO.N,D4*
X101240000Y-133129700D02*
X105891700Y-128478000D01*
X105891700Y-128478000D02*
X105891700Y-109509500D01*
X105891700Y-109509500D02*
X110796700Y-104604500D01*
X110796700Y-104604500D02*
X110796700Y-97758600D01*
X110796700Y-97758600D02*
X111445000Y-97110300D01*
X111445000Y-97110300D02*
X112996200Y-97110300D01*
X112996200Y-97110300D02*
X115118600Y-94987900D01*
X115118600Y-94987900D02*
X115118600Y-92954600D01*
X112500000Y-61550300D02*
X113912500Y-62962800D01*
X113912500Y-62962800D02*
X113912500Y-73312900D01*
X113912500Y-73312900D02*
X112755400Y-74470000D01*
X112755400Y-74470000D02*
X112278200Y-74470000D01*
X112278200Y-74470000D02*
X111445000Y-75303200D01*
X111445000Y-75303200D02*
X111445000Y-97110300D01*
X112500000Y-60500000D02*
X112500000Y-61550300D01*
X101240000Y-134180000D02*
X101240000Y-133129700D01*
G04 #@! TO.N,A5*
X163000000Y-117729700D02*
X159215400Y-113945100D01*
X159215400Y-113945100D02*
X159215400Y-71150000D01*
X159215400Y-71150000D02*
X158893300Y-70827900D01*
X163000000Y-117729700D02*
X186979400Y-117729700D01*
X186979400Y-117729700D02*
X187949700Y-118700000D01*
X189000000Y-118700000D02*
X187949700Y-118700000D01*
X163000000Y-118780000D02*
X163000000Y-117729700D01*
G04 #@! TO.N,D3*
X86000000Y-131640000D02*
X86000000Y-130589700D01*
X86000000Y-130589700D02*
X84925400Y-129515100D01*
X84925400Y-129515100D02*
X84925400Y-128680300D01*
X84925400Y-128680300D02*
X85775700Y-127830000D01*
X85775700Y-127830000D02*
X88324400Y-127830000D01*
X88324400Y-127830000D02*
X101024400Y-115130000D01*
X101024400Y-115130000D02*
X101499200Y-115130000D01*
X101499200Y-115130000D02*
X104572100Y-112057100D01*
X104572100Y-112057100D02*
X104572100Y-103867400D01*
X104572100Y-103867400D02*
X108782600Y-99656900D01*
X108782600Y-99656900D02*
X108782600Y-67807700D01*
X108782600Y-67807700D02*
X112500000Y-64090300D01*
X112500000Y-63040000D02*
X112500000Y-64090300D01*
G04 #@! TO.N,A6*
X163000000Y-68290300D02*
X162575300Y-68290300D01*
X162575300Y-68290300D02*
X161345500Y-69520100D01*
X161345500Y-69520100D02*
X161345500Y-90833300D01*
X161345500Y-90833300D02*
X165001000Y-94488800D01*
X165001000Y-94488800D02*
X165001000Y-108123300D01*
X165001000Y-108123300D02*
X163314900Y-109809400D01*
X163314900Y-109809400D02*
X162428400Y-109809400D01*
X162428400Y-109809400D02*
X161580500Y-110657300D01*
X161580500Y-110657300D02*
X161580500Y-113770200D01*
X161580500Y-113770200D02*
X163000000Y-115189700D01*
X164050300Y-116240000D02*
X164050300Y-116301900D01*
X164050300Y-116301900D02*
X165043900Y-117295500D01*
X165043900Y-117295500D02*
X186814200Y-117295500D01*
X186814200Y-117295500D02*
X187949700Y-116160000D01*
X163000000Y-116240000D02*
X164050300Y-116240000D01*
X189000000Y-116160000D02*
X187949700Y-116160000D01*
X163000000Y-116240000D02*
X163000000Y-115189700D01*
X163000000Y-67240000D02*
X163000000Y-68290300D01*
G04 #@! TO.N,D2*
X101240000Y-130589700D02*
X105591400Y-126238300D01*
X105591400Y-126238300D02*
X105591400Y-109385100D01*
X105591400Y-109385100D02*
X110382200Y-104594300D01*
X110382200Y-104594300D02*
X110382200Y-73828100D01*
X110382200Y-73828100D02*
X112067800Y-72142500D01*
X112067800Y-72142500D02*
X112544100Y-72142500D01*
X112544100Y-72142500D02*
X113560500Y-71126100D01*
X113560500Y-71126100D02*
X113560500Y-67690800D01*
X113560500Y-67690800D02*
X112500000Y-66630300D01*
X112500000Y-65580000D02*
X112500000Y-66630300D01*
X101240000Y-131640000D02*
X101240000Y-130589700D01*
X188500000Y-87480000D02*
X187449700Y-87480000D01*
X163000000Y-87560000D02*
X164050300Y-87560000D01*
X164050300Y-87560000D02*
X165106400Y-86503900D01*
X165106400Y-86503900D02*
X186473600Y-86503900D01*
X186473600Y-86503900D02*
X187449700Y-87480000D01*
G04 #@! TO.N,A7*
X163000000Y-65750300D02*
X164050300Y-66800600D01*
X164050300Y-66800600D02*
X164050300Y-67675300D01*
X164050300Y-67675300D02*
X163135000Y-68590600D01*
X163135000Y-68590600D02*
X162699700Y-68590600D01*
X162699700Y-68590600D02*
X161645800Y-69644500D01*
X161645800Y-69644500D02*
X161645800Y-90708900D01*
X161645800Y-90708900D02*
X165301400Y-94364500D01*
X165301400Y-94364500D02*
X165301400Y-108273200D01*
X165301400Y-108273200D02*
X163464900Y-110109700D01*
X163464900Y-110109700D02*
X162552800Y-110109700D01*
X162552800Y-110109700D02*
X161880800Y-110781700D01*
X161880800Y-110781700D02*
X161880800Y-111530500D01*
X161880800Y-111530500D02*
X163000000Y-112649700D01*
X163000000Y-113700000D02*
X163000000Y-112649700D01*
X163000000Y-113700000D02*
X163450100Y-113700000D01*
X163000000Y-64700000D02*
X163000000Y-65750300D01*
X216000000Y-122550300D02*
X217072900Y-123623200D01*
X217072900Y-123623200D02*
X217072900Y-124455100D01*
X217072900Y-124455100D02*
X216367200Y-125160800D01*
X216367200Y-125160800D02*
X201591100Y-125160800D01*
X201591100Y-125160800D02*
X190050300Y-113620000D01*
X189000000Y-113620000D02*
X190050300Y-113620000D01*
X216000000Y-121500000D02*
X216000000Y-122550300D01*
X189000000Y-113620000D02*
X187949700Y-113620000D01*
X163450100Y-113700000D02*
X164050300Y-113700000D01*
X187949700Y-113620000D02*
X186959600Y-112629900D01*
X186959600Y-112629900D02*
X165120400Y-112629900D01*
X165120400Y-112629900D02*
X164050300Y-113700000D01*
G04 #@! TO.N,D1*
X112500000Y-68120000D02*
X112500000Y-69170300D01*
X86000000Y-129100000D02*
X88386600Y-129100000D01*
X88386600Y-129100000D02*
X99816600Y-117670000D01*
X99816600Y-117670000D02*
X101476700Y-117670000D01*
X101476700Y-117670000D02*
X104872500Y-114274200D01*
X104872500Y-114274200D02*
X104872500Y-105797900D01*
X104872500Y-105797900D02*
X109432900Y-101237500D01*
X109432900Y-101237500D02*
X109432900Y-72237400D01*
X109432900Y-72237400D02*
X112500000Y-69170300D01*
X188500000Y-84940000D02*
X187449700Y-84940000D01*
X163000000Y-85020000D02*
X164050300Y-85020000D01*
X164050300Y-85020000D02*
X165106300Y-83964000D01*
X165106300Y-83964000D02*
X186473700Y-83964000D01*
X186473700Y-83964000D02*
X187449700Y-84940000D01*
G04 #@! TO.N,A8*
X216000000Y-124040000D02*
X214949700Y-124040000D01*
X189000000Y-111080000D02*
X190050300Y-111080000D01*
X190050300Y-111080000D02*
X203830600Y-124860300D01*
X203830600Y-124860300D02*
X214129400Y-124860300D01*
X214129400Y-124860300D02*
X214949700Y-124040000D01*
X188474900Y-111080000D02*
X189000000Y-111080000D01*
X188474900Y-111080000D02*
X187949700Y-111080000D01*
X165601800Y-110259800D02*
X164701600Y-111160000D01*
X164701600Y-111160000D02*
X164050300Y-111160000D01*
X164350700Y-62160000D02*
X164350700Y-69996000D01*
X164350700Y-69996000D02*
X163296700Y-71050000D01*
X163296700Y-71050000D02*
X162779800Y-71050000D01*
X162779800Y-71050000D02*
X161946100Y-71883700D01*
X161946100Y-71883700D02*
X161946100Y-90531700D01*
X161946100Y-90531700D02*
X165601800Y-94187400D01*
X165601800Y-94187400D02*
X165601800Y-110259800D01*
X187949700Y-111080000D02*
X186793100Y-112236600D01*
X186793100Y-112236600D02*
X167578600Y-112236600D01*
X167578600Y-112236600D02*
X165601800Y-110259800D01*
X164350700Y-62160000D02*
X164050300Y-62160000D01*
X187449700Y-62080000D02*
X186473500Y-61103800D01*
X186473500Y-61103800D02*
X165406900Y-61103800D01*
X165406900Y-61103800D02*
X164350700Y-62160000D01*
X163000000Y-111160000D02*
X164050300Y-111160000D01*
X163000000Y-62160000D02*
X164050300Y-62160000D01*
X188500000Y-62080000D02*
X187449700Y-62080000D01*
G04 #@! TO.N,D0*
X101240000Y-128049700D02*
X105291100Y-123998600D01*
X105291100Y-123998600D02*
X105291100Y-109260700D01*
X105291100Y-109260700D02*
X110081800Y-104470000D01*
X110081800Y-104470000D02*
X110081800Y-73703800D01*
X110081800Y-73703800D02*
X112075300Y-71710300D01*
X112075300Y-71710300D02*
X112500000Y-71710300D01*
X112500000Y-70660000D02*
X112500000Y-71710300D01*
X101240000Y-129100000D02*
X101240000Y-128049700D01*
X163000000Y-82480000D02*
X164050300Y-82480000D01*
X188500000Y-82400000D02*
X187449700Y-82400000D01*
X187449700Y-82400000D02*
X186296100Y-83553600D01*
X186296100Y-83553600D02*
X165123900Y-83553600D01*
X165123900Y-83553600D02*
X164050300Y-82480000D01*
G04 #@! TO.N,A9*
X201089500Y-65890000D02*
X180480300Y-65890000D01*
X180480300Y-65890000D02*
X179290300Y-64700000D01*
X202689700Y-64620000D02*
X201419700Y-65890000D01*
X201419700Y-65890000D02*
X201089500Y-65890000D01*
X204240000Y-112569700D02*
X205304700Y-111505000D01*
X205304700Y-111505000D02*
X205304700Y-110642800D01*
X205304700Y-110642800D02*
X204330200Y-109668300D01*
X204330200Y-109668300D02*
X203830800Y-109668300D01*
X203830800Y-109668300D02*
X201089500Y-106927000D01*
X201089500Y-106927000D02*
X201089500Y-65890000D01*
X203740000Y-64620000D02*
X202689700Y-64620000D01*
X178240000Y-64700000D02*
X179290300Y-64700000D01*
X204240000Y-113620000D02*
X204240000Y-112569700D01*
G04 #@! TO.N,A10*
X204240000Y-115109700D02*
X205605100Y-113744600D01*
X205605100Y-113744600D02*
X205605100Y-105648000D01*
X205605100Y-105648000D02*
X201713000Y-101755900D01*
X201713000Y-101755900D02*
X201713000Y-70237300D01*
X201713000Y-70237300D02*
X203740000Y-68210300D01*
X178240000Y-116240000D02*
X164908000Y-116240000D01*
X164908000Y-116240000D02*
X164709400Y-116041400D01*
X203740000Y-67160000D02*
X203740000Y-68210300D01*
X204240000Y-116160000D02*
X204240000Y-115109700D01*
G04 #@! TO.N,A11*
X204240000Y-122729700D02*
X206560700Y-120409000D01*
X206560700Y-120409000D02*
X206560700Y-95742200D01*
X206560700Y-95742200D02*
X202667400Y-91848900D01*
X202667400Y-91848900D02*
X202667400Y-76902900D01*
X202667400Y-76902900D02*
X203740000Y-75830300D01*
X203740000Y-74780000D02*
X203740000Y-75830300D01*
X204240000Y-123780000D02*
X204240000Y-122729700D01*
G04 #@! TO.N,A12*
X204240000Y-117649700D02*
X205906300Y-115983400D01*
X205906300Y-115983400D02*
X205906300Y-105524300D01*
X205906300Y-105524300D02*
X202055600Y-101673600D01*
X202055600Y-101673600D02*
X202055600Y-72434700D01*
X202055600Y-72434700D02*
X203740000Y-70750300D01*
X203740000Y-69700000D02*
X203740000Y-70750300D01*
X204240000Y-118700000D02*
X204240000Y-117649700D01*
G04 #@! TO.N,RW*
X143938000Y-50484900D02*
X143460700Y-50484900D01*
X143460700Y-50484900D02*
X113550300Y-80395300D01*
X113550300Y-80395300D02*
X113550300Y-80820000D01*
X143938000Y-49434600D02*
X143938000Y-50484900D01*
X112500000Y-80820000D02*
X113550300Y-80820000D01*
X203740000Y-60590300D02*
X204803000Y-61653300D01*
X204803000Y-61653300D02*
X204803000Y-65089400D01*
X204803000Y-65089400D02*
X204002400Y-65890000D01*
X204002400Y-65890000D02*
X203518200Y-65890000D01*
X203518200Y-65890000D02*
X201412600Y-67995600D01*
X201412600Y-67995600D02*
X201412600Y-104662300D01*
X201412600Y-104662300D02*
X204240000Y-107489700D01*
X204240000Y-108540000D02*
X204240000Y-107489700D01*
X203740000Y-59540000D02*
X203740000Y-60590300D01*
X203740000Y-59540000D02*
X202689700Y-59540000D01*
X178240000Y-59620000D02*
X179290300Y-59620000D01*
X179290300Y-59620000D02*
X180266400Y-60596100D01*
X180266400Y-60596100D02*
X201633600Y-60596100D01*
X201633600Y-60596100D02*
X202689700Y-59540000D01*
G04 #@! TO.N,A13*
X163000000Y-60670300D02*
X161045200Y-62625100D01*
X161045200Y-62625100D02*
X161045200Y-90957700D01*
X161045200Y-90957700D02*
X164684200Y-94596700D01*
X164684200Y-94596700D02*
X164684200Y-105885500D01*
X164684200Y-105885500D02*
X163000000Y-107569700D01*
X187949700Y-108540000D02*
X186963200Y-107553500D01*
X186963200Y-107553500D02*
X169369500Y-107553500D01*
X169369500Y-107553500D02*
X168303000Y-108620000D01*
X163000000Y-59620000D02*
X163000000Y-60670300D01*
X163000000Y-108620000D02*
X163000000Y-107569700D01*
X163000000Y-59620000D02*
X164050300Y-59620000D01*
X187449700Y-59540000D02*
X186438600Y-58528900D01*
X186438600Y-58528900D02*
X165141400Y-58528900D01*
X165141400Y-58528900D02*
X164050300Y-59620000D01*
X188500000Y-59540000D02*
X187449700Y-59540000D01*
X189000000Y-108540000D02*
X187949700Y-108540000D01*
G04 #@! TO.N,A14*
X190331200Y-109968700D02*
X180481600Y-109968700D01*
X180481600Y-109968700D02*
X179290300Y-111160000D01*
X203189700Y-111080000D02*
X202078400Y-109968700D01*
X202078400Y-109968700D02*
X190331200Y-109968700D01*
X179290300Y-62160000D02*
X180266300Y-63136000D01*
X180266300Y-63136000D02*
X201633700Y-63136000D01*
X201633700Y-63136000D02*
X202689700Y-62080000D01*
X178240000Y-111160000D02*
X179290300Y-111160000D01*
X204240000Y-111080000D02*
X203189700Y-111080000D01*
X178240000Y-62160000D02*
X179290300Y-62160000D01*
X203740000Y-62080000D02*
X202689700Y-62080000D01*
X188869900Y-73616300D02*
X186416500Y-73616300D01*
X177150600Y-65151800D02*
X177150600Y-63249400D01*
X190331200Y-101490056D02*
X190331200Y-75077600D01*
X190331200Y-75077600D02*
X188869900Y-73616300D01*
X190331200Y-109968700D02*
X190331200Y-102177304D01*
X190331200Y-102177304D02*
X190299578Y-102145682D01*
X190299578Y-102145682D02*
X190299578Y-101521678D01*
X177968800Y-65970000D02*
X177150600Y-65151800D01*
X177440001Y-62959999D02*
X178240000Y-62160000D01*
X178770200Y-65970000D02*
X177968800Y-65970000D01*
X177150600Y-63249400D02*
X177440001Y-62959999D01*
X186416500Y-73616300D02*
X178770200Y-65970000D01*
X190299578Y-101521678D02*
X190331200Y-101490056D01*
G04 #@! TO.N,A15*
X163000000Y-58130300D02*
X160744900Y-60385400D01*
X160744900Y-60385400D02*
X160744900Y-91082100D01*
X160744900Y-91082100D02*
X164358800Y-94696000D01*
X164358800Y-94696000D02*
X164358800Y-103670900D01*
X164358800Y-103670900D02*
X163000000Y-105029700D01*
X163000000Y-58130300D02*
X186319400Y-58130300D01*
X186319400Y-58130300D02*
X187449700Y-57000000D01*
X188500000Y-57000000D02*
X187449700Y-57000000D01*
X163000000Y-57080000D02*
X163000000Y-58130300D01*
X163000000Y-106080000D02*
X163000000Y-105029700D01*
G04 #@! TO.N,SYS_CLK*
X143938000Y-62134600D02*
X142887700Y-62134600D01*
X112500000Y-96060000D02*
X112500000Y-95009700D01*
X112500000Y-95009700D02*
X113550300Y-93959400D01*
X113550300Y-93959400D02*
X113550300Y-82935100D01*
X113550300Y-82935100D02*
X132057300Y-64428100D01*
X132057300Y-64428100D02*
X132057300Y-62313000D01*
X132057300Y-62313000D02*
X134920600Y-59449700D01*
X134920600Y-59449700D02*
X140202800Y-59449700D01*
X140202800Y-59449700D02*
X142887700Y-62134600D01*
G04 #@! TO.N,RESET*
X101240000Y-105189700D02*
X94768000Y-98717700D01*
X94768000Y-98717700D02*
X94768000Y-42519400D01*
X94768000Y-42519400D02*
X94467700Y-42219100D01*
X94467700Y-41518800D02*
X94467700Y-42219100D01*
X101240000Y-106240000D02*
X101240000Y-105189700D01*
X112500000Y-103680000D02*
X112500000Y-101140000D01*
G04 #@! TO.N,D15*
X177189700Y-128940000D02*
X176103600Y-130026100D01*
X176103600Y-130026100D02*
X162597700Y-130026100D01*
X162597700Y-130026100D02*
X150960800Y-118389200D01*
X150960800Y-118389200D02*
X150960800Y-110762500D01*
X150960800Y-110762500D02*
X151790700Y-109932600D01*
X151790700Y-109932600D02*
X152275500Y-109932600D01*
X152275500Y-109932600D02*
X153471500Y-108736600D01*
X153471500Y-108736600D02*
X153471500Y-98342500D01*
X153471500Y-98342500D02*
X147572800Y-92443800D01*
X147572800Y-92443800D02*
X147572800Y-85730000D01*
X147572800Y-85730000D02*
X145731200Y-83888400D01*
X178240000Y-128940000D02*
X179290300Y-128940000D01*
X204240000Y-128860000D02*
X203189700Y-128860000D01*
X203189700Y-128860000D02*
X202100900Y-129948800D01*
X202100900Y-129948800D02*
X180299100Y-129948800D01*
X180299100Y-129948800D02*
X179290300Y-128940000D01*
X178240000Y-128940000D02*
X177189700Y-128940000D01*
G04 #@! TO.N,/IPL2*
X112500000Y-116380000D02*
X113550300Y-116380000D01*
X144208000Y-134333000D02*
X143157700Y-134333000D01*
X143157700Y-134333000D02*
X141564600Y-132739900D01*
X141564600Y-132739900D02*
X129910200Y-132739900D01*
X129910200Y-132739900D02*
X113550300Y-116380000D01*
G04 #@! TO.N,D14*
X177189700Y-131480000D02*
X176121600Y-132548100D01*
X176121600Y-132548100D02*
X161693700Y-132548100D01*
X161693700Y-132548100D02*
X152197700Y-123052100D01*
X152197700Y-123052100D02*
X151200900Y-123052100D01*
X151200900Y-123052100D02*
X139116300Y-110967500D01*
X139116300Y-110967500D02*
X139116300Y-108447000D01*
X139116300Y-108447000D02*
X135587200Y-104917900D01*
X135587200Y-104917900D02*
X135104300Y-104917900D01*
X135104300Y-104917900D02*
X133402000Y-103215600D01*
X133402000Y-103215600D02*
X133402000Y-86368300D01*
X133402000Y-86368300D02*
X135360000Y-84410300D01*
X178240000Y-131480000D02*
X179290300Y-131480000D01*
X204240000Y-131400000D02*
X203189700Y-131400000D01*
X203189700Y-131400000D02*
X202134600Y-132455100D01*
X202134600Y-132455100D02*
X180265400Y-132455100D01*
X180265400Y-132455100D02*
X179290300Y-131480000D01*
X135360000Y-83360000D02*
X135360000Y-84410300D01*
X178240000Y-131480000D02*
X177189700Y-131480000D01*
G04 #@! TO.N,/IPL1*
X112500000Y-118920000D02*
X113550300Y-118920000D01*
X144208000Y-136873000D02*
X143157700Y-136873000D01*
X143157700Y-136873000D02*
X141714700Y-135430000D01*
X141714700Y-135430000D02*
X130060300Y-135430000D01*
X130060300Y-135430000D02*
X113550300Y-118920000D01*
G04 #@! TO.N,D13*
X178240000Y-134020000D02*
X179290300Y-134020000D01*
X204240000Y-133940000D02*
X203189700Y-133940000D01*
X203189700Y-133940000D02*
X202098200Y-132848500D01*
X202098200Y-132848500D02*
X180461800Y-132848500D01*
X180461800Y-132848500D02*
X179290300Y-134020000D01*
X135360000Y-80820000D02*
X135360000Y-81870300D01*
X178240000Y-134020000D02*
X177189700Y-134020000D01*
X177189700Y-134020000D02*
X176139400Y-132969700D01*
X176139400Y-132969700D02*
X161192900Y-132969700D01*
X161192900Y-132969700D02*
X153585400Y-125362200D01*
X153585400Y-125362200D02*
X151455600Y-125362200D01*
X151455600Y-125362200D02*
X137419800Y-111326400D01*
X137419800Y-111326400D02*
X137419800Y-109267500D01*
X137419800Y-109267500D02*
X135642300Y-107490000D01*
X135642300Y-107490000D02*
X135142400Y-107490000D01*
X135142400Y-107490000D02*
X133088800Y-105436400D01*
X133088800Y-105436400D02*
X133088800Y-84141500D01*
X133088800Y-84141500D02*
X135360000Y-81870300D01*
G04 #@! TO.N,/IPL0*
X150777700Y-139413000D02*
X149334700Y-137970000D01*
X149334700Y-137970000D02*
X130060300Y-137970000D01*
X130060300Y-137970000D02*
X113550300Y-121460000D01*
X112500000Y-121460000D02*
X113550300Y-121460000D01*
X151828000Y-139413000D02*
X150777700Y-139413000D01*
G04 #@! TO.N,D12*
X204240000Y-136480000D02*
X203189700Y-136480000D01*
X203189700Y-136480000D02*
X202124900Y-135415200D01*
X202124900Y-135415200D02*
X186938800Y-135415200D01*
X186938800Y-135415200D02*
X185794000Y-136560000D01*
X185794000Y-136560000D02*
X178240000Y-136560000D01*
X135360000Y-79330300D02*
X132788500Y-81901800D01*
X132788500Y-81901800D02*
X132788500Y-107717700D01*
X132788500Y-107717700D02*
X135100800Y-110030000D01*
X135100800Y-110030000D02*
X135575600Y-110030000D01*
X135575600Y-110030000D02*
X151208200Y-125662600D01*
X151208200Y-125662600D02*
X152662700Y-125662600D01*
X152662700Y-125662600D02*
X162509800Y-135509700D01*
X162509800Y-135509700D02*
X176139400Y-135509700D01*
X176139400Y-135509700D02*
X177189700Y-136560000D01*
X178240000Y-136560000D02*
X177189700Y-136560000D01*
X135360000Y-78280000D02*
X135360000Y-79330300D01*
G04 #@! TO.N,D11*
X178240000Y-139100000D02*
X164800200Y-139100000D01*
X164800200Y-139100000D02*
X163530200Y-137830000D01*
X163530200Y-137830000D02*
X159665200Y-137830000D01*
X159665200Y-137830000D02*
X152358200Y-130523000D01*
X152358200Y-130523000D02*
X151529700Y-130523000D01*
X151529700Y-130523000D02*
X145291800Y-124285100D01*
X145291800Y-124285100D02*
X145291800Y-123742200D01*
X145291800Y-123742200D02*
X144449600Y-122900000D01*
X144449600Y-122900000D02*
X143480700Y-122900000D01*
X143480700Y-122900000D02*
X135690700Y-115110000D01*
X135690700Y-115110000D02*
X135123300Y-115110000D01*
X135123300Y-115110000D02*
X132151300Y-112138000D01*
X132151300Y-112138000D02*
X132151300Y-74874300D01*
X132151300Y-74874300D02*
X134876000Y-72149600D01*
X134876000Y-72149600D02*
X135799300Y-72149600D01*
X135799300Y-72149600D02*
X136420400Y-72770700D01*
X136420400Y-72770700D02*
X136420400Y-73629300D01*
X136420400Y-73629300D02*
X135360000Y-74689700D01*
X178240000Y-139100000D02*
X179290300Y-139100000D01*
X204240000Y-139020000D02*
X203189700Y-139020000D01*
X203189700Y-139020000D02*
X202138900Y-140070800D01*
X202138900Y-140070800D02*
X180261100Y-140070800D01*
X180261100Y-140070800D02*
X179290300Y-139100000D01*
X135360000Y-75740000D02*
X135360000Y-74689700D01*
G04 #@! TO.N,/FC1*
X68857800Y-64375400D02*
X67035300Y-66197900D01*
X67035300Y-66197900D02*
X67035300Y-138421100D01*
X67035300Y-138421100D02*
X68578700Y-139964500D01*
X68578700Y-139964500D02*
X82399600Y-139964500D01*
X82399600Y-139964500D02*
X84154500Y-138209600D01*
X84154500Y-138209600D02*
X101880700Y-138209600D01*
X101880700Y-138209600D02*
X112500000Y-127590300D01*
X112500000Y-126540000D02*
X112500000Y-127590300D01*
X68857800Y-63325100D02*
X68857800Y-64375400D01*
G04 #@! TO.N,D10*
X163000000Y-136560000D02*
X164050300Y-136560000D01*
X189000000Y-136480000D02*
X187949700Y-136480000D01*
X187949700Y-136480000D02*
X186798400Y-137631300D01*
X186798400Y-137631300D02*
X165121600Y-137631300D01*
X165121600Y-137631300D02*
X164050300Y-136560000D01*
X135360000Y-73200000D02*
X135360000Y-74250300D01*
X163000000Y-136560000D02*
X161949700Y-136560000D01*
X161949700Y-136560000D02*
X153372700Y-127983000D01*
X153372700Y-127983000D02*
X151550000Y-127983000D01*
X151550000Y-127983000D02*
X145587200Y-122020200D01*
X145587200Y-122020200D02*
X145587200Y-121053200D01*
X145587200Y-121053200D02*
X137104000Y-112570000D01*
X137104000Y-112570000D02*
X135123300Y-112570000D01*
X135123300Y-112570000D02*
X132451700Y-109898400D01*
X132451700Y-109898400D02*
X132451700Y-77158600D01*
X132451700Y-77158600D02*
X135360000Y-74250300D01*
G04 #@! TO.N,/FC0*
X76477800Y-64375400D02*
X77528100Y-65425700D01*
X77528100Y-65425700D02*
X77528100Y-80112000D01*
X77528100Y-80112000D02*
X94317600Y-96901500D01*
X94317600Y-96901500D02*
X94317600Y-99167300D01*
X94317600Y-99167300D02*
X97950600Y-102800300D01*
X97950600Y-102800300D02*
X97950600Y-113504900D01*
X76477800Y-63325100D02*
X76477800Y-64375400D01*
G04 #@! TO.N,D9*
X150814300Y-133282600D02*
X149924500Y-132392800D01*
X149924500Y-132392800D02*
X149924500Y-130943100D01*
X149924500Y-130943100D02*
X144279200Y-125297800D01*
X144279200Y-125297800D02*
X143828300Y-125297800D01*
X143828300Y-125297800D02*
X135975400Y-117444900D01*
X135975400Y-117444900D02*
X134918200Y-117444900D01*
X134918200Y-117444900D02*
X131851000Y-114377700D01*
X131851000Y-114377700D02*
X131851000Y-74694200D01*
X131851000Y-74694200D02*
X134834900Y-71710300D01*
X134834900Y-71710300D02*
X135360000Y-71710300D01*
X135360000Y-70660000D02*
X135360000Y-71710300D01*
X163000000Y-134020000D02*
X164050300Y-134020000D01*
X189000000Y-133940000D02*
X187949700Y-133940000D01*
X187949700Y-133940000D02*
X186754700Y-135135000D01*
X186754700Y-135135000D02*
X165165300Y-135135000D01*
X165165300Y-135135000D02*
X164050300Y-134020000D01*
G04 #@! TO.N,A1*
X163000000Y-127889700D02*
X157102100Y-121991800D01*
X157102100Y-121991800D02*
X157102100Y-80278000D01*
X157102100Y-80278000D02*
X157071700Y-80247600D01*
X86000000Y-92050300D02*
X96382700Y-102433000D01*
X96382700Y-102433000D02*
X96382700Y-115376900D01*
X86000000Y-91000000D02*
X86000000Y-92050300D01*
X188500000Y-79860000D02*
X187449700Y-79860000D01*
X163000000Y-79940000D02*
X164050300Y-79940000D01*
X164050300Y-79940000D02*
X165100800Y-78889500D01*
X165100800Y-78889500D02*
X186479200Y-78889500D01*
X186479200Y-78889500D02*
X187449700Y-79860000D01*
X163000000Y-128940000D02*
X163000000Y-127889700D01*
X189000000Y-128860000D02*
X187949700Y-128860000D01*
X163000000Y-128940000D02*
X164050300Y-128940000D01*
X164050300Y-128940000D02*
X165105800Y-127884500D01*
X165105800Y-127884500D02*
X186974200Y-127884500D01*
X186974200Y-127884500D02*
X187949700Y-128860000D01*
G04 #@! TO.N,D8*
X135360000Y-69170300D02*
X136735200Y-70545500D01*
X136735200Y-70545500D02*
X136735200Y-86034600D01*
X136735200Y-86034600D02*
X135599800Y-87170000D01*
X135599800Y-87170000D02*
X135113300Y-87170000D01*
X135113300Y-87170000D02*
X133702300Y-88581000D01*
X133702300Y-88581000D02*
X133702300Y-101001900D01*
X133702300Y-101001900D02*
X135110400Y-102410000D01*
X135110400Y-102410000D02*
X135581800Y-102410000D01*
X135581800Y-102410000D02*
X140215700Y-107043900D01*
X140215700Y-107043900D02*
X140215700Y-111565600D01*
X140215700Y-111565600D02*
X151401800Y-122751700D01*
X151401800Y-122751700D02*
X153221400Y-122751700D01*
X153221400Y-122751700D02*
X161949700Y-131480000D01*
X163000000Y-131480000D02*
X164050300Y-131480000D01*
X189000000Y-131400000D02*
X187949700Y-131400000D01*
X187949700Y-131400000D02*
X186966800Y-130417100D01*
X186966800Y-130417100D02*
X165113200Y-130417100D01*
X165113200Y-130417100D02*
X164050300Y-131480000D01*
X135360000Y-68120000D02*
X135360000Y-69170300D01*
X163000000Y-131480000D02*
X161949700Y-131480000D01*
G04 #@! TO.N,A2*
X86000000Y-97130300D02*
X95382300Y-106512600D01*
X95382300Y-106512600D02*
X95382300Y-116381300D01*
X86000000Y-96080000D02*
X86000000Y-97130300D01*
X188500000Y-77320000D02*
X187449700Y-77320000D01*
X163000000Y-77400000D02*
X164050300Y-77400000D01*
X164050300Y-77400000D02*
X165100600Y-76349700D01*
X165100600Y-76349700D02*
X186479400Y-76349700D01*
X186479400Y-76349700D02*
X187449700Y-77320000D01*
X163000000Y-125349700D02*
X157809300Y-120159000D01*
X157809300Y-120159000D02*
X157809300Y-77016400D01*
X163000000Y-126400000D02*
X163000000Y-125349700D01*
X163000000Y-126400000D02*
X164050300Y-126400000D01*
X189000000Y-126320000D02*
X187949700Y-126320000D01*
X164050300Y-126400000D02*
X165106400Y-125343900D01*
X165106400Y-125343900D02*
X186973600Y-125343900D01*
X186973600Y-125343900D02*
X187949700Y-126320000D01*
G04 #@! TO.N,D7*
X87050300Y-136720000D02*
X88104600Y-137774300D01*
X88104600Y-137774300D02*
X101697700Y-137774300D01*
X101697700Y-137774300D02*
X106792600Y-132679400D01*
X106792600Y-132679400D02*
X106792600Y-112974000D01*
X106792600Y-112974000D02*
X112276600Y-107490000D01*
X112276600Y-107490000D02*
X112733300Y-107490000D01*
X112733300Y-107490000D02*
X130987700Y-89235600D01*
X130987700Y-89235600D02*
X130987700Y-71002600D01*
X130987700Y-71002600D02*
X135360000Y-66630300D01*
X135360000Y-65580000D02*
X135360000Y-66630300D01*
X86000000Y-136720000D02*
X87050300Y-136720000D01*
G04 #@! TO.N,A3*
X86000000Y-101160000D02*
X86000000Y-102210300D01*
X86000000Y-102210300D02*
X91608300Y-107818600D01*
X91608300Y-107818600D02*
X91608300Y-114806700D01*
X188500000Y-74780000D02*
X187449700Y-74780000D01*
X163000000Y-74860000D02*
X164050300Y-74860000D01*
X164050300Y-74860000D02*
X165100700Y-75910400D01*
X165100700Y-75910400D02*
X186319300Y-75910400D01*
X186319300Y-75910400D02*
X187449700Y-74780000D01*
X157654700Y-74860000D02*
X158469100Y-75674400D01*
X158469100Y-75674400D02*
X158469100Y-118278800D01*
X158469100Y-118278800D02*
X163000000Y-122809700D01*
X164050300Y-123860000D02*
X165117200Y-122793100D01*
X165117200Y-122793100D02*
X186962800Y-122793100D01*
X186962800Y-122793100D02*
X187949700Y-123780000D01*
X163000000Y-123860000D02*
X163000000Y-122809700D01*
X189000000Y-123780000D02*
X187949700Y-123780000D01*
X163000000Y-123860000D02*
X164050300Y-123860000D01*
G04 #@! TO.N,D6*
X101240000Y-135669700D02*
X101765100Y-135669700D01*
X101765100Y-135669700D02*
X106492300Y-130942500D01*
X106492300Y-130942500D02*
X106492300Y-109758300D01*
X106492300Y-109758300D02*
X111397300Y-104853300D01*
X111397300Y-104853300D02*
X111397300Y-100757100D01*
X111397300Y-100757100D02*
X112284400Y-99870000D01*
X112284400Y-99870000D02*
X112986700Y-99870000D01*
X112986700Y-99870000D02*
X122121200Y-90735500D01*
X122121200Y-90735500D02*
X122121200Y-76904400D01*
X122121200Y-76904400D02*
X134935300Y-64090300D01*
X134935300Y-64090300D02*
X135360000Y-64090300D01*
X135360000Y-63040000D02*
X135360000Y-64090300D01*
X101240000Y-136720000D02*
X101240000Y-135669700D01*
X177189700Y-82480000D02*
X174261100Y-79551400D01*
X174261100Y-79551400D02*
X169398600Y-79551400D01*
X178240000Y-82480000D02*
X177189700Y-82480000D01*
G04 #@! TO.N,A4*
X163000000Y-120269700D02*
X158811400Y-116081100D01*
X158811400Y-116081100D02*
X158811400Y-72566400D01*
X158811400Y-72566400D02*
X158565000Y-72320000D01*
X164050300Y-121320000D02*
X165120600Y-122390300D01*
X165120600Y-122390300D02*
X186799400Y-122390300D01*
X186799400Y-122390300D02*
X187949700Y-121240000D01*
X163000000Y-121320000D02*
X164050300Y-121320000D01*
X189000000Y-121240000D02*
X187949700Y-121240000D01*
X163000000Y-121320000D02*
X163000000Y-120269700D01*
G04 #@! TO.N,D5*
X87050300Y-134180000D02*
X88148900Y-135278600D01*
X88148900Y-135278600D02*
X101677500Y-135278600D01*
X101677500Y-135278600D02*
X106192000Y-130764100D01*
X106192000Y-130764100D02*
X106192000Y-109633900D01*
X106192000Y-109633900D02*
X111097000Y-104728900D01*
X111097000Y-104728900D02*
X111097000Y-98517400D01*
X111097000Y-98517400D02*
X112203700Y-97410700D01*
X112203700Y-97410700D02*
X113918800Y-97410700D01*
X113918800Y-97410700D02*
X118722000Y-92607500D01*
X118722000Y-92607500D02*
X119014900Y-92900400D01*
X135360000Y-61550300D02*
X118722000Y-78188300D01*
X118722000Y-78188300D02*
X118722000Y-92607500D01*
X86000000Y-134180000D02*
X87050300Y-134180000D01*
X135360000Y-60500000D02*
X135360000Y-61550300D01*
G04 #@! TO.N,DUART_IRQ*
X101240000Y-139260000D02*
X108088200Y-139260000D01*
X108088200Y-139260000D02*
X109158600Y-138189600D01*
X109158600Y-138189600D02*
X123835600Y-138189600D01*
X123835600Y-138189600D02*
X125838300Y-136186900D01*
G04 #@! TO.N,RAM_LDS*
X179290300Y-77400000D02*
X180340600Y-78450300D01*
X180340600Y-78450300D02*
X188620100Y-78450300D01*
X188620100Y-78450300D02*
X189669100Y-79499300D01*
X189669100Y-79499300D02*
X189669100Y-93671600D01*
X178240000Y-77400000D02*
X179290300Y-77400000D01*
G04 #@! TO.N,OE*
X178240000Y-72320000D02*
X175047700Y-72320000D01*
X175047700Y-72320000D02*
X165089100Y-62361400D01*
X204240000Y-120189700D02*
X206260400Y-118169300D01*
X206260400Y-118169300D02*
X206260400Y-105029000D01*
X206260400Y-105029000D02*
X202364500Y-101133100D01*
X202364500Y-101133100D02*
X202364500Y-74665800D01*
X202364500Y-74665800D02*
X203740000Y-73290300D01*
X203740000Y-72240000D02*
X203740000Y-73290300D01*
X204240000Y-121240000D02*
X204240000Y-120189700D01*
G04 #@! TO.N,RAM_UDS*
X223620000Y-111740000D02*
X223620000Y-112790300D01*
X178240000Y-126400000D02*
X179290300Y-126400000D01*
X179290300Y-126400000D02*
X180260700Y-127370400D01*
X180260700Y-127370400D02*
X204236000Y-127370400D01*
X204236000Y-127370400D02*
X204537400Y-127671800D01*
X204537400Y-127671800D02*
X216404400Y-127671800D01*
X216404400Y-127671800D02*
X219054800Y-125021400D01*
X219054800Y-125021400D02*
X219054800Y-117355500D01*
X219054800Y-117355500D02*
X223620000Y-112790300D01*
G04 #@! TO.N,ROM_LDS*
X203740000Y-78370300D02*
X214138000Y-88768300D01*
X214138000Y-88768300D02*
X214138000Y-106287700D01*
X214138000Y-106287700D02*
X216000000Y-108149700D01*
X216000000Y-109200000D02*
X216000000Y-108149700D01*
X203740000Y-77320000D02*
X203740000Y-78370300D01*
G04 #@! TO.N,ROM_UDS*
X217407000Y-124607300D02*
X217407000Y-115827642D01*
X217413601Y-115197039D02*
X217407000Y-115190438D01*
X217413601Y-115821041D02*
X217413601Y-115197039D01*
X205081900Y-125478100D02*
X216536200Y-125478100D01*
X216799999Y-102379999D02*
X216000000Y-101580000D01*
X217407000Y-102987000D02*
X216799999Y-102379999D01*
X204240000Y-126320000D02*
X205081900Y-125478100D01*
X217407000Y-115190438D02*
X217407000Y-102987000D01*
X217407000Y-115827642D02*
X217413601Y-115821041D01*
X216536200Y-125478100D02*
X217407000Y-124607300D01*
G04 #@! TO.N,INV_RAM_CS*
X151558000Y-64674600D02*
X151558000Y-65724900D01*
X156151500Y-93653600D02*
X153678500Y-91180600D01*
X153678500Y-91180600D02*
X153678500Y-67845400D01*
X153678500Y-67845400D02*
X151558000Y-65724900D01*
G04 #@! TO.N,ROM_CS*
X151558000Y-62134600D02*
X151558000Y-61084300D01*
X151558000Y-51974600D02*
X151558000Y-53024900D01*
X151558000Y-53024900D02*
X152609300Y-54076200D01*
X152609300Y-54076200D02*
X152609300Y-60033000D01*
X152609300Y-60033000D02*
X151558000Y-61084300D01*
G04 #@! TO.N,DUART_CLK*
X143938000Y-57054600D02*
X143938000Y-58104900D01*
X107569300Y-109662800D02*
X112282100Y-104950000D01*
X112282100Y-104950000D02*
X112757800Y-104950000D01*
X112757800Y-104950000D02*
X129696800Y-88011000D01*
X129696800Y-88011000D02*
X129696800Y-69753500D01*
X129696800Y-69753500D02*
X134927800Y-64522500D01*
X134927800Y-64522500D02*
X142289900Y-64522500D01*
X142289900Y-64522500D02*
X143407800Y-63404600D01*
X143407800Y-63404600D02*
X144181600Y-63404600D01*
X144181600Y-63404600D02*
X145005200Y-62581000D01*
X145005200Y-62581000D02*
X145005200Y-59172100D01*
X145005200Y-59172100D02*
X143938000Y-58104900D01*
G04 #@! TO.N,Net-(U11-Pad8)*
X76399200Y-54220600D02*
X77542400Y-55363800D01*
X77542400Y-55363800D02*
X77542400Y-61209100D01*
X77542400Y-61209100D02*
X76912000Y-61839500D01*
X76912000Y-61839500D02*
X75768400Y-61839500D01*
X75768400Y-61839500D02*
X73628800Y-59699900D01*
X73628800Y-59699900D02*
X67953300Y-59699900D01*
X67953300Y-59699900D02*
X66719400Y-60933800D01*
X66719400Y-60933800D02*
X66719400Y-138529900D01*
X66719400Y-138529900D02*
X68827600Y-140638100D01*
X68827600Y-140638100D02*
X205971600Y-140638100D01*
X205971600Y-140638100D02*
X214949700Y-131660000D01*
X76399200Y-53170300D02*
X76399200Y-54220600D01*
X216000000Y-131660000D02*
X214949700Y-131660000D01*
G04 #@! TO.N,INV_ROM_CS*
X223620000Y-100529700D02*
X217388000Y-94297700D01*
X217388000Y-94297700D02*
X217388000Y-86713500D01*
X217388000Y-86713500D02*
X216424800Y-85750300D01*
X216424800Y-85750300D02*
X216000000Y-85750300D01*
X223620000Y-101580000D02*
X223620000Y-100529700D01*
X223620000Y-102105100D02*
X223620000Y-101580000D01*
X216000000Y-84700000D02*
X216000000Y-85750300D01*
X223620000Y-102105100D02*
X223620000Y-102630300D01*
X223620000Y-109200000D02*
X223620000Y-108149700D01*
X223620000Y-102630300D02*
X224689200Y-103699500D01*
X224689200Y-103699500D02*
X224689200Y-107080500D01*
X224689200Y-107080500D02*
X223620000Y-108149700D01*
G04 #@! TO.N,INV_UDS*
X216000000Y-99040000D02*
X216000000Y-97989700D01*
X216000000Y-79620000D02*
X216000000Y-80670300D01*
X216000000Y-80670300D02*
X214931200Y-81739100D01*
X214931200Y-81739100D02*
X214931200Y-85157700D01*
X214931200Y-85157700D02*
X215824100Y-86050600D01*
X215824100Y-86050600D02*
X216300400Y-86050600D01*
X216300400Y-86050600D02*
X217050400Y-86800600D01*
X217050400Y-86800600D02*
X217050400Y-97451500D01*
X217050400Y-97451500D02*
X216512200Y-97989700D01*
X216512200Y-97989700D02*
X216000000Y-97989700D01*
X216000000Y-99040000D02*
X216000000Y-100090300D01*
X223620000Y-106660000D02*
X222569700Y-106660000D01*
X222569700Y-106660000D02*
X216000000Y-100090300D01*
G04 #@! TO.N,INV_LDS*
X223620000Y-99040000D02*
X223620000Y-97989700D01*
X217975400Y-78573200D02*
X217975400Y-92780400D01*
X217975400Y-92780400D02*
X223184700Y-97989700D01*
X223184700Y-97989700D02*
X223620000Y-97989700D01*
G04 #@! TO.N,CTS-B*
X86000000Y-97569700D02*
X78436000Y-90005700D01*
X78436000Y-90005700D02*
X78436000Y-87214400D01*
X78436000Y-87214400D02*
X76785100Y-85563500D01*
X86000000Y-98620000D02*
X86000000Y-97569700D01*
X76785100Y-84513200D02*
X76785100Y-85563500D01*
G04 #@! TO.N,CTS-A*
X86000000Y-106240000D02*
X86000000Y-107290300D01*
X76620000Y-116000000D02*
X77670300Y-116000000D01*
X77670300Y-116000000D02*
X79148600Y-117478300D01*
X79148600Y-117478300D02*
X86411400Y-117478300D01*
X86411400Y-117478300D02*
X87057600Y-116832100D01*
X87057600Y-116832100D02*
X87057600Y-108347900D01*
X87057600Y-108347900D02*
X86000000Y-107290300D01*
G04 #@! TO.N,RTS-A*
X69000000Y-117050300D02*
X67949700Y-118100600D01*
X67949700Y-118100600D02*
X67949700Y-126595100D01*
X67949700Y-126595100D02*
X68565000Y-127210400D01*
X68565000Y-127210400D02*
X70758700Y-127210400D01*
X70758700Y-127210400D02*
X75416100Y-122553000D01*
X75416100Y-122553000D02*
X77103000Y-122553000D01*
X77103000Y-122553000D02*
X84925600Y-130375600D01*
X84925600Y-130375600D02*
X84925600Y-132079000D01*
X84925600Y-132079000D02*
X85548800Y-132702200D01*
X85548800Y-132702200D02*
X86427500Y-132702200D01*
X86427500Y-132702200D02*
X100189700Y-118940000D01*
X101240000Y-118940000D02*
X100189700Y-118940000D01*
X69000000Y-116000000D02*
X69000000Y-117050300D01*
G04 #@! TO.N,RxD-B*
X86000000Y-113860000D02*
X81773100Y-113860000D01*
X81773100Y-113860000D02*
X74387600Y-106474500D01*
X74387600Y-106474500D02*
X74387600Y-95441100D01*
X74387600Y-95441100D02*
X69590000Y-90643500D01*
X69590000Y-90643500D02*
X69165100Y-90643500D01*
X69165100Y-89593200D02*
X69165100Y-90643500D01*
G04 #@! TO.N,TxD-B*
X69165100Y-87053200D02*
X69165100Y-88103500D01*
X69165100Y-88103500D02*
X68104800Y-89163800D01*
X68104800Y-89163800D02*
X68104800Y-90018500D01*
X68104800Y-90018500D02*
X69030100Y-90943800D01*
X69030100Y-90943800D02*
X69465500Y-90943800D01*
X69465500Y-90943800D02*
X70544600Y-92022900D01*
X70544600Y-92022900D02*
X70544600Y-103100900D01*
X70544600Y-103100900D02*
X83843700Y-116400000D01*
X83843700Y-116400000D02*
X86000000Y-116400000D01*
G04 #@! TO.N,RTS-B*
X86000000Y-118940000D02*
X86000000Y-117889700D01*
X69165100Y-84513200D02*
X70215400Y-84513200D01*
X70215400Y-84513200D02*
X74025400Y-88323200D01*
X74025400Y-88323200D02*
X77002600Y-88323200D01*
X77002600Y-88323200D02*
X78072900Y-89393500D01*
X78072900Y-89393500D02*
X78072900Y-91906600D01*
X78072900Y-91906600D02*
X84422900Y-98256600D01*
X84422900Y-98256600D02*
X84422900Y-103625600D01*
X84422900Y-103625600D02*
X85767300Y-104970000D01*
X85767300Y-104970000D02*
X86248600Y-104970000D01*
X86248600Y-104970000D02*
X87360700Y-106082100D01*
X87360700Y-106082100D02*
X87360700Y-116964300D01*
X87360700Y-116964300D02*
X86435300Y-117889700D01*
X86435300Y-117889700D02*
X86000000Y-117889700D01*
G04 #@! TO.N,Net-(U17-Pad11)*
X76620000Y-138860000D02*
X76620000Y-137809700D01*
X76620000Y-128700000D02*
X76620000Y-129750300D01*
X76620000Y-129750300D02*
X75502800Y-130867500D01*
X75502800Y-130867500D02*
X75502800Y-136692500D01*
X75502800Y-136692500D02*
X76620000Y-137809700D01*
G04 #@! TO.N,Net-(U17-Pad12)*
X76620000Y-136320000D02*
X76620000Y-135269700D01*
X76620000Y-123620000D02*
X76620000Y-124670300D01*
X76620000Y-124670300D02*
X77737200Y-125787500D01*
X77737200Y-125787500D02*
X77737200Y-134152500D01*
X77737200Y-134152500D02*
X76620000Y-135269700D01*
G04 #@! TO.N,Net-(U17-Pad10)*
X76620000Y-126160000D02*
X76620000Y-127210300D01*
X69000000Y-138860000D02*
X69000000Y-137809700D01*
X69000000Y-137809700D02*
X70050300Y-136759400D01*
X70050300Y-136759400D02*
X70050300Y-133780000D01*
X70050300Y-133780000D02*
X76620000Y-127210300D01*
G04 #@! TO.N,Net-(U18-Pad12)*
X76785100Y-92133200D02*
X76785100Y-93183500D01*
X76785100Y-104833200D02*
X76785100Y-103782900D01*
X76785100Y-103782900D02*
X77837200Y-102730800D01*
X77837200Y-102730800D02*
X77837200Y-94235600D01*
X77837200Y-94235600D02*
X76785100Y-93183500D01*
G04 #@! TO.N,Net-(U18-Pad11)*
X76785100Y-97213200D02*
X76785100Y-98263500D01*
X76785100Y-107373200D02*
X76785100Y-106322900D01*
X76785100Y-106322900D02*
X75726900Y-105264700D01*
X75726900Y-105264700D02*
X75726900Y-99321700D01*
X75726900Y-99321700D02*
X76785100Y-98263500D01*
G04 #@! TD*
M02*
