M48
;DRILL file {KiCad 5.0.1-33cea8e~68~ubuntu18.04.1} date Mon 05 Nov 2018 06:29:56 AM CST
;FORMAT={-:-/ absolute / inch / decimal}
FMAT,2
INCH,TZ
T1C0.0157
T2C0.0236
T3C0.0315
T4C0.0394
T5C0.0700
%
G90
G05
M72
T1
X3.6066Y-4.5199
X3.7552Y-4.5819
X3.7946Y-4.5424
X3.8563Y-4.4687
X4.0117Y-2.7951
X4.0992Y-2.6524
X4.1215Y-2.7314
X4.235Y-4.3174
X4.2828Y-3.9235
X4.5322Y-3.6596
X4.6856Y-3.6575
X4.9543Y-5.3617
X4.9881Y-1.5604
X5.0267Y-3.8831
X5.2408Y-1.5296
X5.4499Y-3.7658
X5.5582Y-3.427
X5.7209Y-1.8845
X5.7241Y-1.8131
X5.7374Y-3.3027
X5.8044Y-2.0004
X5.8687Y-1.7422
X5.8813Y-1.6727
X5.9376Y-5.2473
X6.1062Y-1.7801
X6.1477Y-3.6871
X6.1839Y-3.1594
X6.2069Y-2.9472
X6.213Y-3.0321
X6.2427Y-2.8472
X6.2556Y-2.7885
X6.3182Y-2.1627
X6.3649Y-3.7331
X6.4329Y-3.9036
X6.4846Y-4.5686
X6.4996Y-2.4552
X6.5547Y-1.9876
X6.6261Y-4.2764
X6.6692Y-3.1319
X6.9135Y-1.6795
X6.9292Y-3.8799
X7.0251Y-1.5636
X7.1075Y-2.0483
X7.133Y-3.9715
X7.4673Y-3.6879
X7.5177Y-4.0092
X7.8284Y-1.6651
X7.874Y-2.1512
X7.8825Y-4.0652
X8.1804Y-4.2749
X8.2855Y-2.596
X8.534Y-4.5476
X8.5817Y-3.0934
X8.8888Y-3.805
T2
X3.7192Y-1.5346
X3.7192Y-1.5846
X3.7192Y-1.6346
T3
X3.3858Y-3.5827
X3.3858Y-3.6827
X3.3858Y-3.7827
X3.3858Y-3.8827
X3.3858Y-3.9827
X3.3858Y-4.0827
X3.3858Y-4.1827
X3.3858Y-4.2827
X3.3858Y-4.3827
X3.3858Y-4.4827
X3.3858Y-4.5827
X3.3858Y-4.6827
X3.3858Y-4.7827
X3.3858Y-4.8827
X3.3858Y-4.9827
X3.3858Y-5.0827
X3.3858Y-5.1827
X3.3858Y-5.2827
X3.3858Y-5.3827
X3.3858Y-5.4827
X3.9858Y-3.5827
X3.9858Y-3.6827
X3.9858Y-3.7827
X3.9858Y-3.8827
X3.9858Y-3.9827
X3.9858Y-4.0827
X3.9858Y-4.1827
X3.9858Y-4.2827
X3.9858Y-4.3827
X3.9858Y-4.4827
X3.9858Y-4.5827
X3.9858Y-4.6827
X3.9858Y-4.7827
X3.9858Y-4.8827
X3.9858Y-4.9827
X3.9858Y-5.0827
X3.9858Y-5.1827
X3.9858Y-5.2827
X3.9858Y-5.3827
X3.9858Y-5.4827
X3.3961Y-2.1063
X3.3961Y-2.4063
X3.9961Y-2.1063
X3.9961Y-2.4063
X8.5039Y-3.7992
X8.5039Y-3.8992
X8.5039Y-3.9992
X8.5039Y-4.0992
X8.5039Y-4.1992
X8.5039Y-4.2992
X8.5039Y-4.3992
X8.8039Y-3.7992
X8.8039Y-3.8992
X8.8039Y-3.9992
X8.8039Y-4.0992
X8.8039Y-4.1992
X8.8039Y-4.2992
X8.8039Y-4.3992
X8.5039Y-2.8346
X8.5039Y-2.9346
X8.5039Y-3.0346
X8.5039Y-3.1346
X8.5039Y-3.2346
X8.5039Y-3.3346
X8.5039Y-3.4346
X8.8039Y-2.8346
X8.8039Y-2.9346
X8.8039Y-3.0346
X8.8039Y-3.1346
X8.8039Y-3.2346
X8.8039Y-3.3346
X8.8039Y-3.4346
X8.5039Y-4.7835
X8.5039Y-4.8835
X8.5039Y-4.9835
X8.5039Y-5.0835
X8.5039Y-5.1835
X8.5039Y-5.2835
X8.5039Y-5.3835
X8.5039Y-5.4835
X8.8039Y-4.7835
X8.8039Y-4.8835
X8.8039Y-4.9835
X8.8039Y-5.0835
X8.8039Y-5.1835
X8.8039Y-5.2835
X8.8039Y-5.3835
X8.8039Y-5.4835
X7.4409Y-4.1732
X7.4409Y-4.2732
X7.4409Y-4.3732
X7.4409Y-4.4732
X7.4409Y-4.5732
X7.4409Y-4.6732
X7.4409Y-4.7732
X7.4409Y-4.8732
X7.4409Y-4.9732
X7.4409Y-5.0732
X7.4409Y-5.1732
X7.4409Y-5.2732
X7.4409Y-5.3732
X7.4409Y-5.4732
X8.0409Y-4.1732
X8.0409Y-4.2732
X8.0409Y-4.3732
X8.0409Y-4.4732
X8.0409Y-4.5732
X8.0409Y-4.6732
X8.0409Y-4.7732
X8.0409Y-4.8732
X8.0409Y-4.9732
X8.0409Y-5.0732
X8.0409Y-5.1732
X8.0409Y-5.2732
X8.0409Y-5.3732
X8.0409Y-5.4732
X5.682Y-2.8445
X5.682Y-2.9445
X5.682Y-3.0445
X5.682Y-3.1445
X5.682Y-3.2445
X5.682Y-3.3445
X5.682Y-3.4445
X5.682Y-3.5445
X5.982Y-2.8445
X5.982Y-2.9445
X5.982Y-3.0445
X5.982Y-3.1445
X5.982Y-3.2445
X5.982Y-3.3445
X5.982Y-3.4445
X5.982Y-3.5445
X4.4291Y-2.3819
X4.4291Y-2.4819
X4.4291Y-2.5819
X4.4291Y-2.6819
X4.4291Y-2.7819
X4.4291Y-2.8819
X4.4291Y-2.9819
X4.4291Y-3.0819
X4.4291Y-3.1819
X4.4291Y-3.2819
X4.4291Y-3.3819
X4.4291Y-3.4819
X4.4291Y-3.5819
X4.4291Y-3.6819
X4.4291Y-3.7819
X4.4291Y-3.8819
X4.4291Y-3.9819
X4.4291Y-4.0819
X4.4291Y-4.1819
X4.4291Y-4.2819
X4.4291Y-4.3819
X4.4291Y-4.4819
X4.4291Y-4.5819
X4.4291Y-4.6819
X4.4291Y-4.7819
X4.4291Y-4.8819
X4.4291Y-4.9819
X4.4291Y-5.0819
X4.4291Y-5.1819
X4.4291Y-5.2819
X4.4291Y-5.3819
X4.4291Y-5.4819
X5.3291Y-2.3819
X5.3291Y-2.4819
X5.3291Y-2.5819
X5.3291Y-2.6819
X5.3291Y-2.7819
X5.3291Y-2.8819
X5.3291Y-2.9819
X5.3291Y-3.0819
X5.3291Y-3.1819
X5.3291Y-3.2819
X5.3291Y-3.3819
X5.3291Y-3.4819
X5.3291Y-3.5819
X5.3291Y-3.6819
X5.3291Y-3.7819
X5.3291Y-3.8819
X5.3291Y-3.9819
X5.3291Y-4.0819
X5.3291Y-4.1819
X5.3291Y-4.2819
X5.3291Y-4.3819
X5.3291Y-4.4819
X5.3291Y-4.5819
X5.3291Y-4.6819
X5.3291Y-4.7819
X5.3291Y-4.8819
X5.3291Y-4.9819
X5.3291Y-5.0819
X5.3291Y-5.1819
X5.3291Y-5.2819
X5.3291Y-5.3819
X5.3291Y-5.4819
X6.4173Y-2.0472
X6.4173Y-2.1472
X6.4173Y-2.2472
X6.4173Y-2.3472
X6.4173Y-2.4472
X6.4173Y-2.5472
X6.4173Y-2.6472
X6.4173Y-2.7472
X6.4173Y-2.8472
X6.4173Y-2.9472
X6.4173Y-3.0472
X6.4173Y-3.1472
X6.4173Y-3.2472
X6.4173Y-3.3472
X6.4173Y-3.4472
X6.4173Y-3.5472
X7.0173Y-2.0472
X7.0173Y-2.1472
X7.0173Y-2.2472
X7.0173Y-2.3472
X7.0173Y-2.4472
X7.0173Y-2.5472
X7.0173Y-2.6472
X7.0173Y-2.7472
X7.0173Y-2.8472
X7.0173Y-2.9472
X7.0173Y-3.0472
X7.0173Y-3.1472
X7.0173Y-3.2472
X7.0173Y-3.3472
X7.0173Y-3.4472
X7.0173Y-3.5472
X6.4173Y-3.9764
X6.4173Y-4.0764
X6.4173Y-4.1764
X6.4173Y-4.2764
X6.4173Y-4.3764
X6.4173Y-4.4764
X6.4173Y-4.5764
X6.4173Y-4.6764
X6.4173Y-4.7764
X6.4173Y-4.8764
X6.4173Y-4.9764
X6.4173Y-5.0764
X6.4173Y-5.1764
X6.4173Y-5.2764
X6.4173Y-5.3764
X6.4173Y-5.4764
X7.0173Y-3.9764
X7.0173Y-4.0764
X7.0173Y-4.1764
X7.0173Y-4.2764
X7.0173Y-4.3764
X7.0173Y-4.4764
X7.0173Y-4.5764
X7.0173Y-4.6764
X7.0173Y-4.7764
X7.0173Y-4.8764
X7.0173Y-4.9764
X7.0173Y-5.0764
X7.0173Y-5.1764
X7.0173Y-5.2764
X7.0173Y-5.3764
X7.0173Y-5.4764
X2.7078Y-1.4933
X2.7078Y-1.5933
X2.7078Y-1.6933
X2.7078Y-1.7933
X2.7078Y-1.8933
X2.7078Y-1.9933
X2.7078Y-2.0933
X3.0078Y-1.4933
X3.0078Y-1.5933
X3.0078Y-1.6933
X3.0078Y-1.7933
X3.0078Y-1.8933
X3.0078Y-1.9933
X3.0078Y-2.0933
X5.6775Y-4.7887
X5.6775Y-4.8887
X5.6775Y-4.9887
X5.6775Y-5.0887
X5.6775Y-5.1887
X5.6775Y-5.2887
X5.6775Y-5.3887
X5.6775Y-5.4887
X5.9775Y-4.7887
X5.9775Y-4.8887
X5.9775Y-4.9887
X5.9775Y-5.0887
X5.9775Y-5.1887
X5.9775Y-5.2887
X5.9775Y-5.3887
X5.9775Y-5.4887
X5.6856Y-3.8781
X5.6856Y-3.9781
X5.6856Y-4.0781
X5.6856Y-4.1781
X5.6856Y-4.2781
X5.6856Y-4.3781
X5.6856Y-4.4781
X5.9856Y-3.8781
X5.9856Y-3.9781
X5.9856Y-4.0781
X5.9856Y-4.1781
X5.9856Y-4.2781
X5.9856Y-4.3781
X5.9856Y-4.4781
X3.3961Y-2.9331
X3.3961Y-3.2331
X3.9961Y-2.9331
X3.9961Y-3.2331
X2.723Y-3.3273
X2.723Y-3.4273
X2.723Y-3.5273
X2.723Y-3.6273
X2.723Y-3.7273
X2.723Y-3.8273
X2.723Y-3.9273
X2.723Y-4.0273
X2.723Y-4.1273
X2.723Y-4.2273
X3.023Y-3.3273
X3.023Y-3.4273
X3.023Y-3.5273
X3.023Y-3.6273
X3.023Y-3.7273
X3.023Y-3.8273
X3.023Y-3.9273
X3.023Y-4.0273
X3.023Y-4.1273
X3.023Y-4.2273
X7.4213Y-2.2441
X7.4213Y-2.3441
X7.4213Y-2.4441
X7.4213Y-2.5441
X7.4213Y-2.6441
X7.4213Y-2.7441
X7.4213Y-2.8441
X7.4213Y-2.9441
X7.4213Y-3.0441
X7.4213Y-3.1441
X7.4213Y-3.2441
X7.4213Y-3.3441
X7.4213Y-3.4441
X7.4213Y-3.5441
X8.0213Y-2.2441
X8.0213Y-2.3441
X8.0213Y-2.4441
X8.0213Y-2.5441
X8.0213Y-2.6441
X8.0213Y-2.7441
X8.0213Y-2.8441
X8.0213Y-2.9441
X8.0213Y-3.0441
X8.0213Y-3.1441
X8.0213Y-3.2441
X8.0213Y-3.3441
X8.0213Y-3.4441
X8.0213Y-3.5441
X5.6669Y-1.9462
X5.6669Y-2.0462
X5.6669Y-2.1462
X5.6669Y-2.2462
X5.6669Y-2.3462
X5.6669Y-2.4462
X5.6669Y-2.5462
X5.9669Y-1.9462
X5.9669Y-2.0462
X5.9669Y-2.1462
X5.9669Y-2.2462
X5.9669Y-2.3462
X5.9669Y-2.4462
X5.9669Y-2.5462
X2.7165Y-4.5669
X2.7165Y-4.6669
X2.7165Y-4.7669
X2.7165Y-4.8669
X2.7165Y-4.9669
X2.7165Y-5.0669
X2.7165Y-5.1669
X2.7165Y-5.2669
X2.7165Y-5.3669
X2.7165Y-5.4669
X3.0165Y-4.5669
X3.0165Y-4.6669
X3.0165Y-4.7669
X3.0165Y-4.8669
X3.0165Y-4.9669
X3.0165Y-5.0669
X3.0165Y-5.1669
X3.0165Y-5.2669
X3.0165Y-5.3669
X3.0165Y-5.4669
X2.7109Y-2.3931
X2.7109Y-2.4931
X2.7109Y-2.5931
X2.7109Y-2.6931
X2.7109Y-2.7931
X2.7109Y-2.8931
X2.7109Y-2.9931
X3.0109Y-2.3931
X3.0109Y-2.4931
X3.0109Y-2.5931
X3.0109Y-2.6931
X3.0109Y-2.7931
X3.0109Y-2.8931
X3.0109Y-2.9931
T4
X8.5409Y-2.5519
X8.6409Y-2.5519
X8.7409Y-2.5519
X8.5409Y-2.2947
X8.6409Y-2.2947
X8.7409Y-2.2947
X7.3837Y-1.5203
X7.4837Y-1.5203
X7.5837Y-1.5203
X7.6837Y-1.5203
X7.7837Y-1.5203
X7.8837Y-1.5203
X7.9837Y-1.5203
X8.0837Y-1.5203
X8.1837Y-1.5203
X8.2837Y-1.5203
X8.3837Y-1.5203
X8.4837Y-1.5203
X8.5837Y-1.5203
X8.6837Y-1.5203
X8.5409Y-2.0388
X8.6409Y-2.0388
X8.7409Y-2.0388
X6.118Y-1.5051
X6.218Y-1.5051
X6.318Y-1.5051
X6.418Y-1.5051
X6.518Y-1.5051
X6.618Y-1.5051
X6.718Y-1.5051
X6.818Y-1.5051
T5
X4.5685Y-1.7861
X4.7685Y-1.7861
X4.9685Y-1.7861
X5.1685Y-1.7861
T0
M30
