%TF.GenerationSoftware,KiCad,Pcbnew,6.0.1+dfsg-1~bpo11+1*%
%TF.CreationDate,2022-02-25T05:17:48-06:00*%
%TF.ProjectId,raven68k-rev1,72617665-6e36-4386-9b2d-726576312e6b,rev?*%
%TF.SameCoordinates,Original*%
%TF.FileFunction,Legend,Bot*%
%TF.FilePolarity,Positive*%
%FSLAX46Y46*%
G04 Gerber Fmt 4.6, Leading zero omitted, Abs format (unit mm)*
G04 Created by KiCad (PCBNEW 6.0.1+dfsg-1~bpo11+1) date 2022-02-25 05:17:48*
%MOMM*%
%LPD*%
G01*
G04 APERTURE LIST*
G04 Aperture macros list*
%AMRoundRect*
0 Rectangle with rounded corners*
0 $1 Rounding radius*
0 $2 $3 $4 $5 $6 $7 $8 $9 X,Y pos of 4 corners*
0 Add a 4 corners polygon primitive as box body*
4,1,4,$2,$3,$4,$5,$6,$7,$8,$9,$2,$3,0*
0 Add four circle primitives for the rounded corners*
1,1,$1+$1,$2,$3*
1,1,$1+$1,$4,$5*
1,1,$1+$1,$6,$7*
1,1,$1+$1,$8,$9*
0 Add four rect primitives between the rounded corners*
20,1,$1+$1,$2,$3,$4,$5,0*
20,1,$1+$1,$4,$5,$6,$7,0*
20,1,$1+$1,$6,$7,$8,$9,0*
20,1,$1+$1,$8,$9,$2,$3,0*%
G04 Aperture macros list end*
%ADD10C,0.300000*%
%ADD11C,0.150000*%
%ADD12C,0.120000*%
%ADD13R,1.700000X1.700000*%
%ADD14O,1.700000X1.700000*%
%ADD15R,2.400000X1.600000*%
%ADD16O,2.400000X1.600000*%
%ADD17R,2.500000X2.500000*%
%ADD18C,2.500000*%
%ADD19R,1.500000X1.500000*%
%ADD20C,1.500000*%
%ADD21R,1.800000X1.800000*%
%ADD22C,1.800000*%
%ADD23C,4.000000*%
%ADD24C,5.340000*%
%ADD25C,4.575000*%
%ADD26R,1.100000X1.800000*%
%ADD27RoundRect,0.275000X-0.275000X-0.625000X0.275000X-0.625000X0.275000X0.625000X-0.275000X0.625000X0*%
%ADD28RoundRect,0.250000X0.650000X-0.412500X0.650000X0.412500X-0.650000X0.412500X-0.650000X-0.412500X0*%
%ADD29RoundRect,0.250000X-0.412500X-0.650000X0.412500X-0.650000X0.412500X0.650000X-0.412500X0.650000X0*%
%ADD30RoundRect,0.250000X0.412500X0.650000X-0.412500X0.650000X-0.412500X-0.650000X0.412500X-0.650000X0*%
%ADD31RoundRect,0.250000X0.400000X0.625000X-0.400000X0.625000X-0.400000X-0.625000X0.400000X-0.625000X0*%
%ADD32RoundRect,0.250000X-0.400000X-0.625000X0.400000X-0.625000X0.400000X0.625000X-0.400000X0.625000X0*%
G04 APERTURE END LIST*
D10*
X80576285Y-149038571D02*
X80576285Y-150110000D01*
X80647714Y-150324285D01*
X80790571Y-150467142D01*
X81004857Y-150538571D01*
X81147714Y-150538571D01*
X79147714Y-150538571D02*
X79862000Y-150538571D01*
X79862000Y-149038571D01*
X77790571Y-150395714D02*
X77862000Y-150467142D01*
X78076285Y-150538571D01*
X78219142Y-150538571D01*
X78433428Y-150467142D01*
X78576285Y-150324285D01*
X78647714Y-150181428D01*
X78719142Y-149895714D01*
X78719142Y-149681428D01*
X78647714Y-149395714D01*
X78576285Y-149252857D01*
X78433428Y-149110000D01*
X78219142Y-149038571D01*
X78076285Y-149038571D01*
X77862000Y-149110000D01*
X77790571Y-149181428D01*
X77147714Y-150538571D02*
X77147714Y-149038571D01*
X76576285Y-149038571D01*
X76433428Y-149110000D01*
X76362000Y-149181428D01*
X76290571Y-149324285D01*
X76290571Y-149538571D01*
X76362000Y-149681428D01*
X76433428Y-149752857D01*
X76576285Y-149824285D01*
X77147714Y-149824285D01*
X74790571Y-150395714D02*
X74862000Y-150467142D01*
X75076285Y-150538571D01*
X75219142Y-150538571D01*
X75433428Y-150467142D01*
X75576285Y-150324285D01*
X75647714Y-150181428D01*
X75719142Y-149895714D01*
X75719142Y-149681428D01*
X75647714Y-149395714D01*
X75576285Y-149252857D01*
X75433428Y-149110000D01*
X75219142Y-149038571D01*
X75076285Y-149038571D01*
X74862000Y-149110000D01*
X74790571Y-149181428D01*
X73647714Y-149752857D02*
X73433428Y-149824285D01*
X73362000Y-149895714D01*
X73290571Y-150038571D01*
X73290571Y-150252857D01*
X73362000Y-150395714D01*
X73433428Y-150467142D01*
X73576285Y-150538571D01*
X74147714Y-150538571D01*
X74147714Y-149038571D01*
X73647714Y-149038571D01*
X73504857Y-149110000D01*
X73433428Y-149181428D01*
X73362000Y-149324285D01*
X73362000Y-149467142D01*
X73433428Y-149610000D01*
X73504857Y-149681428D01*
X73647714Y-149752857D01*
X74147714Y-149752857D01*
X71219142Y-149038571D02*
X70933428Y-149038571D01*
X70790571Y-149110000D01*
X70647714Y-149252857D01*
X70576285Y-149538571D01*
X70576285Y-150038571D01*
X70647714Y-150324285D01*
X70790571Y-150467142D01*
X70933428Y-150538571D01*
X71219142Y-150538571D01*
X71362000Y-150467142D01*
X71504857Y-150324285D01*
X71576285Y-150038571D01*
X71576285Y-149538571D01*
X71504857Y-149252857D01*
X71362000Y-149110000D01*
X71219142Y-149038571D01*
X69933428Y-150538571D02*
X69933428Y-149538571D01*
X69933428Y-149824285D02*
X69862000Y-149681428D01*
X69790571Y-149610000D01*
X69647714Y-149538571D01*
X69504857Y-149538571D01*
X68362000Y-150538571D02*
X68362000Y-149038571D01*
X68362000Y-150467142D02*
X68504857Y-150538571D01*
X68790571Y-150538571D01*
X68933428Y-150467142D01*
X69004857Y-150395714D01*
X69076285Y-150252857D01*
X69076285Y-149824285D01*
X69004857Y-149681428D01*
X68933428Y-149610000D01*
X68790571Y-149538571D01*
X68504857Y-149538571D01*
X68362000Y-149610000D01*
X67076285Y-150467142D02*
X67219142Y-150538571D01*
X67504857Y-150538571D01*
X67647714Y-150467142D01*
X67719142Y-150324285D01*
X67719142Y-149752857D01*
X67647714Y-149610000D01*
X67504857Y-149538571D01*
X67219142Y-149538571D01*
X67076285Y-149610000D01*
X67004857Y-149752857D01*
X67004857Y-149895714D01*
X67719142Y-150038571D01*
X66362000Y-150538571D02*
X66362000Y-149538571D01*
X66362000Y-149824285D02*
X66290571Y-149681428D01*
X66219142Y-149610000D01*
X66076285Y-149538571D01*
X65933428Y-149538571D01*
X64290571Y-150538571D02*
X64290571Y-149038571D01*
X63433428Y-150538571D01*
X63433428Y-149038571D01*
X62504857Y-150538571D02*
X62647714Y-150467142D01*
X62719142Y-150395714D01*
X62790571Y-150252857D01*
X62790571Y-149824285D01*
X62719142Y-149681428D01*
X62647714Y-149610000D01*
X62504857Y-149538571D01*
X62290571Y-149538571D01*
X62147714Y-149610000D01*
X62076285Y-149681428D01*
X62004857Y-149824285D01*
X62004857Y-150252857D01*
X62076285Y-150395714D01*
X62147714Y-150467142D01*
X62290571Y-150538571D01*
X62504857Y-150538571D01*
X61362000Y-150395714D02*
X61290571Y-150467142D01*
X61362000Y-150538571D01*
X61433428Y-150467142D01*
X61362000Y-150395714D01*
X61362000Y-150538571D01*
X59506571Y-149038571D02*
X59506571Y-150110000D01*
X59578000Y-150324285D01*
X59720857Y-150467142D01*
X59935142Y-150538571D01*
X60078000Y-150538571D01*
X58078000Y-150538571D02*
X58792285Y-150538571D01*
X58792285Y-149038571D01*
X56720857Y-150395714D02*
X56792285Y-150467142D01*
X57006571Y-150538571D01*
X57149428Y-150538571D01*
X57363714Y-150467142D01*
X57506571Y-150324285D01*
X57578000Y-150181428D01*
X57649428Y-149895714D01*
X57649428Y-149681428D01*
X57578000Y-149395714D01*
X57506571Y-149252857D01*
X57363714Y-149110000D01*
X57149428Y-149038571D01*
X57006571Y-149038571D01*
X56792285Y-149110000D01*
X56720857Y-149181428D01*
X55649428Y-149038571D02*
X55649428Y-150110000D01*
X55720857Y-150324285D01*
X55863714Y-150467142D01*
X56078000Y-150538571D01*
X56220857Y-150538571D01*
X54220857Y-150538571D02*
X54935142Y-150538571D01*
X54935142Y-149038571D01*
X52863714Y-150395714D02*
X52935142Y-150467142D01*
X53149428Y-150538571D01*
X53292285Y-150538571D01*
X53506571Y-150467142D01*
X53649428Y-150324285D01*
X53720857Y-150181428D01*
X53792285Y-149895714D01*
X53792285Y-149681428D01*
X53720857Y-149395714D01*
X53649428Y-149252857D01*
X53506571Y-149110000D01*
X53292285Y-149038571D01*
X53149428Y-149038571D01*
X52935142Y-149110000D01*
X52863714Y-149181428D01*
X51792285Y-149038571D02*
X51792285Y-150110000D01*
X51863714Y-150324285D01*
X52006571Y-150467142D01*
X52220857Y-150538571D01*
X52363714Y-150538571D01*
X50363714Y-150538571D02*
X51077999Y-150538571D01*
X51077999Y-149038571D01*
X49006571Y-150395714D02*
X49077999Y-150467142D01*
X49292285Y-150538571D01*
X49435142Y-150538571D01*
X49649428Y-150467142D01*
X49792285Y-150324285D01*
X49863714Y-150181428D01*
X49935142Y-149895714D01*
X49935142Y-149681428D01*
X49863714Y-149395714D01*
X49792285Y-149252857D01*
X49649428Y-149110000D01*
X49435142Y-149038571D01*
X49292285Y-149038571D01*
X49077999Y-149110000D01*
X49006571Y-149181428D01*
X47935142Y-149038571D02*
X47935142Y-150110000D01*
X48006571Y-150324285D01*
X48149428Y-150467142D01*
X48363714Y-150538571D01*
X48506571Y-150538571D01*
X46506571Y-150538571D02*
X47220857Y-150538571D01*
X47220857Y-149038571D01*
X45149428Y-150395714D02*
X45220857Y-150467142D01*
X45435142Y-150538571D01*
X45577999Y-150538571D01*
X45792285Y-150467142D01*
X45935142Y-150324285D01*
X46006571Y-150181428D01*
X46077999Y-149895714D01*
X46077999Y-149681428D01*
X46006571Y-149395714D01*
X45935142Y-149252857D01*
X45792285Y-149110000D01*
X45577999Y-149038571D01*
X45435142Y-149038571D01*
X45220857Y-149110000D01*
X45149428Y-149181428D01*
D11*
%TO.C,C1*%
X51483142Y-80605333D02*
X51530761Y-80557714D01*
X51578380Y-80414857D01*
X51578380Y-80319619D01*
X51530761Y-80176761D01*
X51435523Y-80081523D01*
X51340285Y-80033904D01*
X51149809Y-79986285D01*
X51006952Y-79986285D01*
X50816476Y-80033904D01*
X50721238Y-80081523D01*
X50626000Y-80176761D01*
X50578380Y-80319619D01*
X50578380Y-80414857D01*
X50626000Y-80557714D01*
X50673619Y-80605333D01*
X51578380Y-81557714D02*
X51578380Y-80986285D01*
X51578380Y-81272000D02*
X50578380Y-81272000D01*
X50721238Y-81176761D01*
X50816476Y-81081523D01*
X50864095Y-80986285D01*
%TO.C,C2*%
X66841666Y-86281142D02*
X66889285Y-86328761D01*
X67032142Y-86376380D01*
X67127380Y-86376380D01*
X67270238Y-86328761D01*
X67365476Y-86233523D01*
X67413095Y-86138285D01*
X67460714Y-85947809D01*
X67460714Y-85804952D01*
X67413095Y-85614476D01*
X67365476Y-85519238D01*
X67270238Y-85424000D01*
X67127380Y-85376380D01*
X67032142Y-85376380D01*
X66889285Y-85424000D01*
X66841666Y-85471619D01*
X66460714Y-85471619D02*
X66413095Y-85424000D01*
X66317857Y-85376380D01*
X66079761Y-85376380D01*
X65984523Y-85424000D01*
X65936904Y-85471619D01*
X65889285Y-85566857D01*
X65889285Y-85662095D01*
X65936904Y-85804952D01*
X66508333Y-86376380D01*
X65889285Y-86376380D01*
%TO.C,C5*%
X173657142Y-76795333D02*
X173704761Y-76747714D01*
X173752380Y-76604857D01*
X173752380Y-76509619D01*
X173704761Y-76366761D01*
X173609523Y-76271523D01*
X173514285Y-76223904D01*
X173323809Y-76176285D01*
X173180952Y-76176285D01*
X172990476Y-76223904D01*
X172895238Y-76271523D01*
X172800000Y-76366761D01*
X172752380Y-76509619D01*
X172752380Y-76604857D01*
X172800000Y-76747714D01*
X172847619Y-76795333D01*
X172752380Y-77700095D02*
X172752380Y-77223904D01*
X173228571Y-77176285D01*
X173180952Y-77223904D01*
X173133333Y-77319142D01*
X173133333Y-77557238D01*
X173180952Y-77652476D01*
X173228571Y-77700095D01*
X173323809Y-77747714D01*
X173561904Y-77747714D01*
X173657142Y-77700095D01*
X173704761Y-77652476D01*
X173752380Y-77557238D01*
X173752380Y-77319142D01*
X173704761Y-77223904D01*
X173657142Y-77176285D01*
%TO.C,C6*%
X197406142Y-83272333D02*
X197453761Y-83224714D01*
X197501380Y-83081857D01*
X197501380Y-82986619D01*
X197453761Y-82843761D01*
X197358523Y-82748523D01*
X197263285Y-82700904D01*
X197072809Y-82653285D01*
X196929952Y-82653285D01*
X196739476Y-82700904D01*
X196644238Y-82748523D01*
X196549000Y-82843761D01*
X196501380Y-82986619D01*
X196501380Y-83081857D01*
X196549000Y-83224714D01*
X196596619Y-83272333D01*
X196501380Y-84129476D02*
X196501380Y-83939000D01*
X196549000Y-83843761D01*
X196596619Y-83796142D01*
X196739476Y-83700904D01*
X196929952Y-83653285D01*
X197310904Y-83653285D01*
X197406142Y-83700904D01*
X197453761Y-83748523D01*
X197501380Y-83843761D01*
X197501380Y-84034238D01*
X197453761Y-84129476D01*
X197406142Y-84177095D01*
X197310904Y-84224714D01*
X197072809Y-84224714D01*
X196977571Y-84177095D01*
X196929952Y-84129476D01*
X196882333Y-84034238D01*
X196882333Y-83843761D01*
X196929952Y-83748523D01*
X196977571Y-83700904D01*
X197072809Y-83653285D01*
%TO.C,C7*%
X194984666Y-112807142D02*
X195032285Y-112854761D01*
X195175142Y-112902380D01*
X195270380Y-112902380D01*
X195413238Y-112854761D01*
X195508476Y-112759523D01*
X195556095Y-112664285D01*
X195603714Y-112473809D01*
X195603714Y-112330952D01*
X195556095Y-112140476D01*
X195508476Y-112045238D01*
X195413238Y-111950000D01*
X195270380Y-111902380D01*
X195175142Y-111902380D01*
X195032285Y-111950000D01*
X194984666Y-111997619D01*
X194651333Y-111902380D02*
X193984666Y-111902380D01*
X194413238Y-112902380D01*
%TO.C,C8*%
X93892666Y-44608142D02*
X93940285Y-44655761D01*
X94083142Y-44703380D01*
X94178380Y-44703380D01*
X94321238Y-44655761D01*
X94416476Y-44560523D01*
X94464095Y-44465285D01*
X94511714Y-44274809D01*
X94511714Y-44131952D01*
X94464095Y-43941476D01*
X94416476Y-43846238D01*
X94321238Y-43751000D01*
X94178380Y-43703380D01*
X94083142Y-43703380D01*
X93940285Y-43751000D01*
X93892666Y-43798619D01*
X93321238Y-44131952D02*
X93416476Y-44084333D01*
X93464095Y-44036714D01*
X93511714Y-43941476D01*
X93511714Y-43893857D01*
X93464095Y-43798619D01*
X93416476Y-43751000D01*
X93321238Y-43703380D01*
X93130761Y-43703380D01*
X93035523Y-43751000D01*
X92987904Y-43798619D01*
X92940285Y-43893857D01*
X92940285Y-43941476D01*
X92987904Y-44036714D01*
X93035523Y-44084333D01*
X93130761Y-44131952D01*
X93321238Y-44131952D01*
X93416476Y-44179571D01*
X93464095Y-44227190D01*
X93511714Y-44322428D01*
X93511714Y-44512904D01*
X93464095Y-44608142D01*
X93416476Y-44655761D01*
X93321238Y-44703380D01*
X93130761Y-44703380D01*
X93035523Y-44655761D01*
X92987904Y-44608142D01*
X92940285Y-44512904D01*
X92940285Y-44322428D01*
X92987904Y-44227190D01*
X93035523Y-44179571D01*
X93130761Y-44131952D01*
%TO.C,C9*%
X118657666Y-44608142D02*
X118705285Y-44655761D01*
X118848142Y-44703380D01*
X118943380Y-44703380D01*
X119086238Y-44655761D01*
X119181476Y-44560523D01*
X119229095Y-44465285D01*
X119276714Y-44274809D01*
X119276714Y-44131952D01*
X119229095Y-43941476D01*
X119181476Y-43846238D01*
X119086238Y-43751000D01*
X118943380Y-43703380D01*
X118848142Y-43703380D01*
X118705285Y-43751000D01*
X118657666Y-43798619D01*
X118181476Y-44703380D02*
X117991000Y-44703380D01*
X117895761Y-44655761D01*
X117848142Y-44608142D01*
X117752904Y-44465285D01*
X117705285Y-44274809D01*
X117705285Y-43893857D01*
X117752904Y-43798619D01*
X117800523Y-43751000D01*
X117895761Y-43703380D01*
X118086238Y-43703380D01*
X118181476Y-43751000D01*
X118229095Y-43798619D01*
X118276714Y-43893857D01*
X118276714Y-44131952D01*
X118229095Y-44227190D01*
X118181476Y-44274809D01*
X118086238Y-44322428D01*
X117895761Y-44322428D01*
X117800523Y-44274809D01*
X117752904Y-44227190D01*
X117705285Y-44131952D01*
%TO.C,C11*%
X125707142Y-91957142D02*
X125754761Y-91909523D01*
X125802380Y-91766666D01*
X125802380Y-91671428D01*
X125754761Y-91528571D01*
X125659523Y-91433333D01*
X125564285Y-91385714D01*
X125373809Y-91338095D01*
X125230952Y-91338095D01*
X125040476Y-91385714D01*
X124945238Y-91433333D01*
X124850000Y-91528571D01*
X124802380Y-91671428D01*
X124802380Y-91766666D01*
X124850000Y-91909523D01*
X124897619Y-91957142D01*
X125802380Y-92909523D02*
X125802380Y-92338095D01*
X125802380Y-92623809D02*
X124802380Y-92623809D01*
X124945238Y-92528571D01*
X125040476Y-92433333D01*
X125088095Y-92338095D01*
X125802380Y-93861904D02*
X125802380Y-93290476D01*
X125802380Y-93576190D02*
X124802380Y-93576190D01*
X124945238Y-93480952D01*
X125040476Y-93385714D01*
X125088095Y-93290476D01*
%TO.C,C10*%
X100407142Y-91557142D02*
X100454761Y-91509523D01*
X100502380Y-91366666D01*
X100502380Y-91271428D01*
X100454761Y-91128571D01*
X100359523Y-91033333D01*
X100264285Y-90985714D01*
X100073809Y-90938095D01*
X99930952Y-90938095D01*
X99740476Y-90985714D01*
X99645238Y-91033333D01*
X99550000Y-91128571D01*
X99502380Y-91271428D01*
X99502380Y-91366666D01*
X99550000Y-91509523D01*
X99597619Y-91557142D01*
X100502380Y-92509523D02*
X100502380Y-91938095D01*
X100502380Y-92223809D02*
X99502380Y-92223809D01*
X99645238Y-92128571D01*
X99740476Y-92033333D01*
X99788095Y-91938095D01*
X99502380Y-93128571D02*
X99502380Y-93223809D01*
X99550000Y-93319047D01*
X99597619Y-93366666D01*
X99692857Y-93414285D01*
X99883333Y-93461904D01*
X100121428Y-93461904D01*
X100311904Y-93414285D01*
X100407142Y-93366666D01*
X100454761Y-93319047D01*
X100502380Y-93223809D01*
X100502380Y-93128571D01*
X100454761Y-93033333D01*
X100407142Y-92985714D01*
X100311904Y-92938095D01*
X100121428Y-92890476D01*
X99883333Y-92890476D01*
X99692857Y-92938095D01*
X99597619Y-92985714D01*
X99550000Y-93033333D01*
X99502380Y-93128571D01*
%TO.C,R21*%
X224670857Y-128426380D02*
X225004190Y-127950190D01*
X225242285Y-128426380D02*
X225242285Y-127426380D01*
X224861333Y-127426380D01*
X224766095Y-127474000D01*
X224718476Y-127521619D01*
X224670857Y-127616857D01*
X224670857Y-127759714D01*
X224718476Y-127854952D01*
X224766095Y-127902571D01*
X224861333Y-127950190D01*
X225242285Y-127950190D01*
X224289904Y-127521619D02*
X224242285Y-127474000D01*
X224147047Y-127426380D01*
X223908952Y-127426380D01*
X223813714Y-127474000D01*
X223766095Y-127521619D01*
X223718476Y-127616857D01*
X223718476Y-127712095D01*
X223766095Y-127854952D01*
X224337523Y-128426380D01*
X223718476Y-128426380D01*
X222766095Y-128426380D02*
X223337523Y-128426380D01*
X223051809Y-128426380D02*
X223051809Y-127426380D01*
X223147047Y-127569238D01*
X223242285Y-127664476D01*
X223337523Y-127712095D01*
%TO.C,R4*%
X50966666Y-95406380D02*
X51300000Y-94930190D01*
X51538095Y-95406380D02*
X51538095Y-94406380D01*
X51157142Y-94406380D01*
X51061904Y-94454000D01*
X51014285Y-94501619D01*
X50966666Y-94596857D01*
X50966666Y-94739714D01*
X51014285Y-94834952D01*
X51061904Y-94882571D01*
X51157142Y-94930190D01*
X51538095Y-94930190D01*
X50109523Y-94739714D02*
X50109523Y-95406380D01*
X50347619Y-94358761D02*
X50585714Y-95073047D01*
X49966666Y-95073047D01*
%TO.C,R2*%
X54649666Y-71826380D02*
X54983000Y-71350190D01*
X55221095Y-71826380D02*
X55221095Y-70826380D01*
X54840142Y-70826380D01*
X54744904Y-70874000D01*
X54697285Y-70921619D01*
X54649666Y-71016857D01*
X54649666Y-71159714D01*
X54697285Y-71254952D01*
X54744904Y-71302571D01*
X54840142Y-71350190D01*
X55221095Y-71350190D01*
X54268714Y-70921619D02*
X54221095Y-70874000D01*
X54125857Y-70826380D01*
X53887761Y-70826380D01*
X53792523Y-70874000D01*
X53744904Y-70921619D01*
X53697285Y-71016857D01*
X53697285Y-71112095D01*
X53744904Y-71254952D01*
X54316333Y-71826380D01*
X53697285Y-71826380D01*
%TO.C,R1*%
X54649666Y-74366380D02*
X54983000Y-73890190D01*
X55221095Y-74366380D02*
X55221095Y-73366380D01*
X54840142Y-73366380D01*
X54744904Y-73414000D01*
X54697285Y-73461619D01*
X54649666Y-73556857D01*
X54649666Y-73699714D01*
X54697285Y-73794952D01*
X54744904Y-73842571D01*
X54840142Y-73890190D01*
X55221095Y-73890190D01*
X53697285Y-74366380D02*
X54268714Y-74366380D01*
X53983000Y-74366380D02*
X53983000Y-73366380D01*
X54078238Y-73509238D01*
X54173476Y-73604476D01*
X54268714Y-73652095D01*
%TO.C,R6*%
X150661666Y-103872380D02*
X150995000Y-103396190D01*
X151233095Y-103872380D02*
X151233095Y-102872380D01*
X150852142Y-102872380D01*
X150756904Y-102920000D01*
X150709285Y-102967619D01*
X150661666Y-103062857D01*
X150661666Y-103205714D01*
X150709285Y-103300952D01*
X150756904Y-103348571D01*
X150852142Y-103396190D01*
X151233095Y-103396190D01*
X149804523Y-102872380D02*
X149995000Y-102872380D01*
X150090238Y-102920000D01*
X150137857Y-102967619D01*
X150233095Y-103110476D01*
X150280714Y-103300952D01*
X150280714Y-103681904D01*
X150233095Y-103777142D01*
X150185476Y-103824761D01*
X150090238Y-103872380D01*
X149899761Y-103872380D01*
X149804523Y-103824761D01*
X149756904Y-103777142D01*
X149709285Y-103681904D01*
X149709285Y-103443809D01*
X149756904Y-103348571D01*
X149804523Y-103300952D01*
X149899761Y-103253333D01*
X150090238Y-103253333D01*
X150185476Y-103300952D01*
X150233095Y-103348571D01*
X150280714Y-103443809D01*
%TO.C,R8*%
X194984666Y-125632380D02*
X195318000Y-125156190D01*
X195556095Y-125632380D02*
X195556095Y-124632380D01*
X195175142Y-124632380D01*
X195079904Y-124680000D01*
X195032285Y-124727619D01*
X194984666Y-124822857D01*
X194984666Y-124965714D01*
X195032285Y-125060952D01*
X195079904Y-125108571D01*
X195175142Y-125156190D01*
X195556095Y-125156190D01*
X194413238Y-125060952D02*
X194508476Y-125013333D01*
X194556095Y-124965714D01*
X194603714Y-124870476D01*
X194603714Y-124822857D01*
X194556095Y-124727619D01*
X194508476Y-124680000D01*
X194413238Y-124632380D01*
X194222761Y-124632380D01*
X194127523Y-124680000D01*
X194079904Y-124727619D01*
X194032285Y-124822857D01*
X194032285Y-124870476D01*
X194079904Y-124965714D01*
X194127523Y-125013333D01*
X194222761Y-125060952D01*
X194413238Y-125060952D01*
X194508476Y-125108571D01*
X194556095Y-125156190D01*
X194603714Y-125251428D01*
X194603714Y-125441904D01*
X194556095Y-125537142D01*
X194508476Y-125584761D01*
X194413238Y-125632380D01*
X194222761Y-125632380D01*
X194127523Y-125584761D01*
X194079904Y-125537142D01*
X194032285Y-125441904D01*
X194032285Y-125251428D01*
X194079904Y-125156190D01*
X194127523Y-125108571D01*
X194222761Y-125060952D01*
%TO.C,R7*%
X166663666Y-128172380D02*
X166997000Y-127696190D01*
X167235095Y-128172380D02*
X167235095Y-127172380D01*
X166854142Y-127172380D01*
X166758904Y-127220000D01*
X166711285Y-127267619D01*
X166663666Y-127362857D01*
X166663666Y-127505714D01*
X166711285Y-127600952D01*
X166758904Y-127648571D01*
X166854142Y-127696190D01*
X167235095Y-127696190D01*
X166330333Y-127172380D02*
X165663666Y-127172380D01*
X166092238Y-128172380D01*
%TO.C,R10*%
X228480857Y-119366380D02*
X228814190Y-118890190D01*
X229052285Y-119366380D02*
X229052285Y-118366380D01*
X228671333Y-118366380D01*
X228576095Y-118414000D01*
X228528476Y-118461619D01*
X228480857Y-118556857D01*
X228480857Y-118699714D01*
X228528476Y-118794952D01*
X228576095Y-118842571D01*
X228671333Y-118890190D01*
X229052285Y-118890190D01*
X227528476Y-119366380D02*
X228099904Y-119366380D01*
X227814190Y-119366380D02*
X227814190Y-118366380D01*
X227909428Y-118509238D01*
X228004666Y-118604476D01*
X228099904Y-118652095D01*
X226909428Y-118366380D02*
X226814190Y-118366380D01*
X226718952Y-118414000D01*
X226671333Y-118461619D01*
X226623714Y-118556857D01*
X226576095Y-118747333D01*
X226576095Y-118985428D01*
X226623714Y-119175904D01*
X226671333Y-119271142D01*
X226718952Y-119318761D01*
X226814190Y-119366380D01*
X226909428Y-119366380D01*
X227004666Y-119318761D01*
X227052285Y-119271142D01*
X227099904Y-119175904D01*
X227147523Y-118985428D01*
X227147523Y-118747333D01*
X227099904Y-118556857D01*
X227052285Y-118461619D01*
X227004666Y-118414000D01*
X226909428Y-118366380D01*
%TO.C,R3*%
X54649666Y-76906380D02*
X54983000Y-76430190D01*
X55221095Y-76906380D02*
X55221095Y-75906380D01*
X54840142Y-75906380D01*
X54744904Y-75954000D01*
X54697285Y-76001619D01*
X54649666Y-76096857D01*
X54649666Y-76239714D01*
X54697285Y-76334952D01*
X54744904Y-76382571D01*
X54840142Y-76430190D01*
X55221095Y-76430190D01*
X54316333Y-75906380D02*
X53697285Y-75906380D01*
X54030619Y-76287333D01*
X53887761Y-76287333D01*
X53792523Y-76334952D01*
X53744904Y-76382571D01*
X53697285Y-76477809D01*
X53697285Y-76715904D01*
X53744904Y-76811142D01*
X53792523Y-76858761D01*
X53887761Y-76906380D01*
X54173476Y-76906380D01*
X54268714Y-76858761D01*
X54316333Y-76811142D01*
%TO.C,R5*%
X50966666Y-101544380D02*
X51300000Y-101068190D01*
X51538095Y-101544380D02*
X51538095Y-100544380D01*
X51157142Y-100544380D01*
X51061904Y-100592000D01*
X51014285Y-100639619D01*
X50966666Y-100734857D01*
X50966666Y-100877714D01*
X51014285Y-100972952D01*
X51061904Y-101020571D01*
X51157142Y-101068190D01*
X51538095Y-101068190D01*
X50061904Y-100544380D02*
X50538095Y-100544380D01*
X50585714Y-101020571D01*
X50538095Y-100972952D01*
X50442857Y-100925333D01*
X50204761Y-100925333D01*
X50109523Y-100972952D01*
X50061904Y-101020571D01*
X50014285Y-101115809D01*
X50014285Y-101353904D01*
X50061904Y-101449142D01*
X50109523Y-101496761D01*
X50204761Y-101544380D01*
X50442857Y-101544380D01*
X50538095Y-101496761D01*
X50585714Y-101449142D01*
%TO.C,R9*%
X228004666Y-106836380D02*
X228338000Y-106360190D01*
X228576095Y-106836380D02*
X228576095Y-105836380D01*
X228195142Y-105836380D01*
X228099904Y-105884000D01*
X228052285Y-105931619D01*
X228004666Y-106026857D01*
X228004666Y-106169714D01*
X228052285Y-106264952D01*
X228099904Y-106312571D01*
X228195142Y-106360190D01*
X228576095Y-106360190D01*
X227528476Y-106836380D02*
X227338000Y-106836380D01*
X227242761Y-106788761D01*
X227195142Y-106741142D01*
X227099904Y-106598285D01*
X227052285Y-106407809D01*
X227052285Y-106026857D01*
X227099904Y-105931619D01*
X227147523Y-105884000D01*
X227242761Y-105836380D01*
X227433238Y-105836380D01*
X227528476Y-105884000D01*
X227576095Y-105931619D01*
X227623714Y-106026857D01*
X227623714Y-106264952D01*
X227576095Y-106360190D01*
X227528476Y-106407809D01*
X227433238Y-106455428D01*
X227242761Y-106455428D01*
X227147523Y-106407809D01*
X227099904Y-106360190D01*
X227052285Y-106264952D01*
D12*
%TO.C,C1*%
X50186000Y-81483252D02*
X50186000Y-80060748D01*
X48366000Y-81483252D02*
X48366000Y-80060748D01*
%TO.C,C2*%
X65963748Y-83164000D02*
X67386252Y-83164000D01*
X65963748Y-84984000D02*
X67386252Y-84984000D01*
%TO.C,C5*%
X172360000Y-77673252D02*
X172360000Y-76250748D01*
X170540000Y-77673252D02*
X170540000Y-76250748D01*
%TO.C,C6*%
X196109000Y-84150252D02*
X196109000Y-82727748D01*
X194289000Y-84150252D02*
X194289000Y-82727748D01*
%TO.C,C7*%
X195529252Y-113390000D02*
X194106748Y-113390000D01*
X195529252Y-115210000D02*
X194106748Y-115210000D01*
%TO.C,C8*%
X94437252Y-45191000D02*
X93014748Y-45191000D01*
X94437252Y-47011000D02*
X93014748Y-47011000D01*
%TO.C,C9*%
X119202252Y-45191000D02*
X117779748Y-45191000D01*
X119202252Y-47011000D02*
X117779748Y-47011000D01*
%TO.C,C11*%
X122590000Y-93311252D02*
X122590000Y-91888748D01*
X124410000Y-93311252D02*
X124410000Y-91888748D01*
%TO.C,C10*%
X99110000Y-92911252D02*
X99110000Y-91488748D01*
X97290000Y-92911252D02*
X97290000Y-91488748D01*
%TO.C,R21*%
X224755064Y-128884000D02*
X223300936Y-128884000D01*
X224755064Y-130704000D02*
X223300936Y-130704000D01*
%TO.C,R4*%
X51527064Y-95864000D02*
X50072936Y-95864000D01*
X51527064Y-97684000D02*
X50072936Y-97684000D01*
%TO.C,R2*%
X51400064Y-70464000D02*
X49945936Y-70464000D01*
X51400064Y-72284000D02*
X49945936Y-72284000D01*
%TO.C,R1*%
X51400064Y-73004000D02*
X49945936Y-73004000D01*
X51400064Y-74824000D02*
X49945936Y-74824000D01*
%TO.C,R6*%
X149767936Y-102510000D02*
X151222064Y-102510000D01*
X149767936Y-100690000D02*
X151222064Y-100690000D01*
%TO.C,R8*%
X195545064Y-126090000D02*
X194090936Y-126090000D01*
X195545064Y-127910000D02*
X194090936Y-127910000D01*
%TO.C,R7*%
X167224064Y-128630000D02*
X165769936Y-128630000D01*
X167224064Y-130450000D02*
X165769936Y-130450000D01*
%TO.C,R10*%
X227110936Y-118004000D02*
X228565064Y-118004000D01*
X227110936Y-116184000D02*
X228565064Y-116184000D01*
%TO.C,R3*%
X51400064Y-75544000D02*
X49945936Y-75544000D01*
X51400064Y-77364000D02*
X49945936Y-77364000D01*
%TO.C,R5*%
X51527064Y-100097000D02*
X50072936Y-100097000D01*
X51527064Y-98277000D02*
X50072936Y-98277000D01*
%TO.C,R9*%
X228565064Y-107294000D02*
X227110936Y-107294000D01*
X228565064Y-109114000D02*
X227110936Y-109114000D01*
%TD*%
%LPC*%
D13*
%TO.C,J1*%
X136271000Y-45148500D03*
D14*
X138811000Y-45148500D03*
X141351000Y-45148500D03*
X143891000Y-45148500D03*
X146431000Y-45148500D03*
X148971000Y-45148500D03*
%TD*%
D15*
%TO.C,U4*%
X146050000Y-81285000D03*
D16*
X146050000Y-83825000D03*
X146050000Y-86365000D03*
X146050000Y-88905000D03*
X146050000Y-91445000D03*
X146050000Y-93985000D03*
X146050000Y-96525000D03*
X146050000Y-99065000D03*
X146050000Y-101605000D03*
X146050000Y-104145000D03*
X146050000Y-106685000D03*
X146050000Y-109225000D03*
X146050000Y-111765000D03*
X146050000Y-114305000D03*
X146050000Y-116845000D03*
X146050000Y-119385000D03*
X146050000Y-121925000D03*
X146050000Y-124465000D03*
X146050000Y-127005000D03*
X146050000Y-129545000D03*
X171450000Y-129545000D03*
X171450000Y-127005000D03*
X171450000Y-124465000D03*
X171450000Y-121925000D03*
X171450000Y-119385000D03*
X171450000Y-116845000D03*
X171450000Y-114305000D03*
X171450000Y-111765000D03*
X171450000Y-109225000D03*
X171450000Y-106685000D03*
X171450000Y-104145000D03*
X171450000Y-101605000D03*
X171450000Y-99065000D03*
X171450000Y-96525000D03*
X171450000Y-93985000D03*
X171450000Y-91445000D03*
X171450000Y-88905000D03*
X171450000Y-86365000D03*
X171450000Y-83825000D03*
X171450000Y-81285000D03*
%TD*%
D15*
%TO.C,U2*%
X45974000Y-45969000D03*
D16*
X45974000Y-48509000D03*
X45974000Y-51049000D03*
X45974000Y-53589000D03*
X45974000Y-56129000D03*
X45974000Y-58669000D03*
X45974000Y-61209000D03*
X45974000Y-63749000D03*
X45974000Y-66289000D03*
X45974000Y-68829000D03*
X45974000Y-71369000D03*
X45974000Y-73909000D03*
X45974000Y-76449000D03*
X45974000Y-78989000D03*
X45974000Y-81529000D03*
X45974000Y-84069000D03*
X45974000Y-86609000D03*
X45974000Y-89149000D03*
X45974000Y-91689000D03*
X45974000Y-94229000D03*
X45974000Y-96769000D03*
X45974000Y-99309000D03*
X45974000Y-101849000D03*
X45974000Y-104389000D03*
X45974000Y-106929000D03*
X45974000Y-109469000D03*
X45974000Y-112009000D03*
X45974000Y-114549000D03*
X45974000Y-117089000D03*
X45974000Y-119629000D03*
X45974000Y-122169000D03*
X45974000Y-124709000D03*
X71374000Y-124709000D03*
X71374000Y-122169000D03*
X71374000Y-119629000D03*
X71374000Y-117089000D03*
X71374000Y-114549000D03*
X71374000Y-112009000D03*
X71374000Y-109469000D03*
X71374000Y-106929000D03*
X71374000Y-104389000D03*
X71374000Y-101849000D03*
X71374000Y-99309000D03*
X71374000Y-96769000D03*
X71374000Y-94229000D03*
X71374000Y-91689000D03*
X71374000Y-89149000D03*
X71374000Y-86609000D03*
X71374000Y-84069000D03*
X71374000Y-81529000D03*
X71374000Y-78989000D03*
X71374000Y-76449000D03*
X71374000Y-73909000D03*
X71374000Y-71369000D03*
X71374000Y-68829000D03*
X71374000Y-66289000D03*
X71374000Y-63749000D03*
X71374000Y-61209000D03*
X71374000Y-58669000D03*
X71374000Y-56129000D03*
X71374000Y-53589000D03*
X71374000Y-51049000D03*
X71374000Y-48509000D03*
X71374000Y-45969000D03*
%TD*%
D15*
%TO.C,U5*%
X190510000Y-85095000D03*
D16*
X190510000Y-87635000D03*
X190510000Y-90175000D03*
X190510000Y-92715000D03*
X190510000Y-95255000D03*
X190510000Y-97795000D03*
X190510000Y-100335000D03*
X190510000Y-102875000D03*
X190510000Y-105415000D03*
X190510000Y-107955000D03*
X198130000Y-107955000D03*
X198130000Y-105415000D03*
X198130000Y-102875000D03*
X198130000Y-100335000D03*
X198130000Y-97795000D03*
X198130000Y-95255000D03*
X198130000Y-92715000D03*
X198130000Y-90175000D03*
X198130000Y-87635000D03*
X198130000Y-85095000D03*
%TD*%
D13*
%TO.C,U6*%
X160909000Y-142621000D03*
D14*
X163449000Y-142621000D03*
X165989000Y-142621000D03*
X168529000Y-142621000D03*
X171069000Y-142621000D03*
X173609000Y-142621000D03*
%TD*%
D17*
%TO.C,X2*%
X158750000Y-59690000D03*
D18*
X158750000Y-74930000D03*
X166370000Y-74930000D03*
X166370000Y-59690000D03*
%TD*%
D15*
%TO.C,U10*%
X108199000Y-96505000D03*
D16*
X108199000Y-99045000D03*
X108199000Y-101585000D03*
X108199000Y-104125000D03*
X108199000Y-106665000D03*
X108199000Y-109205000D03*
X108199000Y-111745000D03*
X108199000Y-114285000D03*
X108199000Y-116825000D03*
X108199000Y-119365000D03*
X108199000Y-121905000D03*
X108199000Y-124445000D03*
X108199000Y-126985000D03*
X108199000Y-129525000D03*
X123439000Y-129525000D03*
X123439000Y-126985000D03*
X123439000Y-124445000D03*
X123439000Y-121905000D03*
X123439000Y-119365000D03*
X123439000Y-116825000D03*
X123439000Y-114285000D03*
X123439000Y-111745000D03*
X123439000Y-109205000D03*
X123439000Y-106665000D03*
X123439000Y-104125000D03*
X123439000Y-101585000D03*
X123439000Y-99045000D03*
X123439000Y-96505000D03*
%TD*%
D15*
%TO.C,U11*%
X83053000Y-96505000D03*
D16*
X83053000Y-99045000D03*
X83053000Y-101585000D03*
X83053000Y-104125000D03*
X83053000Y-106665000D03*
X83053000Y-109205000D03*
X83053000Y-111745000D03*
X83053000Y-114285000D03*
X83053000Y-116825000D03*
X83053000Y-119365000D03*
X83053000Y-121905000D03*
X83053000Y-124445000D03*
X83053000Y-126985000D03*
X83053000Y-129525000D03*
X98293000Y-129525000D03*
X98293000Y-126985000D03*
X98293000Y-124445000D03*
X98293000Y-121905000D03*
X98293000Y-119365000D03*
X98293000Y-116825000D03*
X98293000Y-114285000D03*
X98293000Y-111745000D03*
X98293000Y-109205000D03*
X98293000Y-106665000D03*
X98293000Y-104125000D03*
X98293000Y-101585000D03*
X98293000Y-99045000D03*
X98293000Y-96505000D03*
%TD*%
D15*
%TO.C,U9*%
X108199000Y-45847000D03*
D16*
X108199000Y-48387000D03*
X108199000Y-50927000D03*
X108199000Y-53467000D03*
X108199000Y-56007000D03*
X108199000Y-58547000D03*
X108199000Y-61087000D03*
X108199000Y-63627000D03*
X108199000Y-66167000D03*
X108199000Y-68707000D03*
X108199000Y-71247000D03*
X108199000Y-73787000D03*
X108199000Y-76327000D03*
X108199000Y-78867000D03*
X108199000Y-81407000D03*
X108199000Y-83947000D03*
X123439000Y-83947000D03*
X123439000Y-81407000D03*
X123439000Y-78867000D03*
X123439000Y-76327000D03*
X123439000Y-73787000D03*
X123439000Y-71247000D03*
X123439000Y-68707000D03*
X123439000Y-66167000D03*
X123439000Y-63627000D03*
X123439000Y-61087000D03*
X123439000Y-58547000D03*
X123439000Y-56007000D03*
X123439000Y-53467000D03*
X123439000Y-50927000D03*
X123439000Y-48387000D03*
X123439000Y-45847000D03*
%TD*%
D15*
%TO.C,U8*%
X83307000Y-45974000D03*
D16*
X83307000Y-48514000D03*
X83307000Y-51054000D03*
X83307000Y-53594000D03*
X83307000Y-56134000D03*
X83307000Y-58674000D03*
X83307000Y-61214000D03*
X83307000Y-63754000D03*
X83307000Y-66294000D03*
X83307000Y-68834000D03*
X83307000Y-71374000D03*
X83307000Y-73914000D03*
X83307000Y-76454000D03*
X83307000Y-78994000D03*
X83307000Y-81534000D03*
X83307000Y-84074000D03*
X98547000Y-84074000D03*
X98547000Y-81534000D03*
X98547000Y-78994000D03*
X98547000Y-76454000D03*
X98547000Y-73914000D03*
X98547000Y-71374000D03*
X98547000Y-68834000D03*
X98547000Y-66294000D03*
X98547000Y-63754000D03*
X98547000Y-61214000D03*
X98547000Y-58674000D03*
X98547000Y-56134000D03*
X98547000Y-53594000D03*
X98547000Y-51054000D03*
X98547000Y-48514000D03*
X98547000Y-45974000D03*
%TD*%
D15*
%TO.C,U7*%
X184145000Y-114295000D03*
D16*
X184145000Y-116835000D03*
X184145000Y-119375000D03*
X184145000Y-121915000D03*
X184145000Y-124455000D03*
X184145000Y-126995000D03*
X184145000Y-129535000D03*
X184145000Y-132075000D03*
X184145000Y-134615000D03*
X184145000Y-137155000D03*
X184145000Y-139695000D03*
X184145000Y-142235000D03*
X199385000Y-142235000D03*
X199385000Y-139695000D03*
X199385000Y-137155000D03*
X199385000Y-134615000D03*
X199385000Y-132075000D03*
X199385000Y-129535000D03*
X199385000Y-126995000D03*
X199385000Y-124455000D03*
X199385000Y-121915000D03*
X199385000Y-119375000D03*
X199385000Y-116835000D03*
X199385000Y-114295000D03*
%TD*%
D17*
%TO.C,X1*%
X51054000Y-141224000D03*
D18*
X66294000Y-141224000D03*
X66294000Y-133604000D03*
X51054000Y-133604000D03*
%TD*%
D13*
%TO.C,J2*%
X131953000Y-144272000D03*
D14*
X131953000Y-141732000D03*
X134493000Y-144272000D03*
X134493000Y-141732000D03*
X137033000Y-144272000D03*
X137033000Y-141732000D03*
X139573000Y-144272000D03*
X139573000Y-141732000D03*
X142113000Y-144272000D03*
X142113000Y-141732000D03*
X144653000Y-144272000D03*
X144653000Y-141732000D03*
X147193000Y-144272000D03*
X147193000Y-141732000D03*
X149733000Y-144272000D03*
X149733000Y-141732000D03*
%TD*%
D19*
%TO.C,H1*%
X233188000Y-88474000D03*
D20*
X235188000Y-88474000D03*
X233188000Y-90474000D03*
X235188000Y-90474000D03*
X233188000Y-92474000D03*
X235188000Y-92474000D03*
X233188000Y-94474000D03*
X235188000Y-94474000D03*
X233188000Y-96474000D03*
X235188000Y-96474000D03*
X233188000Y-98474000D03*
X235188000Y-98474000D03*
X233188000Y-100474000D03*
X235188000Y-100474000D03*
X233188000Y-102474000D03*
X235188000Y-102474000D03*
X233188000Y-104474000D03*
X235188000Y-104474000D03*
X233188000Y-106474000D03*
X235188000Y-106474000D03*
X233188000Y-108474000D03*
X235188000Y-108474000D03*
X233188000Y-110474000D03*
X235188000Y-110474000D03*
X233188000Y-112474000D03*
X235188000Y-112474000D03*
X233188000Y-114474000D03*
X235188000Y-114474000D03*
X233188000Y-116474000D03*
X235188000Y-116474000D03*
X233188000Y-118474000D03*
X235188000Y-118474000D03*
X233188000Y-120474000D03*
X235188000Y-120474000D03*
X233188000Y-122474000D03*
X235188000Y-122474000D03*
X233188000Y-124474000D03*
X235188000Y-124474000D03*
X233188000Y-126474000D03*
X235188000Y-126474000D03*
X233188000Y-128474000D03*
X235188000Y-128474000D03*
X233188000Y-130474000D03*
X235188000Y-130474000D03*
%TD*%
D15*
%TO.C,RN1*%
X213878000Y-101844000D03*
D16*
X213878000Y-104384000D03*
X213878000Y-106924000D03*
X213878000Y-109464000D03*
X213878000Y-112004000D03*
X213878000Y-114544000D03*
X213878000Y-117084000D03*
X213878000Y-119624000D03*
X221498000Y-119624000D03*
X221498000Y-117084000D03*
X221498000Y-114544000D03*
X221498000Y-112004000D03*
X221498000Y-109464000D03*
X221498000Y-106924000D03*
X221498000Y-104384000D03*
X221498000Y-101844000D03*
%TD*%
D21*
%TO.C,D3*%
X177800000Y-55880000D03*
D22*
X177800000Y-53340000D03*
%TD*%
D21*
%TO.C,D4*%
X177800000Y-46990000D03*
D22*
X177800000Y-49530000D03*
%TD*%
D21*
%TO.C,D5*%
X225298000Y-125984000D03*
D22*
X222758000Y-125984000D03*
%TD*%
D23*
%TO.C,REF05*%
X212852000Y-56134000D03*
%TD*%
D24*
%TO.C,J3*%
X225859000Y-60095000D03*
D25*
X228859000Y-55295000D03*
X232109000Y-60095000D03*
%TD*%
D23*
%TO.C,REF02*%
X40640000Y-146812000D03*
%TD*%
%TO.C,REF04*%
X238760000Y-146558000D03*
%TD*%
D22*
%TO.C,S2*%
X232283000Y-45974000D03*
X226983000Y-45974000D03*
%TD*%
D26*
%TO.C,U1*%
X162560000Y-42310000D03*
D27*
X163830000Y-40240000D03*
X165100000Y-42310000D03*
%TD*%
D19*
%TO.C,SW1*%
X159691000Y-48931000D03*
D20*
X166191000Y-48931000D03*
X159691000Y-53431000D03*
X166191000Y-53431000D03*
%TD*%
D23*
%TO.C,REF03*%
X237744000Y-72136000D03*
%TD*%
%TO.C,REF01*%
X40132000Y-42672000D03*
%TD*%
D28*
%TO.C,C1*%
X49276000Y-82334500D03*
X49276000Y-79209500D03*
%TD*%
D29*
%TO.C,C2*%
X65112500Y-84074000D03*
X68237500Y-84074000D03*
%TD*%
D28*
%TO.C,C5*%
X171450000Y-78524500D03*
X171450000Y-75399500D03*
%TD*%
%TO.C,C6*%
X195199000Y-85001500D03*
X195199000Y-81876500D03*
%TD*%
D30*
%TO.C,C7*%
X196380500Y-114300000D03*
X193255500Y-114300000D03*
%TD*%
%TO.C,C8*%
X95288500Y-46101000D03*
X92163500Y-46101000D03*
%TD*%
%TO.C,C9*%
X116928500Y-46101000D03*
X120053500Y-46101000D03*
%TD*%
D28*
%TO.C,C11*%
X123500000Y-94162500D03*
X123500000Y-91037500D03*
%TD*%
%TO.C,C10*%
X98200000Y-93762500D03*
X98200000Y-90637500D03*
%TD*%
D31*
%TO.C,R21*%
X225578000Y-129794000D03*
X222478000Y-129794000D03*
%TD*%
%TO.C,R4*%
X52350000Y-96774000D03*
X49250000Y-96774000D03*
%TD*%
%TO.C,R2*%
X52223000Y-71374000D03*
X49123000Y-71374000D03*
%TD*%
%TO.C,R1*%
X52223000Y-73914000D03*
X49123000Y-73914000D03*
%TD*%
D32*
%TO.C,R6*%
X148945000Y-101600000D03*
X152045000Y-101600000D03*
%TD*%
D31*
%TO.C,R8*%
X196368000Y-127000000D03*
X193268000Y-127000000D03*
%TD*%
%TO.C,R7*%
X168047000Y-129540000D03*
X164947000Y-129540000D03*
%TD*%
D32*
%TO.C,R10*%
X226288000Y-117094000D03*
X229388000Y-117094000D03*
%TD*%
D31*
%TO.C,R3*%
X52223000Y-76454000D03*
X49123000Y-76454000D03*
%TD*%
%TO.C,R5*%
X52350000Y-99187000D03*
X49250000Y-99187000D03*
%TD*%
%TO.C,R9*%
X229388000Y-108204000D03*
X226288000Y-108204000D03*
%TD*%
M02*
