M48
; DRILL file {KiCad 6.0.1+dfsg-1~bpo11+1} date Wed 09 Feb 2022 07:39:20 AM CST
; FORMAT={-:-/ absolute / metric / decimal}
; #@! TF.CreationDate,2022-02-09T07:39:20-06:00
; #@! TF.GenerationSoftware,Kicad,Pcbnew,6.0.1+dfsg-1~bpo11+1
; #@! TF.FileFunction,Plated,2,4,Blind
FMAT,2
METRIC
; #@! TA.AperFunction,Plated,Buried,ViaDrill
T1C0.400
%
G90
G05
T1
X48.26Y-84.074
X63.5Y-84.074
X64.262Y-141.224
X68.834Y-73.914
X85.344Y-129.54
X85.598Y-84.074
X91.948Y-98.298
X92.202Y-48.006
X110.49Y-129.54
X110.744Y-84.074
X116.84Y-98.552
X148.29Y-129.514
X158.75Y-72.898
X162.814Y-53.594
X163.576Y-145.034
X186.69Y-142.24
X193.04Y-84.836
X193.04Y-107.95
X193.294Y-116.078
X231.648Y-106.172
X236.474Y-131.826
X236.728Y-88.646
T0
M30
