M48
; DRILL file {KiCad 6.0.1+dfsg-1~bpo11+1} date Wed 09 Feb 2022 07:39:20 AM CST
; FORMAT={-:-/ absolute / metric / decimal}
; #@! TF.CreationDate,2022-02-09T07:39:20-06:00
; #@! TF.GenerationSoftware,Kicad,Pcbnew,6.0.1+dfsg-1~bpo11+1
; #@! TF.FileFunction,Plated,1,4,PTH
FMAT,2
METRIC
; #@! TA.AperFunction,Plated,PTH,ViaDrill
T1C0.400
; #@! TA.AperFunction,Plated,PTH,ComponentDrill
T2C0.750
; #@! TA.AperFunction,Plated,PTH,ComponentDrill
T3C0.800
; #@! TA.AperFunction,Plated,PTH,ComponentDrill
T4C0.900
; #@! TA.AperFunction,Plated,PTH,ComponentDrill
T5C1.000
; #@! TA.AperFunction,Plated,PTH,ComponentDrill
T6C1.200
; #@! TA.AperFunction,Plated,PTH,ComponentDrill
T7C3.050
; #@! TA.AperFunction,Plated,PTH,ComponentDrill
T8C3.560
%
G90
G05
T1
X66.309Y-50.764
X67.957Y-65.311
X68.614Y-66.536
X73.287Y-80.988
X74.147Y-82.192
X74.791Y-83.175
X76.261Y-123.26
X87.178Y-114.382
X94.494Y-82.659
X94.813Y-112.33
X95.572Y-87.586
X96.924Y-75.156
X112.374Y-88.364
X112.712Y-93.265
X113.604Y-90.089
X113.946Y-91.359
X115.657Y-46.255
X120.689Y-68.202
X127.258Y-121.925
X128.053Y-46.063
X128.751Y-84.951
X128.79Y-71.352
X129.275Y-87.599
X130.535Y-54.951
X131.704Y-54.951
X132.666Y-52.822
X132.942Y-54.951
X134.652Y-80.858
X134.779Y-58.679
X137.715Y-65.906
X137.829Y-139.908
X138.355Y-137.885
X138.497Y-51.741
X138.752Y-65.877
X139.66Y-56.123
X140.01Y-107.049
X140.304Y-138.807
X141.035Y-58.578
X141.369Y-55.814
X141.933Y-51.729
X142.578Y-66.074
X142.751Y-55.809
X144.098Y-55.961
X144.386Y-66.385
X145.098Y-54.542
X145.322Y-65.877
X146.31Y-57.21
X146.326Y-60.185
X146.837Y-76.721
X149.046Y-57.038
X151.0Y-139.387
X152.755Y-57.055
X161.047Y-66.417
X162.657Y-91.464
X165.838Y-83.682
X166.032Y-86.444
X168.913Y-113.18
X171.45Y-74.135
X173.457Y-76.721
X174.714Y-115.36
X176.68Y-127.218
X179.705Y-62.522
X182.04Y-82.41
X182.939Y-107.424
X183.481Y-101.645
X183.71Y-100.52
X185.402Y-100.914
X186.333Y-101.655
X187.662Y-107.821
X187.962Y-111.933
X188.427Y-108.5
X189.23Y-52.375
X189.23Y-71.385
X192.999Y-55.346
X193.043Y-74.742
X194.744Y-108.453
X198.235Y-48.363
X198.25Y-67.398
X200.019Y-73.025
X200.03Y-54.034
X202.698Y-133.208
X210.798Y-100.474
X212.603Y-45.427
X212.603Y-64.477
X215.479Y-80.319
X216.483Y-100.881
X227.887Y-94.812
T2
X162.56Y-41.91
X163.83Y-40.64
X165.1Y-41.91
T3
X45.974Y-45.969
X45.974Y-48.509
X45.974Y-51.049
X45.974Y-53.589
X45.974Y-56.129
X45.974Y-58.669
X45.974Y-61.209
X45.974Y-63.749
X45.974Y-66.289
X45.974Y-68.829
X45.974Y-71.369
X45.974Y-73.909
X45.974Y-76.449
X45.974Y-78.989
X45.974Y-81.529
X45.974Y-84.069
X45.974Y-86.609
X45.974Y-89.149
X45.974Y-91.689
X45.974Y-94.229
X45.974Y-96.769
X45.974Y-99.309
X45.974Y-101.849
X45.974Y-104.389
X45.974Y-106.929
X45.974Y-109.469
X45.974Y-112.009
X45.974Y-114.549
X45.974Y-117.089
X45.974Y-119.629
X45.974Y-122.169
X45.974Y-124.709
X71.374Y-45.969
X71.374Y-48.509
X71.374Y-51.049
X71.374Y-53.589
X71.374Y-56.129
X71.374Y-58.669
X71.374Y-61.209
X71.374Y-63.749
X71.374Y-66.289
X71.374Y-68.829
X71.374Y-71.369
X71.374Y-73.909
X71.374Y-76.449
X71.374Y-78.989
X71.374Y-81.529
X71.374Y-84.069
X71.374Y-86.609
X71.374Y-89.149
X71.374Y-91.689
X71.374Y-94.229
X71.374Y-96.769
X71.374Y-99.309
X71.374Y-101.849
X71.374Y-104.389
X71.374Y-106.929
X71.374Y-109.469
X71.374Y-112.009
X71.374Y-114.549
X71.374Y-117.089
X71.374Y-119.629
X71.374Y-122.169
X71.374Y-124.709
X83.053Y-96.505
X83.053Y-99.045
X83.053Y-101.585
X83.053Y-104.125
X83.053Y-106.665
X83.053Y-109.205
X83.053Y-111.745
X83.053Y-114.285
X83.053Y-116.825
X83.053Y-119.365
X83.053Y-121.905
X83.053Y-124.445
X83.053Y-126.985
X83.053Y-129.525
X83.307Y-45.974
X83.307Y-48.514
X83.307Y-51.054
X83.307Y-53.594
X83.307Y-56.134
X83.307Y-58.674
X83.307Y-61.214
X83.307Y-63.754
X83.307Y-66.294
X83.307Y-68.834
X83.307Y-71.374
X83.307Y-73.914
X83.307Y-76.454
X83.307Y-78.994
X83.307Y-81.534
X83.307Y-84.074
X98.293Y-96.505
X98.293Y-99.045
X98.293Y-101.585
X98.293Y-104.125
X98.293Y-106.665
X98.293Y-109.205
X98.293Y-111.745
X98.293Y-114.285
X98.293Y-116.825
X98.293Y-119.365
X98.293Y-121.905
X98.293Y-124.445
X98.293Y-126.985
X98.293Y-129.525
X98.547Y-45.974
X98.547Y-48.514
X98.547Y-51.054
X98.547Y-53.594
X98.547Y-56.134
X98.547Y-58.674
X98.547Y-61.214
X98.547Y-63.754
X98.547Y-66.294
X98.547Y-68.834
X98.547Y-71.374
X98.547Y-73.914
X98.547Y-76.454
X98.547Y-78.994
X98.547Y-81.534
X98.547Y-84.074
X108.199Y-45.847
X108.199Y-48.387
X108.199Y-50.927
X108.199Y-53.467
X108.199Y-56.007
X108.199Y-58.547
X108.199Y-61.087
X108.199Y-63.627
X108.199Y-66.167
X108.199Y-68.707
X108.199Y-71.247
X108.199Y-73.787
X108.199Y-76.327
X108.199Y-78.867
X108.199Y-81.407
X108.199Y-83.947
X108.199Y-96.505
X108.199Y-99.045
X108.199Y-101.585
X108.199Y-104.125
X108.199Y-106.665
X108.199Y-109.205
X108.199Y-111.745
X108.199Y-114.285
X108.199Y-116.825
X108.199Y-119.365
X108.199Y-121.905
X108.199Y-124.445
X108.199Y-126.985
X108.199Y-129.525
X123.439Y-45.847
X123.439Y-48.387
X123.439Y-50.927
X123.439Y-53.467
X123.439Y-56.007
X123.439Y-58.547
X123.439Y-61.087
X123.439Y-63.627
X123.439Y-66.167
X123.439Y-68.707
X123.439Y-71.247
X123.439Y-73.787
X123.439Y-76.327
X123.439Y-78.867
X123.439Y-81.407
X123.439Y-83.947
X123.439Y-96.505
X123.439Y-99.045
X123.439Y-101.585
X123.439Y-104.125
X123.439Y-106.665
X123.439Y-109.205
X123.439Y-111.745
X123.439Y-114.285
X123.439Y-116.825
X123.439Y-119.365
X123.439Y-121.905
X123.439Y-124.445
X123.439Y-126.985
X123.439Y-129.525
X146.05Y-81.285
X146.05Y-83.825
X146.05Y-86.365
X146.05Y-88.905
X146.05Y-91.445
X146.05Y-93.985
X146.05Y-96.525
X146.05Y-99.065
X146.05Y-101.605
X146.05Y-104.145
X146.05Y-106.685
X146.05Y-109.225
X146.05Y-111.765
X146.05Y-114.305
X146.05Y-116.845
X146.05Y-119.385
X146.05Y-121.925
X146.05Y-124.465
X146.05Y-127.005
X146.05Y-129.545
X171.45Y-81.285
X171.45Y-83.825
X171.45Y-86.365
X171.45Y-88.905
X171.45Y-91.445
X171.45Y-93.985
X171.45Y-96.525
X171.45Y-99.065
X171.45Y-101.605
X171.45Y-104.145
X171.45Y-106.685
X171.45Y-109.225
X171.45Y-111.765
X171.45Y-114.305
X171.45Y-116.845
X171.45Y-119.385
X171.45Y-121.925
X171.45Y-124.465
X171.45Y-127.005
X171.45Y-129.545
X184.145Y-114.295
X184.145Y-116.835
X184.145Y-119.375
X184.145Y-121.915
X184.145Y-124.455
X184.145Y-126.995
X184.145Y-129.535
X184.145Y-132.075
X184.145Y-134.615
X184.145Y-137.155
X184.145Y-139.695
X184.145Y-142.235
X190.51Y-85.095
X190.51Y-87.635
X190.51Y-90.175
X190.51Y-92.715
X190.51Y-95.255
X190.51Y-97.795
X190.51Y-100.335
X190.51Y-102.875
X190.51Y-105.415
X190.51Y-107.955
X198.13Y-85.095
X198.13Y-87.635
X198.13Y-90.175
X198.13Y-92.715
X198.13Y-95.255
X198.13Y-97.795
X198.13Y-100.335
X198.13Y-102.875
X198.13Y-105.415
X198.13Y-107.955
X199.385Y-114.295
X199.385Y-116.835
X199.385Y-119.375
X199.385Y-121.915
X199.385Y-124.455
X199.385Y-126.995
X199.385Y-129.535
X199.385Y-132.075
X199.385Y-134.615
X199.385Y-137.155
X199.385Y-139.695
X199.385Y-142.235
X213.878Y-101.844
X213.878Y-104.384
X213.878Y-106.924
X213.878Y-109.464
X213.878Y-112.004
X213.878Y-114.544
X213.878Y-117.084
X213.878Y-119.624
X221.498Y-101.844
X221.498Y-104.384
X221.498Y-106.924
X221.498Y-109.464
X221.498Y-112.004
X221.498Y-114.544
X221.498Y-117.084
X221.498Y-119.624
T4
X177.8Y-46.99
X177.8Y-49.53
X177.8Y-53.34
X177.8Y-55.88
X222.758Y-125.984
X225.298Y-125.984
T5
X51.054Y-133.604
X51.054Y-141.224
X66.294Y-133.604
X66.294Y-141.224
X131.953Y-141.732
X131.953Y-144.272
X134.493Y-141.732
X134.493Y-144.272
X136.271Y-45.148
X137.033Y-141.732
X137.033Y-144.272
X138.811Y-45.148
X139.573Y-141.732
X139.573Y-144.272
X141.351Y-45.148
X142.113Y-141.732
X142.113Y-144.272
X143.891Y-45.148
X144.653Y-141.732
X144.653Y-144.272
X146.431Y-45.148
X147.193Y-141.732
X147.193Y-144.272
X148.971Y-45.148
X149.733Y-141.732
X149.733Y-144.272
X158.75Y-59.69
X158.75Y-74.93
X159.691Y-48.931
X159.691Y-53.431
X160.909Y-142.621
X163.449Y-142.621
X165.989Y-142.621
X166.191Y-48.931
X166.191Y-53.431
X166.37Y-59.69
X166.37Y-74.93
X168.529Y-142.621
X171.069Y-142.621
X173.609Y-142.621
X233.188Y-88.474
X233.188Y-90.474
X233.188Y-92.474
X233.188Y-94.474
X233.188Y-96.474
X233.188Y-98.474
X233.188Y-100.474
X233.188Y-102.474
X233.188Y-104.474
X233.188Y-106.474
X233.188Y-108.474
X233.188Y-110.474
X233.188Y-112.474
X233.188Y-114.474
X233.188Y-116.474
X233.188Y-118.474
X233.188Y-120.474
X233.188Y-122.474
X233.188Y-124.474
X233.188Y-126.474
X233.188Y-128.474
X233.188Y-130.474
X235.188Y-88.474
X235.188Y-90.474
X235.188Y-92.474
X235.188Y-94.474
X235.188Y-96.474
X235.188Y-98.474
X235.188Y-100.474
X235.188Y-102.474
X235.188Y-104.474
X235.188Y-106.474
X235.188Y-108.474
X235.188Y-110.474
X235.188Y-112.474
X235.188Y-114.474
X235.188Y-116.474
X235.188Y-118.474
X235.188Y-120.474
X235.188Y-122.474
X235.188Y-124.474
X235.188Y-126.474
X235.188Y-128.474
X235.188Y-130.474
T6
X226.983Y-45.974
X232.283Y-45.974
T7
X228.859Y-55.295
X232.109Y-60.095
T8
X225.859Y-60.095
T0
M30
