%TF.GenerationSoftware,KiCad,Pcbnew,6.0.1+dfsg-1~bpo11+1*%
%TF.CreationDate,2022-02-08T06:28:31-06:00*%
%TF.ProjectId,raven68k-rev1,72617665-6e36-4386-9b2d-726576312e6b,rev?*%
%TF.SameCoordinates,Original*%
%TF.FileFunction,Copper,L4,Bot*%
%TF.FilePolarity,Positive*%
%FSLAX46Y46*%
G04 Gerber Fmt 4.6, Leading zero omitted, Abs format (unit mm)*
G04 Created by KiCad (PCBNEW 6.0.1+dfsg-1~bpo11+1) date 2022-02-08 06:28:31*
%MOMM*%
%LPD*%
G01*
G04 APERTURE LIST*
G04 Aperture macros list*
%AMRoundRect*
0 Rectangle with rounded corners*
0 $1 Rounding radius*
0 $2 $3 $4 $5 $6 $7 $8 $9 X,Y pos of 4 corners*
0 Add a 4 corners polygon primitive as box body*
4,1,4,$2,$3,$4,$5,$6,$7,$8,$9,$2,$3,0*
0 Add four circle primitives for the rounded corners*
1,1,$1+$1,$2,$3*
1,1,$1+$1,$4,$5*
1,1,$1+$1,$6,$7*
1,1,$1+$1,$8,$9*
0 Add four rect primitives between the rounded corners*
20,1,$1+$1,$2,$3,$4,$5,0*
20,1,$1+$1,$4,$5,$6,$7,0*
20,1,$1+$1,$6,$7,$8,$9,0*
20,1,$1+$1,$8,$9,$2,$3,0*%
G04 Aperture macros list end*
%TA.AperFunction,ComponentPad*%
%ADD10R,1.700000X1.700000*%
%TD*%
%TA.AperFunction,ComponentPad*%
%ADD11O,1.700000X1.700000*%
%TD*%
%TA.AperFunction,ComponentPad*%
%ADD12R,2.400000X1.600000*%
%TD*%
%TA.AperFunction,ComponentPad*%
%ADD13O,2.400000X1.600000*%
%TD*%
%TA.AperFunction,ComponentPad*%
%ADD14R,2.500000X2.500000*%
%TD*%
%TA.AperFunction,ComponentPad*%
%ADD15C,2.500000*%
%TD*%
%TA.AperFunction,ComponentPad*%
%ADD16R,1.500000X1.500000*%
%TD*%
%TA.AperFunction,ComponentPad*%
%ADD17C,1.500000*%
%TD*%
%TA.AperFunction,ComponentPad*%
%ADD18R,1.800000X1.800000*%
%TD*%
%TA.AperFunction,ComponentPad*%
%ADD19C,1.800000*%
%TD*%
%TA.AperFunction,ComponentPad*%
%ADD20C,5.340000*%
%TD*%
%TA.AperFunction,ComponentPad*%
%ADD21C,4.575000*%
%TD*%
%TA.AperFunction,ComponentPad*%
%ADD22R,1.100000X1.800000*%
%TD*%
%TA.AperFunction,ComponentPad*%
%ADD23RoundRect,0.275000X-0.275000X-0.625000X0.275000X-0.625000X0.275000X0.625000X-0.275000X0.625000X0*%
%TD*%
%TA.AperFunction,SMDPad,CuDef*%
%ADD24RoundRect,0.250000X0.650000X-0.412500X0.650000X0.412500X-0.650000X0.412500X-0.650000X-0.412500X0*%
%TD*%
%TA.AperFunction,SMDPad,CuDef*%
%ADD25RoundRect,0.250000X-0.412500X-0.650000X0.412500X-0.650000X0.412500X0.650000X-0.412500X0.650000X0*%
%TD*%
%TA.AperFunction,SMDPad,CuDef*%
%ADD26RoundRect,0.250000X0.412500X0.650000X-0.412500X0.650000X-0.412500X-0.650000X0.412500X-0.650000X0*%
%TD*%
%TA.AperFunction,SMDPad,CuDef*%
%ADD27RoundRect,0.250000X0.400000X0.625000X-0.400000X0.625000X-0.400000X-0.625000X0.400000X-0.625000X0*%
%TD*%
%TA.AperFunction,SMDPad,CuDef*%
%ADD28RoundRect,0.250000X-0.400000X-0.625000X0.400000X-0.625000X0.400000X0.625000X-0.400000X0.625000X0*%
%TD*%
%TA.AperFunction,ViaPad*%
%ADD29C,0.800000*%
%TD*%
%TA.AperFunction,Conductor*%
%ADD30C,0.500000*%
%TD*%
%TA.AperFunction,Conductor*%
%ADD31C,0.250000*%
%TD*%
G04 APERTURE END LIST*
D10*
%TO.P,J1,1,Pin_1*%
%TO.N,+3V3*%
X136271000Y-45148500D03*
D11*
%TO.P,J1,2,Pin_2*%
%TO.N,GND*%
X138811000Y-45148500D03*
%TO.P,J1,3,Pin_3*%
%TO.N,Net-(J1-Pad3)*%
X141351000Y-45148500D03*
%TO.P,J1,4,Pin_4*%
%TO.N,Net-(J1-Pad4)*%
X143891000Y-45148500D03*
%TO.P,J1,5,Pin_5*%
%TO.N,Net-(J1-Pad5)*%
X146431000Y-45148500D03*
%TO.P,J1,6,Pin_6*%
%TO.N,Net-(J1-Pad6)*%
X148971000Y-45148500D03*
%TD*%
D12*
%TO.P,U4,1,RS1*%
%TO.N,A1*%
X146050000Y-81285000D03*
D13*
%TO.P,U4,2,IP3*%
%TO.N,IP3*%
X146050000Y-83825000D03*
%TO.P,U4,3,RS2*%
%TO.N,A2*%
X146050000Y-86365000D03*
%TO.P,U4,4,IP1*%
%TO.N,IP1*%
X146050000Y-88905000D03*
%TO.P,U4,5,RS3*%
%TO.N,A3*%
X146050000Y-91445000D03*
%TO.P,U4,6,RS4*%
%TO.N,A4*%
X146050000Y-93985000D03*
%TO.P,U4,7,IP0*%
%TO.N,IP0*%
X146050000Y-96525000D03*
%TO.P,U4,8,R/W*%
%TO.N,R~{W}*%
X146050000Y-99065000D03*
%TO.P,U4,9,DTACK*%
%TO.N,~{DUART_DTACK}*%
X146050000Y-101605000D03*
%TO.P,U4,10,RXDB*%
%TO.N,RxDB*%
X146050000Y-104145000D03*
%TO.P,U4,11,TXDB*%
%TO.N,TxDB*%
X146050000Y-106685000D03*
%TO.P,U4,12,OP1*%
%TO.N,OP1*%
X146050000Y-109225000D03*
%TO.P,U4,13,OP3*%
%TO.N,OP3*%
X146050000Y-111765000D03*
%TO.P,U4,14,OP5*%
%TO.N,OP5*%
X146050000Y-114305000D03*
%TO.P,U4,15,OP7*%
%TO.N,OP7*%
X146050000Y-116845000D03*
%TO.P,U4,16,D1*%
%TO.N,D1*%
X146050000Y-119385000D03*
%TO.P,U4,17,D3*%
%TO.N,D3*%
X146050000Y-121925000D03*
%TO.P,U4,18,D5*%
%TO.N,D5*%
X146050000Y-124465000D03*
%TO.P,U4,19,D7*%
%TO.N,D7*%
X146050000Y-127005000D03*
%TO.P,U4,20,GND*%
%TO.N,GND*%
X146050000Y-129545000D03*
%TO.P,U4,21,IRQ*%
%TO.N,~{IPL0}*%
X171450000Y-129545000D03*
%TO.P,U4,22,D6*%
%TO.N,D6*%
X171450000Y-127005000D03*
%TO.P,U4,23,D4*%
%TO.N,D4*%
X171450000Y-124465000D03*
%TO.P,U4,24,D2*%
%TO.N,D2*%
X171450000Y-121925000D03*
%TO.P,U4,25,D0*%
%TO.N,D0*%
X171450000Y-119385000D03*
%TO.P,U4,26,OP6*%
%TO.N,OP6*%
X171450000Y-116845000D03*
%TO.P,U4,27,OP4*%
%TO.N,OP4*%
X171450000Y-114305000D03*
%TO.P,U4,28,OP2*%
%TO.N,OP2*%
X171450000Y-111765000D03*
%TO.P,U4,29,OP0*%
%TO.N,OP0*%
X171450000Y-109225000D03*
%TO.P,U4,30,TXDA*%
%TO.N,RxDA*%
X171450000Y-106685000D03*
%TO.P,U4,31,RXDA*%
%TO.N,TxDA*%
X171450000Y-104145000D03*
%TO.P,U4,32,X1/CLK*%
%TO.N,Net-(U4-Pad32)*%
X171450000Y-101605000D03*
%TO.P,U4,33,X2*%
%TO.N,unconnected-(U4-Pad33)*%
X171450000Y-99065000D03*
%TO.P,U4,34,RESET*%
%TO.N,~{RESET}*%
X171450000Y-96525000D03*
%TO.P,U4,35,CS*%
%TO.N,~{DUART_CS}*%
X171450000Y-93985000D03*
%TO.P,U4,36,IP2*%
%TO.N,IP2*%
X171450000Y-91445000D03*
%TO.P,U4,37,IACK*%
%TO.N,~{DUART_IACK}*%
X171450000Y-88905000D03*
%TO.P,U4,38,IP5*%
%TO.N,IP5*%
X171450000Y-86365000D03*
%TO.P,U4,39,IP4*%
%TO.N,IP4*%
X171450000Y-83825000D03*
%TO.P,U4,40,VCC*%
%TO.N,+5V*%
X171450000Y-81285000D03*
%TD*%
D12*
%TO.P,U2,1,D4*%
%TO.N,D4*%
X45974000Y-45969000D03*
D13*
%TO.P,U2,2,D3*%
%TO.N,D3*%
X45974000Y-48509000D03*
%TO.P,U2,3,D2*%
%TO.N,D2*%
X45974000Y-51049000D03*
%TO.P,U2,4,D1*%
%TO.N,D1*%
X45974000Y-53589000D03*
%TO.P,U2,5,D0*%
%TO.N,D0*%
X45974000Y-56129000D03*
%TO.P,U2,6,AS*%
%TO.N,~{AS}*%
X45974000Y-58669000D03*
%TO.P,U2,7,UDS*%
%TO.N,~{UDS}*%
X45974000Y-61209000D03*
%TO.P,U2,8,LDS*%
%TO.N,~{LDS}*%
X45974000Y-63749000D03*
%TO.P,U2,9,R/W*%
%TO.N,R~{W}*%
X45974000Y-66289000D03*
%TO.P,U2,10,DTACK*%
%TO.N,~{CPU_DTACK}*%
X45974000Y-68829000D03*
%TO.P,U2,11,BG*%
%TO.N,Net-(R2-Pad2)*%
X45974000Y-71369000D03*
%TO.P,U2,12,BGACK*%
%TO.N,Net-(R1-Pad2)*%
X45974000Y-73909000D03*
%TO.P,U2,13,BR*%
%TO.N,Net-(R3-Pad2)*%
X45974000Y-76449000D03*
%TO.P,U2,14,VCC*%
%TO.N,+5V*%
X45974000Y-78989000D03*
%TO.P,U2,15,CLK*%
%TO.N,Net-(U2-Pad15)*%
X45974000Y-81529000D03*
%TO.P,U2,16,GND*%
%TO.N,GND*%
X45974000Y-84069000D03*
%TO.P,U2,17,HALT*%
%TO.N,~{RESET}*%
X45974000Y-86609000D03*
%TO.P,U2,18,RESET*%
X45974000Y-89149000D03*
%TO.P,U2,19,VMA*%
%TO.N,unconnected-(U2-Pad19)*%
X45974000Y-91689000D03*
%TO.P,U2,20,E*%
%TO.N,unconnected-(U2-Pad20)*%
X45974000Y-94229000D03*
%TO.P,U2,21,VPA*%
%TO.N,Net-(R4-Pad2)*%
X45974000Y-96769000D03*
%TO.P,U2,22,BERR*%
%TO.N,Net-(R5-Pad2)*%
X45974000Y-99309000D03*
%TO.P,U2,23,IPL2*%
%TO.N,~{IPL2}*%
X45974000Y-101849000D03*
%TO.P,U2,24,IPL1*%
%TO.N,~{IPL1}*%
X45974000Y-104389000D03*
%TO.P,U2,25,IPL0*%
%TO.N,~{IPL0}*%
X45974000Y-106929000D03*
%TO.P,U2,26,FC2*%
%TO.N,FC2*%
X45974000Y-109469000D03*
%TO.P,U2,27,FC1*%
%TO.N,FC1*%
X45974000Y-112009000D03*
%TO.P,U2,28,FC0*%
%TO.N,FC0*%
X45974000Y-114549000D03*
%TO.P,U2,29,A1*%
%TO.N,A1*%
X45974000Y-117089000D03*
%TO.P,U2,30,A2*%
%TO.N,A2*%
X45974000Y-119629000D03*
%TO.P,U2,31,A3*%
%TO.N,A3*%
X45974000Y-122169000D03*
%TO.P,U2,32,A4*%
%TO.N,A4*%
X45974000Y-124709000D03*
%TO.P,U2,33,A5*%
%TO.N,A5*%
X71374000Y-124709000D03*
%TO.P,U2,34,A6*%
%TO.N,A6*%
X71374000Y-122169000D03*
%TO.P,U2,35,A7*%
%TO.N,A7*%
X71374000Y-119629000D03*
%TO.P,U2,36,A8*%
%TO.N,A8*%
X71374000Y-117089000D03*
%TO.P,U2,37,A9*%
%TO.N,A9*%
X71374000Y-114549000D03*
%TO.P,U2,38,A10*%
%TO.N,A10*%
X71374000Y-112009000D03*
%TO.P,U2,39,A11*%
%TO.N,A11*%
X71374000Y-109469000D03*
%TO.P,U2,40,A12*%
%TO.N,A12*%
X71374000Y-106929000D03*
%TO.P,U2,41,A13*%
%TO.N,A13*%
X71374000Y-104389000D03*
%TO.P,U2,42,A14*%
%TO.N,A14*%
X71374000Y-101849000D03*
%TO.P,U2,43,A15*%
%TO.N,A15*%
X71374000Y-99309000D03*
%TO.P,U2,44,A16*%
%TO.N,A16*%
X71374000Y-96769000D03*
%TO.P,U2,45,A17*%
%TO.N,A17*%
X71374000Y-94229000D03*
%TO.P,U2,46,A18*%
%TO.N,A18*%
X71374000Y-91689000D03*
%TO.P,U2,47,A19*%
%TO.N,A19*%
X71374000Y-89149000D03*
%TO.P,U2,48,A20*%
%TO.N,A20*%
X71374000Y-86609000D03*
%TO.P,U2,49,VCC*%
%TO.N,+5V*%
X71374000Y-84069000D03*
%TO.P,U2,50,A21*%
%TO.N,A21*%
X71374000Y-81529000D03*
%TO.P,U2,51,A22*%
%TO.N,A22*%
X71374000Y-78989000D03*
%TO.P,U2,52,A23*%
%TO.N,A23*%
X71374000Y-76449000D03*
%TO.P,U2,53,GND*%
%TO.N,GND*%
X71374000Y-73909000D03*
%TO.P,U2,54,D15*%
%TO.N,D15*%
X71374000Y-71369000D03*
%TO.P,U2,55,D14*%
%TO.N,D14*%
X71374000Y-68829000D03*
%TO.P,U2,56,D13*%
%TO.N,D13*%
X71374000Y-66289000D03*
%TO.P,U2,57,D12*%
%TO.N,D12*%
X71374000Y-63749000D03*
%TO.P,U2,58,D11*%
%TO.N,D11*%
X71374000Y-61209000D03*
%TO.P,U2,59,D10*%
%TO.N,D10*%
X71374000Y-58669000D03*
%TO.P,U2,60,D9*%
%TO.N,D9*%
X71374000Y-56129000D03*
%TO.P,U2,61,D8*%
%TO.N,D8*%
X71374000Y-53589000D03*
%TO.P,U2,62,D7*%
%TO.N,D7*%
X71374000Y-51049000D03*
%TO.P,U2,63,D6*%
%TO.N,D6*%
X71374000Y-48509000D03*
%TO.P,U2,64,D5*%
%TO.N,D5*%
X71374000Y-45969000D03*
%TD*%
D12*
%TO.P,U5,1,OE*%
%TO.N,GND*%
X190510000Y-85095000D03*
D13*
%TO.P,U5,2,O0*%
%TO.N,D0*%
X190510000Y-87635000D03*
%TO.P,U5,3,D0*%
%TO.N,A1*%
X190510000Y-90175000D03*
%TO.P,U5,4,D1*%
%TO.N,A2*%
X190510000Y-92715000D03*
%TO.P,U5,5,O1*%
%TO.N,D1*%
X190510000Y-95255000D03*
%TO.P,U5,6,O2*%
%TO.N,D2*%
X190510000Y-97795000D03*
%TO.P,U5,7,D2*%
%TO.N,A3*%
X190510000Y-100335000D03*
%TO.P,U5,8,D3*%
%TO.N,A4*%
X190510000Y-102875000D03*
%TO.P,U5,9,O3*%
%TO.N,D3*%
X190510000Y-105415000D03*
%TO.P,U5,10,GND*%
%TO.N,GND*%
X190510000Y-107955000D03*
%TO.P,U5,11,LE*%
%TO.N,NOT_AS*%
X198130000Y-107955000D03*
%TO.P,U5,12,O4*%
%TO.N,D4*%
X198130000Y-105415000D03*
%TO.P,U5,13,D4*%
%TO.N,A5*%
X198130000Y-102875000D03*
%TO.P,U5,14,D5*%
%TO.N,A6*%
X198130000Y-100335000D03*
%TO.P,U5,15,O5*%
%TO.N,D5*%
X198130000Y-97795000D03*
%TO.P,U5,16,O6*%
%TO.N,D6*%
X198130000Y-95255000D03*
%TO.P,U5,17,D6*%
%TO.N,A7*%
X198130000Y-92715000D03*
%TO.P,U5,18,D7*%
%TO.N,A8*%
X198130000Y-90175000D03*
%TO.P,U5,19,O7*%
%TO.N,D7*%
X198130000Y-87635000D03*
%TO.P,U5,20,VCC*%
%TO.N,+5V*%
X198130000Y-85095000D03*
%TD*%
D10*
%TO.P,U6,1,+5V*%
%TO.N,unconnected-(U6-Pad1)*%
X160909000Y-142621000D03*
D11*
%TO.P,U6,2,GND*%
%TO.N,GND*%
X163449000Y-142621000D03*
%TO.P,U6,3,TxD*%
%TO.N,TxDA*%
X165989000Y-142621000D03*
%TO.P,U6,4,RxD*%
%TO.N,RxDA*%
X168529000Y-142621000D03*
%TO.P,U6,5,DTR*%
%TO.N,unconnected-(U6-Pad5)*%
X171069000Y-142621000D03*
%TO.P,U6,6,3V3*%
%TO.N,unconnected-(U6-Pad6)*%
X173609000Y-142621000D03*
%TD*%
D14*
%TO.P,X2,1,EN*%
%TO.N,unconnected-(X2-Pad1)*%
X158750000Y-59690000D03*
D15*
%TO.P,X2,7,GND*%
%TO.N,GND*%
X158750000Y-74930000D03*
%TO.P,X2,8,OUT*%
%TO.N,Net-(U4-Pad32)*%
X166370000Y-74930000D03*
%TO.P,X2,14,Vcc*%
%TO.N,+5V*%
X166370000Y-59690000D03*
%TD*%
D12*
%TO.P,U10,1,A14*%
%TO.N,A15*%
X108199000Y-96505000D03*
D13*
%TO.P,U10,2,A12*%
%TO.N,A13*%
X108199000Y-99045000D03*
%TO.P,U10,3,A7*%
%TO.N,A8*%
X108199000Y-101585000D03*
%TO.P,U10,4,A6*%
%TO.N,A7*%
X108199000Y-104125000D03*
%TO.P,U10,5,A5*%
%TO.N,A6*%
X108199000Y-106665000D03*
%TO.P,U10,6,A4*%
%TO.N,A5*%
X108199000Y-109205000D03*
%TO.P,U10,7,A3*%
%TO.N,A4*%
X108199000Y-111745000D03*
%TO.P,U10,8,A2*%
%TO.N,A3*%
X108199000Y-114285000D03*
%TO.P,U10,9,A1*%
%TO.N,A2*%
X108199000Y-116825000D03*
%TO.P,U10,10,A0*%
%TO.N,A1*%
X108199000Y-119365000D03*
%TO.P,U10,11,D0*%
%TO.N,D8*%
X108199000Y-121905000D03*
%TO.P,U10,12,D1*%
%TO.N,D9*%
X108199000Y-124445000D03*
%TO.P,U10,13,D2*%
%TO.N,D10*%
X108199000Y-126985000D03*
%TO.P,U10,14,GND*%
%TO.N,GND*%
X108199000Y-129525000D03*
%TO.P,U10,15,D3*%
%TO.N,D11*%
X123439000Y-129525000D03*
%TO.P,U10,16,D4*%
%TO.N,D12*%
X123439000Y-126985000D03*
%TO.P,U10,17,D5*%
%TO.N,D13*%
X123439000Y-124445000D03*
%TO.P,U10,18,D6*%
%TO.N,D14*%
X123439000Y-121905000D03*
%TO.P,U10,19,D7*%
%TO.N,D15*%
X123439000Y-119365000D03*
%TO.P,U10,20,~{CS}*%
%TO.N,~{ROM_UCE}*%
X123439000Y-116825000D03*
%TO.P,U10,21,A10*%
%TO.N,A11*%
X123439000Y-114285000D03*
%TO.P,U10,22,~{OE}*%
%TO.N,~{OE}*%
X123439000Y-111745000D03*
%TO.P,U10,23,A11*%
%TO.N,A12*%
X123439000Y-109205000D03*
%TO.P,U10,24,A9*%
%TO.N,A10*%
X123439000Y-106665000D03*
%TO.P,U10,25,A8*%
%TO.N,A9*%
X123439000Y-104125000D03*
%TO.P,U10,26,A13*%
%TO.N,A14*%
X123439000Y-101585000D03*
%TO.P,U10,27,~{WE}*%
%TO.N,+5V*%
X123439000Y-99045000D03*
%TO.P,U10,28,VCC*%
X123439000Y-96505000D03*
%TD*%
D12*
%TO.P,U11,1,A14*%
%TO.N,A15*%
X83053000Y-96505000D03*
D13*
%TO.P,U11,2,A12*%
%TO.N,A13*%
X83053000Y-99045000D03*
%TO.P,U11,3,A7*%
%TO.N,A8*%
X83053000Y-101585000D03*
%TO.P,U11,4,A6*%
%TO.N,A7*%
X83053000Y-104125000D03*
%TO.P,U11,5,A5*%
%TO.N,A6*%
X83053000Y-106665000D03*
%TO.P,U11,6,A4*%
%TO.N,A5*%
X83053000Y-109205000D03*
%TO.P,U11,7,A3*%
%TO.N,A4*%
X83053000Y-111745000D03*
%TO.P,U11,8,A2*%
%TO.N,A3*%
X83053000Y-114285000D03*
%TO.P,U11,9,A1*%
%TO.N,A2*%
X83053000Y-116825000D03*
%TO.P,U11,10,A0*%
%TO.N,A1*%
X83053000Y-119365000D03*
%TO.P,U11,11,D0*%
%TO.N,D0*%
X83053000Y-121905000D03*
%TO.P,U11,12,D1*%
%TO.N,D1*%
X83053000Y-124445000D03*
%TO.P,U11,13,D2*%
%TO.N,D2*%
X83053000Y-126985000D03*
%TO.P,U11,14,GND*%
%TO.N,GND*%
X83053000Y-129525000D03*
%TO.P,U11,15,D3*%
%TO.N,D3*%
X98293000Y-129525000D03*
%TO.P,U11,16,D4*%
%TO.N,D4*%
X98293000Y-126985000D03*
%TO.P,U11,17,D5*%
%TO.N,D5*%
X98293000Y-124445000D03*
%TO.P,U11,18,D6*%
%TO.N,D6*%
X98293000Y-121905000D03*
%TO.P,U11,19,D7*%
%TO.N,D7*%
X98293000Y-119365000D03*
%TO.P,U11,20,~{CS}*%
%TO.N,~{ROM_LCE}*%
X98293000Y-116825000D03*
%TO.P,U11,21,A10*%
%TO.N,A11*%
X98293000Y-114285000D03*
%TO.P,U11,22,~{OE}*%
%TO.N,~{OE}*%
X98293000Y-111745000D03*
%TO.P,U11,23,A11*%
%TO.N,A12*%
X98293000Y-109205000D03*
%TO.P,U11,24,A9*%
%TO.N,A10*%
X98293000Y-106665000D03*
%TO.P,U11,25,A8*%
%TO.N,A9*%
X98293000Y-104125000D03*
%TO.P,U11,26,A13*%
%TO.N,A14*%
X98293000Y-101585000D03*
%TO.P,U11,27,~{WE}*%
%TO.N,+5V*%
X98293000Y-99045000D03*
%TO.P,U11,28,VCC*%
X98293000Y-96505000D03*
%TD*%
D12*
%TO.P,U9,1,A18*%
%TO.N,A19*%
X108199000Y-45847000D03*
D13*
%TO.P,U9,2,A16*%
%TO.N,A17*%
X108199000Y-48387000D03*
%TO.P,U9,3,A14*%
%TO.N,A15*%
X108199000Y-50927000D03*
%TO.P,U9,4,A12*%
%TO.N,A13*%
X108199000Y-53467000D03*
%TO.P,U9,5,A7*%
%TO.N,A8*%
X108199000Y-56007000D03*
%TO.P,U9,6,A6*%
%TO.N,A7*%
X108199000Y-58547000D03*
%TO.P,U9,7,A5*%
%TO.N,A6*%
X108199000Y-61087000D03*
%TO.P,U9,8,A4*%
%TO.N,A5*%
X108199000Y-63627000D03*
%TO.P,U9,9,A3*%
%TO.N,A4*%
X108199000Y-66167000D03*
%TO.P,U9,10,A2*%
%TO.N,A3*%
X108199000Y-68707000D03*
%TO.P,U9,11,A1*%
%TO.N,A2*%
X108199000Y-71247000D03*
%TO.P,U9,12,A0*%
%TO.N,A1*%
X108199000Y-73787000D03*
%TO.P,U9,13,D0*%
%TO.N,D8*%
X108199000Y-76327000D03*
%TO.P,U9,14,D1*%
%TO.N,D9*%
X108199000Y-78867000D03*
%TO.P,U9,15,D2*%
%TO.N,D10*%
X108199000Y-81407000D03*
%TO.P,U9,16,VSS*%
%TO.N,GND*%
X108199000Y-83947000D03*
%TO.P,U9,17,D3*%
%TO.N,D11*%
X123439000Y-83947000D03*
%TO.P,U9,18,D4*%
%TO.N,D12*%
X123439000Y-81407000D03*
%TO.P,U9,19,D5*%
%TO.N,D13*%
X123439000Y-78867000D03*
%TO.P,U9,20,D6*%
%TO.N,D14*%
X123439000Y-76327000D03*
%TO.P,U9,21,D7*%
%TO.N,D15*%
X123439000Y-73787000D03*
%TO.P,U9,22,/CE*%
%TO.N,~{RAM_UCE}*%
X123439000Y-71247000D03*
%TO.P,U9,23,A10*%
%TO.N,A11*%
X123439000Y-68707000D03*
%TO.P,U9,24,/OE*%
%TO.N,~{OE}*%
X123439000Y-66167000D03*
%TO.P,U9,25,A11*%
%TO.N,A12*%
X123439000Y-63627000D03*
%TO.P,U9,26,A9*%
%TO.N,A10*%
X123439000Y-61087000D03*
%TO.P,U9,27,A8*%
%TO.N,A9*%
X123439000Y-58547000D03*
%TO.P,U9,28,A13*%
%TO.N,A14*%
X123439000Y-56007000D03*
%TO.P,U9,29,/WE*%
%TO.N,~{WE}*%
X123439000Y-53467000D03*
%TO.P,U9,30,A17*%
%TO.N,A18*%
X123439000Y-50927000D03*
%TO.P,U9,31,A15*%
%TO.N,A16*%
X123439000Y-48387000D03*
%TO.P,U9,32,VCC*%
%TO.N,+5V*%
X123439000Y-45847000D03*
%TD*%
D12*
%TO.P,U8,1,A18*%
%TO.N,A19*%
X83307000Y-45974000D03*
D13*
%TO.P,U8,2,A16*%
%TO.N,A17*%
X83307000Y-48514000D03*
%TO.P,U8,3,A14*%
%TO.N,A15*%
X83307000Y-51054000D03*
%TO.P,U8,4,A12*%
%TO.N,A13*%
X83307000Y-53594000D03*
%TO.P,U8,5,A7*%
%TO.N,A8*%
X83307000Y-56134000D03*
%TO.P,U8,6,A6*%
%TO.N,A7*%
X83307000Y-58674000D03*
%TO.P,U8,7,A5*%
%TO.N,A6*%
X83307000Y-61214000D03*
%TO.P,U8,8,A4*%
%TO.N,A5*%
X83307000Y-63754000D03*
%TO.P,U8,9,A3*%
%TO.N,A4*%
X83307000Y-66294000D03*
%TO.P,U8,10,A2*%
%TO.N,A3*%
X83307000Y-68834000D03*
%TO.P,U8,11,A1*%
%TO.N,A2*%
X83307000Y-71374000D03*
%TO.P,U8,12,A0*%
%TO.N,A1*%
X83307000Y-73914000D03*
%TO.P,U8,13,D0*%
%TO.N,D0*%
X83307000Y-76454000D03*
%TO.P,U8,14,D1*%
%TO.N,D1*%
X83307000Y-78994000D03*
%TO.P,U8,15,D2*%
%TO.N,D2*%
X83307000Y-81534000D03*
%TO.P,U8,16,VSS*%
%TO.N,GND*%
X83307000Y-84074000D03*
%TO.P,U8,17,D3*%
%TO.N,D3*%
X98547000Y-84074000D03*
%TO.P,U8,18,D4*%
%TO.N,D4*%
X98547000Y-81534000D03*
%TO.P,U8,19,D5*%
%TO.N,D5*%
X98547000Y-78994000D03*
%TO.P,U8,20,D6*%
%TO.N,D6*%
X98547000Y-76454000D03*
%TO.P,U8,21,D7*%
%TO.N,D7*%
X98547000Y-73914000D03*
%TO.P,U8,22,/CE*%
%TO.N,~{RAM_LCE}*%
X98547000Y-71374000D03*
%TO.P,U8,23,A10*%
%TO.N,A11*%
X98547000Y-68834000D03*
%TO.P,U8,24,/OE*%
%TO.N,~{OE}*%
X98547000Y-66294000D03*
%TO.P,U8,25,A11*%
%TO.N,A12*%
X98547000Y-63754000D03*
%TO.P,U8,26,A9*%
%TO.N,A10*%
X98547000Y-61214000D03*
%TO.P,U8,27,A8*%
%TO.N,A9*%
X98547000Y-58674000D03*
%TO.P,U8,28,A13*%
%TO.N,A14*%
X98547000Y-56134000D03*
%TO.P,U8,29,/WE*%
%TO.N,~{WE}*%
X98547000Y-53594000D03*
%TO.P,U8,30,A17*%
%TO.N,A18*%
X98547000Y-51054000D03*
%TO.P,U8,31,A15*%
%TO.N,A16*%
X98547000Y-48514000D03*
%TO.P,U8,32,VCC*%
%TO.N,+5V*%
X98547000Y-45974000D03*
%TD*%
D12*
%TO.P,U7,1,MOT*%
%TO.N,+5V*%
X184145000Y-114295000D03*
D13*
%TO.P,U7,2*%
%TO.N,N/C*%
X184145000Y-116835000D03*
%TO.P,U7,3*%
X184145000Y-119375000D03*
%TO.P,U7,4,AD0*%
%TO.N,D0*%
X184145000Y-121915000D03*
%TO.P,U7,5,AD1*%
%TO.N,D1*%
X184145000Y-124455000D03*
%TO.P,U7,6,AD2*%
%TO.N,D2*%
X184145000Y-126995000D03*
%TO.P,U7,7,AD3*%
%TO.N,D3*%
X184145000Y-129535000D03*
%TO.P,U7,8,AD4*%
%TO.N,D4*%
X184145000Y-132075000D03*
%TO.P,U7,9,AD5*%
%TO.N,D5*%
X184145000Y-134615000D03*
%TO.P,U7,10,AD6*%
%TO.N,D6*%
X184145000Y-137155000D03*
%TO.P,U7,11,AD7*%
%TO.N,D7*%
X184145000Y-139695000D03*
%TO.P,U7,12,GND*%
%TO.N,GND*%
X184145000Y-142235000D03*
%TO.P,U7,13,~{CS}*%
%TO.N,~{RTC_CS}*%
X199385000Y-142235000D03*
%TO.P,U7,14,AS*%
%TO.N,NOT_AS*%
X199385000Y-139695000D03*
%TO.P,U7,15,R/~{W}*%
%TO.N,R~{W}*%
X199385000Y-137155000D03*
%TO.P,U7,16*%
%TO.N,N/C*%
X199385000Y-134615000D03*
%TO.P,U7,17,DS*%
%TO.N,NOT_DS*%
X199385000Y-132075000D03*
%TO.P,U7,18,~{RESET}*%
%TO.N,+5V*%
X199385000Y-129535000D03*
%TO.P,U7,19,~{IRQ}*%
%TO.N,~{IPL1}*%
X199385000Y-126995000D03*
%TO.P,U7,20*%
%TO.N,N/C*%
X199385000Y-124455000D03*
%TO.P,U7,21*%
X199385000Y-121915000D03*
%TO.P,U7,22*%
X199385000Y-119375000D03*
%TO.P,U7,23,SQW*%
%TO.N,~{IPL2}*%
X199385000Y-116835000D03*
%TO.P,U7,24,Vcc*%
%TO.N,+5V*%
X199385000Y-114295000D03*
%TD*%
D14*
%TO.P,X1,1,EN*%
%TO.N,unconnected-(X1-Pad1)*%
X51054000Y-141224000D03*
D15*
%TO.P,X1,7,GND*%
%TO.N,GND*%
X66294000Y-141224000D03*
%TO.P,X1,8,OUT*%
%TO.N,Net-(U2-Pad15)*%
X66294000Y-133604000D03*
%TO.P,X1,14,Vcc*%
%TO.N,+5V*%
X51054000Y-133604000D03*
%TD*%
D10*
%TO.P,J2,1,Pin_1*%
%TO.N,OP0*%
X131953000Y-144272000D03*
D11*
%TO.P,J2,2,Pin_2*%
%TO.N,TxDB*%
X131953000Y-141732000D03*
%TO.P,J2,3,Pin_3*%
%TO.N,OP1*%
X134493000Y-144272000D03*
%TO.P,J2,4,Pin_4*%
%TO.N,RxDB*%
X134493000Y-141732000D03*
%TO.P,J2,5,Pin_5*%
%TO.N,OP2*%
X137033000Y-144272000D03*
%TO.P,J2,6,Pin_6*%
%TO.N,IP0*%
X137033000Y-141732000D03*
%TO.P,J2,7,Pin_7*%
%TO.N,OP3*%
X139573000Y-144272000D03*
%TO.P,J2,8,Pin_8*%
%TO.N,IP1*%
X139573000Y-141732000D03*
%TO.P,J2,9,Pin_9*%
%TO.N,OP4*%
X142113000Y-144272000D03*
%TO.P,J2,10,Pin_10*%
%TO.N,IP2*%
X142113000Y-141732000D03*
%TO.P,J2,11,Pin_11*%
%TO.N,OP5*%
X144653000Y-144272000D03*
%TO.P,J2,12,Pin_12*%
%TO.N,IP3*%
X144653000Y-141732000D03*
%TO.P,J2,13,Pin_13*%
%TO.N,OP6*%
X147193000Y-144272000D03*
%TO.P,J2,14,Pin_14*%
%TO.N,IP4*%
X147193000Y-141732000D03*
%TO.P,J2,15,Pin_15*%
%TO.N,OP7*%
X149733000Y-144272000D03*
%TO.P,J2,16,Pin_16*%
%TO.N,IP5*%
X149733000Y-141732000D03*
%TD*%
D16*
%TO.P,H1,1,1*%
%TO.N,Net-(H1-Pad1)*%
X233188000Y-88474000D03*
D17*
%TO.P,H1,2,2*%
%TO.N,GND*%
X235188000Y-88474000D03*
%TO.P,H1,3,3*%
%TO.N,D7*%
X233188000Y-90474000D03*
%TO.P,H1,4,4*%
%TO.N,D8*%
X235188000Y-90474000D03*
%TO.P,H1,5,5*%
%TO.N,D6*%
X233188000Y-92474000D03*
%TO.P,H1,6,6*%
%TO.N,D9*%
X235188000Y-92474000D03*
%TO.P,H1,7,7*%
%TO.N,D5*%
X233188000Y-94474000D03*
%TO.P,H1,8,8*%
%TO.N,D10*%
X235188000Y-94474000D03*
%TO.P,H1,9,9*%
%TO.N,D4*%
X233188000Y-96474000D03*
%TO.P,H1,10,10*%
%TO.N,D11*%
X235188000Y-96474000D03*
%TO.P,H1,11,11*%
%TO.N,D3*%
X233188000Y-98474000D03*
%TO.P,H1,12,12*%
%TO.N,D12*%
X235188000Y-98474000D03*
%TO.P,H1,13,13*%
%TO.N,D2*%
X233188000Y-100474000D03*
%TO.P,H1,14,14*%
%TO.N,D13*%
X235188000Y-100474000D03*
%TO.P,H1,15,15*%
%TO.N,D1*%
X233188000Y-102474000D03*
%TO.P,H1,16,16*%
%TO.N,D14*%
X235188000Y-102474000D03*
%TO.P,H1,17,17*%
%TO.N,D0*%
X233188000Y-104474000D03*
%TO.P,H1,18,18*%
%TO.N,D15*%
X235188000Y-104474000D03*
%TO.P,H1,19,19*%
%TO.N,GND*%
X233188000Y-106474000D03*
%TO.P,H1,20,20*%
%TO.N,unconnected-(H1-Pad20)*%
X235188000Y-106474000D03*
%TO.P,H1,21,21*%
%TO.N,Net-(H1-Pad21)*%
X233188000Y-108474000D03*
%TO.P,H1,22,22*%
%TO.N,GND*%
X235188000Y-108474000D03*
%TO.P,H1,23,23*%
%TO.N,Net-(H1-Pad23)*%
X233188000Y-110474000D03*
%TO.P,H1,24,24*%
%TO.N,GND*%
X235188000Y-110474000D03*
%TO.P,H1,25,25*%
%TO.N,Net-(H1-Pad25)*%
X233188000Y-112474000D03*
%TO.P,H1,26,26*%
%TO.N,GND*%
X235188000Y-112474000D03*
%TO.P,H1,27,27*%
%TO.N,unconnected-(H1-Pad27)*%
X233188000Y-114474000D03*
%TO.P,H1,28,28*%
%TO.N,GND*%
X235188000Y-114474000D03*
%TO.P,H1,29,29*%
%TO.N,Net-(H1-Pad29)*%
X233188000Y-116474000D03*
%TO.P,H1,30,30*%
%TO.N,GND*%
X235188000Y-116474000D03*
%TO.P,H1,31,31*%
%TO.N,~{IPL1}*%
X233188000Y-118474000D03*
%TO.P,H1,32,32*%
%TO.N,unconnected-(H1-Pad32)*%
X235188000Y-118474000D03*
%TO.P,H1,33,33*%
%TO.N,Net-(H1-Pad33)*%
X233188000Y-120474000D03*
%TO.P,H1,34,34*%
%TO.N,unconnected-(H1-Pad34)*%
X235188000Y-120474000D03*
%TO.P,H1,35,35*%
%TO.N,Net-(H1-Pad35)*%
X233188000Y-122474000D03*
%TO.P,H1,36,36*%
%TO.N,Net-(H1-Pad36)*%
X235188000Y-122474000D03*
%TO.P,H1,37,37*%
%TO.N,~{IDE_CS1}*%
X233188000Y-124474000D03*
%TO.P,H1,38,38*%
%TO.N,~{IDE_CS2}*%
X235188000Y-124474000D03*
%TO.P,H1,39,39*%
%TO.N,~{IDE_LED}*%
X233188000Y-126474000D03*
%TO.P,H1,40,40*%
%TO.N,GND*%
X235188000Y-126474000D03*
%TO.P,H1,41,41*%
%TO.N,+5V*%
X233188000Y-128474000D03*
%TO.P,H1,42,42*%
X235188000Y-128474000D03*
%TO.P,H1,43,43*%
%TO.N,GND*%
X233188000Y-130474000D03*
%TO.P,H1,44,44*%
%TO.N,unconnected-(H1-Pad44)*%
X235188000Y-130474000D03*
%TD*%
D12*
%TO.P,RN1,1,R1.1*%
%TO.N,~{RESET}*%
X213878000Y-101844000D03*
D13*
%TO.P,RN1,2,R2.1*%
%TO.N,Net-(H1-Pad23)*%
X213878000Y-104384000D03*
%TO.P,RN1,3,R3.1*%
%TO.N,Net-(H1-Pad33)*%
X213878000Y-106924000D03*
%TO.P,RN1,4,R4.1*%
%TO.N,Net-(H1-Pad35)*%
X213878000Y-109464000D03*
%TO.P,RN1,5,R5.1*%
%TO.N,Net-(H1-Pad25)*%
X213878000Y-112004000D03*
%TO.P,RN1,6,R6.1*%
%TO.N,Net-(H1-Pad36)*%
X213878000Y-114544000D03*
%TO.P,RN1,7,R7.1*%
%TO.N,unconnected-(RN1-Pad7)*%
X213878000Y-117084000D03*
%TO.P,RN1,8,R8.1*%
%TO.N,unconnected-(RN1-Pad8)*%
X213878000Y-119624000D03*
%TO.P,RN1,9,R8.2*%
%TO.N,unconnected-(RN1-Pad9)*%
X221498000Y-119624000D03*
%TO.P,RN1,10,R7.2*%
%TO.N,unconnected-(RN1-Pad10)*%
X221498000Y-117084000D03*
%TO.P,RN1,11,R6.2*%
%TO.N,A3*%
X221498000Y-114544000D03*
%TO.P,RN1,12,R5.2*%
%TO.N,~{OE}*%
X221498000Y-112004000D03*
%TO.P,RN1,13,R4.2*%
%TO.N,A1*%
X221498000Y-109464000D03*
%TO.P,RN1,14,R3.2*%
%TO.N,A2*%
X221498000Y-106924000D03*
%TO.P,RN1,15,R2.2*%
%TO.N,~{WE}*%
X221498000Y-104384000D03*
%TO.P,RN1,16,R1.2*%
%TO.N,Net-(H1-Pad1)*%
X221498000Y-101844000D03*
%TD*%
D18*
%TO.P,D3,1,K*%
%TO.N,GND*%
X177800000Y-55880000D03*
D19*
%TO.P,D3,2,A*%
%TO.N,Net-(D3-Pad2)*%
X177800000Y-53340000D03*
%TD*%
D18*
%TO.P,D4,1,K*%
%TO.N,GND*%
X177800000Y-46990000D03*
D19*
%TO.P,D4,2,A*%
%TO.N,Net-(D4-Pad2)*%
X177800000Y-49530000D03*
%TD*%
D18*
%TO.P,D5,1,K*%
%TO.N,~{IDE_LED}*%
X225298000Y-125984000D03*
D19*
%TO.P,D5,2,A*%
%TO.N,Net-(D5-Pad2)*%
X222758000Y-125984000D03*
%TD*%
D20*
%TO.P,J3,1,1*%
%TO.N,VDD*%
X225859000Y-60095000D03*
D21*
%TO.P,J3,2,2*%
%TO.N,GND*%
X228859000Y-55295000D03*
%TO.P,J3,3,3*%
X232109000Y-60095000D03*
%TD*%
D19*
%TO.P,S2,1,ON*%
%TO.N,VDD*%
X232283000Y-45974000D03*
%TO.P,S2,6,OFF*%
%TO.N,Net-(C12-Pad2)*%
X226983000Y-45974000D03*
%TD*%
D22*
%TO.P,U1,1,~{RST}*%
%TO.N,~{RESET}*%
X162560000Y-42310000D03*
D23*
%TO.P,U1,2,VDD*%
%TO.N,+5V*%
X163830000Y-40240000D03*
%TO.P,U1,3,VSS*%
%TO.N,GND*%
X165100000Y-42310000D03*
%TD*%
D16*
%TO.P,SW1,1,NO_1*%
%TO.N,+5V*%
X159691000Y-48931000D03*
D17*
%TO.P,SW1,2,NO_2*%
X166191000Y-48931000D03*
%TO.P,SW1,3,COM_1*%
%TO.N,GND*%
X159691000Y-53431000D03*
%TO.P,SW1,4,COM_2*%
X166191000Y-53431000D03*
%TD*%
D24*
%TO.P,C1,2*%
%TO.N,+5V*%
X49276000Y-79209500D03*
%TO.P,C1,1*%
%TO.N,GND*%
X49276000Y-82334500D03*
%TD*%
D25*
%TO.P,C2,1*%
%TO.N,GND*%
X65112500Y-84074000D03*
%TO.P,C2,2*%
%TO.N,+5V*%
X68237500Y-84074000D03*
%TD*%
D24*
%TO.P,C5,1*%
%TO.N,+5V*%
X171450000Y-78524500D03*
%TO.P,C5,2*%
%TO.N,GND*%
X171450000Y-75399500D03*
%TD*%
%TO.P,C6,1*%
%TO.N,+5V*%
X195199000Y-85001500D03*
%TO.P,C6,2*%
%TO.N,GND*%
X195199000Y-81876500D03*
%TD*%
D26*
%TO.P,C7,1*%
%TO.N,+5V*%
X196380500Y-114300000D03*
%TO.P,C7,2*%
%TO.N,GND*%
X193255500Y-114300000D03*
%TD*%
%TO.P,C8,1*%
%TO.N,+5V*%
X95288500Y-46101000D03*
%TO.P,C8,2*%
%TO.N,GND*%
X92163500Y-46101000D03*
%TD*%
%TO.P,C9,1*%
%TO.N,+5V*%
X120053500Y-46101000D03*
%TO.P,C9,2*%
%TO.N,GND*%
X116928500Y-46101000D03*
%TD*%
%TO.P,C11,1*%
%TO.N,+5V*%
X120180500Y-96647000D03*
%TO.P,C11,2*%
%TO.N,GND*%
X117055500Y-96647000D03*
%TD*%
%TO.P,C10,1*%
%TO.N,+5V*%
X95034500Y-96520000D03*
%TO.P,C10,2*%
%TO.N,GND*%
X91909500Y-96520000D03*
%TD*%
D27*
%TO.P,R21,1*%
%TO.N,+5V*%
X225578000Y-129794000D03*
%TO.P,R21,2*%
%TO.N,Net-(D5-Pad2)*%
X222478000Y-129794000D03*
%TD*%
%TO.P,R4,1*%
%TO.N,+5V*%
X52350000Y-96774000D03*
%TO.P,R4,2*%
%TO.N,Net-(R4-Pad2)*%
X49250000Y-96774000D03*
%TD*%
%TO.P,R2,1*%
%TO.N,+5V*%
X52223000Y-71374000D03*
%TO.P,R2,2*%
%TO.N,Net-(R2-Pad2)*%
X49123000Y-71374000D03*
%TD*%
%TO.P,R1,1*%
%TO.N,+5V*%
X52223000Y-73914000D03*
%TO.P,R1,2*%
%TO.N,Net-(R1-Pad2)*%
X49123000Y-73914000D03*
%TD*%
D28*
%TO.P,R6,1*%
%TO.N,~{DUART_DTACK}*%
X148945000Y-101600000D03*
%TO.P,R6,2*%
%TO.N,+5V*%
X152045000Y-101600000D03*
%TD*%
D27*
%TO.P,R8,1*%
%TO.N,~{IPL1}*%
X196368000Y-127000000D03*
%TO.P,R8,2*%
%TO.N,+5V*%
X193268000Y-127000000D03*
%TD*%
%TO.P,R7,1*%
%TO.N,~{IPL0}*%
X168047000Y-129540000D03*
%TO.P,R7,2*%
%TO.N,+5V*%
X164947000Y-129540000D03*
%TD*%
D28*
%TO.P,R10,1*%
%TO.N,+5V*%
X226288000Y-117094000D03*
%TO.P,R10,2*%
%TO.N,Net-(H1-Pad29)*%
X229388000Y-117094000D03*
%TD*%
D27*
%TO.P,R3,1*%
%TO.N,+5V*%
X52223000Y-76454000D03*
%TO.P,R3,2*%
%TO.N,Net-(R3-Pad2)*%
X49123000Y-76454000D03*
%TD*%
%TO.P,R5,1*%
%TO.N,+5V*%
X52350000Y-99187000D03*
%TO.P,R5,2*%
%TO.N,Net-(R5-Pad2)*%
X49250000Y-99187000D03*
%TD*%
%TO.P,R9,1*%
%TO.N,Net-(H1-Pad21)*%
X229388000Y-108204000D03*
%TO.P,R9,2*%
%TO.N,+5V*%
X226288000Y-108204000D03*
%TD*%
D29*
%TO.N,D5*%
X187962400Y-111933100D03*
%TO.N,A4*%
X76261000Y-123259800D03*
X112712400Y-93264700D03*
X145322000Y-65877500D03*
%TO.N,D6*%
X182939500Y-107423900D03*
X176679600Y-127218400D03*
%TO.N,A3*%
X113946400Y-91359500D03*
X144386000Y-66385000D03*
%TO.N,D7*%
X183481400Y-101645000D03*
%TO.N,A2*%
X146836500Y-76720600D03*
X173456800Y-76720600D03*
%TO.N,D8*%
X113603600Y-90089300D03*
X96924200Y-75156500D03*
%TO.N,A1*%
X142578400Y-66073700D03*
X182039600Y-82410300D03*
X120689000Y-68201800D03*
X216483300Y-100880900D03*
%TO.N,D9*%
X112373600Y-88364300D03*
%TO.N,D10*%
X94493900Y-82659300D03*
X215479400Y-80319100D03*
%TO.N,D11*%
X128751300Y-84951400D03*
X95571800Y-87585900D03*
%TO.N,D12*%
X74790700Y-83175000D03*
%TO.N,~{DUART_DTACK}*%
X146326100Y-60185200D03*
%TO.N,D13*%
X74146600Y-82191700D03*
%TO.N,D14*%
X73287500Y-80987600D03*
%TO.N,~{IPL2}*%
X188426900Y-108499800D03*
%TO.N,GND*%
X198249900Y-67397600D03*
X179705000Y-62522500D03*
X212603100Y-45427500D03*
X171450000Y-74135300D03*
X193042700Y-74742000D03*
X200019400Y-73025000D03*
X192999000Y-55346200D03*
X212603100Y-64477500D03*
X200030000Y-54034000D03*
X198234700Y-48362800D03*
X189230000Y-71385200D03*
X115657000Y-46255500D03*
X189230000Y-52375000D03*
X92202000Y-48006000D03*
X116840000Y-98552000D03*
X110490000Y-129540000D03*
X85344000Y-129540000D03*
X186690000Y-142240000D03*
X231648000Y-106172000D03*
X64262000Y-141224000D03*
X163576000Y-145034000D03*
X91948000Y-98298000D03*
X193040000Y-84836000D03*
X193294000Y-116078000D03*
X48260000Y-84074000D03*
X193040000Y-107950000D03*
X236474000Y-131826000D03*
X236728000Y-88646000D03*
X162814000Y-53594000D03*
X158750000Y-72898000D03*
X110744000Y-84074000D03*
X85598000Y-84074000D03*
X148290000Y-129514000D03*
X68834000Y-73914000D03*
X63500000Y-84074000D03*
%TO.N,A23*%
X68614000Y-66535700D03*
%TO.N,+5V*%
X164338000Y-59690000D03*
X193294000Y-124968000D03*
X53848000Y-71374000D03*
X228600000Y-128524000D03*
X164846000Y-127762000D03*
X163068000Y-48768000D03*
X120142000Y-98298000D03*
X94996000Y-98298000D03*
X196342000Y-116332000D03*
X53848000Y-96774000D03*
X53086000Y-133604000D03*
X95250000Y-48006000D03*
X195072000Y-86614000D03*
X152146000Y-99822000D03*
X226314000Y-112776000D03*
%TO.N,A22*%
X67957100Y-65310800D03*
%TO.N,A21*%
X129275400Y-87599300D03*
X138752300Y-65876900D03*
%TO.N,~{RESET}*%
X132665800Y-52821800D03*
%TO.N,A20*%
X137714800Y-65906200D03*
X134652100Y-80857600D03*
%TO.N,~{CPU_DTACK}*%
X66309100Y-50763700D03*
%TO.N,R~{W}*%
X141035500Y-58578400D03*
X128053200Y-46063400D03*
X187662200Y-107821200D03*
%TO.N,A11*%
X94813000Y-112330300D03*
%TO.N,A9*%
X87177600Y-114382200D03*
%TO.N,D0*%
X183710100Y-100520100D03*
%TO.N,D1*%
X185401900Y-100914000D03*
X227887100Y-94811800D03*
%TO.N,D2*%
X210798200Y-100474000D03*
X186333100Y-101655000D03*
%TO.N,D3*%
X127258100Y-121925400D03*
X194743900Y-108453000D03*
%TO.N,D4*%
X202697700Y-133208100D03*
%TO.N,~{DUART_IACK}*%
X138497200Y-51740600D03*
%TO.N,~{ROM_UCE}*%
X141369000Y-55813700D03*
%TO.N,~{ROM_LCE}*%
X142750700Y-55809500D03*
%TO.N,~{RAM_UCE}*%
X141932900Y-51728800D03*
%TO.N,~{IDE_CS1}*%
X168913200Y-113179600D03*
X144097600Y-55961400D03*
%TO.N,~{RAM_LCE}*%
X145097600Y-54541700D03*
X128790200Y-71352500D03*
%TO.N,~{OE}*%
X134779200Y-58679200D03*
%TO.N,NOT_DS*%
X174714400Y-115360200D03*
X146310100Y-57210100D03*
%TO.N,NOT_AS*%
X149045600Y-57038000D03*
%TO.N,Net-(J1-Pad3)*%
X152755300Y-57055400D03*
%TO.N,~{DUART_CS}*%
X161046700Y-66417200D03*
%TO.N,Net-(J1-Pad4)*%
X130535200Y-54950900D03*
%TO.N,Net-(J1-Pad5)*%
X131703800Y-54950900D03*
%TO.N,Net-(J1-Pad6)*%
X132941800Y-54950900D03*
%TO.N,~{RTC_CS}*%
X139660300Y-56122900D03*
%TO.N,IP4*%
X165837800Y-83682200D03*
%TO.N,IP5*%
X166031900Y-86444400D03*
%TO.N,IP2*%
X162656700Y-91464100D03*
%TO.N,TxDB*%
X140010200Y-107049300D03*
%TO.N,RxDB*%
X140303600Y-138807100D03*
%TO.N,OP4*%
X151000200Y-139386900D03*
%TO.N,IP1*%
X137829500Y-139908300D03*
%TO.N,IP3*%
X138355300Y-137884500D03*
%TD*%
D30*
%TO.N,+5V*%
X52223000Y-76454000D02*
X52031500Y-76454000D01*
X52031500Y-76454000D02*
X49276000Y-79209500D01*
X45974000Y-78989000D02*
X49055500Y-78989000D01*
X49055500Y-78989000D02*
X49276000Y-79209500D01*
X49276000Y-79209500D02*
X49467500Y-79209500D01*
%TO.N,GND*%
X48260000Y-84074000D02*
X48260000Y-83350500D01*
X48260000Y-83350500D02*
X49276000Y-82334500D01*
D31*
%TO.N,D5*%
X82545300Y-57404000D02*
X71374000Y-46232700D01*
X99289200Y-72644000D02*
X97755900Y-72644000D01*
X100522600Y-73877400D02*
X99289200Y-72644000D01*
X99818300Y-124445000D02*
X100765600Y-123497700D01*
X97755900Y-72644000D02*
X88020100Y-62908200D01*
X88020100Y-62908200D02*
X88020100Y-61374200D01*
X84049900Y-57404000D02*
X82545300Y-57404000D01*
X96570300Y-80970700D02*
X98547000Y-78994000D01*
X98547000Y-78994000D02*
X100072300Y-78994000D01*
X100522600Y-78543700D02*
X100522600Y-73877400D01*
X187962400Y-111933100D02*
X187962400Y-132322900D01*
X184145000Y-134615000D02*
X185670300Y-134615000D01*
X96570300Y-85881400D02*
X96570300Y-80970700D01*
X100765600Y-123497700D02*
X100765600Y-90076700D01*
X98293000Y-124445000D02*
X99818300Y-124445000D01*
X88020100Y-61374200D02*
X84049900Y-57404000D01*
X100765600Y-90076700D02*
X96570300Y-85881400D01*
X100072300Y-78994000D02*
X100522600Y-78543700D01*
X187962400Y-132322900D02*
X185670300Y-134615000D01*
X71374000Y-46232700D02*
X71374000Y-45969000D01*
%TO.N,A4*%
X106223400Y-66617300D02*
X106673700Y-66167000D01*
X107298600Y-77452400D02*
X106223400Y-76377200D01*
X148475900Y-93084400D02*
X148475900Y-69031400D01*
X148475900Y-69031400D02*
X145322000Y-65877500D01*
X146050000Y-93985000D02*
X147575300Y-93985000D01*
X112712400Y-89072300D02*
X113128100Y-88656600D01*
X147575300Y-93985000D02*
X148475900Y-93084400D01*
X81527700Y-117993100D02*
X76261000Y-123259800D01*
X81527700Y-111745000D02*
X81527700Y-117993100D01*
X108465600Y-111745000D02*
X112712400Y-107498200D01*
X83053000Y-111745000D02*
X81527700Y-111745000D01*
X113128100Y-81775600D02*
X108804900Y-77452400D01*
X112712400Y-107498200D02*
X112712400Y-93264700D01*
X113128100Y-88656600D02*
X113128100Y-81775600D01*
X108199000Y-66167000D02*
X106673700Y-66167000D01*
X106223400Y-76377200D02*
X106223400Y-66617300D01*
X112712400Y-93264700D02*
X112712400Y-89072300D01*
X108804900Y-77452400D02*
X107298600Y-77452400D01*
X108199000Y-111745000D02*
X108465600Y-111745000D01*
%TO.N,D6*%
X72304200Y-54859000D02*
X70615900Y-54859000D01*
X70615900Y-54859000D02*
X69848700Y-54091800D01*
X95669500Y-76637600D02*
X96838100Y-76637600D01*
X98293000Y-121905000D02*
X96767700Y-121905000D01*
X95669500Y-86636600D02*
X99845500Y-90812600D01*
X84055900Y-65024000D02*
X82469200Y-65024000D01*
X181680900Y-136216200D02*
X181680900Y-127218400D01*
X181680900Y-108682500D02*
X181680900Y-127218400D01*
X182939500Y-107423900D02*
X181680900Y-108682500D01*
X82469200Y-65024000D02*
X72304200Y-54859000D01*
X96767700Y-118861400D02*
X96767700Y-121905000D01*
X95669500Y-76637600D02*
X95669500Y-86636600D01*
X69848700Y-54091800D02*
X69848700Y-48509000D01*
X98547000Y-76454000D02*
X97021700Y-76454000D01*
X97534100Y-118095000D02*
X96767700Y-118861400D01*
X182619700Y-137155000D02*
X181680900Y-136216200D01*
X99033200Y-118095000D02*
X97534100Y-118095000D01*
X71374000Y-48509000D02*
X69848700Y-48509000D01*
X181680900Y-127218400D02*
X176679600Y-127218400D01*
X99845500Y-90812600D02*
X99845500Y-117282700D01*
X96838100Y-76637600D02*
X97021700Y-76454000D01*
X95669500Y-76637600D02*
X84055900Y-65024000D01*
X99845500Y-117282700D02*
X99033200Y-118095000D01*
X184145000Y-137155000D02*
X182619700Y-137155000D01*
%TO.N,A3*%
X207461800Y-110734000D02*
X200872800Y-104145000D01*
X114336400Y-80302200D02*
X108946600Y-74912400D01*
X148025600Y-70024600D02*
X144386000Y-66385000D01*
X219972700Y-114544000D02*
X216162700Y-110734000D01*
X108946600Y-74912400D02*
X107290800Y-74912400D01*
X108199000Y-68707000D02*
X106673700Y-68707000D01*
X109724300Y-114285000D02*
X113946400Y-110062900D01*
X113946400Y-110062900D02*
X113946400Y-91359500D01*
X146050000Y-91445000D02*
X147575300Y-91445000D01*
X190510000Y-100335000D02*
X192035300Y-100335000D01*
X106673700Y-74295300D02*
X106673700Y-68707000D01*
X107290800Y-74912400D02*
X106673700Y-74295300D01*
X221498000Y-114544000D02*
X219972700Y-114544000D01*
X200872800Y-104145000D02*
X195845300Y-104145000D01*
X195845300Y-104145000D02*
X192035300Y-100335000D01*
X216162700Y-110734000D02*
X207461800Y-110734000D01*
X113946400Y-91359500D02*
X114336400Y-90969500D01*
X114336400Y-90969500D02*
X114336400Y-80302200D01*
X148025600Y-90994700D02*
X148025600Y-70024600D01*
X147575300Y-91445000D02*
X148025600Y-90994700D01*
X108199000Y-114285000D02*
X109724300Y-114285000D01*
%TO.N,D7*%
X96119900Y-79412400D02*
X96119900Y-86450000D01*
X183664800Y-101828400D02*
X183481400Y-101645000D01*
X183664800Y-107854100D02*
X183664800Y-101828400D01*
X185670300Y-136657900D02*
X184800900Y-135788500D01*
X72899300Y-51049000D02*
X81794300Y-59944000D01*
X183285500Y-135788500D02*
X182144400Y-134647400D01*
X84072900Y-59944000D02*
X97021700Y-72892800D01*
X98547000Y-73914000D02*
X97021700Y-73914000D01*
X97021700Y-72892800D02*
X97021700Y-73914000D01*
X71374000Y-51049000D02*
X72899300Y-51049000D01*
X100315200Y-90645300D02*
X100315200Y-118868100D01*
X184800900Y-135788500D02*
X183285500Y-135788500D01*
X184145000Y-139695000D02*
X185670300Y-139695000D01*
X182144400Y-109374500D02*
X183664800Y-107854100D01*
X185670300Y-139695000D02*
X185670300Y-136657900D01*
X182144400Y-134647400D02*
X182144400Y-109374500D01*
X96119900Y-86450000D02*
X100315200Y-90645300D01*
X99335200Y-77724000D02*
X97808300Y-77724000D01*
X100072300Y-76986900D02*
X99335200Y-77724000D01*
X97808300Y-77724000D02*
X96119900Y-79412400D01*
X98293000Y-119365000D02*
X99818300Y-119365000D01*
X100072300Y-75439300D02*
X100072300Y-76986900D01*
X98547000Y-73914000D02*
X100072300Y-75439300D01*
X100315200Y-118868100D02*
X99818300Y-119365000D01*
X81794300Y-59944000D02*
X84072900Y-59944000D01*
%TO.N,A2*%
X188984700Y-92715000D02*
X188984700Y-92248500D01*
X83053000Y-116825000D02*
X84578300Y-116825000D01*
X146836500Y-76720600D02*
X147575300Y-77459400D01*
X81781700Y-71374000D02*
X80418200Y-72737500D01*
X147575300Y-77459400D02*
X147575300Y-86365000D01*
X219972700Y-105398700D02*
X208703600Y-94129600D01*
X188984700Y-92248500D02*
X173456800Y-76720600D01*
X84578300Y-92463400D02*
X84578300Y-116825000D01*
X146050000Y-86365000D02*
X147575300Y-86365000D01*
X221498000Y-106924000D02*
X219972700Y-106924000D01*
X208703600Y-94129600D02*
X193449900Y-94129600D01*
X219972700Y-106924000D02*
X219972700Y-105398700D01*
X190510000Y-92715000D02*
X192035300Y-92715000D01*
X80418200Y-72737500D02*
X80418200Y-88303300D01*
X193449900Y-94129600D02*
X192035300Y-92715000D01*
X190510000Y-92715000D02*
X188984700Y-92715000D01*
X80418200Y-88303300D02*
X84578300Y-92463400D01*
X83307000Y-71374000D02*
X81781700Y-71374000D01*
%TO.N,D8*%
X113603600Y-80206300D02*
X109724300Y-76327000D01*
X113437700Y-108523500D02*
X113437700Y-92864100D01*
X108199000Y-121905000D02*
X106673700Y-121905000D01*
X113194700Y-90498200D02*
X113603600Y-90089300D01*
X108199000Y-76327000D02*
X109724300Y-76327000D01*
X108946200Y-113015000D02*
X113437700Y-108523500D01*
X113437700Y-92864100D02*
X113194700Y-92621100D01*
X84251700Y-62484000D02*
X81794300Y-62484000D01*
X71374000Y-53589000D02*
X72899300Y-53589000D01*
X107460500Y-113015000D02*
X108946200Y-113015000D01*
X113194700Y-92621100D02*
X113194700Y-90498200D01*
X81794300Y-62484000D02*
X72899300Y-53589000D01*
X106673700Y-121905000D02*
X106673700Y-113801800D01*
X96924200Y-75156500D02*
X84251700Y-62484000D01*
X106673700Y-113801800D02*
X107460500Y-113015000D01*
X113603600Y-90089300D02*
X113603600Y-80206300D01*
%TO.N,A1*%
X196604600Y-91445000D02*
X207047400Y-91445000D01*
X83307000Y-73914000D02*
X81781700Y-73914000D01*
X114786700Y-74104100D02*
X110041400Y-74104100D01*
X80868500Y-74827200D02*
X80868500Y-88110500D01*
X108199000Y-119365000D02*
X109724300Y-119365000D01*
X85034600Y-92276600D02*
X85034600Y-118908700D01*
X110041400Y-74104100D02*
X109724300Y-73787000D01*
X114786700Y-74104100D02*
X120689000Y-68201800D01*
X144524700Y-68020000D02*
X142578400Y-66073700D01*
X195334600Y-90175000D02*
X196604600Y-91445000D01*
X188984700Y-90175000D02*
X188984700Y-89355400D01*
X207047400Y-91445000D02*
X216483300Y-100880900D01*
X83053000Y-119365000D02*
X84578300Y-119365000D01*
X108199000Y-73787000D02*
X109724300Y-73787000D01*
X85034600Y-118908700D02*
X84578300Y-119365000D01*
X188984700Y-89355400D02*
X182039600Y-82410300D01*
X144524700Y-81285000D02*
X144524700Y-68020000D01*
X190510000Y-90175000D02*
X195334600Y-90175000D01*
X190510000Y-90175000D02*
X188984700Y-90175000D01*
X81781700Y-73914000D02*
X80868500Y-74827200D01*
X109724300Y-119365000D02*
X114786700Y-114302600D01*
X146050000Y-81285000D02*
X144524700Y-81285000D01*
X80868500Y-88110500D02*
X85034600Y-92276600D01*
X114786700Y-114302600D02*
X114786700Y-74104100D01*
%TO.N,D9*%
X108199000Y-124445000D02*
X106673700Y-124445000D01*
X106673700Y-124445000D02*
X106220500Y-123991800D01*
X108199000Y-78867000D02*
X108371600Y-78867000D01*
X107332700Y-110619700D02*
X108950900Y-110619700D01*
X106220500Y-123991800D02*
X106220500Y-111731900D01*
X111987000Y-107583600D02*
X111987000Y-88750900D01*
X108950900Y-110619700D02*
X111987000Y-107583600D01*
X108371600Y-78867000D02*
X112418700Y-82914100D01*
X112418700Y-88319200D02*
X112373600Y-88364300D01*
X111987000Y-88750900D02*
X112373600Y-88364300D01*
X112418700Y-82914100D02*
X112418700Y-88319200D01*
X106220500Y-111731900D02*
X107332700Y-110619700D01*
%TO.N,D10*%
X237498500Y-88327000D02*
X229490600Y-80319100D01*
X111084400Y-105835300D02*
X108984700Y-107935000D01*
X72899300Y-58669000D02*
X81794300Y-67564000D01*
X235188000Y-94474000D02*
X237498500Y-92163500D01*
X94493900Y-77973000D02*
X94493900Y-82659300D01*
X107468000Y-107935000D02*
X105749900Y-109653100D01*
X237498500Y-92163500D02*
X237498500Y-88327000D01*
X111518000Y-83785900D02*
X111518000Y-85042300D01*
X105749900Y-109653100D02*
X105749900Y-126061200D01*
X105749900Y-126061200D02*
X106673700Y-126985000D01*
X111518000Y-85042300D02*
X111084400Y-85475900D01*
X229490600Y-80319100D02*
X215479400Y-80319100D01*
X84084900Y-67564000D02*
X94493900Y-77973000D01*
X109139100Y-81407000D02*
X111518000Y-83785900D01*
X108199000Y-81407000D02*
X109139100Y-81407000D01*
X108984700Y-107935000D02*
X107468000Y-107935000D01*
X81794300Y-67564000D02*
X84084900Y-67564000D01*
X111084400Y-85475900D02*
X111084400Y-105835300D01*
X71374000Y-58669000D02*
X72899300Y-58669000D01*
X108199000Y-126985000D02*
X106673700Y-126985000D01*
%TO.N,D11*%
X128536000Y-125953300D02*
X124964300Y-129525000D01*
X84167000Y-70177900D02*
X85233600Y-71244500D01*
X85233600Y-77247700D02*
X95571800Y-87585900D01*
X85233600Y-71244500D02*
X85233600Y-77247700D01*
X71374000Y-61209000D02*
X73363900Y-61209000D01*
X128536000Y-85166700D02*
X128536000Y-125953300D01*
X73363900Y-61209000D02*
X82332800Y-70177900D01*
X128751300Y-84951400D02*
X128536000Y-85166700D01*
X123439000Y-129525000D02*
X124964300Y-129525000D01*
X82332800Y-70177900D02*
X84167000Y-70177900D01*
%TO.N,D12*%
X124237300Y-118101200D02*
X122721400Y-118101200D01*
X125429500Y-125153700D02*
X125429500Y-119293400D01*
X125429500Y-119293400D02*
X124237300Y-118101200D01*
X123439000Y-126985000D02*
X123598200Y-126985000D01*
X122721400Y-118101200D02*
X118740700Y-114120500D01*
X118740700Y-84580000D02*
X121913700Y-81407000D01*
X74871900Y-83093800D02*
X74790700Y-83175000D01*
X118740700Y-114120500D02*
X118740700Y-84580000D01*
X71374000Y-63749000D02*
X74871900Y-67246900D01*
X74871900Y-67246900D02*
X74871900Y-83093800D01*
X123598200Y-126985000D02*
X125429500Y-125153700D01*
X123439000Y-81407000D02*
X121913700Y-81407000D01*
%TO.N,~{DUART_DTACK}*%
X148945000Y-101600000D02*
X149376500Y-101168500D01*
X149376500Y-101168500D02*
X149376500Y-63235600D01*
X149376500Y-63235600D02*
X146326100Y-60185200D01*
D30*
X146050000Y-101605000D02*
X148940000Y-101605000D01*
X148940000Y-101605000D02*
X148945000Y-101600000D01*
D31*
%TO.N,D13*%
X122408200Y-75195600D02*
X116045200Y-81558600D01*
X124964300Y-77341700D02*
X124964300Y-75818700D01*
X124964300Y-75818700D02*
X124341200Y-75195600D01*
X71374000Y-66289000D02*
X72899300Y-66289000D01*
X72899300Y-66289000D02*
X74146600Y-67536300D01*
X123439000Y-78867000D02*
X124964300Y-77341700D01*
X124341200Y-75195600D02*
X122408200Y-75195600D01*
X116045200Y-117051200D02*
X123439000Y-124445000D01*
X74146600Y-67536300D02*
X74146600Y-82191700D01*
X116045200Y-81558600D02*
X116045200Y-117051200D01*
%TO.N,D14*%
X72899300Y-68829000D02*
X72899300Y-80599400D01*
X72899300Y-80599400D02*
X73287500Y-80987600D01*
X121913700Y-76327000D02*
X118290300Y-79950400D01*
X118290300Y-79950400D02*
X118290300Y-118281600D01*
X123439000Y-76327000D02*
X121913700Y-76327000D01*
X123439000Y-121905000D02*
X121913700Y-121905000D01*
X118290300Y-118281600D02*
X121913700Y-121905000D01*
X71374000Y-68829000D02*
X72899300Y-68829000D01*
%TO.N,~{IPL2}*%
X194301700Y-115336600D02*
X194301700Y-113442900D01*
X194301700Y-113442900D02*
X190112000Y-109253200D01*
X196082200Y-117117100D02*
X194301700Y-115336600D01*
X197577600Y-117117100D02*
X196082200Y-117117100D01*
X197859700Y-116835000D02*
X197577600Y-117117100D01*
X199385000Y-116835000D02*
X197859700Y-116835000D01*
X189180300Y-109253200D02*
X188426900Y-108499800D01*
X190112000Y-109253200D02*
X189180300Y-109253200D01*
%TO.N,D15*%
X124979200Y-124907400D02*
X124979200Y-120905200D01*
X121913700Y-73787000D02*
X115594900Y-80105800D01*
X124286200Y-125600400D02*
X124979200Y-124907400D01*
X115594900Y-80105800D02*
X115594900Y-118595900D01*
X122599400Y-125600400D02*
X124286200Y-125600400D01*
X123439000Y-73787000D02*
X121913700Y-73787000D01*
X124979200Y-120905200D02*
X123439000Y-119365000D01*
X115594900Y-118595900D02*
X122599400Y-125600400D01*
D30*
%TO.N,Net-(R5-Pad2)*%
X46096000Y-99187000D02*
X45974000Y-99309000D01*
X49250000Y-99187000D02*
X46096000Y-99187000D01*
%TO.N,GND*%
X159691000Y-53431000D02*
X162651000Y-53431000D01*
X48260000Y-84074000D02*
X45979000Y-84074000D01*
X193275000Y-114319000D02*
X193274500Y-114319000D01*
X45979000Y-84074000D02*
X45974000Y-84069000D01*
X231648000Y-106172000D02*
X232886000Y-106172000D01*
X166191000Y-53431000D02*
X162977000Y-53431000D01*
X108326000Y-84074000D02*
X108199000Y-83947000D01*
X193040000Y-107950000D02*
X190515000Y-107950000D01*
X236982000Y-131318000D02*
X236474000Y-131826000D01*
X190515000Y-107950000D02*
X190510000Y-107955000D01*
X193294000Y-114338000D02*
X193275000Y-114319000D01*
X110744000Y-84074000D02*
X108326000Y-84074000D01*
X116774000Y-46255500D02*
X116840000Y-46189500D01*
X233188000Y-106474000D02*
X235188000Y-108474000D01*
X236456000Y-126474000D02*
X236982000Y-127000000D01*
X184150000Y-142240000D02*
X184145000Y-142235000D01*
X236728000Y-88646000D02*
X235360000Y-88646000D01*
X117056000Y-97491700D02*
X117055500Y-97491200D01*
X92202000Y-46139500D02*
X92163500Y-46101000D01*
X108214000Y-129540000D02*
X108199000Y-129525000D01*
X235188000Y-112474000D02*
X235188000Y-114474000D01*
X186690000Y-142240000D02*
X184150000Y-142240000D01*
X163576000Y-145034000D02*
X163576000Y-142748000D01*
X117056000Y-98336500D02*
X116840000Y-98552000D01*
X91948000Y-96558500D02*
X91909500Y-96520000D01*
X91948000Y-98298000D02*
X91948000Y-96558500D01*
X195199000Y-82677000D02*
X193040000Y-84836000D01*
X92202000Y-48006000D02*
X92202000Y-46139500D01*
X64262000Y-141224000D02*
X66294000Y-141224000D01*
X235188000Y-126474000D02*
X236456000Y-126474000D01*
X148290000Y-129514000D02*
X146081000Y-129514000D01*
X235188000Y-110474000D02*
X235188000Y-112474000D01*
X85598000Y-84074000D02*
X83307000Y-84074000D01*
X63500000Y-84074000D02*
X65112500Y-84074000D01*
X158750000Y-72898000D02*
X158750000Y-74930000D01*
X235360000Y-88646000D02*
X235188000Y-88474000D01*
X190510000Y-85095000D02*
X192781000Y-85095000D01*
X116928500Y-46101000D02*
X116928000Y-46101000D01*
X235188000Y-108474000D02*
X235188000Y-110474000D01*
X236982000Y-127000000D02*
X236982000Y-131318000D01*
X117055500Y-97491200D02*
X117055500Y-96647000D01*
X163576000Y-142748000D02*
X163449000Y-142621000D01*
X195199000Y-81876500D02*
X195199000Y-82677000D01*
X171450000Y-74135300D02*
X171450000Y-75399500D01*
X68834000Y-73914000D02*
X71369000Y-73914000D01*
X146081000Y-129514000D02*
X146050000Y-129545000D01*
X117056000Y-97491700D02*
X117056000Y-98336500D01*
X117056000Y-96647000D02*
X117056000Y-97491700D01*
X193274500Y-114319000D02*
X193255500Y-114300000D01*
X115657000Y-46255500D02*
X116774000Y-46255500D01*
X85329000Y-129525000D02*
X85344000Y-129540000D01*
X192781000Y-85095000D02*
X193040000Y-84836000D01*
X234540000Y-131826000D02*
X236474000Y-131826000D01*
X71369000Y-73914000D02*
X71374000Y-73909000D01*
X193275000Y-114319000D02*
X193256000Y-114300000D01*
X83053000Y-129525000D02*
X85329000Y-129525000D01*
X116840000Y-46189500D02*
X116928000Y-46101000D01*
X233188000Y-130474000D02*
X234540000Y-131826000D01*
X110490000Y-129540000D02*
X108214000Y-129540000D01*
X235188000Y-116474000D02*
X235188000Y-114474000D01*
X232886000Y-106172000D02*
X233188000Y-106474000D01*
X193294000Y-116078000D02*
X193294000Y-114338000D01*
%TO.N,Net-(R4-Pad2)*%
X49250000Y-96774000D02*
X45979000Y-96774000D01*
X45979000Y-96774000D02*
X45974000Y-96769000D01*
D31*
%TO.N,A23*%
X68614000Y-66535700D02*
X68108600Y-67041100D01*
X68108600Y-67041100D02*
X68108600Y-74708900D01*
X68108600Y-74708900D02*
X69848700Y-76449000D01*
X71374000Y-76449000D02*
X69848700Y-76449000D01*
D30*
%TO.N,+5V*%
X166191000Y-48931000D02*
X163231000Y-48931000D01*
X226648000Y-117454000D02*
X226288000Y-117094000D01*
X120054000Y-46101000D02*
X123185000Y-46101000D01*
X120054000Y-45504500D02*
X120054000Y-46101000D01*
X196342000Y-114338000D02*
X196380000Y-114300000D01*
X196380500Y-114300000D02*
X199380000Y-114300000D01*
X233138000Y-128524000D02*
X233188000Y-128474000D01*
X167391000Y-58669500D02*
X166370000Y-59690000D01*
X233188000Y-128474000D02*
X235188000Y-128474000D01*
X227330000Y-129794000D02*
X228600000Y-128524000D01*
X195072000Y-86614000D02*
X195072000Y-85128500D01*
X152146000Y-101499000D02*
X152045000Y-101600000D01*
X196342000Y-116332000D02*
X196342000Y-114338000D01*
X184145000Y-114295000D02*
X184728000Y-114295000D01*
X71369000Y-84074000D02*
X71374000Y-84069000D01*
X199385000Y-129535000D02*
X200451000Y-128469000D01*
X45979000Y-78994000D02*
X45974000Y-78989000D01*
X120054000Y-46101000D02*
X120180000Y-46228000D01*
X95034500Y-96520000D02*
X98278000Y-96520000D01*
X98420000Y-46101000D02*
X98547000Y-45974000D01*
X226314000Y-108230000D02*
X226288000Y-108204000D01*
X195199000Y-85001500D02*
X198036000Y-85001500D01*
X225578000Y-129794000D02*
X227330000Y-129794000D01*
X226314000Y-112776000D02*
X226314000Y-108230000D01*
X120054000Y-46101000D02*
X120053500Y-46101000D01*
X152146000Y-99822000D02*
X152146000Y-101499000D01*
X164338000Y-59690000D02*
X166370000Y-59690000D01*
X171450000Y-78524500D02*
X171450000Y-81285000D01*
X120180500Y-96647000D02*
X123297000Y-96647000D01*
X171445000Y-81280000D02*
X171450000Y-81285000D01*
X193294000Y-124968000D02*
X193294000Y-126974000D01*
X94996000Y-96558500D02*
X95034500Y-96520000D01*
X98278000Y-96520000D02*
X98293000Y-96505000D01*
X53086000Y-133604000D02*
X51054000Y-133604000D01*
X120180000Y-96647000D02*
X120180500Y-96647000D01*
X95288500Y-46101000D02*
X98420000Y-46101000D01*
X123439000Y-96505000D02*
X123439000Y-99045000D01*
X52223000Y-73914000D02*
X52223000Y-76454000D01*
X226288000Y-112802000D02*
X226314000Y-112776000D01*
X98293000Y-96505000D02*
X98293000Y-99045000D01*
X53848000Y-96774000D02*
X52350000Y-96774000D01*
X123297000Y-96647000D02*
X123439000Y-96505000D01*
X95250000Y-46139500D02*
X95288500Y-46101000D01*
X164846000Y-127762000D02*
X164846000Y-129439000D01*
X95250000Y-48006000D02*
X95250000Y-46139500D01*
X120142000Y-98298000D02*
X120180000Y-98259500D01*
X52223000Y-71374000D02*
X53848000Y-71374000D01*
X196380000Y-114300000D02*
X196380500Y-114300000D01*
X120142000Y-46189500D02*
X120054000Y-46101000D01*
X52223000Y-71374000D02*
X52223000Y-73914000D01*
X199385000Y-114295000D02*
X199780000Y-113900000D01*
X199380000Y-114300000D02*
X199385000Y-114295000D01*
X164846000Y-129439000D02*
X164947000Y-129540000D01*
X193294000Y-126974000D02*
X193268000Y-127000000D01*
X228600000Y-128524000D02*
X233138000Y-128524000D01*
X123185000Y-46101000D02*
X123439000Y-45847000D01*
X195072000Y-85128500D02*
X195199000Y-85001500D01*
X94996000Y-98298000D02*
X94996000Y-96558500D01*
X198036000Y-85001500D02*
X198130000Y-85095000D01*
X226288000Y-117094000D02*
X226288000Y-112802000D01*
X68237500Y-84074000D02*
X71369000Y-84074000D01*
X159691000Y-48931000D02*
X162905000Y-48931000D01*
X52350000Y-99187000D02*
X52350000Y-96774000D01*
X45969000Y-78994000D02*
X45974000Y-78989000D01*
X120180000Y-98259500D02*
X120180000Y-96647000D01*
D31*
%TO.N,A22*%
X67646900Y-76787200D02*
X69848700Y-78989000D01*
X71374000Y-78989000D02*
X69848700Y-78989000D01*
X67957100Y-65310800D02*
X67646900Y-65621000D01*
X67646900Y-65621000D02*
X67646900Y-76787200D01*
%TO.N,A21*%
X138752300Y-78122400D02*
X129275400Y-87599300D01*
X138752300Y-65876900D02*
X138752300Y-78122400D01*
%TO.N,~{RESET}*%
X212352700Y-101000000D02*
X207877700Y-96525000D01*
X172731500Y-53444100D02*
X172731500Y-77942300D01*
X172975300Y-78186100D02*
X172975300Y-96525000D01*
X161684700Y-42397300D02*
X142378000Y-42397300D01*
X162560000Y-41910000D02*
X161684700Y-41910000D01*
X213878000Y-101844000D02*
X212352700Y-101844000D01*
X212352700Y-101844000D02*
X212352700Y-101000000D01*
X132809900Y-52821800D02*
X132665800Y-52821800D01*
X142378000Y-42397300D02*
X140175600Y-44599700D01*
X161684700Y-41910000D02*
X161684700Y-42397300D01*
X140175600Y-45456100D02*
X132809900Y-52821800D01*
X171450000Y-96525000D02*
X172975300Y-96525000D01*
X140175600Y-44599700D02*
X140175600Y-45456100D01*
X207877700Y-96525000D02*
X172975300Y-96525000D01*
X161684700Y-42397300D02*
X172731500Y-53444100D01*
X172731500Y-77942300D02*
X172975300Y-78186100D01*
%TO.N,A20*%
X134652100Y-80857600D02*
X137714800Y-77794900D01*
X137714800Y-77794900D02*
X137714800Y-65906200D01*
%TO.N,A19*%
X67506800Y-61856800D02*
X66732400Y-62631200D01*
X81781700Y-45974000D02*
X79706800Y-43899100D01*
X70178600Y-43899100D02*
X67506800Y-46570900D01*
X66732400Y-62631200D02*
X66732400Y-86032700D01*
X79706800Y-43899100D02*
X70178600Y-43899100D01*
X67506800Y-46570900D02*
X67506800Y-61856800D01*
X71374000Y-89149000D02*
X69848700Y-89149000D01*
X83307000Y-45974000D02*
X81781700Y-45974000D01*
X66732400Y-86032700D02*
X69848700Y-89149000D01*
%TO.N,Net-(U2-Pad15)*%
X43998400Y-106945200D02*
X45252200Y-108199000D01*
X46702900Y-108199000D02*
X66294000Y-127790100D01*
X66294000Y-127790100D02*
X66294000Y-133604000D01*
X44448700Y-81529000D02*
X43998400Y-81979300D01*
X43998400Y-81979300D02*
X43998400Y-106945200D01*
X45252200Y-108199000D02*
X46702900Y-108199000D01*
X45974000Y-81529000D02*
X44448700Y-81529000D01*
%TO.N,A18*%
X70604300Y-62479000D02*
X69358500Y-61233200D01*
X69358500Y-61233200D02*
X69358500Y-45993000D01*
X69358500Y-45993000D02*
X70512700Y-44838800D01*
X71374000Y-91689000D02*
X72899300Y-91689000D01*
X98547000Y-51054000D02*
X97021700Y-51054000D01*
X95805200Y-49837500D02*
X97021700Y-51054000D01*
X75516100Y-89072200D02*
X75516100Y-65887200D01*
X72107900Y-62479000D02*
X70604300Y-62479000D01*
X72899300Y-91689000D02*
X75516100Y-89072200D01*
X72749100Y-44838800D02*
X77747800Y-49837500D01*
X77747800Y-49837500D02*
X95805200Y-49837500D01*
X75516100Y-65887200D02*
X72107900Y-62479000D01*
X70512700Y-44838800D02*
X72749100Y-44838800D01*
%TO.N,A17*%
X67196500Y-84913600D02*
X67196500Y-65036000D01*
X67957200Y-64275300D02*
X67957200Y-46757400D01*
X83307000Y-48514000D02*
X81781700Y-48514000D01*
X67957200Y-46757400D02*
X70331700Y-44382900D01*
X70161900Y-87879000D02*
X67196500Y-84913600D01*
X72899400Y-88650400D02*
X72128000Y-87879000D01*
X71374000Y-94229000D02*
X69848700Y-94229000D01*
X69848700Y-94229000D02*
X69848700Y-91196900D01*
X70723200Y-90322400D02*
X72254100Y-90322400D01*
X72899400Y-89677100D02*
X72899400Y-88650400D01*
X72128000Y-87879000D02*
X70161900Y-87879000D01*
X69848700Y-91196900D02*
X70723200Y-90322400D01*
X67196500Y-65036000D02*
X67957200Y-64275300D01*
X77650600Y-44382900D02*
X81781700Y-48514000D01*
X70331700Y-44382900D02*
X77650600Y-44382900D01*
X72254100Y-90322400D02*
X72899400Y-89677100D01*
D30*
%TO.N,Net-(R3-Pad2)*%
X49118000Y-76449000D02*
X49123000Y-76454000D01*
X45974000Y-76449000D02*
X49118000Y-76449000D01*
D31*
%TO.N,A16*%
X67056500Y-46326000D02*
X67056500Y-51489100D01*
X69933800Y-43448700D02*
X67056500Y-46326000D01*
X89916100Y-48745600D02*
X84619200Y-43448700D01*
X96790100Y-48745600D02*
X89916100Y-48745600D01*
X84619200Y-43448700D02*
X69933800Y-43448700D01*
X71374000Y-96769000D02*
X69848700Y-96769000D01*
X97021700Y-48514000D02*
X96790100Y-48745600D01*
X67056500Y-51489100D02*
X66282000Y-52263600D01*
X98547000Y-48514000D02*
X97021700Y-48514000D01*
X66282000Y-52263600D02*
X66282000Y-93202300D01*
X66282000Y-93202300D02*
X69848700Y-96769000D01*
D30*
%TO.N,Net-(R1-Pad2)*%
X49118000Y-73909000D02*
X49123000Y-73914000D01*
X45974000Y-73909000D02*
X49118000Y-73909000D01*
D31*
%TO.N,A15*%
X109724300Y-53970500D02*
X108957800Y-54737000D01*
X83307000Y-51054000D02*
X84832300Y-51054000D01*
X108199000Y-50927000D02*
X106673700Y-50927000D01*
X108199000Y-96505000D02*
X106673700Y-96505000D01*
X84832300Y-51054000D02*
X85970900Y-52192600D01*
X103971900Y-93803200D02*
X106673700Y-96505000D01*
X105408100Y-52192600D02*
X106673700Y-50927000D01*
X103971900Y-58223900D02*
X103971900Y-93803200D01*
X108957800Y-54737000D02*
X107458800Y-54737000D01*
X109724300Y-50927000D02*
X109724300Y-53970500D01*
X85970900Y-52192600D02*
X105408100Y-52192600D01*
X108199000Y-50927000D02*
X109724300Y-50927000D01*
X107458800Y-54737000D02*
X103971900Y-58223900D01*
D30*
%TO.N,Net-(R2-Pad2)*%
X45974000Y-71369000D02*
X49118000Y-71369000D01*
X49118000Y-71369000D02*
X49123000Y-71374000D01*
D31*
%TO.N,A14*%
X121913700Y-61568200D02*
X121913700Y-57532300D01*
X125923200Y-78989700D02*
X126315200Y-78597700D01*
X123613600Y-101585000D02*
X125923200Y-99275400D01*
X124497400Y-62496200D02*
X122841700Y-62496200D01*
X121913700Y-57532300D02*
X123439000Y-56007000D01*
X125923200Y-99275400D02*
X125923200Y-78989700D01*
X126315200Y-78597700D02*
X126315200Y-64314000D01*
X123439000Y-101585000D02*
X123613600Y-101585000D01*
X122841700Y-62496200D02*
X121913700Y-61568200D01*
X126315200Y-64314000D02*
X124497400Y-62496200D01*
%TO.N,~{CPU_DTACK}*%
X47499300Y-68829000D02*
X48243800Y-68829000D01*
X48243800Y-68829000D02*
X66309100Y-50763700D01*
X45974000Y-68829000D02*
X47499300Y-68829000D01*
%TO.N,A13*%
X86102300Y-54864000D02*
X101503700Y-54864000D01*
X84832300Y-53594000D02*
X86102300Y-54864000D01*
X103390200Y-95761500D02*
X106673700Y-99045000D01*
X108199000Y-53467000D02*
X106673700Y-53467000D01*
X108199000Y-99045000D02*
X106673700Y-99045000D01*
X103390200Y-56750500D02*
X103390200Y-95761500D01*
X83307000Y-53594000D02*
X84832300Y-53594000D01*
X78243300Y-99045000D02*
X72899300Y-104389000D01*
X101503700Y-54864000D02*
X103390200Y-56750500D01*
X83053000Y-99045000D02*
X78243300Y-99045000D01*
X106673700Y-53467000D02*
X103390200Y-56750500D01*
X71374000Y-104389000D02*
X72899300Y-104389000D01*
%TO.N,R~{W}*%
X201060200Y-137005100D02*
X201060200Y-124138600D01*
X198587400Y-123185000D02*
X188814100Y-113411700D01*
X128053200Y-46063400D02*
X124987200Y-42997400D01*
X199385000Y-137155000D02*
X200910300Y-137155000D01*
X148926200Y-66469100D02*
X141035500Y-58578400D01*
X69742300Y-42997400D02*
X47499300Y-65240400D01*
X45974000Y-66289000D02*
X47499300Y-66289000D01*
X188814100Y-110864700D02*
X187662200Y-109712800D01*
X200106600Y-123185000D02*
X198587400Y-123185000D01*
X146050000Y-99065000D02*
X147575300Y-99065000D01*
X47499300Y-65240400D02*
X47499300Y-66289000D01*
X148926200Y-97714100D02*
X148926200Y-66469100D01*
X201060200Y-124138600D02*
X200106600Y-123185000D01*
X188814100Y-113411700D02*
X188814100Y-110864700D01*
X124987200Y-42997400D02*
X69742300Y-42997400D01*
X200910300Y-137155000D02*
X201060200Y-137005100D01*
X147575300Y-99065000D02*
X148926200Y-97714100D01*
X187662200Y-109712800D02*
X187662200Y-107821200D01*
%TO.N,A12*%
X125445200Y-99048000D02*
X125445200Y-78830800D01*
X121463400Y-101546500D02*
X122694900Y-100315000D01*
X125445200Y-78830800D02*
X125864900Y-78411100D01*
X122694900Y-100315000D02*
X124178200Y-100315000D01*
X125864900Y-64527600D02*
X124964300Y-63627000D01*
X124178200Y-100315000D02*
X125445200Y-99048000D01*
X123439000Y-109205000D02*
X121913700Y-109205000D01*
X125864900Y-78411100D02*
X125864900Y-64527600D01*
X123439000Y-63627000D02*
X124964300Y-63627000D01*
X121463400Y-108754700D02*
X121463400Y-101546500D01*
X121913700Y-109205000D02*
X121463400Y-108754700D01*
%TO.N,A11*%
X119191100Y-111562400D02*
X119191100Y-95620300D01*
X121913700Y-114285000D02*
X119191100Y-111562400D01*
X123439000Y-114285000D02*
X121913700Y-114285000D01*
X119191100Y-95620300D02*
X124964300Y-89847100D01*
X98293000Y-114285000D02*
X96767700Y-114285000D01*
X125414600Y-78224500D02*
X125414600Y-69157300D01*
X125414600Y-69157300D02*
X124964300Y-68707000D01*
X124964300Y-89847100D02*
X124964300Y-78674800D01*
X124964300Y-78674800D02*
X125414600Y-78224500D01*
X123439000Y-68707000D02*
X124964300Y-68707000D01*
X96767700Y-114285000D02*
X94813000Y-112330300D01*
%TO.N,A10*%
X124347100Y-102710400D02*
X126373600Y-100683900D01*
X126373600Y-79176200D02*
X126765500Y-78784300D01*
X123439000Y-106665000D02*
X121913700Y-106665000D01*
X123439000Y-61087000D02*
X124964300Y-61087000D01*
X121913700Y-103645800D02*
X122849100Y-102710400D01*
X126765500Y-62888200D02*
X124964300Y-61087000D01*
X122849100Y-102710400D02*
X124347100Y-102710400D01*
X126765500Y-78784300D02*
X126765500Y-62888200D01*
X126373600Y-100683900D02*
X126373600Y-79176200D01*
X121913700Y-106665000D02*
X121913700Y-103645800D01*
%TO.N,A9*%
X126823900Y-79362800D02*
X127215800Y-78970900D01*
X96767700Y-104792100D02*
X87177600Y-114382200D01*
X98293000Y-104125000D02*
X96767700Y-104125000D01*
X96767700Y-104125000D02*
X96767700Y-104792100D01*
X123439000Y-58547000D02*
X124964300Y-58547000D01*
X123439000Y-104125000D02*
X124964300Y-104125000D01*
X127215800Y-60798500D02*
X124964300Y-58547000D01*
X124964300Y-104125000D02*
X126823900Y-102265400D01*
X127215800Y-78970900D02*
X127215800Y-60798500D01*
X126823900Y-102265400D02*
X126823900Y-79362800D01*
%TO.N,D0*%
X84578300Y-121905000D02*
X85484900Y-120998400D01*
X183710100Y-100520100D02*
X184209700Y-101019700D01*
X85484900Y-120998400D02*
X85484900Y-92051600D01*
X81318800Y-76916900D02*
X81781700Y-76454000D01*
X184209700Y-101019700D02*
X184209700Y-109138600D01*
X85484900Y-92051600D02*
X81318800Y-87885500D01*
X231828000Y-103114000D02*
X220715300Y-103114000D01*
X184145000Y-121915000D02*
X182619700Y-121915000D01*
X184209700Y-109138600D02*
X182619700Y-110728600D01*
X81318800Y-87885500D02*
X81318800Y-76916900D01*
X206640100Y-89038800D02*
X193439100Y-89038800D01*
X83307000Y-76454000D02*
X81781700Y-76454000D01*
X220715300Y-103114000D02*
X206640100Y-89038800D01*
X190510000Y-87635000D02*
X192035300Y-87635000D01*
X83053000Y-121905000D02*
X84578300Y-121905000D01*
X182619700Y-110728600D02*
X182619700Y-121915000D01*
X193439100Y-89038800D02*
X192035300Y-87635000D01*
X233188000Y-104474000D02*
X231828000Y-103114000D01*
%TO.N,A8*%
X109724300Y-56007000D02*
X116415700Y-49315600D01*
X108199000Y-56007000D02*
X104422200Y-59783800D01*
X108199000Y-101585000D02*
X109724300Y-101585000D01*
X81527700Y-101585000D02*
X72899300Y-110213400D01*
X175785900Y-49799800D02*
X175785900Y-74912300D01*
X191306600Y-88760400D02*
X192254900Y-89708700D01*
X192254900Y-89708700D02*
X196138400Y-89708700D01*
X72899300Y-110213400D02*
X72899300Y-117089000D01*
X104422200Y-59783800D02*
X104422200Y-89957200D01*
X118988400Y-49315600D02*
X121093200Y-47210800D01*
X189634000Y-88760400D02*
X191306600Y-88760400D01*
X164496400Y-38510300D02*
X175785900Y-49799800D01*
X83053000Y-101585000D02*
X81527700Y-101585000D01*
X137962800Y-38510300D02*
X164496400Y-38510300D01*
X196138400Y-89708700D02*
X196604700Y-90175000D01*
X116415700Y-49315600D02*
X118988400Y-49315600D01*
X121093200Y-47210800D02*
X129262300Y-47210800D01*
X108199000Y-56007000D02*
X109724300Y-56007000D01*
X109724300Y-95259300D02*
X109724300Y-101585000D01*
X104422200Y-89957200D02*
X109724300Y-95259300D01*
X198130000Y-90175000D02*
X196604700Y-90175000D01*
X175785900Y-74912300D02*
X189634000Y-88760400D01*
X71374000Y-117089000D02*
X72899300Y-117089000D01*
X129262300Y-47210800D02*
X137962800Y-38510300D01*
%TO.N,D1*%
X85935200Y-123088100D02*
X84578300Y-124445000D01*
X184145000Y-124455000D02*
X185670300Y-124455000D01*
X233188000Y-102474000D02*
X227887100Y-97173100D01*
X185670300Y-124455000D02*
X185670300Y-112398300D01*
X83053000Y-124445000D02*
X84578300Y-124445000D01*
X81781700Y-78994000D02*
X81781700Y-87525000D01*
X185401900Y-112129900D02*
X185401900Y-100914000D01*
X227887100Y-97173100D02*
X227887100Y-94811800D01*
X85935200Y-91678500D02*
X85935200Y-123088100D01*
X81781700Y-87525000D02*
X85935200Y-91678500D01*
X83307000Y-78994000D02*
X81781700Y-78994000D01*
X185670300Y-112398300D02*
X185401900Y-112129900D01*
%TO.N,A7*%
X104872500Y-89770600D02*
X110174600Y-95072700D01*
X110174600Y-103674700D02*
X109724300Y-104125000D01*
X128909300Y-49766000D02*
X139694800Y-38980500D01*
X164329700Y-38980500D02*
X173592100Y-48242900D01*
X108199000Y-58547000D02*
X106673700Y-58547000D01*
X139694800Y-38980500D02*
X164329700Y-38980500D01*
X109724300Y-58547000D02*
X118505300Y-49766000D01*
X106673700Y-58547000D02*
X104872500Y-60348200D01*
X173592100Y-75421400D02*
X189471100Y-91300400D01*
X108199000Y-58547000D02*
X109724300Y-58547000D01*
X110174600Y-95072700D02*
X110174600Y-103674700D01*
X189471100Y-91300400D02*
X195190100Y-91300400D01*
X173592100Y-48242900D02*
X173592100Y-75421400D01*
X71374000Y-119629000D02*
X72899300Y-119629000D01*
X118505300Y-49766000D02*
X128909300Y-49766000D01*
X198130000Y-92715000D02*
X196604700Y-92715000D01*
X73502400Y-112150300D02*
X73502400Y-119025900D01*
X83053000Y-104125000D02*
X81527700Y-104125000D01*
X73502400Y-119025900D02*
X72899300Y-119629000D01*
X195190100Y-91300400D02*
X196604700Y-92715000D01*
X104872500Y-60348200D02*
X104872500Y-89770600D01*
X108199000Y-104125000D02*
X109724300Y-104125000D01*
X81527700Y-104125000D02*
X73502400Y-112150300D01*
%TO.N,D2*%
X185670300Y-126995000D02*
X186333100Y-126332200D01*
X166076300Y-131587900D02*
X150794800Y-146869400D01*
X150794800Y-146869400D02*
X108124300Y-146869400D01*
X184145000Y-126995000D02*
X185670300Y-126995000D01*
X195785000Y-97795000D02*
X197199600Y-99209600D01*
X209533800Y-99209600D02*
X210798200Y-100474000D01*
X190510000Y-97795000D02*
X195785000Y-97795000D01*
X86409100Y-83110800D02*
X84832300Y-81534000D01*
X84578300Y-126985000D02*
X86409100Y-125154200D01*
X186333100Y-126332200D02*
X186333100Y-101655000D01*
X197199600Y-99209600D02*
X209533800Y-99209600D01*
X108124300Y-146869400D02*
X86409100Y-125154200D01*
X166076300Y-127298700D02*
X166076300Y-131587900D01*
X83053000Y-126985000D02*
X84578300Y-126985000D01*
X171450000Y-121925000D02*
X166076300Y-127298700D01*
X83307000Y-81534000D02*
X84832300Y-81534000D01*
X86409100Y-125154200D02*
X86409100Y-83110800D01*
%TO.N,A6*%
X83053000Y-106665000D02*
X81527700Y-106665000D01*
X110632000Y-104232000D02*
X108199000Y-106665000D01*
X110632000Y-92824800D02*
X110632000Y-104232000D01*
X105322800Y-62437900D02*
X105322800Y-87515600D01*
X71374000Y-122169000D02*
X72899300Y-122169000D01*
X106673700Y-61087000D02*
X105322800Y-62437900D01*
X77965300Y-110227400D02*
X81527700Y-106665000D01*
X72899300Y-122169000D02*
X77965300Y-117103000D01*
X77965300Y-117103000D02*
X77965300Y-110227400D01*
X105322800Y-87515600D02*
X110632000Y-92824800D01*
X108199000Y-61087000D02*
X106673700Y-61087000D01*
%TO.N,D3*%
X98547000Y-84074000D02*
X100072300Y-84074000D01*
X101681700Y-85683400D02*
X100072300Y-84074000D01*
X99818300Y-129525000D02*
X101183600Y-128159700D01*
X184145000Y-129535000D02*
X185670300Y-129535000D01*
X127258100Y-125205100D02*
X124303500Y-128159700D01*
X186913100Y-107486600D02*
X188984700Y-105415000D01*
X190510000Y-105415000D02*
X192035300Y-105415000D01*
X101681700Y-128159700D02*
X101681700Y-85683400D01*
X190510000Y-105415000D02*
X188984700Y-105415000D01*
X101183600Y-128159700D02*
X101681700Y-128159700D01*
X192035300Y-105415000D02*
X192035300Y-105744400D01*
X127258100Y-121925400D02*
X127258100Y-125205100D01*
X185670300Y-129535000D02*
X186913100Y-128292200D01*
X186913100Y-128292200D02*
X186913100Y-107486600D01*
X124303500Y-128159700D02*
X101681700Y-128159700D01*
X98293000Y-129525000D02*
X99818300Y-129525000D01*
X192035300Y-105744400D02*
X194743900Y-108453000D01*
%TO.N,A5*%
X109724300Y-109205000D02*
X111534800Y-107394500D01*
X108199000Y-63627000D02*
X106673700Y-63627000D01*
X111534800Y-107394500D02*
X111534800Y-85662400D01*
X105773100Y-64527600D02*
X106673700Y-63627000D01*
X111534800Y-85662400D02*
X111968400Y-85228800D01*
X107435400Y-80136900D02*
X105773100Y-78474600D01*
X83053000Y-109205000D02*
X81527700Y-109205000D01*
X81527700Y-109205000D02*
X80627100Y-110105600D01*
X108991400Y-80136900D02*
X107435400Y-80136900D01*
X111968400Y-83113900D02*
X108991400Y-80136900D01*
X108199000Y-109205000D02*
X109724300Y-109205000D01*
X80627100Y-116981200D02*
X72899300Y-124709000D01*
X105773100Y-78474600D02*
X105773100Y-64527600D01*
X80627100Y-110105600D02*
X80627100Y-116981200D01*
X71374000Y-124709000D02*
X72899300Y-124709000D01*
X111968400Y-85228800D02*
X111968400Y-83113900D01*
%TO.N,D4*%
X101231300Y-125572000D02*
X101231300Y-89072800D01*
X98293000Y-126985000D02*
X99818300Y-126985000D01*
X202697700Y-108457400D02*
X199655300Y-105415000D01*
X202697700Y-133208100D02*
X202697700Y-108457400D01*
X101231300Y-89072800D02*
X97021700Y-84863200D01*
X98547000Y-81534000D02*
X97021700Y-81534000D01*
X99818300Y-126985000D02*
X101231300Y-125572000D01*
X198130000Y-105415000D02*
X199655300Y-105415000D01*
X97021700Y-84863200D02*
X97021700Y-81534000D01*
%TO.N,~{DUART_IACK}*%
X169924700Y-88905000D02*
X169924700Y-74263800D01*
X139270400Y-50967400D02*
X138497200Y-51740600D01*
X171450000Y-88905000D02*
X169924700Y-88905000D01*
X151952500Y-57802400D02*
X145117500Y-50967400D01*
X153463300Y-57802400D02*
X151952500Y-57802400D01*
X145117500Y-50967400D02*
X139270400Y-50967400D01*
X169924700Y-74263800D02*
X153463300Y-57802400D01*
%TO.N,~{ROM_UCE}*%
X123439000Y-116825000D02*
X124964300Y-116825000D01*
X141369000Y-55813700D02*
X134786400Y-62396300D01*
X134786400Y-74150000D02*
X127724600Y-81211800D01*
X127724600Y-114064700D02*
X124964300Y-116825000D01*
X134786400Y-62396300D02*
X134786400Y-74150000D01*
X127724600Y-81211800D02*
X127724600Y-114064700D01*
%TO.N,~{ROM_LCE}*%
X124465300Y-130660900D02*
X130251200Y-124875000D01*
X96767700Y-116825000D02*
X96281400Y-117311300D01*
X130251200Y-97461600D02*
X139968500Y-87744300D01*
X96281400Y-129522000D02*
X97420300Y-130660900D01*
X97420300Y-130660900D02*
X124465300Y-130660900D01*
X96281400Y-117311300D02*
X96281400Y-129522000D01*
X130251200Y-124875000D02*
X130251200Y-97461600D01*
X139968500Y-87744300D02*
X139968500Y-58591700D01*
X98293000Y-116825000D02*
X96767700Y-116825000D01*
X139968500Y-58591700D02*
X142750700Y-55809500D01*
%TO.N,~{RAM_UCE}*%
X123439000Y-71247000D02*
X121913700Y-71247000D01*
X121913700Y-71247000D02*
X121913700Y-68256200D01*
X139768600Y-51728800D02*
X141932900Y-51728800D01*
X129500700Y-55676300D02*
X135821100Y-55676300D01*
X122576700Y-52337300D02*
X126161700Y-52337300D01*
X126161700Y-52337300D02*
X129500700Y-55676300D01*
X120991500Y-67334000D02*
X120991500Y-53922500D01*
X120991500Y-53922500D02*
X122576700Y-52337300D01*
X135821100Y-55676300D02*
X139768600Y-51728800D01*
X121913700Y-68256200D02*
X120991500Y-67334000D01*
%TO.N,~{IDE_CS1}*%
X166757200Y-79185000D02*
X166757200Y-111023600D01*
X166757200Y-111023600D02*
X168913200Y-113179600D01*
X144097600Y-56525400D02*
X166757200Y-79185000D01*
X144097600Y-55961400D02*
X144097600Y-56525400D01*
%TO.N,~{RAM_LCE}*%
X128790200Y-65945000D02*
X140193500Y-54541700D01*
X128790200Y-71352500D02*
X128790200Y-65945000D01*
X140193500Y-54541700D02*
X145097600Y-54541700D01*
%TO.N,~{OE}*%
X124964300Y-111745000D02*
X127274200Y-109435100D01*
X127724500Y-58679200D02*
X134779200Y-58679200D01*
X121463400Y-65716700D02*
X121463400Y-55902400D01*
X123439000Y-66167000D02*
X121913700Y-66167000D01*
X121913700Y-66167000D02*
X121463400Y-65716700D01*
X127274200Y-109435100D02*
X127274200Y-79549400D01*
X127724500Y-79099100D02*
X127724500Y-58679200D01*
X127724500Y-58239800D02*
X127724500Y-58679200D01*
X127274200Y-79549400D02*
X127724500Y-79099100D01*
X122525100Y-54840700D02*
X124325400Y-54840700D01*
X124325400Y-54840700D02*
X127724500Y-58239800D01*
X121463400Y-55902400D02*
X122525100Y-54840700D01*
X123439000Y-111745000D02*
X124964300Y-111745000D01*
%TO.N,NOT_DS*%
X170715200Y-105415000D02*
X172382300Y-105415000D01*
X172382300Y-105415000D02*
X174714400Y-107747100D01*
X167207500Y-101907300D02*
X170715200Y-105415000D01*
X146310100Y-58086600D02*
X167207500Y-78984000D01*
X167207500Y-78984000D02*
X167207500Y-101907300D01*
X146310100Y-57210100D02*
X146310100Y-58086600D01*
X174714400Y-107747100D02*
X174714400Y-115360200D01*
%TO.N,NOT_AS*%
X198130000Y-107955000D02*
X196604700Y-107955000D01*
X199385000Y-139695000D02*
X200910300Y-139695000D01*
X149045600Y-57038000D02*
X164275600Y-72268000D01*
X201966700Y-138638600D02*
X201966700Y-110266400D01*
X186724100Y-99344500D02*
X188984600Y-101605000D01*
X181952700Y-100214300D02*
X182822500Y-99344500D01*
X170575200Y-100214300D02*
X181952700Y-100214300D01*
X168558400Y-98197500D02*
X170575200Y-100214300D01*
X168558400Y-74840200D02*
X168558400Y-98197500D01*
X191303300Y-101605000D02*
X196604700Y-106906400D01*
X196604700Y-106906400D02*
X196604700Y-107955000D01*
X200910300Y-139695000D02*
X201966700Y-138638600D01*
X165986200Y-72268000D02*
X168558400Y-74840200D01*
X198130000Y-107955000D02*
X199655300Y-107955000D01*
X201966700Y-110266400D02*
X199655300Y-107955000D01*
X182822500Y-99344500D02*
X186724100Y-99344500D01*
X164275600Y-72268000D02*
X165986200Y-72268000D01*
X188984600Y-101605000D02*
X191303300Y-101605000D01*
%TO.N,Net-(J1-Pad3)*%
X149532900Y-43972300D02*
X152755300Y-47194700D01*
X143335200Y-43972300D02*
X149532900Y-43972300D01*
X142526300Y-45148500D02*
X142526300Y-44781200D01*
X141351000Y-45148500D02*
X142526300Y-45148500D01*
X142526300Y-44781200D02*
X143335200Y-43972300D01*
X152755300Y-47194700D02*
X152755300Y-57055400D01*
%TO.N,~{DUART_CS}*%
X161046700Y-66417200D02*
X161409200Y-66417200D01*
X169474300Y-74482300D02*
X169474300Y-93534600D01*
X169474300Y-93534600D02*
X169924700Y-93985000D01*
X171450000Y-93985000D02*
X169924700Y-93985000D01*
X161409200Y-66417200D02*
X169474300Y-74482300D01*
%TO.N,Net-(J1-Pad4)*%
X132966300Y-53547100D02*
X131939000Y-53547100D01*
X140736200Y-48303300D02*
X138210100Y-48303300D01*
X131939000Y-53547100D02*
X130535200Y-54950900D01*
X143891000Y-45148500D02*
X140736200Y-48303300D01*
X138210100Y-48303300D02*
X132966300Y-53547100D01*
%TO.N,Net-(J1-Pad5)*%
X132924700Y-54225600D02*
X132429100Y-54225600D01*
X145255700Y-45460400D02*
X141441300Y-49274800D01*
X141441300Y-49274800D02*
X137875500Y-49274800D01*
X137875500Y-49274800D02*
X132924700Y-54225600D01*
X132429100Y-54225600D02*
X131703800Y-54950900D01*
X146431000Y-45148500D02*
X145255700Y-45148500D01*
X145255700Y-45148500D02*
X145255700Y-45460400D01*
%TO.N,Net-(J1-Pad6)*%
X147795700Y-45515800D02*
X143315400Y-49996100D01*
X147795700Y-45148500D02*
X147795700Y-45515800D01*
X148971000Y-45148500D02*
X147795700Y-45148500D01*
X137896600Y-49996100D02*
X132941800Y-54950900D01*
X143315400Y-49996100D02*
X137896600Y-49996100D01*
%TO.N,~{RTC_CS}*%
X199385000Y-142235000D02*
X197859700Y-142235000D01*
X170378500Y-102763800D02*
X180040100Y-102763800D01*
X197859700Y-139169000D02*
X197859700Y-142235000D01*
X183009100Y-99794800D02*
X185498700Y-99794800D01*
X145690100Y-55530400D02*
X147489600Y-57329900D01*
X180040100Y-102763800D02*
X183009100Y-99794800D01*
X200316400Y-138457800D02*
X198570900Y-138457800D01*
X198570900Y-138457800D02*
X197859700Y-139169000D01*
X189855700Y-104289600D02*
X191606400Y-104289600D01*
X187058400Y-101354500D02*
X187058400Y-101492300D01*
X185498700Y-99794800D02*
X187058400Y-101354500D01*
X144243100Y-55081100D02*
X144692400Y-55530400D01*
X147489600Y-58629200D02*
X167657800Y-78797400D01*
X191606400Y-104289600D02*
X201516300Y-114199500D01*
X187058400Y-101492300D02*
X189855700Y-104289600D01*
X201516300Y-137257900D02*
X200316400Y-138457800D01*
X167657800Y-78797400D02*
X167657800Y-100043100D01*
X140702100Y-55081100D02*
X144243100Y-55081100D01*
X201516300Y-114199500D02*
X201516300Y-137257900D01*
X139660300Y-56122900D02*
X140702100Y-55081100D01*
X144692400Y-55530400D02*
X145690100Y-55530400D01*
X147489600Y-57329900D02*
X147489600Y-58629200D01*
X167657800Y-100043100D02*
X170378500Y-102763800D01*
%TO.N,IP4*%
X147193000Y-134077400D02*
X144510500Y-131394900D01*
X163801000Y-98577200D02*
X163801000Y-85719000D01*
X163801000Y-85719000D02*
X165837800Y-83682200D01*
X146729300Y-115648900D02*
X163801000Y-98577200D01*
X144510500Y-116368100D02*
X145229700Y-115648900D01*
X147193000Y-141732000D02*
X147193000Y-134077400D01*
X145229700Y-115648900D02*
X146729300Y-115648900D01*
X144510500Y-131394900D02*
X144510500Y-116368100D01*
%TO.N,IP5*%
X149733000Y-141732000D02*
X149733000Y-115490500D01*
X166031900Y-99191600D02*
X166031900Y-86444400D01*
X149733000Y-115490500D02*
X166031900Y-99191600D01*
%TO.N,IP2*%
X146802100Y-110495000D02*
X162656700Y-94640400D01*
X145289200Y-110495000D02*
X146802100Y-110495000D01*
X162656700Y-94640400D02*
X162656700Y-91464100D01*
X142113000Y-113671200D02*
X145289200Y-110495000D01*
X142113000Y-141732000D02*
X142113000Y-113671200D01*
%TO.N,OP7*%
X149023900Y-140548100D02*
X149023900Y-118293600D01*
X148530100Y-141041900D02*
X149023900Y-140548100D01*
X149733000Y-144272000D02*
X149733000Y-143096700D01*
X146050000Y-116845000D02*
X147575300Y-116845000D01*
X149733000Y-143096700D02*
X149365700Y-143096700D01*
X149365700Y-143096700D02*
X148530100Y-142261100D01*
X148530100Y-142261100D02*
X148530100Y-141041900D01*
X149023900Y-118293600D02*
X147575300Y-116845000D01*
%TO.N,OP5*%
X145843600Y-142273400D02*
X145843600Y-134312200D01*
X146050000Y-114305000D02*
X144524700Y-114305000D01*
X145020300Y-143096700D02*
X145843600Y-142273400D01*
X144060100Y-132528700D02*
X144060100Y-114769600D01*
X144653000Y-144272000D02*
X144653000Y-143096700D01*
X144060100Y-114769600D02*
X144524700Y-114305000D01*
X144653000Y-143096700D02*
X145020300Y-143096700D01*
X145843600Y-134312200D02*
X144060100Y-132528700D01*
%TO.N,OP3*%
X139573000Y-144272000D02*
X140748300Y-144272000D01*
X140748300Y-144272000D02*
X140748300Y-143904600D01*
X140748300Y-143904600D02*
X141556200Y-143096700D01*
X141556200Y-143096700D02*
X142449300Y-143096700D01*
X142449300Y-143096700D02*
X143308800Y-142237200D01*
X143308800Y-114506200D02*
X146050000Y-111765000D01*
X143308800Y-142237200D02*
X143308800Y-114506200D01*
%TO.N,Net-(U4-Pad32)*%
X166370000Y-74930000D02*
X168108100Y-76668100D01*
X168108100Y-99788400D02*
X169924700Y-101605000D01*
X171450000Y-101605000D02*
X169924700Y-101605000D01*
X168108100Y-76668100D02*
X168108100Y-99788400D01*
%TO.N,OP1*%
X138303000Y-142163000D02*
X138303000Y-141315100D01*
X138303000Y-141315100D02*
X139982900Y-139635200D01*
X140505900Y-139635200D02*
X141398500Y-138742600D01*
X137369300Y-143096700D02*
X138303000Y-142163000D01*
X135668300Y-143904600D02*
X136476200Y-143096700D01*
X134493000Y-144272000D02*
X135668300Y-144272000D01*
X145922300Y-109225000D02*
X146050000Y-109225000D01*
X136476200Y-143096700D02*
X137369300Y-143096700D01*
X141398500Y-138742600D02*
X141398500Y-113748800D01*
X139982900Y-139635200D02*
X140505900Y-139635200D01*
X141398500Y-113748800D02*
X145922300Y-109225000D01*
X135668300Y-144272000D02*
X135668300Y-143904600D01*
%TO.N,TxDA*%
X169038200Y-143825600D02*
X169799000Y-143064800D01*
X165989000Y-142621000D02*
X167164300Y-142621000D01*
X175439800Y-131478300D02*
X175439800Y-106609500D01*
X167164300Y-142621000D02*
X167164300Y-142988300D01*
X169799000Y-137119100D02*
X175439800Y-131478300D01*
X171450000Y-104145000D02*
X172975300Y-104145000D01*
X168001600Y-143825600D02*
X169038200Y-143825600D01*
X167164300Y-142988300D02*
X168001600Y-143825600D01*
X175439800Y-106609500D02*
X172975300Y-104145000D01*
X169799000Y-143064800D02*
X169799000Y-137119100D01*
%TO.N,TxDB*%
X131953000Y-115106500D02*
X140010200Y-107049300D01*
X131953000Y-140556700D02*
X131953000Y-115106500D01*
X131953000Y-141732000D02*
X131953000Y-140556700D01*
%TO.N,RxDA*%
X173923000Y-107632700D02*
X173923000Y-131147500D01*
X171450000Y-106685000D02*
X172975300Y-106685000D01*
X172975300Y-106685000D02*
X173923000Y-107632700D01*
X173923000Y-131147500D02*
X168529000Y-136541500D01*
X168529000Y-136541500D02*
X168529000Y-142621000D01*
%TO.N,RxDB*%
X140303600Y-113996700D02*
X144524700Y-109775600D01*
X146050000Y-104145000D02*
X144524700Y-104145000D01*
X144524700Y-109775600D02*
X144524700Y-104145000D01*
X140303600Y-138807100D02*
X140303600Y-113996700D01*
%TO.N,OP0*%
X172975300Y-109225000D02*
X173472600Y-109722300D01*
X173472600Y-119384700D02*
X172202300Y-120655000D01*
X171450000Y-109225000D02*
X172975300Y-109225000D01*
X153865700Y-137467000D02*
X153865700Y-143161500D01*
X173472600Y-109722300D02*
X173472600Y-119384700D01*
X153865700Y-143161500D02*
X150663800Y-146363400D01*
X150663800Y-146363400D02*
X134852400Y-146363400D01*
X170677700Y-120655000D02*
X153865700Y-137467000D01*
X133128300Y-144639300D02*
X133128300Y-144272000D01*
X172202300Y-120655000D02*
X170677700Y-120655000D01*
X131953000Y-144272000D02*
X133128300Y-144272000D01*
X134852400Y-146363400D02*
X133128300Y-144639300D01*
%TO.N,OP2*%
X171450000Y-111765000D02*
X172975300Y-111765000D01*
X150420200Y-145903600D02*
X153415300Y-142908500D01*
X172174100Y-118115000D02*
X172975300Y-117313800D01*
X153415300Y-142908500D02*
X153415300Y-135420800D01*
X172975300Y-117313800D02*
X172975300Y-111765000D01*
X139472600Y-145903600D02*
X150420200Y-145903600D01*
X138208300Y-144272000D02*
X138208300Y-144639300D01*
X137033000Y-144272000D02*
X138208300Y-144272000D01*
X153415300Y-135420800D02*
X170721100Y-118115000D01*
X170721100Y-118115000D02*
X172174100Y-118115000D01*
X138208300Y-144639300D02*
X139472600Y-145903600D01*
%TO.N,OP4*%
X151000200Y-133229500D02*
X169924700Y-114305000D01*
X151000200Y-139386900D02*
X151000200Y-133229500D01*
X171450000Y-114305000D02*
X169924700Y-114305000D01*
%TO.N,IP0*%
X142858800Y-110397000D02*
X142858800Y-98190900D01*
X146050000Y-96525000D02*
X144524700Y-96525000D01*
X139578300Y-113677500D02*
X142858800Y-110397000D01*
X139578300Y-139186700D02*
X139578300Y-113677500D01*
X137033000Y-141732000D02*
X139578300Y-139186700D01*
X142858800Y-98190900D02*
X144524700Y-96525000D01*
%TO.N,OP6*%
X171450000Y-116845000D02*
X169924700Y-116845000D01*
X147193000Y-144272000D02*
X148368300Y-144272000D01*
X152964900Y-142722000D02*
X152964900Y-133804800D01*
X148368300Y-144272000D02*
X148368300Y-144639300D01*
X149180100Y-145451100D02*
X150235800Y-145451100D01*
X148368300Y-144639300D02*
X149180100Y-145451100D01*
X150235800Y-145451100D02*
X152964900Y-142722000D01*
X152964900Y-133804800D02*
X169924700Y-116845000D01*
%TO.N,IP1*%
X139128000Y-138609800D02*
X139128000Y-113490900D01*
X137829500Y-139908300D02*
X139128000Y-138609800D01*
X142334400Y-110284500D02*
X142334400Y-91095300D01*
X142334400Y-91095300D02*
X144524700Y-88905000D01*
X139128000Y-113490900D02*
X142334400Y-110284500D01*
X146050000Y-88905000D02*
X144524700Y-88905000D01*
%TO.N,IP3*%
X146050000Y-83825000D02*
X144524700Y-83825000D01*
X140735500Y-87614200D02*
X144524700Y-83825000D01*
X138355300Y-137884500D02*
X138355300Y-112050100D01*
X138355300Y-112050100D02*
X140735500Y-109669900D01*
X140735500Y-109669900D02*
X140735500Y-87614200D01*
%TO.N,~{WE}*%
X169008700Y-96122700D02*
X170537300Y-97651300D01*
X124964300Y-53467000D02*
X127628200Y-56130900D01*
X223023300Y-107391800D02*
X223023300Y-104384000D01*
X139930500Y-53816400D02*
X146849800Y-53816400D01*
X187307300Y-97651300D02*
X188721000Y-99065000D01*
X188721000Y-99065000D02*
X191988200Y-99065000D01*
X194528200Y-101605000D02*
X198896000Y-101605000D01*
X198896000Y-101605000D02*
X200508400Y-103217400D01*
X123439000Y-53467000D02*
X124964300Y-53467000D01*
X137616000Y-56130900D02*
X139930500Y-53816400D01*
X146849800Y-53816400D02*
X163445800Y-70412400D01*
X200508400Y-103217400D02*
X215103100Y-103217400D01*
X220005800Y-108120100D02*
X222295000Y-108120100D01*
X221498000Y-104384000D02*
X223023300Y-104384000D01*
X170537300Y-97651300D02*
X187307300Y-97651300D01*
X191988200Y-99065000D02*
X194528200Y-101605000D01*
X215103100Y-103217400D02*
X220005800Y-108120100D01*
X169008700Y-74653600D02*
X169008700Y-96122700D01*
X127628200Y-56130900D02*
X137616000Y-56130900D01*
X164767500Y-70412400D02*
X169008700Y-74653600D01*
X163445800Y-70412400D02*
X164767500Y-70412400D01*
X222295000Y-108120100D02*
X223023300Y-107391800D01*
%TO.N,Net-(H1-Pad1)*%
X233188000Y-88474000D02*
X221498000Y-100164000D01*
X221498000Y-100164000D02*
X221498000Y-101844000D01*
D30*
%TO.N,Net-(H1-Pad21)*%
X232918000Y-108204000D02*
X233188000Y-108474000D01*
X229388000Y-108204000D02*
X232918000Y-108204000D01*
%TO.N,Net-(H1-Pad29)*%
X233188000Y-116474000D02*
X230008000Y-116474000D01*
X230008000Y-116474000D02*
X229388000Y-117094000D01*
D31*
%TO.N,Net-(H1-Pad33)*%
X222225800Y-110734000D02*
X224795000Y-113303200D01*
X227810500Y-120474000D02*
X233188000Y-120474000D01*
X224795000Y-117458500D02*
X227810500Y-120474000D01*
X219213300Y-110734000D02*
X222225800Y-110734000D01*
X215403300Y-106924000D02*
X219213300Y-110734000D01*
X213878000Y-106924000D02*
X215403300Y-106924000D01*
X224795000Y-113303200D02*
X224795000Y-117458500D01*
%TO.N,Net-(H1-Pad35)*%
X224146500Y-117446900D02*
X224146500Y-115200800D01*
X224146500Y-115200800D02*
X222323400Y-113377700D01*
X222323400Y-113377700D02*
X219936400Y-113377700D01*
X219936400Y-113377700D02*
X216022700Y-109464000D01*
X216022700Y-109464000D02*
X213878000Y-109464000D01*
X229173600Y-122474000D02*
X224146500Y-117446900D01*
X233188000Y-122474000D02*
X229173600Y-122474000D01*
%TO.N,Net-(H1-Pad36)*%
X224028000Y-124694000D02*
X224028000Y-130086300D01*
X226519900Y-132578200D02*
X236772200Y-132578200D01*
X215403300Y-116069300D02*
X224028000Y-124694000D01*
X224028000Y-130086300D02*
X226519900Y-132578200D01*
X213878000Y-114544000D02*
X215403300Y-114544000D01*
X237565000Y-131785400D02*
X237565000Y-124851000D01*
X215403300Y-114544000D02*
X215403300Y-116069300D01*
X236772200Y-132578200D02*
X237565000Y-131785400D01*
X237565000Y-124851000D02*
X235188000Y-122474000D01*
D30*
%TO.N,~{IDE_LED}*%
X232698000Y-125984000D02*
X233188000Y-126474000D01*
X225298000Y-125984000D02*
X232698000Y-125984000D01*
%TO.N,Net-(D5-Pad2)*%
X222478000Y-129794000D02*
X222478000Y-126264000D01*
X222478000Y-126264000D02*
X222758000Y-125984000D01*
%TO.N,~{IPL1}*%
X196368000Y-127000000D02*
X196368800Y-127000000D01*
D31*
X177143200Y-140965000D02*
X185096900Y-140965000D01*
X170331600Y-147776600D02*
X177143200Y-140965000D01*
X196368800Y-129693100D02*
X196368800Y-127000000D01*
D30*
X196368800Y-127000000D02*
X199380000Y-127000000D01*
D31*
X185096900Y-140965000D02*
X196368800Y-129693100D01*
X90886900Y-147776600D02*
X170331600Y-147776600D01*
X47499300Y-104389000D02*
X90886900Y-147776600D01*
D30*
X199380000Y-127000000D02*
X199385000Y-126995000D01*
D31*
X45974000Y-104389000D02*
X47499300Y-104389000D01*
%TO.N,~{IPL0}*%
X168244800Y-129540000D02*
X168244800Y-130105100D01*
D30*
X168244800Y-129540000D02*
X171445000Y-129540000D01*
D31*
X44448700Y-103890500D02*
X44448700Y-105403700D01*
X45135400Y-103203800D02*
X44448700Y-103890500D01*
D30*
X171445000Y-129540000D02*
X171450000Y-129545000D01*
D31*
X44448700Y-105403700D02*
X45974000Y-106929000D01*
X168244800Y-130105100D02*
X151023600Y-147326300D01*
X47877200Y-103203800D02*
X45135400Y-103203800D01*
X151023600Y-147326300D02*
X91999700Y-147326300D01*
X91999700Y-147326300D02*
X47877200Y-103203800D01*
D30*
X168047000Y-129540000D02*
X168244800Y-129540000D01*
%TD*%
M02*
