%TF.GenerationSoftware,KiCad,Pcbnew,6.0.1+dfsg-1~bpo11+1*%
%TF.CreationDate,2022-02-09T07:39:16-06:00*%
%TF.ProjectId,raven68k-rev1,72617665-6e36-4386-9b2d-726576312e6b,rev?*%
%TF.SameCoordinates,Original*%
%TF.FileFunction,Soldermask,Top*%
%TF.FilePolarity,Negative*%
%FSLAX46Y46*%
G04 Gerber Fmt 4.6, Leading zero omitted, Abs format (unit mm)*
G04 Created by KiCad (PCBNEW 6.0.1+dfsg-1~bpo11+1) date 2022-02-09 07:39:16*
%MOMM*%
%LPD*%
G01*
G04 APERTURE LIST*
G04 Aperture macros list*
%AMRoundRect*
0 Rectangle with rounded corners*
0 $1 Rounding radius*
0 $2 $3 $4 $5 $6 $7 $8 $9 X,Y pos of 4 corners*
0 Add a 4 corners polygon primitive as box body*
4,1,4,$2,$3,$4,$5,$6,$7,$8,$9,$2,$3,0*
0 Add four circle primitives for the rounded corners*
1,1,$1+$1,$2,$3*
1,1,$1+$1,$4,$5*
1,1,$1+$1,$6,$7*
1,1,$1+$1,$8,$9*
0 Add four rect primitives between the rounded corners*
20,1,$1+$1,$2,$3,$4,$5,0*
20,1,$1+$1,$4,$5,$6,$7,0*
20,1,$1+$1,$6,$7,$8,$9,0*
20,1,$1+$1,$8,$9,$2,$3,0*%
G04 Aperture macros list end*
%ADD10R,1.500000X0.550000*%
%ADD11R,0.550000X1.500000*%
%ADD12R,1.700000X1.700000*%
%ADD13O,1.700000X1.700000*%
%ADD14RoundRect,0.250000X-0.412500X-0.650000X0.412500X-0.650000X0.412500X0.650000X-0.412500X0.650000X0*%
%ADD15RoundRect,0.250000X0.650000X-0.412500X0.650000X0.412500X-0.650000X0.412500X-0.650000X-0.412500X0*%
%ADD16RoundRect,0.250000X-0.650000X0.412500X-0.650000X-0.412500X0.650000X-0.412500X0.650000X0.412500X0*%
%ADD17R,2.400000X1.600000*%
%ADD18O,2.400000X1.600000*%
%ADD19R,2.500000X2.500000*%
%ADD20C,2.500000*%
%ADD21C,1.500000*%
%ADD22R,1.500000X1.500000*%
%ADD23R,1.800000X1.800000*%
%ADD24C,1.800000*%
%ADD25RoundRect,0.250000X-0.625000X0.400000X-0.625000X-0.400000X0.625000X-0.400000X0.625000X0.400000X0*%
%ADD26RoundRect,0.150000X-0.800000X-0.150000X0.800000X-0.150000X0.800000X0.150000X-0.800000X0.150000X0*%
%ADD27RoundRect,0.250000X-0.400000X-0.625000X0.400000X-0.625000X0.400000X0.625000X-0.400000X0.625000X0*%
%ADD28RoundRect,0.250001X-0.462499X-0.624999X0.462499X-0.624999X0.462499X0.624999X-0.462499X0.624999X0*%
%ADD29C,5.340000*%
%ADD30C,4.575000*%
%ADD31R,1.100000X1.800000*%
%ADD32RoundRect,0.275000X-0.275000X-0.625000X0.275000X-0.625000X0.275000X0.625000X-0.275000X0.625000X0*%
%ADD33RoundRect,0.250000X0.625000X-0.400000X0.625000X0.400000X-0.625000X0.400000X-0.625000X-0.400000X0*%
%ADD34R,1.500000X4.200000*%
G04 APERTURE END LIST*
D10*
%TO.C,U3*%
X136286000Y-54801000D03*
X136286000Y-55601000D03*
X136286000Y-56401000D03*
X136286000Y-57201000D03*
X136286000Y-58001000D03*
X136286000Y-58801000D03*
X136286000Y-59601000D03*
X136286000Y-60401000D03*
X136286000Y-61201000D03*
X136286000Y-62001000D03*
X136286000Y-62801000D03*
D11*
X137986000Y-64501000D03*
X138786000Y-64501000D03*
X139586000Y-64501000D03*
X140386000Y-64501000D03*
X141186000Y-64501000D03*
X141986000Y-64501000D03*
X142786000Y-64501000D03*
X143586000Y-64501000D03*
X144386000Y-64501000D03*
X145186000Y-64501000D03*
X145986000Y-64501000D03*
D10*
X147686000Y-62801000D03*
X147686000Y-62001000D03*
X147686000Y-61201000D03*
X147686000Y-60401000D03*
X147686000Y-59601000D03*
X147686000Y-58801000D03*
X147686000Y-58001000D03*
X147686000Y-57201000D03*
X147686000Y-56401000D03*
X147686000Y-55601000D03*
X147686000Y-54801000D03*
D11*
X145986000Y-53101000D03*
X145186000Y-53101000D03*
X144386000Y-53101000D03*
X143586000Y-53101000D03*
X142786000Y-53101000D03*
X141986000Y-53101000D03*
X141186000Y-53101000D03*
X140386000Y-53101000D03*
X139586000Y-53101000D03*
X138786000Y-53101000D03*
X137986000Y-53101000D03*
%TD*%
D12*
%TO.C,J1*%
X136271000Y-45148500D03*
D13*
X138811000Y-45148500D03*
X141351000Y-45148500D03*
X143891000Y-45148500D03*
X146431000Y-45148500D03*
X148971000Y-45148500D03*
%TD*%
D14*
%TO.C,C3*%
X141185500Y-48895000D03*
X144310500Y-48895000D03*
%TD*%
D15*
%TO.C,C4*%
X150114000Y-67856500D03*
X150114000Y-64731500D03*
%TD*%
D16*
%TO.C,C12*%
X214630000Y-45427500D03*
X214630000Y-48552500D03*
%TD*%
%TO.C,C13*%
X214630000Y-64477500D03*
X214630000Y-67602500D03*
%TD*%
%TO.C,C14*%
X210820000Y-45427500D03*
X210820000Y-48552500D03*
%TD*%
%TO.C,C15*%
X210820000Y-64477500D03*
X210820000Y-67602500D03*
%TD*%
%TO.C,C16*%
X207010000Y-45427500D03*
X207010000Y-48552500D03*
%TD*%
%TO.C,C17*%
X207010000Y-64477500D03*
X207010000Y-67602500D03*
%TD*%
%TO.C,C18*%
X201930000Y-45427500D03*
X201930000Y-48552500D03*
%TD*%
%TO.C,C19*%
X201930000Y-64477500D03*
X201930000Y-67602500D03*
%TD*%
D14*
%TO.C,C20*%
X183857500Y-45720000D03*
X186982500Y-45720000D03*
%TD*%
%TO.C,C21*%
X183857500Y-64770000D03*
X186982500Y-64770000D03*
%TD*%
D15*
%TO.C,C22*%
X181610000Y-43472500D03*
X181610000Y-40347500D03*
%TD*%
%TO.C,C23*%
X181610000Y-62522500D03*
X181610000Y-59397500D03*
%TD*%
%TO.C,C24*%
X177800000Y-43472500D03*
X177800000Y-40347500D03*
%TD*%
%TO.C,C25*%
X177800000Y-62522500D03*
X177800000Y-59397500D03*
%TD*%
%TO.C,C26*%
X173990000Y-43472500D03*
X173990000Y-40347500D03*
%TD*%
%TO.C,C27*%
X173990000Y-62522500D03*
X173990000Y-59397500D03*
%TD*%
D17*
%TO.C,U4*%
X146050000Y-81285000D03*
D18*
X146050000Y-83825000D03*
X146050000Y-86365000D03*
X146050000Y-88905000D03*
X146050000Y-91445000D03*
X146050000Y-93985000D03*
X146050000Y-96525000D03*
X146050000Y-99065000D03*
X146050000Y-101605000D03*
X146050000Y-104145000D03*
X146050000Y-106685000D03*
X146050000Y-109225000D03*
X146050000Y-111765000D03*
X146050000Y-114305000D03*
X146050000Y-116845000D03*
X146050000Y-119385000D03*
X146050000Y-121925000D03*
X146050000Y-124465000D03*
X146050000Y-127005000D03*
X146050000Y-129545000D03*
X171450000Y-129545000D03*
X171450000Y-127005000D03*
X171450000Y-124465000D03*
X171450000Y-121925000D03*
X171450000Y-119385000D03*
X171450000Y-116845000D03*
X171450000Y-114305000D03*
X171450000Y-111765000D03*
X171450000Y-109225000D03*
X171450000Y-106685000D03*
X171450000Y-104145000D03*
X171450000Y-101605000D03*
X171450000Y-99065000D03*
X171450000Y-96525000D03*
X171450000Y-93985000D03*
X171450000Y-91445000D03*
X171450000Y-88905000D03*
X171450000Y-86365000D03*
X171450000Y-83825000D03*
X171450000Y-81285000D03*
%TD*%
D17*
%TO.C,U2*%
X45974000Y-45969000D03*
D18*
X45974000Y-48509000D03*
X45974000Y-51049000D03*
X45974000Y-53589000D03*
X45974000Y-56129000D03*
X45974000Y-58669000D03*
X45974000Y-61209000D03*
X45974000Y-63749000D03*
X45974000Y-66289000D03*
X45974000Y-68829000D03*
X45974000Y-71369000D03*
X45974000Y-73909000D03*
X45974000Y-76449000D03*
X45974000Y-78989000D03*
X45974000Y-81529000D03*
X45974000Y-84069000D03*
X45974000Y-86609000D03*
X45974000Y-89149000D03*
X45974000Y-91689000D03*
X45974000Y-94229000D03*
X45974000Y-96769000D03*
X45974000Y-99309000D03*
X45974000Y-101849000D03*
X45974000Y-104389000D03*
X45974000Y-106929000D03*
X45974000Y-109469000D03*
X45974000Y-112009000D03*
X45974000Y-114549000D03*
X45974000Y-117089000D03*
X45974000Y-119629000D03*
X45974000Y-122169000D03*
X45974000Y-124709000D03*
X71374000Y-124709000D03*
X71374000Y-122169000D03*
X71374000Y-119629000D03*
X71374000Y-117089000D03*
X71374000Y-114549000D03*
X71374000Y-112009000D03*
X71374000Y-109469000D03*
X71374000Y-106929000D03*
X71374000Y-104389000D03*
X71374000Y-101849000D03*
X71374000Y-99309000D03*
X71374000Y-96769000D03*
X71374000Y-94229000D03*
X71374000Y-91689000D03*
X71374000Y-89149000D03*
X71374000Y-86609000D03*
X71374000Y-84069000D03*
X71374000Y-81529000D03*
X71374000Y-78989000D03*
X71374000Y-76449000D03*
X71374000Y-73909000D03*
X71374000Y-71369000D03*
X71374000Y-68829000D03*
X71374000Y-66289000D03*
X71374000Y-63749000D03*
X71374000Y-61209000D03*
X71374000Y-58669000D03*
X71374000Y-56129000D03*
X71374000Y-53589000D03*
X71374000Y-51049000D03*
X71374000Y-48509000D03*
X71374000Y-45969000D03*
%TD*%
D17*
%TO.C,U5*%
X190510000Y-85095000D03*
D18*
X190510000Y-87635000D03*
X190510000Y-90175000D03*
X190510000Y-92715000D03*
X190510000Y-95255000D03*
X190510000Y-97795000D03*
X190510000Y-100335000D03*
X190510000Y-102875000D03*
X190510000Y-105415000D03*
X190510000Y-107955000D03*
X198130000Y-107955000D03*
X198130000Y-105415000D03*
X198130000Y-102875000D03*
X198130000Y-100335000D03*
X198130000Y-97795000D03*
X198130000Y-95255000D03*
X198130000Y-92715000D03*
X198130000Y-90175000D03*
X198130000Y-87635000D03*
X198130000Y-85095000D03*
%TD*%
D12*
%TO.C,U6*%
X160909000Y-142621000D03*
D13*
X163449000Y-142621000D03*
X165989000Y-142621000D03*
X168529000Y-142621000D03*
X171069000Y-142621000D03*
X173609000Y-142621000D03*
%TD*%
D19*
%TO.C,X2*%
X158750000Y-59690000D03*
D20*
X158750000Y-74930000D03*
X166370000Y-74930000D03*
X166370000Y-59690000D03*
%TD*%
D17*
%TO.C,U10*%
X108199000Y-96505000D03*
D18*
X108199000Y-99045000D03*
X108199000Y-101585000D03*
X108199000Y-104125000D03*
X108199000Y-106665000D03*
X108199000Y-109205000D03*
X108199000Y-111745000D03*
X108199000Y-114285000D03*
X108199000Y-116825000D03*
X108199000Y-119365000D03*
X108199000Y-121905000D03*
X108199000Y-124445000D03*
X108199000Y-126985000D03*
X108199000Y-129525000D03*
X123439000Y-129525000D03*
X123439000Y-126985000D03*
X123439000Y-124445000D03*
X123439000Y-121905000D03*
X123439000Y-119365000D03*
X123439000Y-116825000D03*
X123439000Y-114285000D03*
X123439000Y-111745000D03*
X123439000Y-109205000D03*
X123439000Y-106665000D03*
X123439000Y-104125000D03*
X123439000Y-101585000D03*
X123439000Y-99045000D03*
X123439000Y-96505000D03*
%TD*%
D17*
%TO.C,U11*%
X83053000Y-96505000D03*
D18*
X83053000Y-99045000D03*
X83053000Y-101585000D03*
X83053000Y-104125000D03*
X83053000Y-106665000D03*
X83053000Y-109205000D03*
X83053000Y-111745000D03*
X83053000Y-114285000D03*
X83053000Y-116825000D03*
X83053000Y-119365000D03*
X83053000Y-121905000D03*
X83053000Y-124445000D03*
X83053000Y-126985000D03*
X83053000Y-129525000D03*
X98293000Y-129525000D03*
X98293000Y-126985000D03*
X98293000Y-124445000D03*
X98293000Y-121905000D03*
X98293000Y-119365000D03*
X98293000Y-116825000D03*
X98293000Y-114285000D03*
X98293000Y-111745000D03*
X98293000Y-109205000D03*
X98293000Y-106665000D03*
X98293000Y-104125000D03*
X98293000Y-101585000D03*
X98293000Y-99045000D03*
X98293000Y-96505000D03*
%TD*%
D17*
%TO.C,U9*%
X108199000Y-45847000D03*
D18*
X108199000Y-48387000D03*
X108199000Y-50927000D03*
X108199000Y-53467000D03*
X108199000Y-56007000D03*
X108199000Y-58547000D03*
X108199000Y-61087000D03*
X108199000Y-63627000D03*
X108199000Y-66167000D03*
X108199000Y-68707000D03*
X108199000Y-71247000D03*
X108199000Y-73787000D03*
X108199000Y-76327000D03*
X108199000Y-78867000D03*
X108199000Y-81407000D03*
X108199000Y-83947000D03*
X123439000Y-83947000D03*
X123439000Y-81407000D03*
X123439000Y-78867000D03*
X123439000Y-76327000D03*
X123439000Y-73787000D03*
X123439000Y-71247000D03*
X123439000Y-68707000D03*
X123439000Y-66167000D03*
X123439000Y-63627000D03*
X123439000Y-61087000D03*
X123439000Y-58547000D03*
X123439000Y-56007000D03*
X123439000Y-53467000D03*
X123439000Y-50927000D03*
X123439000Y-48387000D03*
X123439000Y-45847000D03*
%TD*%
D17*
%TO.C,U8*%
X83307000Y-45974000D03*
D18*
X83307000Y-48514000D03*
X83307000Y-51054000D03*
X83307000Y-53594000D03*
X83307000Y-56134000D03*
X83307000Y-58674000D03*
X83307000Y-61214000D03*
X83307000Y-63754000D03*
X83307000Y-66294000D03*
X83307000Y-68834000D03*
X83307000Y-71374000D03*
X83307000Y-73914000D03*
X83307000Y-76454000D03*
X83307000Y-78994000D03*
X83307000Y-81534000D03*
X83307000Y-84074000D03*
X98547000Y-84074000D03*
X98547000Y-81534000D03*
X98547000Y-78994000D03*
X98547000Y-76454000D03*
X98547000Y-73914000D03*
X98547000Y-71374000D03*
X98547000Y-68834000D03*
X98547000Y-66294000D03*
X98547000Y-63754000D03*
X98547000Y-61214000D03*
X98547000Y-58674000D03*
X98547000Y-56134000D03*
X98547000Y-53594000D03*
X98547000Y-51054000D03*
X98547000Y-48514000D03*
X98547000Y-45974000D03*
%TD*%
D17*
%TO.C,U7*%
X184145000Y-114295000D03*
D18*
X184145000Y-116835000D03*
X184145000Y-119375000D03*
X184145000Y-121915000D03*
X184145000Y-124455000D03*
X184145000Y-126995000D03*
X184145000Y-129535000D03*
X184145000Y-132075000D03*
X184145000Y-134615000D03*
X184145000Y-137155000D03*
X184145000Y-139695000D03*
X184145000Y-142235000D03*
X199385000Y-142235000D03*
X199385000Y-139695000D03*
X199385000Y-137155000D03*
X199385000Y-134615000D03*
X199385000Y-132075000D03*
X199385000Y-129535000D03*
X199385000Y-126995000D03*
X199385000Y-124455000D03*
X199385000Y-121915000D03*
X199385000Y-119375000D03*
X199385000Y-116835000D03*
X199385000Y-114295000D03*
%TD*%
D19*
%TO.C,X1*%
X51054000Y-141224000D03*
D20*
X66294000Y-141224000D03*
X66294000Y-133604000D03*
X51054000Y-133604000D03*
%TD*%
D12*
%TO.C,J2*%
X131953000Y-144272000D03*
D13*
X131953000Y-141732000D03*
X134493000Y-144272000D03*
X134493000Y-141732000D03*
X137033000Y-144272000D03*
X137033000Y-141732000D03*
X139573000Y-144272000D03*
X139573000Y-141732000D03*
X142113000Y-144272000D03*
X142113000Y-141732000D03*
X144653000Y-144272000D03*
X144653000Y-141732000D03*
X147193000Y-144272000D03*
X147193000Y-141732000D03*
X149733000Y-144272000D03*
X149733000Y-141732000D03*
%TD*%
D21*
%TO.C,H1*%
X235188000Y-130474000D03*
X233188000Y-130474000D03*
X235188000Y-128474000D03*
X233188000Y-128474000D03*
X235188000Y-126474000D03*
X233188000Y-126474000D03*
X235188000Y-124474000D03*
X233188000Y-124474000D03*
X235188000Y-122474000D03*
X233188000Y-122474000D03*
X235188000Y-120474000D03*
X233188000Y-120474000D03*
X235188000Y-118474000D03*
X233188000Y-118474000D03*
X235188000Y-116474000D03*
X233188000Y-116474000D03*
X235188000Y-114474000D03*
X233188000Y-114474000D03*
X235188000Y-112474000D03*
X233188000Y-112474000D03*
X235188000Y-110474000D03*
X233188000Y-110474000D03*
X235188000Y-108474000D03*
X233188000Y-108474000D03*
X235188000Y-106474000D03*
X233188000Y-106474000D03*
X235188000Y-104474000D03*
X233188000Y-104474000D03*
X235188000Y-102474000D03*
X233188000Y-102474000D03*
X235188000Y-100474000D03*
X233188000Y-100474000D03*
X235188000Y-98474000D03*
X233188000Y-98474000D03*
X235188000Y-96474000D03*
X233188000Y-96474000D03*
X235188000Y-94474000D03*
X233188000Y-94474000D03*
X235188000Y-92474000D03*
X233188000Y-92474000D03*
X235188000Y-90474000D03*
X233188000Y-90474000D03*
X235188000Y-88474000D03*
D22*
X233188000Y-88474000D03*
%TD*%
D17*
%TO.C,RN1*%
X213878000Y-101844000D03*
D18*
X213878000Y-104384000D03*
X213878000Y-106924000D03*
X213878000Y-109464000D03*
X213878000Y-112004000D03*
X213878000Y-114544000D03*
X213878000Y-117084000D03*
X213878000Y-119624000D03*
X221498000Y-119624000D03*
X221498000Y-117084000D03*
X221498000Y-114544000D03*
X221498000Y-112004000D03*
X221498000Y-109464000D03*
X221498000Y-106924000D03*
X221498000Y-104384000D03*
X221498000Y-101844000D03*
%TD*%
D23*
%TO.C,D3*%
X177800000Y-55880000D03*
D24*
X177800000Y-53340000D03*
%TD*%
D25*
%TO.C,R20*%
X173990000Y-46710000D03*
X173990000Y-49810000D03*
%TD*%
D23*
%TO.C,D4*%
X177800000Y-46990000D03*
D24*
X177800000Y-49530000D03*
%TD*%
D26*
%TO.C,IC2*%
X194620000Y-71755000D03*
X194620000Y-73025000D03*
X194620000Y-74295000D03*
X194620000Y-75565000D03*
X201620000Y-75565000D03*
X201620000Y-74295000D03*
X201620000Y-73025000D03*
X201620000Y-71755000D03*
%TD*%
D25*
%TO.C,R17*%
X185420000Y-40360000D03*
X185420000Y-43460000D03*
%TD*%
D23*
%TO.C,D5*%
X225298000Y-125984000D03*
D24*
X222758000Y-125984000D03*
%TD*%
D27*
%TO.C,R11*%
X201650000Y-41910000D03*
X204750000Y-41910000D03*
%TD*%
D28*
%TO.C,D1*%
X194092500Y-49530000D03*
X197067500Y-49530000D03*
%TD*%
D25*
%TO.C,R13*%
X189230000Y-40360000D03*
X189230000Y-43460000D03*
%TD*%
D27*
%TO.C,R12*%
X201650000Y-60960000D03*
X204750000Y-60960000D03*
%TD*%
D28*
%TO.C,D2*%
X194092500Y-68580000D03*
X197067500Y-68580000D03*
%TD*%
D29*
%TO.C,J3*%
X225859000Y-60095000D03*
D30*
X228859000Y-55295000D03*
X232109000Y-60095000D03*
%TD*%
D26*
%TO.C,IC1*%
X194620000Y-52705000D03*
X194620000Y-53975000D03*
X194620000Y-55245000D03*
X194620000Y-56515000D03*
X201620000Y-56515000D03*
X201620000Y-55245000D03*
X201620000Y-53975000D03*
X201620000Y-52705000D03*
%TD*%
D24*
%TO.C,S2*%
X232283000Y-45974000D03*
X226983000Y-45974000D03*
%TD*%
D31*
%TO.C,U1*%
X162560000Y-42310000D03*
D32*
X163830000Y-40240000D03*
X165100000Y-42310000D03*
%TD*%
D22*
%TO.C,SW1*%
X159691000Y-48931000D03*
D21*
X166191000Y-48931000D03*
X159691000Y-53431000D03*
X166191000Y-53431000D03*
%TD*%
D33*
%TO.C,R19*%
X173990000Y-56160000D03*
X173990000Y-53060000D03*
%TD*%
D25*
%TO.C,R15*%
X189230000Y-59410000D03*
X189230000Y-62510000D03*
%TD*%
%TO.C,R14*%
X189230000Y-47980000D03*
X189230000Y-51080000D03*
%TD*%
D14*
%TO.C,C28*%
X154901500Y-40894000D03*
X158026500Y-40894000D03*
%TD*%
D34*
%TO.C,L1*%
X197380000Y-43180000D03*
X193780000Y-43180000D03*
%TD*%
D25*
%TO.C,R16*%
X189230000Y-67030000D03*
X189230000Y-70130000D03*
%TD*%
D34*
%TO.C,L2*%
X197380000Y-62230000D03*
X193780000Y-62230000D03*
%TD*%
D25*
%TO.C,R18*%
X185420000Y-59410000D03*
X185420000Y-62510000D03*
%TD*%
M02*
