%TF.GenerationSoftware,KiCad,Pcbnew,6.0.1+dfsg-1~bpo11+1*%
%TF.CreationDate,2022-02-09T07:39:16-06:00*%
%TF.ProjectId,raven68k-rev1,72617665-6e36-4386-9b2d-726576312e6b,rev?*%
%TF.SameCoordinates,Original*%
%TF.FileFunction,Legend,Top*%
%TF.FilePolarity,Positive*%
%FSLAX46Y46*%
G04 Gerber Fmt 4.6, Leading zero omitted, Abs format (unit mm)*
G04 Created by KiCad (PCBNEW 6.0.1+dfsg-1~bpo11+1) date 2022-02-09 07:39:16*
%MOMM*%
%LPD*%
G01*
G04 APERTURE LIST*
G04 Aperture macros list*
%AMRoundRect*
0 Rectangle with rounded corners*
0 $1 Rounding radius*
0 $2 $3 $4 $5 $6 $7 $8 $9 X,Y pos of 4 corners*
0 Add a 4 corners polygon primitive as box body*
4,1,4,$2,$3,$4,$5,$6,$7,$8,$9,$2,$3,0*
0 Add four circle primitives for the rounded corners*
1,1,$1+$1,$2,$3*
1,1,$1+$1,$4,$5*
1,1,$1+$1,$6,$7*
1,1,$1+$1,$8,$9*
0 Add four rect primitives between the rounded corners*
20,1,$1+$1,$2,$3,$4,$5,0*
20,1,$1+$1,$4,$5,$6,$7,0*
20,1,$1+$1,$6,$7,$8,$9,0*
20,1,$1+$1,$8,$9,$2,$3,0*%
G04 Aperture macros list end*
%ADD10C,0.300000*%
%ADD11C,0.150000*%
%ADD12C,0.254000*%
%ADD13C,0.120000*%
%ADD14C,0.200000*%
%ADD15C,0.100000*%
%ADD16R,1.500000X0.550000*%
%ADD17R,0.550000X1.500000*%
%ADD18R,1.700000X1.700000*%
%ADD19O,1.700000X1.700000*%
%ADD20RoundRect,0.250000X-0.412500X-0.650000X0.412500X-0.650000X0.412500X0.650000X-0.412500X0.650000X0*%
%ADD21RoundRect,0.250000X0.650000X-0.412500X0.650000X0.412500X-0.650000X0.412500X-0.650000X-0.412500X0*%
%ADD22RoundRect,0.250000X-0.650000X0.412500X-0.650000X-0.412500X0.650000X-0.412500X0.650000X0.412500X0*%
%ADD23R,2.400000X1.600000*%
%ADD24O,2.400000X1.600000*%
%ADD25R,2.500000X2.500000*%
%ADD26C,2.500000*%
%ADD27C,1.500000*%
%ADD28R,1.500000X1.500000*%
%ADD29R,1.800000X1.800000*%
%ADD30C,1.800000*%
%ADD31RoundRect,0.250000X-0.625000X0.400000X-0.625000X-0.400000X0.625000X-0.400000X0.625000X0.400000X0*%
%ADD32RoundRect,0.150000X-0.800000X-0.150000X0.800000X-0.150000X0.800000X0.150000X-0.800000X0.150000X0*%
%ADD33RoundRect,0.250000X-0.400000X-0.625000X0.400000X-0.625000X0.400000X0.625000X-0.400000X0.625000X0*%
%ADD34RoundRect,0.250001X-0.462499X-0.624999X0.462499X-0.624999X0.462499X0.624999X-0.462499X0.624999X0*%
%ADD35C,5.340000*%
%ADD36C,4.575000*%
%ADD37R,1.100000X1.800000*%
%ADD38RoundRect,0.275000X-0.275000X-0.625000X0.275000X-0.625000X0.275000X0.625000X-0.275000X0.625000X0*%
%ADD39RoundRect,0.250000X0.625000X-0.400000X0.625000X0.400000X-0.625000X0.400000X-0.625000X-0.400000X0*%
%ADD40R,1.500000X4.200000*%
G04 APERTURE END LIST*
D10*
X229532571Y-111033142D02*
X228032571Y-111033142D01*
X228032571Y-110461714D01*
X228104000Y-110318857D01*
X228175428Y-110247428D01*
X228318285Y-110176000D01*
X228532571Y-110176000D01*
X228675428Y-110247428D01*
X228746857Y-110318857D01*
X228818285Y-110461714D01*
X228818285Y-111033142D01*
X229104000Y-109604571D02*
X229104000Y-108890285D01*
X229532571Y-109747428D02*
X228032571Y-109247428D01*
X229532571Y-108747428D01*
X228032571Y-108461714D02*
X228032571Y-107604571D01*
X229532571Y-108033142D02*
X228032571Y-108033142D01*
X229104000Y-107176000D02*
X229104000Y-106461714D01*
X229532571Y-107318857D02*
X228032571Y-106818857D01*
X229532571Y-106318857D01*
X229532571Y-104676000D02*
X228032571Y-104676000D01*
X229532571Y-103961714D02*
X228032571Y-103961714D01*
X228032571Y-103604571D01*
X228104000Y-103390285D01*
X228246857Y-103247428D01*
X228389714Y-103176000D01*
X228675428Y-103104571D01*
X228889714Y-103104571D01*
X229175428Y-103176000D01*
X229318285Y-103247428D01*
X229461142Y-103390285D01*
X229532571Y-103604571D01*
X229532571Y-103961714D01*
X228746857Y-102461714D02*
X228746857Y-101961714D01*
X229532571Y-101747428D02*
X229532571Y-102461714D01*
X228032571Y-102461714D01*
X228032571Y-101747428D01*
D11*
X168854380Y-146319809D02*
X168378190Y-146653142D01*
X168854380Y-146891238D02*
X167854380Y-146891238D01*
X167854380Y-146510285D01*
X167902000Y-146415047D01*
X167949619Y-146367428D01*
X168044857Y-146319809D01*
X168187714Y-146319809D01*
X168282952Y-146367428D01*
X168330571Y-146415047D01*
X168378190Y-146510285D01*
X168378190Y-146891238D01*
X168854380Y-145986476D02*
X168187714Y-145462666D01*
X168187714Y-145986476D02*
X168854380Y-145462666D01*
X168568666Y-145129333D02*
X168568666Y-144653142D01*
X168854380Y-145224571D02*
X167854380Y-144891238D01*
X168854380Y-144557904D01*
X165314380Y-146915047D02*
X165314380Y-146343619D01*
X166314380Y-146629333D02*
X165314380Y-146629333D01*
X166314380Y-146105523D02*
X165647714Y-145581714D01*
X165647714Y-146105523D02*
X166314380Y-145581714D01*
X166028666Y-145248380D02*
X166028666Y-144772190D01*
X166314380Y-145343619D02*
X165314380Y-145010285D01*
X166314380Y-144676952D01*
X161615619Y-46934380D02*
X161282285Y-46458190D01*
X161044190Y-46934380D02*
X161044190Y-45934380D01*
X161425142Y-45934380D01*
X161520380Y-45982000D01*
X161568000Y-46029619D01*
X161615619Y-46124857D01*
X161615619Y-46267714D01*
X161568000Y-46362952D01*
X161520380Y-46410571D01*
X161425142Y-46458190D01*
X161044190Y-46458190D01*
X162044190Y-46410571D02*
X162377523Y-46410571D01*
X162520380Y-46934380D02*
X162044190Y-46934380D01*
X162044190Y-45934380D01*
X162520380Y-45934380D01*
X162901333Y-46886761D02*
X163044190Y-46934380D01*
X163282285Y-46934380D01*
X163377523Y-46886761D01*
X163425142Y-46839142D01*
X163472761Y-46743904D01*
X163472761Y-46648666D01*
X163425142Y-46553428D01*
X163377523Y-46505809D01*
X163282285Y-46458190D01*
X163091809Y-46410571D01*
X162996571Y-46362952D01*
X162948952Y-46315333D01*
X162901333Y-46220095D01*
X162901333Y-46124857D01*
X162948952Y-46029619D01*
X162996571Y-45982000D01*
X163091809Y-45934380D01*
X163329904Y-45934380D01*
X163472761Y-45982000D01*
X163901333Y-46410571D02*
X164234666Y-46410571D01*
X164377523Y-46934380D02*
X163901333Y-46934380D01*
X163901333Y-45934380D01*
X164377523Y-45934380D01*
X164663238Y-45934380D02*
X165234666Y-45934380D01*
X164948952Y-46934380D02*
X164948952Y-45934380D01*
X142708571Y-139644380D02*
X142708571Y-138644380D01*
X143184761Y-139644380D02*
X143184761Y-138644380D01*
X143565714Y-138644380D01*
X143660952Y-138692000D01*
X143708571Y-138739619D01*
X143756190Y-138834857D01*
X143756190Y-138977714D01*
X143708571Y-139072952D01*
X143660952Y-139120571D01*
X143565714Y-139168190D01*
X143184761Y-139168190D01*
X144375238Y-138644380D02*
X144470476Y-138644380D01*
X144565714Y-138692000D01*
X144613333Y-138739619D01*
X144660952Y-138834857D01*
X144708571Y-139025333D01*
X144708571Y-139263428D01*
X144660952Y-139453904D01*
X144613333Y-139549142D01*
X144565714Y-139596761D01*
X144470476Y-139644380D01*
X144375238Y-139644380D01*
X144280000Y-139596761D01*
X144232380Y-139549142D01*
X144184761Y-139453904D01*
X144137142Y-139263428D01*
X144137142Y-139025333D01*
X144184761Y-138834857D01*
X144232380Y-138739619D01*
X144280000Y-138692000D01*
X144375238Y-138644380D01*
X145137142Y-139263428D02*
X145899047Y-139263428D01*
X146851428Y-138644380D02*
X146375238Y-138644380D01*
X146327619Y-139120571D01*
X146375238Y-139072952D01*
X146470476Y-139025333D01*
X146708571Y-139025333D01*
X146803809Y-139072952D01*
X146851428Y-139120571D01*
X146899047Y-139215809D01*
X146899047Y-139453904D01*
X146851428Y-139549142D01*
X146803809Y-139596761D01*
X146708571Y-139644380D01*
X146470476Y-139644380D01*
X146375238Y-139596761D01*
X146327619Y-139549142D01*
X138803333Y-146264380D02*
X138993809Y-146264380D01*
X139089047Y-146312000D01*
X139184285Y-146407238D01*
X139231904Y-146597714D01*
X139231904Y-146931047D01*
X139184285Y-147121523D01*
X139089047Y-147216761D01*
X138993809Y-147264380D01*
X138803333Y-147264380D01*
X138708095Y-147216761D01*
X138612857Y-147121523D01*
X138565238Y-146931047D01*
X138565238Y-146597714D01*
X138612857Y-146407238D01*
X138708095Y-146312000D01*
X138803333Y-146264380D01*
X139660476Y-147264380D02*
X139660476Y-146264380D01*
X140041428Y-146264380D01*
X140136666Y-146312000D01*
X140184285Y-146359619D01*
X140231904Y-146454857D01*
X140231904Y-146597714D01*
X140184285Y-146692952D01*
X140136666Y-146740571D01*
X140041428Y-146788190D01*
X139660476Y-146788190D01*
X140850952Y-146264380D02*
X140946190Y-146264380D01*
X141041428Y-146312000D01*
X141089047Y-146359619D01*
X141136666Y-146454857D01*
X141184285Y-146645333D01*
X141184285Y-146883428D01*
X141136666Y-147073904D01*
X141089047Y-147169142D01*
X141041428Y-147216761D01*
X140946190Y-147264380D01*
X140850952Y-147264380D01*
X140755714Y-147216761D01*
X140708095Y-147169142D01*
X140660476Y-147073904D01*
X140612857Y-146883428D01*
X140612857Y-146645333D01*
X140660476Y-146454857D01*
X140708095Y-146359619D01*
X140755714Y-146312000D01*
X140850952Y-146264380D01*
X141612857Y-146883428D02*
X142374761Y-146883428D01*
X142755714Y-146264380D02*
X143422380Y-146264380D01*
X142993809Y-147264380D01*
X134818380Y-139279238D02*
X134342190Y-139612571D01*
X134818380Y-139850666D02*
X133818380Y-139850666D01*
X133818380Y-139469714D01*
X133866000Y-139374476D01*
X133913619Y-139326857D01*
X134008857Y-139279238D01*
X134151714Y-139279238D01*
X134246952Y-139326857D01*
X134294571Y-139374476D01*
X134342190Y-139469714D01*
X134342190Y-139850666D01*
X134818380Y-138945904D02*
X134151714Y-138422095D01*
X134151714Y-138945904D02*
X134818380Y-138422095D01*
X134294571Y-137707809D02*
X134342190Y-137564952D01*
X134389809Y-137517333D01*
X134485047Y-137469714D01*
X134627904Y-137469714D01*
X134723142Y-137517333D01*
X134770761Y-137564952D01*
X134818380Y-137660190D01*
X134818380Y-138041142D01*
X133818380Y-138041142D01*
X133818380Y-137707809D01*
X133866000Y-137612571D01*
X133913619Y-137564952D01*
X134008857Y-137517333D01*
X134104095Y-137517333D01*
X134199333Y-137564952D01*
X134246952Y-137612571D01*
X134294571Y-137707809D01*
X134294571Y-138041142D01*
X131532380Y-139874476D02*
X131532380Y-139303047D01*
X132532380Y-139588761D02*
X131532380Y-139588761D01*
X132532380Y-139064952D02*
X131865714Y-138541142D01*
X131865714Y-139064952D02*
X132532380Y-138541142D01*
X132008571Y-137826857D02*
X132056190Y-137684000D01*
X132103809Y-137636380D01*
X132199047Y-137588761D01*
X132341904Y-137588761D01*
X132437142Y-137636380D01*
X132484761Y-137684000D01*
X132532380Y-137779238D01*
X132532380Y-138160190D01*
X131532380Y-138160190D01*
X131532380Y-137826857D01*
X131580000Y-137731619D01*
X131627619Y-137684000D01*
X131722857Y-137636380D01*
X131818095Y-137636380D01*
X131913333Y-137684000D01*
X131960952Y-137731619D01*
X132008571Y-137826857D01*
X132008571Y-138160190D01*
X179994380Y-149058380D02*
X180565809Y-149058380D01*
X180280095Y-150058380D02*
X180280095Y-149058380D01*
X180899142Y-150058380D02*
X180899142Y-149058380D01*
X181327714Y-150058380D02*
X181327714Y-149534571D01*
X181280095Y-149439333D01*
X181184857Y-149391714D01*
X181042000Y-149391714D01*
X180946761Y-149439333D01*
X180899142Y-149486952D01*
X182184857Y-150010761D02*
X182089619Y-150058380D01*
X181899142Y-150058380D01*
X181803904Y-150010761D01*
X181756285Y-149915523D01*
X181756285Y-149534571D01*
X181803904Y-149439333D01*
X181899142Y-149391714D01*
X182089619Y-149391714D01*
X182184857Y-149439333D01*
X182232476Y-149534571D01*
X182232476Y-149629809D01*
X181756285Y-149725047D01*
X183994380Y-150058380D02*
X183661047Y-149582190D01*
X183422952Y-150058380D02*
X183422952Y-149058380D01*
X183803904Y-149058380D01*
X183899142Y-149106000D01*
X183946761Y-149153619D01*
X183994380Y-149248857D01*
X183994380Y-149391714D01*
X183946761Y-149486952D01*
X183899142Y-149534571D01*
X183803904Y-149582190D01*
X183422952Y-149582190D01*
X184851523Y-150058380D02*
X184851523Y-149534571D01*
X184803904Y-149439333D01*
X184708666Y-149391714D01*
X184518190Y-149391714D01*
X184422952Y-149439333D01*
X184851523Y-150010761D02*
X184756285Y-150058380D01*
X184518190Y-150058380D01*
X184422952Y-150010761D01*
X184375333Y-149915523D01*
X184375333Y-149820285D01*
X184422952Y-149725047D01*
X184518190Y-149677428D01*
X184756285Y-149677428D01*
X184851523Y-149629809D01*
X185232476Y-149391714D02*
X185470571Y-150058380D01*
X185708666Y-149391714D01*
X186470571Y-150010761D02*
X186375333Y-150058380D01*
X186184857Y-150058380D01*
X186089619Y-150010761D01*
X186042000Y-149915523D01*
X186042000Y-149534571D01*
X186089619Y-149439333D01*
X186184857Y-149391714D01*
X186375333Y-149391714D01*
X186470571Y-149439333D01*
X186518190Y-149534571D01*
X186518190Y-149629809D01*
X186042000Y-149725047D01*
X186946761Y-149391714D02*
X186946761Y-150058380D01*
X186946761Y-149486952D02*
X186994380Y-149439333D01*
X187089619Y-149391714D01*
X187232476Y-149391714D01*
X187327714Y-149439333D01*
X187375333Y-149534571D01*
X187375333Y-150058380D01*
X188280095Y-149058380D02*
X188089619Y-149058380D01*
X187994380Y-149106000D01*
X187946761Y-149153619D01*
X187851523Y-149296476D01*
X187803904Y-149486952D01*
X187803904Y-149867904D01*
X187851523Y-149963142D01*
X187899142Y-150010761D01*
X187994380Y-150058380D01*
X188184857Y-150058380D01*
X188280095Y-150010761D01*
X188327714Y-149963142D01*
X188375333Y-149867904D01*
X188375333Y-149629809D01*
X188327714Y-149534571D01*
X188280095Y-149486952D01*
X188184857Y-149439333D01*
X187994380Y-149439333D01*
X187899142Y-149486952D01*
X187851523Y-149534571D01*
X187803904Y-149629809D01*
X188946761Y-149486952D02*
X188851523Y-149439333D01*
X188803904Y-149391714D01*
X188756285Y-149296476D01*
X188756285Y-149248857D01*
X188803904Y-149153619D01*
X188851523Y-149106000D01*
X188946761Y-149058380D01*
X189137238Y-149058380D01*
X189232476Y-149106000D01*
X189280095Y-149153619D01*
X189327714Y-149248857D01*
X189327714Y-149296476D01*
X189280095Y-149391714D01*
X189232476Y-149439333D01*
X189137238Y-149486952D01*
X188946761Y-149486952D01*
X188851523Y-149534571D01*
X188803904Y-149582190D01*
X188756285Y-149677428D01*
X188756285Y-149867904D01*
X188803904Y-149963142D01*
X188851523Y-150010761D01*
X188946761Y-150058380D01*
X189137238Y-150058380D01*
X189232476Y-150010761D01*
X189280095Y-149963142D01*
X189327714Y-149867904D01*
X189327714Y-149677428D01*
X189280095Y-149582190D01*
X189232476Y-149534571D01*
X189137238Y-149486952D01*
X189756285Y-150058380D02*
X189756285Y-149058380D01*
X189851523Y-149677428D02*
X190137238Y-150058380D01*
X190137238Y-149391714D02*
X189756285Y-149772666D01*
X191613428Y-150439333D02*
X191565809Y-150391714D01*
X191470571Y-150248857D01*
X191422952Y-150153619D01*
X191375333Y-150010761D01*
X191327714Y-149772666D01*
X191327714Y-149582190D01*
X191375333Y-149344095D01*
X191422952Y-149201238D01*
X191470571Y-149106000D01*
X191565809Y-148963142D01*
X191613428Y-148915523D01*
X192565809Y-150058380D02*
X192232476Y-149582190D01*
X191994380Y-150058380D02*
X191994380Y-149058380D01*
X192375333Y-149058380D01*
X192470571Y-149106000D01*
X192518190Y-149153619D01*
X192565809Y-149248857D01*
X192565809Y-149391714D01*
X192518190Y-149486952D01*
X192470571Y-149534571D01*
X192375333Y-149582190D01*
X191994380Y-149582190D01*
X193375333Y-150010761D02*
X193280095Y-150058380D01*
X193089619Y-150058380D01*
X192994380Y-150010761D01*
X192946761Y-149915523D01*
X192946761Y-149534571D01*
X192994380Y-149439333D01*
X193089619Y-149391714D01*
X193280095Y-149391714D01*
X193375333Y-149439333D01*
X193422952Y-149534571D01*
X193422952Y-149629809D01*
X192946761Y-149725047D01*
X193756285Y-149391714D02*
X193994380Y-150058380D01*
X194232476Y-149391714D01*
X195899142Y-150058380D02*
X195327714Y-150058380D01*
X195613428Y-150058380D02*
X195613428Y-149058380D01*
X195518190Y-149201238D01*
X195422952Y-149296476D01*
X195327714Y-149344095D01*
X196375333Y-150010761D02*
X196375333Y-150058380D01*
X196327714Y-150153619D01*
X196280095Y-150201238D01*
X197518190Y-149153619D02*
X197565809Y-149106000D01*
X197661047Y-149058380D01*
X197899142Y-149058380D01*
X197994380Y-149106000D01*
X198042000Y-149153619D01*
X198089619Y-149248857D01*
X198089619Y-149344095D01*
X198042000Y-149486952D01*
X197470571Y-150058380D01*
X198089619Y-150058380D01*
X198708666Y-149058380D02*
X198803904Y-149058380D01*
X198899142Y-149106000D01*
X198946761Y-149153619D01*
X198994380Y-149248857D01*
X199042000Y-149439333D01*
X199042000Y-149677428D01*
X198994380Y-149867904D01*
X198946761Y-149963142D01*
X198899142Y-150010761D01*
X198803904Y-150058380D01*
X198708666Y-150058380D01*
X198613428Y-150010761D01*
X198565809Y-149963142D01*
X198518190Y-149867904D01*
X198470571Y-149677428D01*
X198470571Y-149439333D01*
X198518190Y-149248857D01*
X198565809Y-149153619D01*
X198613428Y-149106000D01*
X198708666Y-149058380D01*
X199422952Y-149153619D02*
X199470571Y-149106000D01*
X199565809Y-149058380D01*
X199803904Y-149058380D01*
X199899142Y-149106000D01*
X199946761Y-149153619D01*
X199994380Y-149248857D01*
X199994380Y-149344095D01*
X199946761Y-149486952D01*
X199375333Y-150058380D01*
X199994380Y-150058380D01*
X200375333Y-149153619D02*
X200422952Y-149106000D01*
X200518190Y-149058380D01*
X200756285Y-149058380D01*
X200851523Y-149106000D01*
X200899142Y-149153619D01*
X200946761Y-149248857D01*
X200946761Y-149344095D01*
X200899142Y-149486952D01*
X200327714Y-150058380D01*
X200946761Y-150058380D01*
X201375333Y-149677428D02*
X202137238Y-149677428D01*
X202803904Y-149058380D02*
X202899142Y-149058380D01*
X202994380Y-149106000D01*
X203042000Y-149153619D01*
X203089619Y-149248857D01*
X203137238Y-149439333D01*
X203137238Y-149677428D01*
X203089619Y-149867904D01*
X203042000Y-149963142D01*
X202994380Y-150010761D01*
X202899142Y-150058380D01*
X202803904Y-150058380D01*
X202708666Y-150010761D01*
X202661047Y-149963142D01*
X202613428Y-149867904D01*
X202565809Y-149677428D01*
X202565809Y-149439333D01*
X202613428Y-149248857D01*
X202661047Y-149153619D01*
X202708666Y-149106000D01*
X202803904Y-149058380D01*
X203518190Y-149153619D02*
X203565809Y-149106000D01*
X203661047Y-149058380D01*
X203899142Y-149058380D01*
X203994380Y-149106000D01*
X204042000Y-149153619D01*
X204089619Y-149248857D01*
X204089619Y-149344095D01*
X204042000Y-149486952D01*
X203470571Y-150058380D01*
X204089619Y-150058380D01*
X204518190Y-149677428D02*
X205280095Y-149677428D01*
X205946761Y-149058380D02*
X206042000Y-149058380D01*
X206137238Y-149106000D01*
X206184857Y-149153619D01*
X206232476Y-149248857D01*
X206280095Y-149439333D01*
X206280095Y-149677428D01*
X206232476Y-149867904D01*
X206184857Y-149963142D01*
X206137238Y-150010761D01*
X206042000Y-150058380D01*
X205946761Y-150058380D01*
X205851523Y-150010761D01*
X205803904Y-149963142D01*
X205756285Y-149867904D01*
X205708666Y-149677428D01*
X205708666Y-149439333D01*
X205756285Y-149248857D01*
X205803904Y-149153619D01*
X205851523Y-149106000D01*
X205946761Y-149058380D01*
X206756285Y-150058380D02*
X206946761Y-150058380D01*
X207042000Y-150010761D01*
X207089619Y-149963142D01*
X207184857Y-149820285D01*
X207232476Y-149629809D01*
X207232476Y-149248857D01*
X207184857Y-149153619D01*
X207137238Y-149106000D01*
X207042000Y-149058380D01*
X206851523Y-149058380D01*
X206756285Y-149106000D01*
X206708666Y-149153619D01*
X206661047Y-149248857D01*
X206661047Y-149486952D01*
X206708666Y-149582190D01*
X206756285Y-149629809D01*
X206851523Y-149677428D01*
X207042000Y-149677428D01*
X207137238Y-149629809D01*
X207184857Y-149582190D01*
X207232476Y-149486952D01*
X207565809Y-150439333D02*
X207613428Y-150391714D01*
X207708666Y-150248857D01*
X207756285Y-150153619D01*
X207803904Y-150010761D01*
X207851523Y-149772666D01*
X207851523Y-149582190D01*
X207803904Y-149344095D01*
X207756285Y-149201238D01*
X207708666Y-149106000D01*
X207613428Y-148963142D01*
X207565809Y-148915523D01*
X209089619Y-150058380D02*
X209089619Y-149058380D01*
X209518190Y-150058380D02*
X209518190Y-149534571D01*
X209470571Y-149439333D01*
X209375333Y-149391714D01*
X209232476Y-149391714D01*
X209137238Y-149439333D01*
X209089619Y-149486952D01*
X209851523Y-149391714D02*
X210232476Y-149391714D01*
X209994380Y-149058380D02*
X209994380Y-149915523D01*
X210042000Y-150010761D01*
X210137238Y-150058380D01*
X210232476Y-150058380D01*
X210422952Y-149391714D02*
X210803904Y-149391714D01*
X210565809Y-149058380D02*
X210565809Y-149915523D01*
X210613428Y-150010761D01*
X210708666Y-150058380D01*
X210803904Y-150058380D01*
X211137238Y-149391714D02*
X211137238Y-150391714D01*
X211137238Y-149439333D02*
X211232476Y-149391714D01*
X211422952Y-149391714D01*
X211518190Y-149439333D01*
X211565809Y-149486952D01*
X211613428Y-149582190D01*
X211613428Y-149867904D01*
X211565809Y-149963142D01*
X211518190Y-150010761D01*
X211422952Y-150058380D01*
X211232476Y-150058380D01*
X211137238Y-150010761D01*
X211994380Y-150010761D02*
X212089619Y-150058380D01*
X212280095Y-150058380D01*
X212375333Y-150010761D01*
X212422952Y-149915523D01*
X212422952Y-149867904D01*
X212375333Y-149772666D01*
X212280095Y-149725047D01*
X212137238Y-149725047D01*
X212042000Y-149677428D01*
X211994380Y-149582190D01*
X211994380Y-149534571D01*
X212042000Y-149439333D01*
X212137238Y-149391714D01*
X212280095Y-149391714D01*
X212375333Y-149439333D01*
X212851523Y-149963142D02*
X212899142Y-150010761D01*
X212851523Y-150058380D01*
X212803904Y-150010761D01*
X212851523Y-149963142D01*
X212851523Y-150058380D01*
X212851523Y-149439333D02*
X212899142Y-149486952D01*
X212851523Y-149534571D01*
X212803904Y-149486952D01*
X212851523Y-149439333D01*
X212851523Y-149534571D01*
X214042000Y-149010761D02*
X213184857Y-150296476D01*
X215089619Y-149010761D02*
X214232476Y-150296476D01*
X215851523Y-149391714D02*
X215851523Y-150201238D01*
X215803904Y-150296476D01*
X215756285Y-150344095D01*
X215661047Y-150391714D01*
X215518190Y-150391714D01*
X215422952Y-150344095D01*
X215851523Y-150010761D02*
X215756285Y-150058380D01*
X215565809Y-150058380D01*
X215470571Y-150010761D01*
X215422952Y-149963142D01*
X215375333Y-149867904D01*
X215375333Y-149582190D01*
X215422952Y-149486952D01*
X215470571Y-149439333D01*
X215565809Y-149391714D01*
X215756285Y-149391714D01*
X215851523Y-149439333D01*
X216327714Y-150058380D02*
X216327714Y-149391714D01*
X216327714Y-149058380D02*
X216280095Y-149106000D01*
X216327714Y-149153619D01*
X216375333Y-149106000D01*
X216327714Y-149058380D01*
X216327714Y-149153619D01*
X216661047Y-149391714D02*
X217042000Y-149391714D01*
X216803904Y-149058380D02*
X216803904Y-149915523D01*
X216851523Y-150010761D01*
X216946761Y-150058380D01*
X217042000Y-150058380D01*
X217375333Y-150058380D02*
X217375333Y-149058380D01*
X217803904Y-150058380D02*
X217803904Y-149534571D01*
X217756285Y-149439333D01*
X217661047Y-149391714D01*
X217518190Y-149391714D01*
X217422952Y-149439333D01*
X217375333Y-149486952D01*
X218708666Y-149391714D02*
X218708666Y-150058380D01*
X218280095Y-149391714D02*
X218280095Y-149915523D01*
X218327714Y-150010761D01*
X218422952Y-150058380D01*
X218565809Y-150058380D01*
X218661047Y-150010761D01*
X218708666Y-149963142D01*
X219184857Y-150058380D02*
X219184857Y-149058380D01*
X219184857Y-149439333D02*
X219280095Y-149391714D01*
X219470571Y-149391714D01*
X219565809Y-149439333D01*
X219613428Y-149486952D01*
X219661047Y-149582190D01*
X219661047Y-149867904D01*
X219613428Y-149963142D01*
X219565809Y-150010761D01*
X219470571Y-150058380D01*
X219280095Y-150058380D01*
X219184857Y-150010761D01*
X220089619Y-149963142D02*
X220137238Y-150010761D01*
X220089619Y-150058380D01*
X220042000Y-150010761D01*
X220089619Y-149963142D01*
X220089619Y-150058380D01*
X220994380Y-150010761D02*
X220899142Y-150058380D01*
X220708666Y-150058380D01*
X220613428Y-150010761D01*
X220565809Y-149963142D01*
X220518190Y-149867904D01*
X220518190Y-149582190D01*
X220565809Y-149486952D01*
X220613428Y-149439333D01*
X220708666Y-149391714D01*
X220899142Y-149391714D01*
X220994380Y-149439333D01*
X221565809Y-150058380D02*
X221470571Y-150010761D01*
X221422952Y-149963142D01*
X221375333Y-149867904D01*
X221375333Y-149582190D01*
X221422952Y-149486952D01*
X221470571Y-149439333D01*
X221565809Y-149391714D01*
X221708666Y-149391714D01*
X221803904Y-149439333D01*
X221851523Y-149486952D01*
X221899142Y-149582190D01*
X221899142Y-149867904D01*
X221851523Y-149963142D01*
X221803904Y-150010761D01*
X221708666Y-150058380D01*
X221565809Y-150058380D01*
X222327714Y-150058380D02*
X222327714Y-149391714D01*
X222327714Y-149486952D02*
X222375333Y-149439333D01*
X222470571Y-149391714D01*
X222613428Y-149391714D01*
X222708666Y-149439333D01*
X222756285Y-149534571D01*
X222756285Y-150058380D01*
X222756285Y-149534571D02*
X222803904Y-149439333D01*
X222899142Y-149391714D01*
X223042000Y-149391714D01*
X223137238Y-149439333D01*
X223184857Y-149534571D01*
X223184857Y-150058380D01*
X224375333Y-149010761D02*
X223518190Y-150296476D01*
X224708666Y-149391714D02*
X224708666Y-150248857D01*
X224661047Y-150344095D01*
X224565809Y-150391714D01*
X224518190Y-150391714D01*
X224708666Y-149058380D02*
X224661047Y-149106000D01*
X224708666Y-149153619D01*
X224756285Y-149106000D01*
X224708666Y-149058380D01*
X224708666Y-149153619D01*
X225184857Y-150058380D02*
X225184857Y-149058380D01*
X225280095Y-149677428D02*
X225565809Y-150058380D01*
X225565809Y-149391714D02*
X225184857Y-149772666D01*
X226422952Y-149391714D02*
X226422952Y-150058380D01*
X225994380Y-149391714D02*
X225994380Y-149915523D01*
X226042000Y-150010761D01*
X226137238Y-150058380D01*
X226280095Y-150058380D01*
X226375333Y-150010761D01*
X226422952Y-149963142D01*
X226899142Y-150058380D02*
X226899142Y-149391714D01*
X226899142Y-149058380D02*
X226851523Y-149106000D01*
X226899142Y-149153619D01*
X226946761Y-149106000D01*
X226899142Y-149058380D01*
X226899142Y-149153619D01*
X227232476Y-149391714D02*
X227613428Y-149391714D01*
X227375333Y-149058380D02*
X227375333Y-149915523D01*
X227422952Y-150010761D01*
X227518190Y-150058380D01*
X227613428Y-150058380D01*
X228375333Y-149391714D02*
X228375333Y-150058380D01*
X227946761Y-149391714D02*
X227946761Y-149915523D01*
X227994380Y-150010761D01*
X228089619Y-150058380D01*
X228232476Y-150058380D01*
X228327714Y-150010761D01*
X228375333Y-149963142D01*
X228851523Y-149391714D02*
X228851523Y-150058380D01*
X228851523Y-149486952D02*
X228899142Y-149439333D01*
X228994380Y-149391714D01*
X229137238Y-149391714D01*
X229232476Y-149439333D01*
X229280095Y-149534571D01*
X229280095Y-150058380D01*
X229756285Y-150058380D02*
X229756285Y-149391714D01*
X229756285Y-149058380D02*
X229708666Y-149106000D01*
X229756285Y-149153619D01*
X229803904Y-149106000D01*
X229756285Y-149058380D01*
X229756285Y-149153619D01*
X230946761Y-149010761D02*
X230089619Y-150296476D01*
X231851523Y-150058380D02*
X231518190Y-149582190D01*
X231280095Y-150058380D02*
X231280095Y-149058380D01*
X231661047Y-149058380D01*
X231756285Y-149106000D01*
X231803904Y-149153619D01*
X231851523Y-149248857D01*
X231851523Y-149391714D01*
X231803904Y-149486952D01*
X231756285Y-149534571D01*
X231661047Y-149582190D01*
X231280095Y-149582190D01*
X232708666Y-150058380D02*
X232708666Y-149534571D01*
X232661047Y-149439333D01*
X232565809Y-149391714D01*
X232375333Y-149391714D01*
X232280095Y-149439333D01*
X232708666Y-150010761D02*
X232613428Y-150058380D01*
X232375333Y-150058380D01*
X232280095Y-150010761D01*
X232232476Y-149915523D01*
X232232476Y-149820285D01*
X232280095Y-149725047D01*
X232375333Y-149677428D01*
X232613428Y-149677428D01*
X232708666Y-149629809D01*
X233089619Y-149391714D02*
X233327714Y-150058380D01*
X233565809Y-149391714D01*
X234327714Y-150010761D02*
X234232476Y-150058380D01*
X234042000Y-150058380D01*
X233946761Y-150010761D01*
X233899142Y-149915523D01*
X233899142Y-149534571D01*
X233946761Y-149439333D01*
X234042000Y-149391714D01*
X234232476Y-149391714D01*
X234327714Y-149439333D01*
X234375333Y-149534571D01*
X234375333Y-149629809D01*
X233899142Y-149725047D01*
X234803904Y-149391714D02*
X234803904Y-150058380D01*
X234803904Y-149486952D02*
X234851523Y-149439333D01*
X234946761Y-149391714D01*
X235089619Y-149391714D01*
X235184857Y-149439333D01*
X235232476Y-149534571D01*
X235232476Y-150058380D01*
X236137238Y-149058380D02*
X235946761Y-149058380D01*
X235851523Y-149106000D01*
X235803904Y-149153619D01*
X235708666Y-149296476D01*
X235661047Y-149486952D01*
X235661047Y-149867904D01*
X235708666Y-149963142D01*
X235756285Y-150010761D01*
X235851523Y-150058380D01*
X236042000Y-150058380D01*
X236137238Y-150010761D01*
X236184857Y-149963142D01*
X236232476Y-149867904D01*
X236232476Y-149629809D01*
X236184857Y-149534571D01*
X236137238Y-149486952D01*
X236042000Y-149439333D01*
X235851523Y-149439333D01*
X235756285Y-149486952D01*
X235708666Y-149534571D01*
X235661047Y-149629809D01*
X236803904Y-149486952D02*
X236708666Y-149439333D01*
X236661047Y-149391714D01*
X236613428Y-149296476D01*
X236613428Y-149248857D01*
X236661047Y-149153619D01*
X236708666Y-149106000D01*
X236803904Y-149058380D01*
X236994380Y-149058380D01*
X237089619Y-149106000D01*
X237137238Y-149153619D01*
X237184857Y-149248857D01*
X237184857Y-149296476D01*
X237137238Y-149391714D01*
X237089619Y-149439333D01*
X236994380Y-149486952D01*
X236803904Y-149486952D01*
X236708666Y-149534571D01*
X236661047Y-149582190D01*
X236613428Y-149677428D01*
X236613428Y-149867904D01*
X236661047Y-149963142D01*
X236708666Y-150010761D01*
X236803904Y-150058380D01*
X236994380Y-150058380D01*
X237089619Y-150010761D01*
X237137238Y-149963142D01*
X237184857Y-149867904D01*
X237184857Y-149677428D01*
X237137238Y-149582190D01*
X237089619Y-149534571D01*
X236994380Y-149486952D01*
X237613428Y-150058380D02*
X237613428Y-149058380D01*
X237708666Y-149677428D02*
X237994380Y-150058380D01*
X237994380Y-149391714D02*
X237613428Y-149772666D01*
D10*
X87900285Y-134052571D02*
X88471714Y-134052571D01*
X88757428Y-134124000D01*
X89043142Y-134266857D01*
X89186000Y-134552571D01*
X89186000Y-135052571D01*
X89043142Y-135338285D01*
X88757428Y-135481142D01*
X88471714Y-135552571D01*
X87900285Y-135552571D01*
X87614571Y-135481142D01*
X87328857Y-135338285D01*
X87186000Y-135052571D01*
X87186000Y-134552571D01*
X87328857Y-134266857D01*
X87614571Y-134124000D01*
X87900285Y-134052571D01*
X90471714Y-135552571D02*
X90471714Y-134052571D01*
X91186000Y-134052571D01*
X91614571Y-134124000D01*
X91900285Y-134266857D01*
X92043142Y-134409714D01*
X92186000Y-134695428D01*
X92186000Y-134909714D01*
X92043142Y-135195428D01*
X91900285Y-135338285D01*
X91614571Y-135481142D01*
X91186000Y-135552571D01*
X90471714Y-135552571D01*
X93471714Y-135552571D02*
X93471714Y-134052571D01*
X94186000Y-134052571D01*
X94614571Y-134124000D01*
X94900285Y-134266857D01*
X95043142Y-134409714D01*
X95186000Y-134695428D01*
X95186000Y-134909714D01*
X95043142Y-135195428D01*
X94900285Y-135338285D01*
X94614571Y-135481142D01*
X94186000Y-135552571D01*
X93471714Y-135552571D01*
X110966857Y-134766857D02*
X111966857Y-134766857D01*
X112395428Y-135552571D02*
X110966857Y-135552571D01*
X110966857Y-134052571D01*
X112395428Y-134052571D01*
X113252571Y-134052571D02*
X114252571Y-135552571D01*
X115252571Y-134052571D01*
X116252571Y-134766857D02*
X117252571Y-134766857D01*
X117681142Y-135552571D02*
X116252571Y-135552571D01*
X116252571Y-134052571D01*
X117681142Y-134052571D01*
X118966857Y-135552571D02*
X118966857Y-134052571D01*
X120681142Y-135552571D01*
X120681142Y-134052571D01*
D11*
X141073333Y-41362380D02*
X141073333Y-42076666D01*
X141025714Y-42219523D01*
X140930476Y-42314761D01*
X140787619Y-42362380D01*
X140692380Y-42362380D01*
X141406666Y-41362380D02*
X141978095Y-41362380D01*
X141692380Y-42362380D02*
X141692380Y-41362380D01*
X142263809Y-42076666D02*
X142740000Y-42076666D01*
X142168571Y-42362380D02*
X142501904Y-41362380D01*
X142835238Y-42362380D01*
X143692380Y-41410000D02*
X143597142Y-41362380D01*
X143454285Y-41362380D01*
X143311428Y-41410000D01*
X143216190Y-41505238D01*
X143168571Y-41600476D01*
X143120952Y-41790952D01*
X143120952Y-41933809D01*
X143168571Y-42124285D01*
X143216190Y-42219523D01*
X143311428Y-42314761D01*
X143454285Y-42362380D01*
X143549523Y-42362380D01*
X143692380Y-42314761D01*
X143740000Y-42267142D01*
X143740000Y-41933809D01*
X143549523Y-41933809D01*
%TO.C,U3*%
X141224095Y-50803380D02*
X141224095Y-51612904D01*
X141271714Y-51708142D01*
X141319333Y-51755761D01*
X141414571Y-51803380D01*
X141605047Y-51803380D01*
X141700285Y-51755761D01*
X141747904Y-51708142D01*
X141795523Y-51612904D01*
X141795523Y-50803380D01*
X142176476Y-50803380D02*
X142795523Y-50803380D01*
X142462190Y-51184333D01*
X142605047Y-51184333D01*
X142700285Y-51231952D01*
X142747904Y-51279571D01*
X142795523Y-51374809D01*
X142795523Y-51612904D01*
X142747904Y-51708142D01*
X142700285Y-51755761D01*
X142605047Y-51803380D01*
X142319333Y-51803380D01*
X142224095Y-51755761D01*
X142176476Y-51708142D01*
%TO.C,J1*%
X133393380Y-45481833D02*
X134107666Y-45481833D01*
X134250523Y-45529452D01*
X134345761Y-45624690D01*
X134393380Y-45767547D01*
X134393380Y-45862785D01*
X134393380Y-44481833D02*
X134393380Y-45053261D01*
X134393380Y-44767547D02*
X133393380Y-44767547D01*
X133536238Y-44862785D01*
X133631476Y-44958023D01*
X133679095Y-45053261D01*
%TO.C,C3*%
X146137333Y-49125142D02*
X146089714Y-49172761D01*
X145946857Y-49220380D01*
X145851619Y-49220380D01*
X145708761Y-49172761D01*
X145613523Y-49077523D01*
X145565904Y-48982285D01*
X145518285Y-48791809D01*
X145518285Y-48648952D01*
X145565904Y-48458476D01*
X145613523Y-48363238D01*
X145708761Y-48268000D01*
X145851619Y-48220380D01*
X145946857Y-48220380D01*
X146089714Y-48268000D01*
X146137333Y-48315619D01*
X146470666Y-48220380D02*
X147089714Y-48220380D01*
X146756380Y-48601333D01*
X146899238Y-48601333D01*
X146994476Y-48648952D01*
X147042095Y-48696571D01*
X147089714Y-48791809D01*
X147089714Y-49029904D01*
X147042095Y-49125142D01*
X146994476Y-49172761D01*
X146899238Y-49220380D01*
X146613523Y-49220380D01*
X146518285Y-49172761D01*
X146470666Y-49125142D01*
%TO.C,C4*%
X148621142Y-66460666D02*
X148668761Y-66508285D01*
X148716380Y-66651142D01*
X148716380Y-66746380D01*
X148668761Y-66889238D01*
X148573523Y-66984476D01*
X148478285Y-67032095D01*
X148287809Y-67079714D01*
X148144952Y-67079714D01*
X147954476Y-67032095D01*
X147859238Y-66984476D01*
X147764000Y-66889238D01*
X147716380Y-66746380D01*
X147716380Y-66651142D01*
X147764000Y-66508285D01*
X147811619Y-66460666D01*
X148049714Y-65603523D02*
X148716380Y-65603523D01*
X147668761Y-65841619D02*
X148383047Y-66079714D01*
X148383047Y-65460666D01*
%TO.C,C12*%
X216837142Y-47632857D02*
X216884761Y-47680476D01*
X216932380Y-47823333D01*
X216932380Y-47918571D01*
X216884761Y-48061428D01*
X216789523Y-48156666D01*
X216694285Y-48204285D01*
X216503809Y-48251904D01*
X216360952Y-48251904D01*
X216170476Y-48204285D01*
X216075238Y-48156666D01*
X215980000Y-48061428D01*
X215932380Y-47918571D01*
X215932380Y-47823333D01*
X215980000Y-47680476D01*
X216027619Y-47632857D01*
X216932380Y-46680476D02*
X216932380Y-47251904D01*
X216932380Y-46966190D02*
X215932380Y-46966190D01*
X216075238Y-47061428D01*
X216170476Y-47156666D01*
X216218095Y-47251904D01*
X216027619Y-46299523D02*
X215980000Y-46251904D01*
X215932380Y-46156666D01*
X215932380Y-45918571D01*
X215980000Y-45823333D01*
X216027619Y-45775714D01*
X216122857Y-45728095D01*
X216218095Y-45728095D01*
X216360952Y-45775714D01*
X216932380Y-46347142D01*
X216932380Y-45728095D01*
%TO.C,C13*%
X216837142Y-66682857D02*
X216884761Y-66730476D01*
X216932380Y-66873333D01*
X216932380Y-66968571D01*
X216884761Y-67111428D01*
X216789523Y-67206666D01*
X216694285Y-67254285D01*
X216503809Y-67301904D01*
X216360952Y-67301904D01*
X216170476Y-67254285D01*
X216075238Y-67206666D01*
X215980000Y-67111428D01*
X215932380Y-66968571D01*
X215932380Y-66873333D01*
X215980000Y-66730476D01*
X216027619Y-66682857D01*
X216932380Y-65730476D02*
X216932380Y-66301904D01*
X216932380Y-66016190D02*
X215932380Y-66016190D01*
X216075238Y-66111428D01*
X216170476Y-66206666D01*
X216218095Y-66301904D01*
X215932380Y-65397142D02*
X215932380Y-64778095D01*
X216313333Y-65111428D01*
X216313333Y-64968571D01*
X216360952Y-64873333D01*
X216408571Y-64825714D01*
X216503809Y-64778095D01*
X216741904Y-64778095D01*
X216837142Y-64825714D01*
X216884761Y-64873333D01*
X216932380Y-64968571D01*
X216932380Y-65254285D01*
X216884761Y-65349523D01*
X216837142Y-65397142D01*
%TO.C,C14*%
X213027142Y-47632857D02*
X213074761Y-47680476D01*
X213122380Y-47823333D01*
X213122380Y-47918571D01*
X213074761Y-48061428D01*
X212979523Y-48156666D01*
X212884285Y-48204285D01*
X212693809Y-48251904D01*
X212550952Y-48251904D01*
X212360476Y-48204285D01*
X212265238Y-48156666D01*
X212170000Y-48061428D01*
X212122380Y-47918571D01*
X212122380Y-47823333D01*
X212170000Y-47680476D01*
X212217619Y-47632857D01*
X213122380Y-46680476D02*
X213122380Y-47251904D01*
X213122380Y-46966190D02*
X212122380Y-46966190D01*
X212265238Y-47061428D01*
X212360476Y-47156666D01*
X212408095Y-47251904D01*
X212455714Y-45823333D02*
X213122380Y-45823333D01*
X212074761Y-46061428D02*
X212789047Y-46299523D01*
X212789047Y-45680476D01*
%TO.C,C15*%
X213027142Y-66682857D02*
X213074761Y-66730476D01*
X213122380Y-66873333D01*
X213122380Y-66968571D01*
X213074761Y-67111428D01*
X212979523Y-67206666D01*
X212884285Y-67254285D01*
X212693809Y-67301904D01*
X212550952Y-67301904D01*
X212360476Y-67254285D01*
X212265238Y-67206666D01*
X212170000Y-67111428D01*
X212122380Y-66968571D01*
X212122380Y-66873333D01*
X212170000Y-66730476D01*
X212217619Y-66682857D01*
X213122380Y-65730476D02*
X213122380Y-66301904D01*
X213122380Y-66016190D02*
X212122380Y-66016190D01*
X212265238Y-66111428D01*
X212360476Y-66206666D01*
X212408095Y-66301904D01*
X212122380Y-64825714D02*
X212122380Y-65301904D01*
X212598571Y-65349523D01*
X212550952Y-65301904D01*
X212503333Y-65206666D01*
X212503333Y-64968571D01*
X212550952Y-64873333D01*
X212598571Y-64825714D01*
X212693809Y-64778095D01*
X212931904Y-64778095D01*
X213027142Y-64825714D01*
X213074761Y-64873333D01*
X213122380Y-64968571D01*
X213122380Y-65206666D01*
X213074761Y-65301904D01*
X213027142Y-65349523D01*
%TO.C,C16*%
X209217142Y-47632857D02*
X209264761Y-47680476D01*
X209312380Y-47823333D01*
X209312380Y-47918571D01*
X209264761Y-48061428D01*
X209169523Y-48156666D01*
X209074285Y-48204285D01*
X208883809Y-48251904D01*
X208740952Y-48251904D01*
X208550476Y-48204285D01*
X208455238Y-48156666D01*
X208360000Y-48061428D01*
X208312380Y-47918571D01*
X208312380Y-47823333D01*
X208360000Y-47680476D01*
X208407619Y-47632857D01*
X209312380Y-46680476D02*
X209312380Y-47251904D01*
X209312380Y-46966190D02*
X208312380Y-46966190D01*
X208455238Y-47061428D01*
X208550476Y-47156666D01*
X208598095Y-47251904D01*
X208312380Y-45823333D02*
X208312380Y-46013809D01*
X208360000Y-46109047D01*
X208407619Y-46156666D01*
X208550476Y-46251904D01*
X208740952Y-46299523D01*
X209121904Y-46299523D01*
X209217142Y-46251904D01*
X209264761Y-46204285D01*
X209312380Y-46109047D01*
X209312380Y-45918571D01*
X209264761Y-45823333D01*
X209217142Y-45775714D01*
X209121904Y-45728095D01*
X208883809Y-45728095D01*
X208788571Y-45775714D01*
X208740952Y-45823333D01*
X208693333Y-45918571D01*
X208693333Y-46109047D01*
X208740952Y-46204285D01*
X208788571Y-46251904D01*
X208883809Y-46299523D01*
%TO.C,C17*%
X209217142Y-66682857D02*
X209264761Y-66730476D01*
X209312380Y-66873333D01*
X209312380Y-66968571D01*
X209264761Y-67111428D01*
X209169523Y-67206666D01*
X209074285Y-67254285D01*
X208883809Y-67301904D01*
X208740952Y-67301904D01*
X208550476Y-67254285D01*
X208455238Y-67206666D01*
X208360000Y-67111428D01*
X208312380Y-66968571D01*
X208312380Y-66873333D01*
X208360000Y-66730476D01*
X208407619Y-66682857D01*
X209312380Y-65730476D02*
X209312380Y-66301904D01*
X209312380Y-66016190D02*
X208312380Y-66016190D01*
X208455238Y-66111428D01*
X208550476Y-66206666D01*
X208598095Y-66301904D01*
X208312380Y-65397142D02*
X208312380Y-64730476D01*
X209312380Y-65159047D01*
%TO.C,C18*%
X204137142Y-47632857D02*
X204184761Y-47680476D01*
X204232380Y-47823333D01*
X204232380Y-47918571D01*
X204184761Y-48061428D01*
X204089523Y-48156666D01*
X203994285Y-48204285D01*
X203803809Y-48251904D01*
X203660952Y-48251904D01*
X203470476Y-48204285D01*
X203375238Y-48156666D01*
X203280000Y-48061428D01*
X203232380Y-47918571D01*
X203232380Y-47823333D01*
X203280000Y-47680476D01*
X203327619Y-47632857D01*
X204232380Y-46680476D02*
X204232380Y-47251904D01*
X204232380Y-46966190D02*
X203232380Y-46966190D01*
X203375238Y-47061428D01*
X203470476Y-47156666D01*
X203518095Y-47251904D01*
X203660952Y-46109047D02*
X203613333Y-46204285D01*
X203565714Y-46251904D01*
X203470476Y-46299523D01*
X203422857Y-46299523D01*
X203327619Y-46251904D01*
X203280000Y-46204285D01*
X203232380Y-46109047D01*
X203232380Y-45918571D01*
X203280000Y-45823333D01*
X203327619Y-45775714D01*
X203422857Y-45728095D01*
X203470476Y-45728095D01*
X203565714Y-45775714D01*
X203613333Y-45823333D01*
X203660952Y-45918571D01*
X203660952Y-46109047D01*
X203708571Y-46204285D01*
X203756190Y-46251904D01*
X203851428Y-46299523D01*
X204041904Y-46299523D01*
X204137142Y-46251904D01*
X204184761Y-46204285D01*
X204232380Y-46109047D01*
X204232380Y-45918571D01*
X204184761Y-45823333D01*
X204137142Y-45775714D01*
X204041904Y-45728095D01*
X203851428Y-45728095D01*
X203756190Y-45775714D01*
X203708571Y-45823333D01*
X203660952Y-45918571D01*
%TO.C,C19*%
X204137142Y-66682857D02*
X204184761Y-66730476D01*
X204232380Y-66873333D01*
X204232380Y-66968571D01*
X204184761Y-67111428D01*
X204089523Y-67206666D01*
X203994285Y-67254285D01*
X203803809Y-67301904D01*
X203660952Y-67301904D01*
X203470476Y-67254285D01*
X203375238Y-67206666D01*
X203280000Y-67111428D01*
X203232380Y-66968571D01*
X203232380Y-66873333D01*
X203280000Y-66730476D01*
X203327619Y-66682857D01*
X204232380Y-65730476D02*
X204232380Y-66301904D01*
X204232380Y-66016190D02*
X203232380Y-66016190D01*
X203375238Y-66111428D01*
X203470476Y-66206666D01*
X203518095Y-66301904D01*
X204232380Y-65254285D02*
X204232380Y-65063809D01*
X204184761Y-64968571D01*
X204137142Y-64920952D01*
X203994285Y-64825714D01*
X203803809Y-64778095D01*
X203422857Y-64778095D01*
X203327619Y-64825714D01*
X203280000Y-64873333D01*
X203232380Y-64968571D01*
X203232380Y-65159047D01*
X203280000Y-65254285D01*
X203327619Y-65301904D01*
X203422857Y-65349523D01*
X203660952Y-65349523D01*
X203756190Y-65301904D01*
X203803809Y-65254285D01*
X203851428Y-65159047D01*
X203851428Y-64968571D01*
X203803809Y-64873333D01*
X203756190Y-64825714D01*
X203660952Y-64778095D01*
%TO.C,C20*%
X184777142Y-48617142D02*
X184729523Y-48664761D01*
X184586666Y-48712380D01*
X184491428Y-48712380D01*
X184348571Y-48664761D01*
X184253333Y-48569523D01*
X184205714Y-48474285D01*
X184158095Y-48283809D01*
X184158095Y-48140952D01*
X184205714Y-47950476D01*
X184253333Y-47855238D01*
X184348571Y-47760000D01*
X184491428Y-47712380D01*
X184586666Y-47712380D01*
X184729523Y-47760000D01*
X184777142Y-47807619D01*
X185158095Y-47807619D02*
X185205714Y-47760000D01*
X185300952Y-47712380D01*
X185539047Y-47712380D01*
X185634285Y-47760000D01*
X185681904Y-47807619D01*
X185729523Y-47902857D01*
X185729523Y-47998095D01*
X185681904Y-48140952D01*
X185110476Y-48712380D01*
X185729523Y-48712380D01*
X186348571Y-47712380D02*
X186443809Y-47712380D01*
X186539047Y-47760000D01*
X186586666Y-47807619D01*
X186634285Y-47902857D01*
X186681904Y-48093333D01*
X186681904Y-48331428D01*
X186634285Y-48521904D01*
X186586666Y-48617142D01*
X186539047Y-48664761D01*
X186443809Y-48712380D01*
X186348571Y-48712380D01*
X186253333Y-48664761D01*
X186205714Y-48617142D01*
X186158095Y-48521904D01*
X186110476Y-48331428D01*
X186110476Y-48093333D01*
X186158095Y-47902857D01*
X186205714Y-47807619D01*
X186253333Y-47760000D01*
X186348571Y-47712380D01*
%TO.C,C21*%
X184777142Y-67667142D02*
X184729523Y-67714761D01*
X184586666Y-67762380D01*
X184491428Y-67762380D01*
X184348571Y-67714761D01*
X184253333Y-67619523D01*
X184205714Y-67524285D01*
X184158095Y-67333809D01*
X184158095Y-67190952D01*
X184205714Y-67000476D01*
X184253333Y-66905238D01*
X184348571Y-66810000D01*
X184491428Y-66762380D01*
X184586666Y-66762380D01*
X184729523Y-66810000D01*
X184777142Y-66857619D01*
X185158095Y-66857619D02*
X185205714Y-66810000D01*
X185300952Y-66762380D01*
X185539047Y-66762380D01*
X185634285Y-66810000D01*
X185681904Y-66857619D01*
X185729523Y-66952857D01*
X185729523Y-67048095D01*
X185681904Y-67190952D01*
X185110476Y-67762380D01*
X185729523Y-67762380D01*
X186681904Y-67762380D02*
X186110476Y-67762380D01*
X186396190Y-67762380D02*
X186396190Y-66762380D01*
X186300952Y-66905238D01*
X186205714Y-67000476D01*
X186110476Y-67048095D01*
%TO.C,C22*%
X180117142Y-42552857D02*
X180164761Y-42600476D01*
X180212380Y-42743333D01*
X180212380Y-42838571D01*
X180164761Y-42981428D01*
X180069523Y-43076666D01*
X179974285Y-43124285D01*
X179783809Y-43171904D01*
X179640952Y-43171904D01*
X179450476Y-43124285D01*
X179355238Y-43076666D01*
X179260000Y-42981428D01*
X179212380Y-42838571D01*
X179212380Y-42743333D01*
X179260000Y-42600476D01*
X179307619Y-42552857D01*
X179307619Y-42171904D02*
X179260000Y-42124285D01*
X179212380Y-42029047D01*
X179212380Y-41790952D01*
X179260000Y-41695714D01*
X179307619Y-41648095D01*
X179402857Y-41600476D01*
X179498095Y-41600476D01*
X179640952Y-41648095D01*
X180212380Y-42219523D01*
X180212380Y-41600476D01*
X179307619Y-41219523D02*
X179260000Y-41171904D01*
X179212380Y-41076666D01*
X179212380Y-40838571D01*
X179260000Y-40743333D01*
X179307619Y-40695714D01*
X179402857Y-40648095D01*
X179498095Y-40648095D01*
X179640952Y-40695714D01*
X180212380Y-41267142D01*
X180212380Y-40648095D01*
%TO.C,C23*%
X180117142Y-61602857D02*
X180164761Y-61650476D01*
X180212380Y-61793333D01*
X180212380Y-61888571D01*
X180164761Y-62031428D01*
X180069523Y-62126666D01*
X179974285Y-62174285D01*
X179783809Y-62221904D01*
X179640952Y-62221904D01*
X179450476Y-62174285D01*
X179355238Y-62126666D01*
X179260000Y-62031428D01*
X179212380Y-61888571D01*
X179212380Y-61793333D01*
X179260000Y-61650476D01*
X179307619Y-61602857D01*
X179307619Y-61221904D02*
X179260000Y-61174285D01*
X179212380Y-61079047D01*
X179212380Y-60840952D01*
X179260000Y-60745714D01*
X179307619Y-60698095D01*
X179402857Y-60650476D01*
X179498095Y-60650476D01*
X179640952Y-60698095D01*
X180212380Y-61269523D01*
X180212380Y-60650476D01*
X179212380Y-60317142D02*
X179212380Y-59698095D01*
X179593333Y-60031428D01*
X179593333Y-59888571D01*
X179640952Y-59793333D01*
X179688571Y-59745714D01*
X179783809Y-59698095D01*
X180021904Y-59698095D01*
X180117142Y-59745714D01*
X180164761Y-59793333D01*
X180212380Y-59888571D01*
X180212380Y-60174285D01*
X180164761Y-60269523D01*
X180117142Y-60317142D01*
%TO.C,C24*%
X176307142Y-42552857D02*
X176354761Y-42600476D01*
X176402380Y-42743333D01*
X176402380Y-42838571D01*
X176354761Y-42981428D01*
X176259523Y-43076666D01*
X176164285Y-43124285D01*
X175973809Y-43171904D01*
X175830952Y-43171904D01*
X175640476Y-43124285D01*
X175545238Y-43076666D01*
X175450000Y-42981428D01*
X175402380Y-42838571D01*
X175402380Y-42743333D01*
X175450000Y-42600476D01*
X175497619Y-42552857D01*
X175497619Y-42171904D02*
X175450000Y-42124285D01*
X175402380Y-42029047D01*
X175402380Y-41790952D01*
X175450000Y-41695714D01*
X175497619Y-41648095D01*
X175592857Y-41600476D01*
X175688095Y-41600476D01*
X175830952Y-41648095D01*
X176402380Y-42219523D01*
X176402380Y-41600476D01*
X175735714Y-40743333D02*
X176402380Y-40743333D01*
X175354761Y-40981428D02*
X176069047Y-41219523D01*
X176069047Y-40600476D01*
%TO.C,C25*%
X176307142Y-61602857D02*
X176354761Y-61650476D01*
X176402380Y-61793333D01*
X176402380Y-61888571D01*
X176354761Y-62031428D01*
X176259523Y-62126666D01*
X176164285Y-62174285D01*
X175973809Y-62221904D01*
X175830952Y-62221904D01*
X175640476Y-62174285D01*
X175545238Y-62126666D01*
X175450000Y-62031428D01*
X175402380Y-61888571D01*
X175402380Y-61793333D01*
X175450000Y-61650476D01*
X175497619Y-61602857D01*
X175497619Y-61221904D02*
X175450000Y-61174285D01*
X175402380Y-61079047D01*
X175402380Y-60840952D01*
X175450000Y-60745714D01*
X175497619Y-60698095D01*
X175592857Y-60650476D01*
X175688095Y-60650476D01*
X175830952Y-60698095D01*
X176402380Y-61269523D01*
X176402380Y-60650476D01*
X175402380Y-59745714D02*
X175402380Y-60221904D01*
X175878571Y-60269523D01*
X175830952Y-60221904D01*
X175783333Y-60126666D01*
X175783333Y-59888571D01*
X175830952Y-59793333D01*
X175878571Y-59745714D01*
X175973809Y-59698095D01*
X176211904Y-59698095D01*
X176307142Y-59745714D01*
X176354761Y-59793333D01*
X176402380Y-59888571D01*
X176402380Y-60126666D01*
X176354761Y-60221904D01*
X176307142Y-60269523D01*
%TO.C,C26*%
X172497142Y-42552857D02*
X172544761Y-42600476D01*
X172592380Y-42743333D01*
X172592380Y-42838571D01*
X172544761Y-42981428D01*
X172449523Y-43076666D01*
X172354285Y-43124285D01*
X172163809Y-43171904D01*
X172020952Y-43171904D01*
X171830476Y-43124285D01*
X171735238Y-43076666D01*
X171640000Y-42981428D01*
X171592380Y-42838571D01*
X171592380Y-42743333D01*
X171640000Y-42600476D01*
X171687619Y-42552857D01*
X171687619Y-42171904D02*
X171640000Y-42124285D01*
X171592380Y-42029047D01*
X171592380Y-41790952D01*
X171640000Y-41695714D01*
X171687619Y-41648095D01*
X171782857Y-41600476D01*
X171878095Y-41600476D01*
X172020952Y-41648095D01*
X172592380Y-42219523D01*
X172592380Y-41600476D01*
X171592380Y-40743333D02*
X171592380Y-40933809D01*
X171640000Y-41029047D01*
X171687619Y-41076666D01*
X171830476Y-41171904D01*
X172020952Y-41219523D01*
X172401904Y-41219523D01*
X172497142Y-41171904D01*
X172544761Y-41124285D01*
X172592380Y-41029047D01*
X172592380Y-40838571D01*
X172544761Y-40743333D01*
X172497142Y-40695714D01*
X172401904Y-40648095D01*
X172163809Y-40648095D01*
X172068571Y-40695714D01*
X172020952Y-40743333D01*
X171973333Y-40838571D01*
X171973333Y-41029047D01*
X172020952Y-41124285D01*
X172068571Y-41171904D01*
X172163809Y-41219523D01*
%TO.C,C27*%
X172497142Y-61602857D02*
X172544761Y-61650476D01*
X172592380Y-61793333D01*
X172592380Y-61888571D01*
X172544761Y-62031428D01*
X172449523Y-62126666D01*
X172354285Y-62174285D01*
X172163809Y-62221904D01*
X172020952Y-62221904D01*
X171830476Y-62174285D01*
X171735238Y-62126666D01*
X171640000Y-62031428D01*
X171592380Y-61888571D01*
X171592380Y-61793333D01*
X171640000Y-61650476D01*
X171687619Y-61602857D01*
X171687619Y-61221904D02*
X171640000Y-61174285D01*
X171592380Y-61079047D01*
X171592380Y-60840952D01*
X171640000Y-60745714D01*
X171687619Y-60698095D01*
X171782857Y-60650476D01*
X171878095Y-60650476D01*
X172020952Y-60698095D01*
X172592380Y-61269523D01*
X172592380Y-60650476D01*
X171592380Y-60317142D02*
X171592380Y-59650476D01*
X172592380Y-60079047D01*
%TO.C,U4*%
X157988095Y-78407380D02*
X157988095Y-79216904D01*
X158035714Y-79312142D01*
X158083333Y-79359761D01*
X158178571Y-79407380D01*
X158369047Y-79407380D01*
X158464285Y-79359761D01*
X158511904Y-79312142D01*
X158559523Y-79216904D01*
X158559523Y-78407380D01*
X159464285Y-78740714D02*
X159464285Y-79407380D01*
X159226190Y-78359761D02*
X158988095Y-79074047D01*
X159607142Y-79074047D01*
%TO.C,U2*%
X57912095Y-43091380D02*
X57912095Y-43900904D01*
X57959714Y-43996142D01*
X58007333Y-44043761D01*
X58102571Y-44091380D01*
X58293047Y-44091380D01*
X58388285Y-44043761D01*
X58435904Y-43996142D01*
X58483523Y-43900904D01*
X58483523Y-43091380D01*
X58912095Y-43186619D02*
X58959714Y-43139000D01*
X59054952Y-43091380D01*
X59293047Y-43091380D01*
X59388285Y-43139000D01*
X59435904Y-43186619D01*
X59483523Y-43281857D01*
X59483523Y-43377095D01*
X59435904Y-43519952D01*
X58864476Y-44091380D01*
X59483523Y-44091380D01*
%TO.C,U5*%
X193558095Y-82217380D02*
X193558095Y-83026904D01*
X193605714Y-83122142D01*
X193653333Y-83169761D01*
X193748571Y-83217380D01*
X193939047Y-83217380D01*
X194034285Y-83169761D01*
X194081904Y-83122142D01*
X194129523Y-83026904D01*
X194129523Y-82217380D01*
X195081904Y-82217380D02*
X194605714Y-82217380D01*
X194558095Y-82693571D01*
X194605714Y-82645952D01*
X194700952Y-82598333D01*
X194939047Y-82598333D01*
X195034285Y-82645952D01*
X195081904Y-82693571D01*
X195129523Y-82788809D01*
X195129523Y-83026904D01*
X195081904Y-83122142D01*
X195034285Y-83169761D01*
X194939047Y-83217380D01*
X194700952Y-83217380D01*
X194605714Y-83169761D01*
X194558095Y-83122142D01*
%TO.C,U6*%
X158031380Y-143382904D02*
X158840904Y-143382904D01*
X158936142Y-143335285D01*
X158983761Y-143287666D01*
X159031380Y-143192428D01*
X159031380Y-143001952D01*
X158983761Y-142906714D01*
X158936142Y-142859095D01*
X158840904Y-142811476D01*
X158031380Y-142811476D01*
X158031380Y-141906714D02*
X158031380Y-142097190D01*
X158079000Y-142192428D01*
X158126619Y-142240047D01*
X158269476Y-142335285D01*
X158459952Y-142382904D01*
X158840904Y-142382904D01*
X158936142Y-142335285D01*
X158983761Y-142287666D01*
X159031380Y-142192428D01*
X159031380Y-142001952D01*
X158983761Y-141906714D01*
X158936142Y-141859095D01*
X158840904Y-141811476D01*
X158602809Y-141811476D01*
X158507571Y-141859095D01*
X158459952Y-141906714D01*
X158412333Y-142001952D01*
X158412333Y-142192428D01*
X158459952Y-142287666D01*
X158507571Y-142335285D01*
X158602809Y-142382904D01*
%TO.C,X2*%
X169462380Y-68119523D02*
X170462380Y-67452857D01*
X169462380Y-67452857D02*
X170462380Y-68119523D01*
X169557619Y-67119523D02*
X169510000Y-67071904D01*
X169462380Y-66976666D01*
X169462380Y-66738571D01*
X169510000Y-66643333D01*
X169557619Y-66595714D01*
X169652857Y-66548095D01*
X169748095Y-66548095D01*
X169890952Y-66595714D01*
X170462380Y-67167142D01*
X170462380Y-66548095D01*
%TO.C,U10*%
X114580904Y-93627380D02*
X114580904Y-94436904D01*
X114628523Y-94532142D01*
X114676142Y-94579761D01*
X114771380Y-94627380D01*
X114961857Y-94627380D01*
X115057095Y-94579761D01*
X115104714Y-94532142D01*
X115152333Y-94436904D01*
X115152333Y-93627380D01*
X116152333Y-94627380D02*
X115580904Y-94627380D01*
X115866619Y-94627380D02*
X115866619Y-93627380D01*
X115771380Y-93770238D01*
X115676142Y-93865476D01*
X115580904Y-93913095D01*
X116771380Y-93627380D02*
X116866619Y-93627380D01*
X116961857Y-93675000D01*
X117009476Y-93722619D01*
X117057095Y-93817857D01*
X117104714Y-94008333D01*
X117104714Y-94246428D01*
X117057095Y-94436904D01*
X117009476Y-94532142D01*
X116961857Y-94579761D01*
X116866619Y-94627380D01*
X116771380Y-94627380D01*
X116676142Y-94579761D01*
X116628523Y-94532142D01*
X116580904Y-94436904D01*
X116533285Y-94246428D01*
X116533285Y-94008333D01*
X116580904Y-93817857D01*
X116628523Y-93722619D01*
X116676142Y-93675000D01*
X116771380Y-93627380D01*
%TO.C,U11*%
X89434904Y-93627380D02*
X89434904Y-94436904D01*
X89482523Y-94532142D01*
X89530142Y-94579761D01*
X89625380Y-94627380D01*
X89815857Y-94627380D01*
X89911095Y-94579761D01*
X89958714Y-94532142D01*
X90006333Y-94436904D01*
X90006333Y-93627380D01*
X91006333Y-94627380D02*
X90434904Y-94627380D01*
X90720619Y-94627380D02*
X90720619Y-93627380D01*
X90625380Y-93770238D01*
X90530142Y-93865476D01*
X90434904Y-93913095D01*
X91958714Y-94627380D02*
X91387285Y-94627380D01*
X91673000Y-94627380D02*
X91673000Y-93627380D01*
X91577761Y-93770238D01*
X91482523Y-93865476D01*
X91387285Y-93913095D01*
%TO.C,U9*%
X115057095Y-42969380D02*
X115057095Y-43778904D01*
X115104714Y-43874142D01*
X115152333Y-43921761D01*
X115247571Y-43969380D01*
X115438047Y-43969380D01*
X115533285Y-43921761D01*
X115580904Y-43874142D01*
X115628523Y-43778904D01*
X115628523Y-42969380D01*
X116152333Y-43969380D02*
X116342809Y-43969380D01*
X116438047Y-43921761D01*
X116485666Y-43874142D01*
X116580904Y-43731285D01*
X116628523Y-43540809D01*
X116628523Y-43159857D01*
X116580904Y-43064619D01*
X116533285Y-43017000D01*
X116438047Y-42969380D01*
X116247571Y-42969380D01*
X116152333Y-43017000D01*
X116104714Y-43064619D01*
X116057095Y-43159857D01*
X116057095Y-43397952D01*
X116104714Y-43493190D01*
X116152333Y-43540809D01*
X116247571Y-43588428D01*
X116438047Y-43588428D01*
X116533285Y-43540809D01*
X116580904Y-43493190D01*
X116628523Y-43397952D01*
%TO.C,U8*%
X90165095Y-43096380D02*
X90165095Y-43905904D01*
X90212714Y-44001142D01*
X90260333Y-44048761D01*
X90355571Y-44096380D01*
X90546047Y-44096380D01*
X90641285Y-44048761D01*
X90688904Y-44001142D01*
X90736523Y-43905904D01*
X90736523Y-43096380D01*
X91355571Y-43524952D02*
X91260333Y-43477333D01*
X91212714Y-43429714D01*
X91165095Y-43334476D01*
X91165095Y-43286857D01*
X91212714Y-43191619D01*
X91260333Y-43144000D01*
X91355571Y-43096380D01*
X91546047Y-43096380D01*
X91641285Y-43144000D01*
X91688904Y-43191619D01*
X91736523Y-43286857D01*
X91736523Y-43334476D01*
X91688904Y-43429714D01*
X91641285Y-43477333D01*
X91546047Y-43524952D01*
X91355571Y-43524952D01*
X91260333Y-43572571D01*
X91212714Y-43620190D01*
X91165095Y-43715428D01*
X91165095Y-43905904D01*
X91212714Y-44001142D01*
X91260333Y-44048761D01*
X91355571Y-44096380D01*
X91546047Y-44096380D01*
X91641285Y-44048761D01*
X91688904Y-44001142D01*
X91736523Y-43905904D01*
X91736523Y-43715428D01*
X91688904Y-43620190D01*
X91641285Y-43572571D01*
X91546047Y-43524952D01*
%TO.C,U7*%
X191003095Y-111417380D02*
X191003095Y-112226904D01*
X191050714Y-112322142D01*
X191098333Y-112369761D01*
X191193571Y-112417380D01*
X191384047Y-112417380D01*
X191479285Y-112369761D01*
X191526904Y-112322142D01*
X191574523Y-112226904D01*
X191574523Y-111417380D01*
X191955476Y-111417380D02*
X192622142Y-111417380D01*
X192193571Y-112417380D01*
%TO.C,X1*%
X57864476Y-129416380D02*
X58531142Y-130416380D01*
X58531142Y-129416380D02*
X57864476Y-130416380D01*
X59435904Y-130416380D02*
X58864476Y-130416380D01*
X59150190Y-130416380D02*
X59150190Y-129416380D01*
X59054952Y-129559238D01*
X58959714Y-129654476D01*
X58864476Y-129702095D01*
%TO.C,J2*%
X128484380Y-143081333D02*
X129198666Y-143081333D01*
X129341523Y-143128952D01*
X129436761Y-143224190D01*
X129484380Y-143367047D01*
X129484380Y-143462285D01*
X128579619Y-142652761D02*
X128532000Y-142605142D01*
X128484380Y-142509904D01*
X128484380Y-142271809D01*
X128532000Y-142176571D01*
X128579619Y-142128952D01*
X128674857Y-142081333D01*
X128770095Y-142081333D01*
X128912952Y-142128952D01*
X129484380Y-142700380D01*
X129484380Y-142081333D01*
D12*
%TO.C,H1*%
X230190523Y-89613619D02*
X228920523Y-89613619D01*
X229525285Y-89613619D02*
X229525285Y-88887904D01*
X230190523Y-88887904D02*
X228920523Y-88887904D01*
X230190523Y-87617904D02*
X230190523Y-88343619D01*
X230190523Y-87980761D02*
X228920523Y-87980761D01*
X229101952Y-88101714D01*
X229222904Y-88222666D01*
X229283380Y-88343619D01*
D11*
%TO.C,RN1*%
X216997523Y-99966380D02*
X216664190Y-99490190D01*
X216426095Y-99966380D02*
X216426095Y-98966380D01*
X216807047Y-98966380D01*
X216902285Y-99014000D01*
X216949904Y-99061619D01*
X216997523Y-99156857D01*
X216997523Y-99299714D01*
X216949904Y-99394952D01*
X216902285Y-99442571D01*
X216807047Y-99490190D01*
X216426095Y-99490190D01*
X217426095Y-99966380D02*
X217426095Y-98966380D01*
X217997523Y-99966380D01*
X217997523Y-98966380D01*
X218997523Y-99966380D02*
X218426095Y-99966380D01*
X218711809Y-99966380D02*
X218711809Y-98966380D01*
X218616571Y-99109238D01*
X218521333Y-99204476D01*
X218426095Y-99252095D01*
%TO.C,D3*%
X182062380Y-55348095D02*
X181062380Y-55348095D01*
X181062380Y-55110000D01*
X181110000Y-54967142D01*
X181205238Y-54871904D01*
X181300476Y-54824285D01*
X181490952Y-54776666D01*
X181633809Y-54776666D01*
X181824285Y-54824285D01*
X181919523Y-54871904D01*
X182014761Y-54967142D01*
X182062380Y-55110000D01*
X182062380Y-55348095D01*
X181062380Y-54443333D02*
X181062380Y-53824285D01*
X181443333Y-54157619D01*
X181443333Y-54014761D01*
X181490952Y-53919523D01*
X181538571Y-53871904D01*
X181633809Y-53824285D01*
X181871904Y-53824285D01*
X181967142Y-53871904D01*
X182014761Y-53919523D01*
X182062380Y-54014761D01*
X182062380Y-54300476D01*
X182014761Y-54395714D01*
X181967142Y-54443333D01*
%TO.C,R20*%
X171902380Y-48902857D02*
X171426190Y-49236190D01*
X171902380Y-49474285D02*
X170902380Y-49474285D01*
X170902380Y-49093333D01*
X170950000Y-48998095D01*
X170997619Y-48950476D01*
X171092857Y-48902857D01*
X171235714Y-48902857D01*
X171330952Y-48950476D01*
X171378571Y-48998095D01*
X171426190Y-49093333D01*
X171426190Y-49474285D01*
X170997619Y-48521904D02*
X170950000Y-48474285D01*
X170902380Y-48379047D01*
X170902380Y-48140952D01*
X170950000Y-48045714D01*
X170997619Y-47998095D01*
X171092857Y-47950476D01*
X171188095Y-47950476D01*
X171330952Y-47998095D01*
X171902380Y-48569523D01*
X171902380Y-47950476D01*
X170902380Y-47331428D02*
X170902380Y-47236190D01*
X170950000Y-47140952D01*
X170997619Y-47093333D01*
X171092857Y-47045714D01*
X171283333Y-46998095D01*
X171521428Y-46998095D01*
X171711904Y-47045714D01*
X171807142Y-47093333D01*
X171854761Y-47140952D01*
X171902380Y-47236190D01*
X171902380Y-47331428D01*
X171854761Y-47426666D01*
X171807142Y-47474285D01*
X171711904Y-47521904D01*
X171521428Y-47569523D01*
X171283333Y-47569523D01*
X171092857Y-47521904D01*
X170997619Y-47474285D01*
X170950000Y-47426666D01*
X170902380Y-47331428D01*
%TO.C,D4*%
X182062380Y-49094582D02*
X181062380Y-49094582D01*
X181062380Y-48856487D01*
X181110000Y-48713629D01*
X181205238Y-48618391D01*
X181300476Y-48570772D01*
X181490952Y-48523153D01*
X181633809Y-48523153D01*
X181824285Y-48570772D01*
X181919523Y-48618391D01*
X182014761Y-48713629D01*
X182062380Y-48856487D01*
X182062380Y-49094582D01*
X181395714Y-47666010D02*
X182062380Y-47666010D01*
X181014761Y-47904106D02*
X181729047Y-48142201D01*
X181729047Y-47523153D01*
%TO.C,IC2*%
X198413809Y-69032380D02*
X198413809Y-68032380D01*
X199461428Y-68937142D02*
X199413809Y-68984761D01*
X199270952Y-69032380D01*
X199175714Y-69032380D01*
X199032857Y-68984761D01*
X198937619Y-68889523D01*
X198890000Y-68794285D01*
X198842380Y-68603809D01*
X198842380Y-68460952D01*
X198890000Y-68270476D01*
X198937619Y-68175238D01*
X199032857Y-68080000D01*
X199175714Y-68032380D01*
X199270952Y-68032380D01*
X199413809Y-68080000D01*
X199461428Y-68127619D01*
X199842380Y-68127619D02*
X199890000Y-68080000D01*
X199985238Y-68032380D01*
X200223333Y-68032380D01*
X200318571Y-68080000D01*
X200366190Y-68127619D01*
X200413809Y-68222857D01*
X200413809Y-68318095D01*
X200366190Y-68460952D01*
X199794761Y-69032380D01*
X200413809Y-69032380D01*
%TO.C,R17*%
X187692380Y-42552857D02*
X187216190Y-42886190D01*
X187692380Y-43124285D02*
X186692380Y-43124285D01*
X186692380Y-42743333D01*
X186740000Y-42648095D01*
X186787619Y-42600476D01*
X186882857Y-42552857D01*
X187025714Y-42552857D01*
X187120952Y-42600476D01*
X187168571Y-42648095D01*
X187216190Y-42743333D01*
X187216190Y-43124285D01*
X187692380Y-41600476D02*
X187692380Y-42171904D01*
X187692380Y-41886190D02*
X186692380Y-41886190D01*
X186835238Y-41981428D01*
X186930476Y-42076666D01*
X186978095Y-42171904D01*
X186692380Y-41267142D02*
X186692380Y-40600476D01*
X187692380Y-41029047D01*
%TO.C,D5*%
X223289904Y-129396380D02*
X223289904Y-128396380D01*
X223528000Y-128396380D01*
X223670857Y-128444000D01*
X223766095Y-128539238D01*
X223813714Y-128634476D01*
X223861333Y-128824952D01*
X223861333Y-128967809D01*
X223813714Y-129158285D01*
X223766095Y-129253523D01*
X223670857Y-129348761D01*
X223528000Y-129396380D01*
X223289904Y-129396380D01*
X224766095Y-128396380D02*
X224289904Y-128396380D01*
X224242285Y-128872571D01*
X224289904Y-128824952D01*
X224385142Y-128777333D01*
X224623238Y-128777333D01*
X224718476Y-128824952D01*
X224766095Y-128872571D01*
X224813714Y-128967809D01*
X224813714Y-129205904D01*
X224766095Y-129301142D01*
X224718476Y-129348761D01*
X224623238Y-129396380D01*
X224385142Y-129396380D01*
X224289904Y-129348761D01*
X224242285Y-129301142D01*
%TO.C,R11*%
X202557142Y-40542380D02*
X202223809Y-40066190D01*
X201985714Y-40542380D02*
X201985714Y-39542380D01*
X202366666Y-39542380D01*
X202461904Y-39590000D01*
X202509523Y-39637619D01*
X202557142Y-39732857D01*
X202557142Y-39875714D01*
X202509523Y-39970952D01*
X202461904Y-40018571D01*
X202366666Y-40066190D01*
X201985714Y-40066190D01*
X203509523Y-40542380D02*
X202938095Y-40542380D01*
X203223809Y-40542380D02*
X203223809Y-39542380D01*
X203128571Y-39685238D01*
X203033333Y-39780476D01*
X202938095Y-39828095D01*
X204461904Y-40542380D02*
X203890476Y-40542380D01*
X204176190Y-40542380D02*
X204176190Y-39542380D01*
X204080952Y-39685238D01*
X203985714Y-39780476D01*
X203890476Y-39828095D01*
%TO.C,D1*%
X193571904Y-48162380D02*
X193571904Y-47162380D01*
X193810000Y-47162380D01*
X193952857Y-47210000D01*
X194048095Y-47305238D01*
X194095714Y-47400476D01*
X194143333Y-47590952D01*
X194143333Y-47733809D01*
X194095714Y-47924285D01*
X194048095Y-48019523D01*
X193952857Y-48114761D01*
X193810000Y-48162380D01*
X193571904Y-48162380D01*
X195095714Y-48162380D02*
X194524285Y-48162380D01*
X194810000Y-48162380D02*
X194810000Y-47162380D01*
X194714761Y-47305238D01*
X194619523Y-47400476D01*
X194524285Y-47448095D01*
%TO.C,R13*%
X191502380Y-42552857D02*
X191026190Y-42886190D01*
X191502380Y-43124285D02*
X190502380Y-43124285D01*
X190502380Y-42743333D01*
X190550000Y-42648095D01*
X190597619Y-42600476D01*
X190692857Y-42552857D01*
X190835714Y-42552857D01*
X190930952Y-42600476D01*
X190978571Y-42648095D01*
X191026190Y-42743333D01*
X191026190Y-43124285D01*
X191502380Y-41600476D02*
X191502380Y-42171904D01*
X191502380Y-41886190D02*
X190502380Y-41886190D01*
X190645238Y-41981428D01*
X190740476Y-42076666D01*
X190788095Y-42171904D01*
X190502380Y-41267142D02*
X190502380Y-40648095D01*
X190883333Y-40981428D01*
X190883333Y-40838571D01*
X190930952Y-40743333D01*
X190978571Y-40695714D01*
X191073809Y-40648095D01*
X191311904Y-40648095D01*
X191407142Y-40695714D01*
X191454761Y-40743333D01*
X191502380Y-40838571D01*
X191502380Y-41124285D01*
X191454761Y-41219523D01*
X191407142Y-41267142D01*
%TO.C,R12*%
X202557142Y-59592380D02*
X202223809Y-59116190D01*
X201985714Y-59592380D02*
X201985714Y-58592380D01*
X202366666Y-58592380D01*
X202461904Y-58640000D01*
X202509523Y-58687619D01*
X202557142Y-58782857D01*
X202557142Y-58925714D01*
X202509523Y-59020952D01*
X202461904Y-59068571D01*
X202366666Y-59116190D01*
X201985714Y-59116190D01*
X203509523Y-59592380D02*
X202938095Y-59592380D01*
X203223809Y-59592380D02*
X203223809Y-58592380D01*
X203128571Y-58735238D01*
X203033333Y-58830476D01*
X202938095Y-58878095D01*
X203890476Y-58687619D02*
X203938095Y-58640000D01*
X204033333Y-58592380D01*
X204271428Y-58592380D01*
X204366666Y-58640000D01*
X204414285Y-58687619D01*
X204461904Y-58782857D01*
X204461904Y-58878095D01*
X204414285Y-59020952D01*
X203842857Y-59592380D01*
X204461904Y-59592380D01*
%TO.C,D2*%
X193571904Y-67212380D02*
X193571904Y-66212380D01*
X193810000Y-66212380D01*
X193952857Y-66260000D01*
X194048095Y-66355238D01*
X194095714Y-66450476D01*
X194143333Y-66640952D01*
X194143333Y-66783809D01*
X194095714Y-66974285D01*
X194048095Y-67069523D01*
X193952857Y-67164761D01*
X193810000Y-67212380D01*
X193571904Y-67212380D01*
X194524285Y-66307619D02*
X194571904Y-66260000D01*
X194667142Y-66212380D01*
X194905238Y-66212380D01*
X195000476Y-66260000D01*
X195048095Y-66307619D01*
X195095714Y-66402857D01*
X195095714Y-66498095D01*
X195048095Y-66640952D01*
X194476666Y-67212380D01*
X195095714Y-67212380D01*
D12*
%TO.C,J3*%
X230970666Y-66360523D02*
X230970666Y-67267666D01*
X230910190Y-67449095D01*
X230789238Y-67570047D01*
X230607809Y-67630523D01*
X230486857Y-67630523D01*
X231454476Y-66360523D02*
X232240666Y-66360523D01*
X231817333Y-66844333D01*
X231998761Y-66844333D01*
X232119714Y-66904809D01*
X232180190Y-66965285D01*
X232240666Y-67086238D01*
X232240666Y-67388619D01*
X232180190Y-67509571D01*
X232119714Y-67570047D01*
X231998761Y-67630523D01*
X231635904Y-67630523D01*
X231514952Y-67570047D01*
X231454476Y-67509571D01*
D11*
%TO.C,IC1*%
X198413809Y-49982380D02*
X198413809Y-48982380D01*
X199461428Y-49887142D02*
X199413809Y-49934761D01*
X199270952Y-49982380D01*
X199175714Y-49982380D01*
X199032857Y-49934761D01*
X198937619Y-49839523D01*
X198890000Y-49744285D01*
X198842380Y-49553809D01*
X198842380Y-49410952D01*
X198890000Y-49220476D01*
X198937619Y-49125238D01*
X199032857Y-49030000D01*
X199175714Y-48982380D01*
X199270952Y-48982380D01*
X199413809Y-49030000D01*
X199461428Y-49077619D01*
X200413809Y-49982380D02*
X199842380Y-49982380D01*
X200128095Y-49982380D02*
X200128095Y-48982380D01*
X200032857Y-49125238D01*
X199937619Y-49220476D01*
X199842380Y-49268095D01*
D12*
%TO.C,S2*%
X219504380Y-45218047D02*
X219685809Y-45278523D01*
X219988190Y-45278523D01*
X220109142Y-45218047D01*
X220169619Y-45157571D01*
X220230095Y-45036619D01*
X220230095Y-44915666D01*
X220169619Y-44794714D01*
X220109142Y-44734238D01*
X219988190Y-44673761D01*
X219746285Y-44613285D01*
X219625333Y-44552809D01*
X219564857Y-44492333D01*
X219504380Y-44371380D01*
X219504380Y-44250428D01*
X219564857Y-44129476D01*
X219625333Y-44069000D01*
X219746285Y-44008523D01*
X220048666Y-44008523D01*
X220230095Y-44069000D01*
X220713904Y-44129476D02*
X220774380Y-44069000D01*
X220895333Y-44008523D01*
X221197714Y-44008523D01*
X221318666Y-44069000D01*
X221379142Y-44129476D01*
X221439619Y-44250428D01*
X221439619Y-44371380D01*
X221379142Y-44552809D01*
X220653428Y-45278523D01*
X221439619Y-45278523D01*
D11*
%TO.C,U1*%
X159258095Y-40854380D02*
X159258095Y-41663904D01*
X159305714Y-41759142D01*
X159353333Y-41806761D01*
X159448571Y-41854380D01*
X159639047Y-41854380D01*
X159734285Y-41806761D01*
X159781904Y-41759142D01*
X159829523Y-41663904D01*
X159829523Y-40854380D01*
X160829523Y-41854380D02*
X160258095Y-41854380D01*
X160543809Y-41854380D02*
X160543809Y-40854380D01*
X160448571Y-40997238D01*
X160353333Y-41092476D01*
X160258095Y-41140095D01*
D12*
%TO.C,SW1*%
X161247666Y-51695047D02*
X161429095Y-51755523D01*
X161731476Y-51755523D01*
X161852428Y-51695047D01*
X161912904Y-51634571D01*
X161973380Y-51513619D01*
X161973380Y-51392666D01*
X161912904Y-51271714D01*
X161852428Y-51211238D01*
X161731476Y-51150761D01*
X161489571Y-51090285D01*
X161368619Y-51029809D01*
X161308142Y-50969333D01*
X161247666Y-50848380D01*
X161247666Y-50727428D01*
X161308142Y-50606476D01*
X161368619Y-50546000D01*
X161489571Y-50485523D01*
X161791952Y-50485523D01*
X161973380Y-50546000D01*
X162396714Y-50485523D02*
X162699095Y-51755523D01*
X162941000Y-50848380D01*
X163182904Y-51755523D01*
X163485285Y-50485523D01*
X164634333Y-51755523D02*
X163908619Y-51755523D01*
X164271476Y-51755523D02*
X164271476Y-50485523D01*
X164150523Y-50666952D01*
X164029571Y-50787904D01*
X163908619Y-50848380D01*
D11*
%TO.C,R19*%
X172622380Y-55252857D02*
X172146190Y-55586190D01*
X172622380Y-55824285D02*
X171622380Y-55824285D01*
X171622380Y-55443333D01*
X171670000Y-55348095D01*
X171717619Y-55300476D01*
X171812857Y-55252857D01*
X171955714Y-55252857D01*
X172050952Y-55300476D01*
X172098571Y-55348095D01*
X172146190Y-55443333D01*
X172146190Y-55824285D01*
X172622380Y-54300476D02*
X172622380Y-54871904D01*
X172622380Y-54586190D02*
X171622380Y-54586190D01*
X171765238Y-54681428D01*
X171860476Y-54776666D01*
X171908095Y-54871904D01*
X172622380Y-53824285D02*
X172622380Y-53633809D01*
X172574761Y-53538571D01*
X172527142Y-53490952D01*
X172384285Y-53395714D01*
X172193809Y-53348095D01*
X171812857Y-53348095D01*
X171717619Y-53395714D01*
X171670000Y-53443333D01*
X171622380Y-53538571D01*
X171622380Y-53729047D01*
X171670000Y-53824285D01*
X171717619Y-53871904D01*
X171812857Y-53919523D01*
X172050952Y-53919523D01*
X172146190Y-53871904D01*
X172193809Y-53824285D01*
X172241428Y-53729047D01*
X172241428Y-53538571D01*
X172193809Y-53443333D01*
X172146190Y-53395714D01*
X172050952Y-53348095D01*
%TO.C,R15*%
X191502380Y-61602857D02*
X191026190Y-61936190D01*
X191502380Y-62174285D02*
X190502380Y-62174285D01*
X190502380Y-61793333D01*
X190550000Y-61698095D01*
X190597619Y-61650476D01*
X190692857Y-61602857D01*
X190835714Y-61602857D01*
X190930952Y-61650476D01*
X190978571Y-61698095D01*
X191026190Y-61793333D01*
X191026190Y-62174285D01*
X191502380Y-60650476D02*
X191502380Y-61221904D01*
X191502380Y-60936190D02*
X190502380Y-60936190D01*
X190645238Y-61031428D01*
X190740476Y-61126666D01*
X190788095Y-61221904D01*
X190502380Y-59745714D02*
X190502380Y-60221904D01*
X190978571Y-60269523D01*
X190930952Y-60221904D01*
X190883333Y-60126666D01*
X190883333Y-59888571D01*
X190930952Y-59793333D01*
X190978571Y-59745714D01*
X191073809Y-59698095D01*
X191311904Y-59698095D01*
X191407142Y-59745714D01*
X191454761Y-59793333D01*
X191502380Y-59888571D01*
X191502380Y-60126666D01*
X191454761Y-60221904D01*
X191407142Y-60269523D01*
%TO.C,R14*%
X191502380Y-50172857D02*
X191026190Y-50506190D01*
X191502380Y-50744285D02*
X190502380Y-50744285D01*
X190502380Y-50363333D01*
X190550000Y-50268095D01*
X190597619Y-50220476D01*
X190692857Y-50172857D01*
X190835714Y-50172857D01*
X190930952Y-50220476D01*
X190978571Y-50268095D01*
X191026190Y-50363333D01*
X191026190Y-50744285D01*
X191502380Y-49220476D02*
X191502380Y-49791904D01*
X191502380Y-49506190D02*
X190502380Y-49506190D01*
X190645238Y-49601428D01*
X190740476Y-49696666D01*
X190788095Y-49791904D01*
X190835714Y-48363333D02*
X191502380Y-48363333D01*
X190454761Y-48601428D02*
X191169047Y-48839523D01*
X191169047Y-48220476D01*
%TO.C,C28*%
X155821142Y-39401142D02*
X155773523Y-39448761D01*
X155630666Y-39496380D01*
X155535428Y-39496380D01*
X155392571Y-39448761D01*
X155297333Y-39353523D01*
X155249714Y-39258285D01*
X155202095Y-39067809D01*
X155202095Y-38924952D01*
X155249714Y-38734476D01*
X155297333Y-38639238D01*
X155392571Y-38544000D01*
X155535428Y-38496380D01*
X155630666Y-38496380D01*
X155773523Y-38544000D01*
X155821142Y-38591619D01*
X156202095Y-38591619D02*
X156249714Y-38544000D01*
X156344952Y-38496380D01*
X156583047Y-38496380D01*
X156678285Y-38544000D01*
X156725904Y-38591619D01*
X156773523Y-38686857D01*
X156773523Y-38782095D01*
X156725904Y-38924952D01*
X156154476Y-39496380D01*
X156773523Y-39496380D01*
X157344952Y-38924952D02*
X157249714Y-38877333D01*
X157202095Y-38829714D01*
X157154476Y-38734476D01*
X157154476Y-38686857D01*
X157202095Y-38591619D01*
X157249714Y-38544000D01*
X157344952Y-38496380D01*
X157535428Y-38496380D01*
X157630666Y-38544000D01*
X157678285Y-38591619D01*
X157725904Y-38686857D01*
X157725904Y-38734476D01*
X157678285Y-38829714D01*
X157630666Y-38877333D01*
X157535428Y-38924952D01*
X157344952Y-38924952D01*
X157249714Y-38972571D01*
X157202095Y-39020190D01*
X157154476Y-39115428D01*
X157154476Y-39305904D01*
X157202095Y-39401142D01*
X157249714Y-39448761D01*
X157344952Y-39496380D01*
X157535428Y-39496380D01*
X157630666Y-39448761D01*
X157678285Y-39401142D01*
X157725904Y-39305904D01*
X157725904Y-39115428D01*
X157678285Y-39020190D01*
X157630666Y-38972571D01*
X157535428Y-38924952D01*
D12*
%TO.C,L1*%
X195368333Y-43754523D02*
X194763571Y-43754523D01*
X194763571Y-42484523D01*
X196456904Y-43754523D02*
X195731190Y-43754523D01*
X196094047Y-43754523D02*
X196094047Y-42484523D01*
X195973095Y-42665952D01*
X195852142Y-42786904D01*
X195731190Y-42847380D01*
D11*
%TO.C,R16*%
X191502380Y-69222857D02*
X191026190Y-69556190D01*
X191502380Y-69794285D02*
X190502380Y-69794285D01*
X190502380Y-69413333D01*
X190550000Y-69318095D01*
X190597619Y-69270476D01*
X190692857Y-69222857D01*
X190835714Y-69222857D01*
X190930952Y-69270476D01*
X190978571Y-69318095D01*
X191026190Y-69413333D01*
X191026190Y-69794285D01*
X191502380Y-68270476D02*
X191502380Y-68841904D01*
X191502380Y-68556190D02*
X190502380Y-68556190D01*
X190645238Y-68651428D01*
X190740476Y-68746666D01*
X190788095Y-68841904D01*
X190502380Y-67413333D02*
X190502380Y-67603809D01*
X190550000Y-67699047D01*
X190597619Y-67746666D01*
X190740476Y-67841904D01*
X190930952Y-67889523D01*
X191311904Y-67889523D01*
X191407142Y-67841904D01*
X191454761Y-67794285D01*
X191502380Y-67699047D01*
X191502380Y-67508571D01*
X191454761Y-67413333D01*
X191407142Y-67365714D01*
X191311904Y-67318095D01*
X191073809Y-67318095D01*
X190978571Y-67365714D01*
X190930952Y-67413333D01*
X190883333Y-67508571D01*
X190883333Y-67699047D01*
X190930952Y-67794285D01*
X190978571Y-67841904D01*
X191073809Y-67889523D01*
D12*
%TO.C,L2*%
X195368333Y-62804523D02*
X194763571Y-62804523D01*
X194763571Y-61534523D01*
X195731190Y-61655476D02*
X195791666Y-61595000D01*
X195912619Y-61534523D01*
X196215000Y-61534523D01*
X196335952Y-61595000D01*
X196396428Y-61655476D01*
X196456904Y-61776428D01*
X196456904Y-61897380D01*
X196396428Y-62078809D01*
X195670714Y-62804523D01*
X196456904Y-62804523D01*
D11*
%TO.C,R18*%
X187692380Y-61602857D02*
X187216190Y-61936190D01*
X187692380Y-62174285D02*
X186692380Y-62174285D01*
X186692380Y-61793333D01*
X186740000Y-61698095D01*
X186787619Y-61650476D01*
X186882857Y-61602857D01*
X187025714Y-61602857D01*
X187120952Y-61650476D01*
X187168571Y-61698095D01*
X187216190Y-61793333D01*
X187216190Y-62174285D01*
X187692380Y-60650476D02*
X187692380Y-61221904D01*
X187692380Y-60936190D02*
X186692380Y-60936190D01*
X186835238Y-61031428D01*
X186930476Y-61126666D01*
X186978095Y-61221904D01*
X187120952Y-60079047D02*
X187073333Y-60174285D01*
X187025714Y-60221904D01*
X186930476Y-60269523D01*
X186882857Y-60269523D01*
X186787619Y-60221904D01*
X186740000Y-60174285D01*
X186692380Y-60079047D01*
X186692380Y-59888571D01*
X186740000Y-59793333D01*
X186787619Y-59745714D01*
X186882857Y-59698095D01*
X186930476Y-59698095D01*
X187025714Y-59745714D01*
X187073333Y-59793333D01*
X187120952Y-59888571D01*
X187120952Y-60079047D01*
X187168571Y-60174285D01*
X187216190Y-60221904D01*
X187311428Y-60269523D01*
X187501904Y-60269523D01*
X187597142Y-60221904D01*
X187644761Y-60174285D01*
X187692380Y-60079047D01*
X187692380Y-59888571D01*
X187644761Y-59793333D01*
X187597142Y-59745714D01*
X187501904Y-59698095D01*
X187311428Y-59698095D01*
X187216190Y-59745714D01*
X187168571Y-59793333D01*
X187120952Y-59888571D01*
%TO.C,U3*%
X147161000Y-53626000D02*
X147161000Y-54301000D01*
X136811000Y-53626000D02*
X136811000Y-54201000D01*
X147161000Y-63976000D02*
X147161000Y-63301000D01*
X136811000Y-63976000D02*
X136811000Y-63301000D01*
X147161000Y-63976000D02*
X146486000Y-63976000D01*
X136811000Y-53626000D02*
X137486000Y-53626000D01*
X136811000Y-63976000D02*
X137486000Y-63976000D01*
X136811000Y-54201000D02*
X135536000Y-54201000D01*
X147161000Y-53626000D02*
X146486000Y-53626000D01*
D13*
%TO.C,J1*%
X150301000Y-46478500D02*
X150301000Y-43818500D01*
X137541000Y-46478500D02*
X137541000Y-43818500D01*
X134941000Y-46478500D02*
X134941000Y-45148500D01*
X136271000Y-46478500D02*
X134941000Y-46478500D01*
X137541000Y-46478500D02*
X150301000Y-46478500D01*
X137541000Y-43818500D02*
X150301000Y-43818500D01*
%TO.C,C3*%
X142036748Y-47985000D02*
X143459252Y-47985000D01*
X142036748Y-49805000D02*
X143459252Y-49805000D01*
%TO.C,C4*%
X149204000Y-67005252D02*
X149204000Y-65582748D01*
X151024000Y-67005252D02*
X151024000Y-65582748D01*
%TO.C,C12*%
X213720000Y-46278748D02*
X213720000Y-47701252D01*
X215540000Y-46278748D02*
X215540000Y-47701252D01*
%TO.C,C13*%
X215540000Y-65328748D02*
X215540000Y-66751252D01*
X213720000Y-65328748D02*
X213720000Y-66751252D01*
%TO.C,C14*%
X211730000Y-46278748D02*
X211730000Y-47701252D01*
X209910000Y-46278748D02*
X209910000Y-47701252D01*
%TO.C,C15*%
X211730000Y-65328748D02*
X211730000Y-66751252D01*
X209910000Y-65328748D02*
X209910000Y-66751252D01*
%TO.C,C16*%
X206100000Y-46278748D02*
X206100000Y-47701252D01*
X207920000Y-46278748D02*
X207920000Y-47701252D01*
%TO.C,C17*%
X206100000Y-65328748D02*
X206100000Y-66751252D01*
X207920000Y-65328748D02*
X207920000Y-66751252D01*
%TO.C,C18*%
X202840000Y-46278748D02*
X202840000Y-47701252D01*
X201020000Y-46278748D02*
X201020000Y-47701252D01*
%TO.C,C19*%
X201020000Y-65328748D02*
X201020000Y-66751252D01*
X202840000Y-65328748D02*
X202840000Y-66751252D01*
%TO.C,C20*%
X184708748Y-46630000D02*
X186131252Y-46630000D01*
X184708748Y-44810000D02*
X186131252Y-44810000D01*
%TO.C,C21*%
X184708748Y-65680000D02*
X186131252Y-65680000D01*
X184708748Y-63860000D02*
X186131252Y-63860000D01*
%TO.C,C22*%
X180700000Y-42621252D02*
X180700000Y-41198748D01*
X182520000Y-42621252D02*
X182520000Y-41198748D01*
%TO.C,C23*%
X180700000Y-61671252D02*
X180700000Y-60248748D01*
X182520000Y-61671252D02*
X182520000Y-60248748D01*
%TO.C,C24*%
X176890000Y-42621252D02*
X176890000Y-41198748D01*
X178710000Y-42621252D02*
X178710000Y-41198748D01*
%TO.C,C25*%
X178710000Y-61671252D02*
X178710000Y-60248748D01*
X176890000Y-61671252D02*
X176890000Y-60248748D01*
%TO.C,C26*%
X173080000Y-42621252D02*
X173080000Y-41198748D01*
X174900000Y-42621252D02*
X174900000Y-41198748D01*
%TO.C,C27*%
X174900000Y-61671252D02*
X174900000Y-60248748D01*
X173080000Y-61671252D02*
X173080000Y-60248748D01*
%TO.C,U4*%
X147610000Y-130875000D02*
X169890000Y-130875000D01*
X172890000Y-79895000D02*
X144610000Y-79895000D01*
X172890000Y-130935000D02*
X172890000Y-79895000D01*
X144610000Y-79895000D02*
X144610000Y-130935000D01*
X169890000Y-130875000D02*
X169890000Y-79955000D01*
X144610000Y-130935000D02*
X172890000Y-130935000D01*
X147610000Y-79955000D02*
X147610000Y-130875000D01*
X157750000Y-79955000D02*
X147610000Y-79955000D01*
X169890000Y-79955000D02*
X159750000Y-79955000D01*
X157750000Y-79955000D02*
G75*
G03*
X159750000Y-79955000I1000000J0D01*
G01*
%TO.C,U2*%
X44534000Y-44579000D02*
X44534000Y-126099000D01*
X44534000Y-126099000D02*
X72814000Y-126099000D01*
X47534000Y-44639000D02*
X47534000Y-126039000D01*
X69814000Y-44639000D02*
X59674000Y-44639000D01*
X72814000Y-126099000D02*
X72814000Y-44579000D01*
X72814000Y-44579000D02*
X44534000Y-44579000D01*
X47534000Y-126039000D02*
X69814000Y-126039000D01*
X57674000Y-44639000D02*
X47534000Y-44639000D01*
X69814000Y-126039000D02*
X69814000Y-44639000D01*
X57674000Y-44639000D02*
G75*
G03*
X59674000Y-44639000I1000000J0D01*
G01*
%TO.C,U5*%
X196570000Y-83765000D02*
X195320000Y-83765000D01*
X192070000Y-109285000D02*
X196570000Y-109285000D01*
X199570000Y-83705000D02*
X189070000Y-83705000D01*
X192070000Y-83765000D02*
X192070000Y-109285000D01*
X196570000Y-109285000D02*
X196570000Y-83765000D01*
X193320000Y-83765000D02*
X192070000Y-83765000D01*
X199570000Y-109345000D02*
X199570000Y-83705000D01*
X189070000Y-109345000D02*
X199570000Y-109345000D01*
X189070000Y-83705000D02*
X189070000Y-109345000D01*
X193320000Y-83765000D02*
G75*
G03*
X195320000Y-83765000I1000000J0D01*
G01*
%TO.C,U6*%
X162179000Y-143951000D02*
X162179000Y-141291000D01*
X159579000Y-143951000D02*
X159579000Y-142621000D01*
X162179000Y-143951000D02*
X174939000Y-143951000D01*
X174939000Y-143951000D02*
X174939000Y-141291000D01*
X160909000Y-143951000D02*
X159579000Y-143951000D01*
X162179000Y-141291000D02*
X174939000Y-141291000D01*
%TO.C,X2*%
X156110000Y-56860000D02*
X156110000Y-77010000D01*
X156860000Y-77760000D02*
X168260000Y-77760000D01*
X168260000Y-56860000D02*
X156110000Y-56860000D01*
X169010000Y-77010000D02*
X169010000Y-57610000D01*
X156110000Y-77010000D02*
G75*
G03*
X156860000Y-77760000I750000J0D01*
G01*
X168260000Y-77760000D02*
G75*
G03*
X169010000Y-77010000I0J750000D01*
G01*
X169010000Y-57610000D02*
G75*
G03*
X168260000Y-56860000I-750000J0D01*
G01*
%TO.C,U10*%
X121879000Y-130855000D02*
X121879000Y-95175000D01*
X106759000Y-130915000D02*
X124879000Y-130915000D01*
X106759000Y-95115000D02*
X106759000Y-130915000D01*
X109759000Y-95175000D02*
X109759000Y-130855000D01*
X109759000Y-130855000D02*
X121879000Y-130855000D01*
X124879000Y-130915000D02*
X124879000Y-95115000D01*
X124879000Y-95115000D02*
X106759000Y-95115000D01*
X114819000Y-95175000D02*
X109759000Y-95175000D01*
X121879000Y-95175000D02*
X116819000Y-95175000D01*
X114819000Y-95175000D02*
G75*
G03*
X116819000Y-95175000I1000000J0D01*
G01*
%TO.C,U11*%
X84613000Y-130855000D02*
X96733000Y-130855000D01*
X99733000Y-95115000D02*
X81613000Y-95115000D01*
X96733000Y-130855000D02*
X96733000Y-95175000D01*
X96733000Y-95175000D02*
X91673000Y-95175000D01*
X89673000Y-95175000D02*
X84613000Y-95175000D01*
X84613000Y-95175000D02*
X84613000Y-130855000D01*
X81613000Y-130915000D02*
X99733000Y-130915000D01*
X99733000Y-130915000D02*
X99733000Y-95115000D01*
X81613000Y-95115000D02*
X81613000Y-130915000D01*
X89673000Y-95175000D02*
G75*
G03*
X91673000Y-95175000I1000000J0D01*
G01*
%TO.C,U9*%
X124879000Y-85337000D02*
X124879000Y-44457000D01*
X109759000Y-44517000D02*
X109759000Y-85277000D01*
X121879000Y-85277000D02*
X121879000Y-44517000D01*
X106759000Y-44457000D02*
X106759000Y-85337000D01*
X121879000Y-44517000D02*
X116819000Y-44517000D01*
X114819000Y-44517000D02*
X109759000Y-44517000D01*
X124879000Y-44457000D02*
X106759000Y-44457000D01*
X109759000Y-85277000D02*
X121879000Y-85277000D01*
X106759000Y-85337000D02*
X124879000Y-85337000D01*
X114819000Y-44517000D02*
G75*
G03*
X116819000Y-44517000I1000000J0D01*
G01*
%TO.C,U8*%
X81867000Y-85464000D02*
X99987000Y-85464000D01*
X96987000Y-44644000D02*
X91927000Y-44644000D01*
X84867000Y-44644000D02*
X84867000Y-85404000D01*
X99987000Y-44584000D02*
X81867000Y-44584000D01*
X89927000Y-44644000D02*
X84867000Y-44644000D01*
X81867000Y-44584000D02*
X81867000Y-85464000D01*
X96987000Y-85404000D02*
X96987000Y-44644000D01*
X84867000Y-85404000D02*
X96987000Y-85404000D01*
X99987000Y-85464000D02*
X99987000Y-44584000D01*
X89927000Y-44644000D02*
G75*
G03*
X91927000Y-44644000I1000000J0D01*
G01*
%TO.C,U7*%
X197825000Y-143565000D02*
X197825000Y-112965000D01*
X197825000Y-112965000D02*
X192765000Y-112965000D01*
X185705000Y-112965000D02*
X185705000Y-143565000D01*
X185705000Y-143565000D02*
X197825000Y-143565000D01*
X200825000Y-143625000D02*
X200825000Y-112905000D01*
X182705000Y-143625000D02*
X200825000Y-143625000D01*
X182705000Y-112905000D02*
X182705000Y-143625000D01*
X200825000Y-112905000D02*
X182705000Y-112905000D01*
X190765000Y-112965000D02*
X185705000Y-112965000D01*
X190765000Y-112965000D02*
G75*
G03*
X192765000Y-112965000I1000000J0D01*
G01*
%TO.C,X1*%
X48224000Y-143864000D02*
X68374000Y-143864000D01*
X68374000Y-130964000D02*
X48974000Y-130964000D01*
X69124000Y-143114000D02*
X69124000Y-131714000D01*
X48224000Y-131714000D02*
X48224000Y-143864000D01*
X68374000Y-143864000D02*
G75*
G03*
X69124000Y-143114000I0J750000D01*
G01*
X69124000Y-131714000D02*
G75*
G03*
X68374000Y-130964000I-750000J0D01*
G01*
X48974000Y-130964000D02*
G75*
G03*
X48224000Y-131714000I0J-750000D01*
G01*
%TO.C,J2*%
X151063000Y-145602000D02*
X151063000Y-140402000D01*
X131953000Y-145602000D02*
X130623000Y-145602000D01*
X130623000Y-143002000D02*
X130623000Y-140402000D01*
X130623000Y-145602000D02*
X130623000Y-144272000D01*
X133223000Y-145602000D02*
X151063000Y-145602000D01*
X130623000Y-140402000D02*
X151063000Y-140402000D01*
X133223000Y-143002000D02*
X130623000Y-143002000D01*
X133223000Y-145602000D02*
X133223000Y-143002000D01*
D14*
%TO.C,H1*%
X231038000Y-132799000D02*
X237338000Y-132799000D01*
X237338000Y-132799000D02*
X237338000Y-86149000D01*
X237338000Y-86149000D02*
X233188000Y-86149000D01*
X231038000Y-88474000D02*
X231038000Y-132799000D01*
D13*
%TO.C,RN1*%
X216688000Y-100514000D02*
X215438000Y-100514000D01*
X215438000Y-100514000D02*
X215438000Y-120954000D01*
X212438000Y-100454000D02*
X212438000Y-121014000D01*
X212438000Y-121014000D02*
X222938000Y-121014000D01*
X222938000Y-100454000D02*
X212438000Y-100454000D01*
X215438000Y-120954000D02*
X219938000Y-120954000D01*
X219938000Y-120954000D02*
X219938000Y-100514000D01*
X219938000Y-100514000D02*
X218688000Y-100514000D01*
X222938000Y-121014000D02*
X222938000Y-100454000D01*
X216688000Y-100514000D02*
G75*
G03*
X218688000Y-100514000I1000000J0D01*
G01*
%TO.C,D3*%
X178880000Y-56170000D02*
X179036000Y-56170000D01*
X176564000Y-56170000D02*
X176720000Y-56170000D01*
X176721392Y-52937665D02*
G75*
G03*
X176564484Y-56170000I1078609J-1672335D01*
G01*
X179035516Y-56170000D02*
G75*
G03*
X178878608Y-52937665I-1235517J1560000D01*
G01*
X176720163Y-53568870D02*
G75*
G03*
X176720000Y-55650961I1079837J-1041130D01*
G01*
X178880000Y-55650961D02*
G75*
G03*
X178879837Y-53568870I-1080000J1040961D01*
G01*
%TO.C,R20*%
X173080000Y-47532936D02*
X173080000Y-48987064D01*
X174900000Y-47532936D02*
X174900000Y-48987064D01*
%TO.C,D4*%
X176720000Y-46700000D02*
X176564000Y-46700000D01*
X179036000Y-46700000D02*
X178880000Y-46700000D01*
X176720000Y-47219039D02*
G75*
G03*
X176720163Y-49301130I1080000J-1040961D01*
G01*
X178879837Y-49301130D02*
G75*
G03*
X178880000Y-47219039I-1079837J1041130D01*
G01*
X176564484Y-46700000D02*
G75*
G03*
X176721392Y-49932335I1235517J-1560000D01*
G01*
X178878608Y-49932335D02*
G75*
G03*
X179035516Y-46700000I-1078609J1672335D01*
G01*
%TO.C,IC2*%
X200880000Y-76870000D02*
X200880000Y-76125000D01*
X195360000Y-70450000D02*
X195360000Y-71195000D01*
X195360000Y-71195000D02*
X193670000Y-71195000D01*
X198120000Y-76870000D02*
X195360000Y-76870000D01*
X198120000Y-70450000D02*
X195360000Y-70450000D01*
X195360000Y-76870000D02*
X195360000Y-76125000D01*
X198120000Y-70450000D02*
X200880000Y-70450000D01*
X198120000Y-76870000D02*
X200880000Y-76870000D01*
X200880000Y-70450000D02*
X200880000Y-71195000D01*
%TO.C,R17*%
X186330000Y-41182936D02*
X186330000Y-42637064D01*
X184510000Y-41182936D02*
X184510000Y-42637064D01*
%TO.C,D5*%
X225588000Y-124904000D02*
X225588000Y-124748000D01*
X225588000Y-127220000D02*
X225588000Y-127064000D01*
X222986870Y-127063837D02*
G75*
G03*
X225068961Y-127064000I1041130J1079837D01*
G01*
X222355665Y-127062608D02*
G75*
G03*
X225588000Y-127219516I1672335J1078609D01*
G01*
X225068961Y-124904000D02*
G75*
G03*
X222986870Y-124904163I-1040961J-1080000D01*
G01*
X225588000Y-124748484D02*
G75*
G03*
X222355665Y-124905392I-1560000J-1235517D01*
G01*
%TO.C,R11*%
X202472936Y-41000000D02*
X203927064Y-41000000D01*
X202472936Y-42820000D02*
X203927064Y-42820000D01*
%TO.C,D1*%
X197180000Y-48395000D02*
X193120000Y-48395000D01*
X193120000Y-50665000D02*
X197180000Y-50665000D01*
X193120000Y-48395000D02*
X193120000Y-50665000D01*
%TO.C,R13*%
X188320000Y-41182936D02*
X188320000Y-42637064D01*
X190140000Y-41182936D02*
X190140000Y-42637064D01*
%TO.C,R12*%
X202472936Y-60050000D02*
X203927064Y-60050000D01*
X202472936Y-61870000D02*
X203927064Y-61870000D01*
%TO.C,D2*%
X193120000Y-69715000D02*
X197180000Y-69715000D01*
X197180000Y-67445000D02*
X193120000Y-67445000D01*
X193120000Y-67445000D02*
X193120000Y-69715000D01*
D15*
%TO.C,J3*%
X225099000Y-64595000D02*
X239599000Y-64595000D01*
X239599000Y-64595000D02*
X239599000Y-55595000D01*
X239599000Y-55595000D02*
X231599000Y-55595000D01*
X225099000Y-63095000D02*
X225099000Y-64095000D01*
X225099000Y-64095000D02*
X225099000Y-64595000D01*
D13*
%TO.C,IC1*%
X198120000Y-51400000D02*
X200880000Y-51400000D01*
X195360000Y-57820000D02*
X195360000Y-57075000D01*
X200880000Y-57820000D02*
X200880000Y-57075000D01*
X195360000Y-51400000D02*
X195360000Y-52145000D01*
X198120000Y-51400000D02*
X195360000Y-51400000D01*
X200880000Y-51400000D02*
X200880000Y-52145000D01*
X195360000Y-52145000D02*
X193670000Y-52145000D01*
X198120000Y-57820000D02*
X195360000Y-57820000D01*
X198120000Y-57820000D02*
X200880000Y-57820000D01*
D14*
%TO.C,S2*%
X239383000Y-45974000D02*
X239383000Y-45974000D01*
D15*
X232283000Y-40274000D02*
X226983000Y-40274000D01*
D14*
X239483000Y-45974000D02*
X239483000Y-45974000D01*
D15*
X226983000Y-42874000D02*
X232283000Y-42874000D01*
X226983000Y-40274000D02*
X226983000Y-42874000D01*
X235633000Y-42874000D02*
X223633000Y-42874000D01*
X223633000Y-42874000D02*
X223633000Y-49374000D01*
X232283000Y-42874000D02*
X232283000Y-40274000D01*
X235633000Y-49374000D02*
X235633000Y-42874000D01*
D14*
X239483000Y-45974000D02*
X239483000Y-45974000D01*
D15*
X223633000Y-49374000D02*
X235633000Y-49374000D01*
D14*
X239483000Y-45974000D02*
G75*
G03*
X239383000Y-45974000I-50000J0D01*
G01*
X239383000Y-45974000D02*
G75*
G03*
X239483000Y-45974000I50000J0D01*
G01*
X239483000Y-45974000D02*
G75*
G03*
X239383000Y-45974000I-50000J0D01*
G01*
D13*
%TO.C,U1*%
X162030000Y-43760000D02*
X165630000Y-43760000D01*
X163010000Y-39460000D02*
G75*
G03*
X162018547Y-43752156I819999J-2450000D01*
G01*
X165638444Y-43737683D02*
G75*
G03*
X164610000Y-39460000I-1808445J1827683D01*
G01*
D14*
%TO.C,SW1*%
X158291000Y-48931000D02*
X158291000Y-48931000D01*
X165941000Y-50181000D02*
X165941000Y-52181000D01*
X160949000Y-48181000D02*
X164941000Y-48181000D01*
X158391000Y-48931000D02*
X158391000Y-48931000D01*
X159941000Y-50181000D02*
X159941000Y-52181000D01*
X158291000Y-48931000D02*
X158391000Y-48931000D01*
X160941000Y-54181000D02*
X164941000Y-54181000D01*
X158391000Y-48931000D02*
G75*
G03*
X158291000Y-48931000I-50000J0D01*
G01*
X158291000Y-48931000D02*
G75*
G03*
X158391000Y-48931000I50000J0D01*
G01*
D13*
%TO.C,R19*%
X174900000Y-55337064D02*
X174900000Y-53882936D01*
X173080000Y-55337064D02*
X173080000Y-53882936D01*
%TO.C,R15*%
X188320000Y-60232936D02*
X188320000Y-61687064D01*
X190140000Y-60232936D02*
X190140000Y-61687064D01*
%TO.C,R14*%
X190140000Y-48802936D02*
X190140000Y-50257064D01*
X188320000Y-48802936D02*
X188320000Y-50257064D01*
%TO.C,C28*%
X155752748Y-41804000D02*
X157175252Y-41804000D01*
X155752748Y-39984000D02*
X157175252Y-39984000D01*
D15*
%TO.C,L1*%
X198120000Y-40705000D02*
X193105000Y-40705000D01*
X198055000Y-45655000D02*
X193105000Y-45655000D01*
D13*
%TO.C,R16*%
X188320000Y-67852936D02*
X188320000Y-69307064D01*
X190140000Y-67852936D02*
X190140000Y-69307064D01*
D15*
%TO.C,L2*%
X198055000Y-64705000D02*
X193105000Y-64705000D01*
X198120000Y-59755000D02*
X193105000Y-59755000D01*
D13*
%TO.C,R18*%
X184510000Y-60232936D02*
X184510000Y-61687064D01*
X186330000Y-60232936D02*
X186330000Y-61687064D01*
%TD*%
%LPC*%
D16*
%TO.C,U3*%
X136286000Y-54801000D03*
X136286000Y-55601000D03*
X136286000Y-56401000D03*
X136286000Y-57201000D03*
X136286000Y-58001000D03*
X136286000Y-58801000D03*
X136286000Y-59601000D03*
X136286000Y-60401000D03*
X136286000Y-61201000D03*
X136286000Y-62001000D03*
X136286000Y-62801000D03*
D17*
X137986000Y-64501000D03*
X138786000Y-64501000D03*
X139586000Y-64501000D03*
X140386000Y-64501000D03*
X141186000Y-64501000D03*
X141986000Y-64501000D03*
X142786000Y-64501000D03*
X143586000Y-64501000D03*
X144386000Y-64501000D03*
X145186000Y-64501000D03*
X145986000Y-64501000D03*
D16*
X147686000Y-62801000D03*
X147686000Y-62001000D03*
X147686000Y-61201000D03*
X147686000Y-60401000D03*
X147686000Y-59601000D03*
X147686000Y-58801000D03*
X147686000Y-58001000D03*
X147686000Y-57201000D03*
X147686000Y-56401000D03*
X147686000Y-55601000D03*
X147686000Y-54801000D03*
D17*
X145986000Y-53101000D03*
X145186000Y-53101000D03*
X144386000Y-53101000D03*
X143586000Y-53101000D03*
X142786000Y-53101000D03*
X141986000Y-53101000D03*
X141186000Y-53101000D03*
X140386000Y-53101000D03*
X139586000Y-53101000D03*
X138786000Y-53101000D03*
X137986000Y-53101000D03*
%TD*%
D18*
%TO.C,J1*%
X136271000Y-45148500D03*
D19*
X138811000Y-45148500D03*
X141351000Y-45148500D03*
X143891000Y-45148500D03*
X146431000Y-45148500D03*
X148971000Y-45148500D03*
%TD*%
D20*
%TO.C,C3*%
X141185500Y-48895000D03*
X144310500Y-48895000D03*
%TD*%
D21*
%TO.C,C4*%
X150114000Y-67856500D03*
X150114000Y-64731500D03*
%TD*%
D22*
%TO.C,C12*%
X214630000Y-45427500D03*
X214630000Y-48552500D03*
%TD*%
%TO.C,C13*%
X214630000Y-64477500D03*
X214630000Y-67602500D03*
%TD*%
%TO.C,C14*%
X210820000Y-45427500D03*
X210820000Y-48552500D03*
%TD*%
%TO.C,C15*%
X210820000Y-64477500D03*
X210820000Y-67602500D03*
%TD*%
%TO.C,C16*%
X207010000Y-45427500D03*
X207010000Y-48552500D03*
%TD*%
%TO.C,C17*%
X207010000Y-64477500D03*
X207010000Y-67602500D03*
%TD*%
%TO.C,C18*%
X201930000Y-45427500D03*
X201930000Y-48552500D03*
%TD*%
%TO.C,C19*%
X201930000Y-64477500D03*
X201930000Y-67602500D03*
%TD*%
D20*
%TO.C,C20*%
X183857500Y-45720000D03*
X186982500Y-45720000D03*
%TD*%
%TO.C,C21*%
X183857500Y-64770000D03*
X186982500Y-64770000D03*
%TD*%
D21*
%TO.C,C22*%
X181610000Y-43472500D03*
X181610000Y-40347500D03*
%TD*%
%TO.C,C23*%
X181610000Y-62522500D03*
X181610000Y-59397500D03*
%TD*%
%TO.C,C24*%
X177800000Y-43472500D03*
X177800000Y-40347500D03*
%TD*%
%TO.C,C25*%
X177800000Y-62522500D03*
X177800000Y-59397500D03*
%TD*%
%TO.C,C26*%
X173990000Y-43472500D03*
X173990000Y-40347500D03*
%TD*%
%TO.C,C27*%
X173990000Y-62522500D03*
X173990000Y-59397500D03*
%TD*%
D23*
%TO.C,U4*%
X146050000Y-81285000D03*
D24*
X146050000Y-83825000D03*
X146050000Y-86365000D03*
X146050000Y-88905000D03*
X146050000Y-91445000D03*
X146050000Y-93985000D03*
X146050000Y-96525000D03*
X146050000Y-99065000D03*
X146050000Y-101605000D03*
X146050000Y-104145000D03*
X146050000Y-106685000D03*
X146050000Y-109225000D03*
X146050000Y-111765000D03*
X146050000Y-114305000D03*
X146050000Y-116845000D03*
X146050000Y-119385000D03*
X146050000Y-121925000D03*
X146050000Y-124465000D03*
X146050000Y-127005000D03*
X146050000Y-129545000D03*
X171450000Y-129545000D03*
X171450000Y-127005000D03*
X171450000Y-124465000D03*
X171450000Y-121925000D03*
X171450000Y-119385000D03*
X171450000Y-116845000D03*
X171450000Y-114305000D03*
X171450000Y-111765000D03*
X171450000Y-109225000D03*
X171450000Y-106685000D03*
X171450000Y-104145000D03*
X171450000Y-101605000D03*
X171450000Y-99065000D03*
X171450000Y-96525000D03*
X171450000Y-93985000D03*
X171450000Y-91445000D03*
X171450000Y-88905000D03*
X171450000Y-86365000D03*
X171450000Y-83825000D03*
X171450000Y-81285000D03*
%TD*%
D23*
%TO.C,U2*%
X45974000Y-45969000D03*
D24*
X45974000Y-48509000D03*
X45974000Y-51049000D03*
X45974000Y-53589000D03*
X45974000Y-56129000D03*
X45974000Y-58669000D03*
X45974000Y-61209000D03*
X45974000Y-63749000D03*
X45974000Y-66289000D03*
X45974000Y-68829000D03*
X45974000Y-71369000D03*
X45974000Y-73909000D03*
X45974000Y-76449000D03*
X45974000Y-78989000D03*
X45974000Y-81529000D03*
X45974000Y-84069000D03*
X45974000Y-86609000D03*
X45974000Y-89149000D03*
X45974000Y-91689000D03*
X45974000Y-94229000D03*
X45974000Y-96769000D03*
X45974000Y-99309000D03*
X45974000Y-101849000D03*
X45974000Y-104389000D03*
X45974000Y-106929000D03*
X45974000Y-109469000D03*
X45974000Y-112009000D03*
X45974000Y-114549000D03*
X45974000Y-117089000D03*
X45974000Y-119629000D03*
X45974000Y-122169000D03*
X45974000Y-124709000D03*
X71374000Y-124709000D03*
X71374000Y-122169000D03*
X71374000Y-119629000D03*
X71374000Y-117089000D03*
X71374000Y-114549000D03*
X71374000Y-112009000D03*
X71374000Y-109469000D03*
X71374000Y-106929000D03*
X71374000Y-104389000D03*
X71374000Y-101849000D03*
X71374000Y-99309000D03*
X71374000Y-96769000D03*
X71374000Y-94229000D03*
X71374000Y-91689000D03*
X71374000Y-89149000D03*
X71374000Y-86609000D03*
X71374000Y-84069000D03*
X71374000Y-81529000D03*
X71374000Y-78989000D03*
X71374000Y-76449000D03*
X71374000Y-73909000D03*
X71374000Y-71369000D03*
X71374000Y-68829000D03*
X71374000Y-66289000D03*
X71374000Y-63749000D03*
X71374000Y-61209000D03*
X71374000Y-58669000D03*
X71374000Y-56129000D03*
X71374000Y-53589000D03*
X71374000Y-51049000D03*
X71374000Y-48509000D03*
X71374000Y-45969000D03*
%TD*%
D23*
%TO.C,U5*%
X190510000Y-85095000D03*
D24*
X190510000Y-87635000D03*
X190510000Y-90175000D03*
X190510000Y-92715000D03*
X190510000Y-95255000D03*
X190510000Y-97795000D03*
X190510000Y-100335000D03*
X190510000Y-102875000D03*
X190510000Y-105415000D03*
X190510000Y-107955000D03*
X198130000Y-107955000D03*
X198130000Y-105415000D03*
X198130000Y-102875000D03*
X198130000Y-100335000D03*
X198130000Y-97795000D03*
X198130000Y-95255000D03*
X198130000Y-92715000D03*
X198130000Y-90175000D03*
X198130000Y-87635000D03*
X198130000Y-85095000D03*
%TD*%
D18*
%TO.C,U6*%
X160909000Y-142621000D03*
D19*
X163449000Y-142621000D03*
X165989000Y-142621000D03*
X168529000Y-142621000D03*
X171069000Y-142621000D03*
X173609000Y-142621000D03*
%TD*%
D25*
%TO.C,X2*%
X158750000Y-59690000D03*
D26*
X158750000Y-74930000D03*
X166370000Y-74930000D03*
X166370000Y-59690000D03*
%TD*%
D23*
%TO.C,U10*%
X108199000Y-96505000D03*
D24*
X108199000Y-99045000D03*
X108199000Y-101585000D03*
X108199000Y-104125000D03*
X108199000Y-106665000D03*
X108199000Y-109205000D03*
X108199000Y-111745000D03*
X108199000Y-114285000D03*
X108199000Y-116825000D03*
X108199000Y-119365000D03*
X108199000Y-121905000D03*
X108199000Y-124445000D03*
X108199000Y-126985000D03*
X108199000Y-129525000D03*
X123439000Y-129525000D03*
X123439000Y-126985000D03*
X123439000Y-124445000D03*
X123439000Y-121905000D03*
X123439000Y-119365000D03*
X123439000Y-116825000D03*
X123439000Y-114285000D03*
X123439000Y-111745000D03*
X123439000Y-109205000D03*
X123439000Y-106665000D03*
X123439000Y-104125000D03*
X123439000Y-101585000D03*
X123439000Y-99045000D03*
X123439000Y-96505000D03*
%TD*%
D23*
%TO.C,U11*%
X83053000Y-96505000D03*
D24*
X83053000Y-99045000D03*
X83053000Y-101585000D03*
X83053000Y-104125000D03*
X83053000Y-106665000D03*
X83053000Y-109205000D03*
X83053000Y-111745000D03*
X83053000Y-114285000D03*
X83053000Y-116825000D03*
X83053000Y-119365000D03*
X83053000Y-121905000D03*
X83053000Y-124445000D03*
X83053000Y-126985000D03*
X83053000Y-129525000D03*
X98293000Y-129525000D03*
X98293000Y-126985000D03*
X98293000Y-124445000D03*
X98293000Y-121905000D03*
X98293000Y-119365000D03*
X98293000Y-116825000D03*
X98293000Y-114285000D03*
X98293000Y-111745000D03*
X98293000Y-109205000D03*
X98293000Y-106665000D03*
X98293000Y-104125000D03*
X98293000Y-101585000D03*
X98293000Y-99045000D03*
X98293000Y-96505000D03*
%TD*%
D23*
%TO.C,U9*%
X108199000Y-45847000D03*
D24*
X108199000Y-48387000D03*
X108199000Y-50927000D03*
X108199000Y-53467000D03*
X108199000Y-56007000D03*
X108199000Y-58547000D03*
X108199000Y-61087000D03*
X108199000Y-63627000D03*
X108199000Y-66167000D03*
X108199000Y-68707000D03*
X108199000Y-71247000D03*
X108199000Y-73787000D03*
X108199000Y-76327000D03*
X108199000Y-78867000D03*
X108199000Y-81407000D03*
X108199000Y-83947000D03*
X123439000Y-83947000D03*
X123439000Y-81407000D03*
X123439000Y-78867000D03*
X123439000Y-76327000D03*
X123439000Y-73787000D03*
X123439000Y-71247000D03*
X123439000Y-68707000D03*
X123439000Y-66167000D03*
X123439000Y-63627000D03*
X123439000Y-61087000D03*
X123439000Y-58547000D03*
X123439000Y-56007000D03*
X123439000Y-53467000D03*
X123439000Y-50927000D03*
X123439000Y-48387000D03*
X123439000Y-45847000D03*
%TD*%
D23*
%TO.C,U8*%
X83307000Y-45974000D03*
D24*
X83307000Y-48514000D03*
X83307000Y-51054000D03*
X83307000Y-53594000D03*
X83307000Y-56134000D03*
X83307000Y-58674000D03*
X83307000Y-61214000D03*
X83307000Y-63754000D03*
X83307000Y-66294000D03*
X83307000Y-68834000D03*
X83307000Y-71374000D03*
X83307000Y-73914000D03*
X83307000Y-76454000D03*
X83307000Y-78994000D03*
X83307000Y-81534000D03*
X83307000Y-84074000D03*
X98547000Y-84074000D03*
X98547000Y-81534000D03*
X98547000Y-78994000D03*
X98547000Y-76454000D03*
X98547000Y-73914000D03*
X98547000Y-71374000D03*
X98547000Y-68834000D03*
X98547000Y-66294000D03*
X98547000Y-63754000D03*
X98547000Y-61214000D03*
X98547000Y-58674000D03*
X98547000Y-56134000D03*
X98547000Y-53594000D03*
X98547000Y-51054000D03*
X98547000Y-48514000D03*
X98547000Y-45974000D03*
%TD*%
D23*
%TO.C,U7*%
X184145000Y-114295000D03*
D24*
X184145000Y-116835000D03*
X184145000Y-119375000D03*
X184145000Y-121915000D03*
X184145000Y-124455000D03*
X184145000Y-126995000D03*
X184145000Y-129535000D03*
X184145000Y-132075000D03*
X184145000Y-134615000D03*
X184145000Y-137155000D03*
X184145000Y-139695000D03*
X184145000Y-142235000D03*
X199385000Y-142235000D03*
X199385000Y-139695000D03*
X199385000Y-137155000D03*
X199385000Y-134615000D03*
X199385000Y-132075000D03*
X199385000Y-129535000D03*
X199385000Y-126995000D03*
X199385000Y-124455000D03*
X199385000Y-121915000D03*
X199385000Y-119375000D03*
X199385000Y-116835000D03*
X199385000Y-114295000D03*
%TD*%
D25*
%TO.C,X1*%
X51054000Y-141224000D03*
D26*
X66294000Y-141224000D03*
X66294000Y-133604000D03*
X51054000Y-133604000D03*
%TD*%
D18*
%TO.C,J2*%
X131953000Y-144272000D03*
D19*
X131953000Y-141732000D03*
X134493000Y-144272000D03*
X134493000Y-141732000D03*
X137033000Y-144272000D03*
X137033000Y-141732000D03*
X139573000Y-144272000D03*
X139573000Y-141732000D03*
X142113000Y-144272000D03*
X142113000Y-141732000D03*
X144653000Y-144272000D03*
X144653000Y-141732000D03*
X147193000Y-144272000D03*
X147193000Y-141732000D03*
X149733000Y-144272000D03*
X149733000Y-141732000D03*
%TD*%
D27*
%TO.C,H1*%
X235188000Y-130474000D03*
X233188000Y-130474000D03*
X235188000Y-128474000D03*
X233188000Y-128474000D03*
X235188000Y-126474000D03*
X233188000Y-126474000D03*
X235188000Y-124474000D03*
X233188000Y-124474000D03*
X235188000Y-122474000D03*
X233188000Y-122474000D03*
X235188000Y-120474000D03*
X233188000Y-120474000D03*
X235188000Y-118474000D03*
X233188000Y-118474000D03*
X235188000Y-116474000D03*
X233188000Y-116474000D03*
X235188000Y-114474000D03*
X233188000Y-114474000D03*
X235188000Y-112474000D03*
X233188000Y-112474000D03*
X235188000Y-110474000D03*
X233188000Y-110474000D03*
X235188000Y-108474000D03*
X233188000Y-108474000D03*
X235188000Y-106474000D03*
X233188000Y-106474000D03*
X235188000Y-104474000D03*
X233188000Y-104474000D03*
X235188000Y-102474000D03*
X233188000Y-102474000D03*
X235188000Y-100474000D03*
X233188000Y-100474000D03*
X235188000Y-98474000D03*
X233188000Y-98474000D03*
X235188000Y-96474000D03*
X233188000Y-96474000D03*
X235188000Y-94474000D03*
X233188000Y-94474000D03*
X235188000Y-92474000D03*
X233188000Y-92474000D03*
X235188000Y-90474000D03*
X233188000Y-90474000D03*
X235188000Y-88474000D03*
D28*
X233188000Y-88474000D03*
%TD*%
D23*
%TO.C,RN1*%
X213878000Y-101844000D03*
D24*
X213878000Y-104384000D03*
X213878000Y-106924000D03*
X213878000Y-109464000D03*
X213878000Y-112004000D03*
X213878000Y-114544000D03*
X213878000Y-117084000D03*
X213878000Y-119624000D03*
X221498000Y-119624000D03*
X221498000Y-117084000D03*
X221498000Y-114544000D03*
X221498000Y-112004000D03*
X221498000Y-109464000D03*
X221498000Y-106924000D03*
X221498000Y-104384000D03*
X221498000Y-101844000D03*
%TD*%
D29*
%TO.C,D3*%
X177800000Y-55880000D03*
D30*
X177800000Y-53340000D03*
%TD*%
D31*
%TO.C,R20*%
X173990000Y-46710000D03*
X173990000Y-49810000D03*
%TD*%
D29*
%TO.C,D4*%
X177800000Y-46990000D03*
D30*
X177800000Y-49530000D03*
%TD*%
D32*
%TO.C,IC2*%
X194620000Y-71755000D03*
X194620000Y-73025000D03*
X194620000Y-74295000D03*
X194620000Y-75565000D03*
X201620000Y-75565000D03*
X201620000Y-74295000D03*
X201620000Y-73025000D03*
X201620000Y-71755000D03*
%TD*%
D31*
%TO.C,R17*%
X185420000Y-40360000D03*
X185420000Y-43460000D03*
%TD*%
D29*
%TO.C,D5*%
X225298000Y-125984000D03*
D30*
X222758000Y-125984000D03*
%TD*%
D33*
%TO.C,R11*%
X201650000Y-41910000D03*
X204750000Y-41910000D03*
%TD*%
D34*
%TO.C,D1*%
X194092500Y-49530000D03*
X197067500Y-49530000D03*
%TD*%
D31*
%TO.C,R13*%
X189230000Y-40360000D03*
X189230000Y-43460000D03*
%TD*%
D33*
%TO.C,R12*%
X201650000Y-60960000D03*
X204750000Y-60960000D03*
%TD*%
D34*
%TO.C,D2*%
X194092500Y-68580000D03*
X197067500Y-68580000D03*
%TD*%
D35*
%TO.C,J3*%
X225859000Y-60095000D03*
D36*
X228859000Y-55295000D03*
X232109000Y-60095000D03*
%TD*%
D32*
%TO.C,IC1*%
X194620000Y-52705000D03*
X194620000Y-53975000D03*
X194620000Y-55245000D03*
X194620000Y-56515000D03*
X201620000Y-56515000D03*
X201620000Y-55245000D03*
X201620000Y-53975000D03*
X201620000Y-52705000D03*
%TD*%
D30*
%TO.C,S2*%
X232283000Y-45974000D03*
X226983000Y-45974000D03*
%TD*%
D37*
%TO.C,U1*%
X162560000Y-42310000D03*
D38*
X163830000Y-40240000D03*
X165100000Y-42310000D03*
%TD*%
D28*
%TO.C,SW1*%
X159691000Y-48931000D03*
D27*
X166191000Y-48931000D03*
X159691000Y-53431000D03*
X166191000Y-53431000D03*
%TD*%
D39*
%TO.C,R19*%
X173990000Y-56160000D03*
X173990000Y-53060000D03*
%TD*%
D31*
%TO.C,R15*%
X189230000Y-59410000D03*
X189230000Y-62510000D03*
%TD*%
%TO.C,R14*%
X189230000Y-47980000D03*
X189230000Y-51080000D03*
%TD*%
D20*
%TO.C,C28*%
X154901500Y-40894000D03*
X158026500Y-40894000D03*
%TD*%
D40*
%TO.C,L1*%
X197380000Y-43180000D03*
X193780000Y-43180000D03*
%TD*%
D31*
%TO.C,R16*%
X189230000Y-67030000D03*
X189230000Y-70130000D03*
%TD*%
D40*
%TO.C,L2*%
X197380000Y-62230000D03*
X193780000Y-62230000D03*
%TD*%
D31*
%TO.C,R18*%
X185420000Y-59410000D03*
X185420000Y-62510000D03*
%TD*%
M02*
